<?xml version="1.0" encoding="utf-8"?>
<!-- Generator: Adobe Illustrator 21.0.0, SVG Export Plug-In . SVG Version: 6.00 Build 0)  -->
<svg version="1.1" id="Layer_1" xmlns="http://www.w3.org/2000/svg" xmlns:xlink="http://www.w3.org/1999/xlink" x="0px" y="0px"
	 viewBox="0 0 240.9 70.9" style="enable-background:new 0 0 240.9 70.9;" xml:space="preserve">
<style type="text/css">
	.st0{fill-rule:evenodd;clip-rule:evenodd;fill:#FFFFFF;}
</style>
<g>
	<g>
		<g>
			<path class="st0" d="M148.1,44.7c-5,2.6-10,5.1-15,7.7c-2.3,1.2-3.9,0.2-2.6-2.5l2.7-5.3l-0.1,0l-0.2,0l-0.2,0l-0.2,0l-0.2,0
				c-0.2,0-0.4-0.1-0.5-0.1l-0.3-0.1l-0.2,0c-0.1,0-0.2-0.1-0.3-0.1l-0.2-0.1l-0.3-0.1l-0.6-0.3l-0.3-0.1l-0.1-0.1
				c-0.1-0.1-0.2-0.1-0.3-0.2l-0.2-0.1c-0.3-0.2-0.6-0.4-0.9-0.7l0,0c-1.2-1-2.2-2.3-2.7-3.7h2.5l0,0l0.1,0.2l0.1,0.2l0.1,0.2
				l0.1,0.1l0,0l0.1,0.1l0.1,0.1l0.2,0.3l0.2,0.2l0.2,0.2l0.3,0.2l0.2,0.1c0.1,0.1,0.1,0.1,0.2,0.2l0.1,0.1l0.1,0.1l0.1,0.1l0.1,0.1
				l0.1,0.1l0.2,0.1l0.1,0.1l0.1,0l0.1,0l0.1,0.1l0.2,0.1l0.2,0.1l0.3,0.1l0.2,0.1l0.1,0l0.2,0.1l0.2,0l0.2,0l0.3,0.1l0.2,0l0.2,0
				l0.2,0l0.2,0l0.2,0l0.2,0v0h3.5c-1.2,2.5-2.5,4.8-3.8,7.3c5.1-2.6,9.2-4.7,14.2-7.3c18.9,0,37.8,0,56.7,0l0.2,0l0.2,0l0.2,0
				l0.2,0l0.1,0l0.2,0l0.2,0l0.2,0l0.1,0l0,0c0.6-0.1,1.2-0.4,1.8-0.7l0.2-0.1c0.3-0.2,0.6-0.4,0.9-0.6v0l0,0l0,0l0,0l0,0l0,0l0,0
				l0,0l0,0l0,0l0,0l0,0l0,0l0,0c0.1-0.1,0.2-0.2,0.3-0.3l0,0l0.1-0.1l0,0l0.1-0.1l0,0l0,0l0,0l0.1-0.1l0.1-0.1
				c0.1-0.1,0.1-0.1,0.2-0.2l0.1-0.1l0.1-0.1l0,0l0.1-0.1l0,0l0-0.1l0.1-0.1l0,0l0,0l0.1-0.1l0,0l0.1-0.1l0,0l0.1-0.1l0,0l0.1-0.1
				c0.6-1,0.9-2.2,0.9-3.5v-2.1v-6.6v-4.8c0-3.9-3.2-7.1-7.2-7.1l-70.4,3.6l-0.2,0l-0.2,0l-0.1,0l-0.1,0l-0.2,0l-0.2,0l-0.2,0
				l-0.2,0l-0.2,0l-0.1,0l-0.3,0.1l-0.1,0l-0.1,0l-0.2,0.1l-0.2,0.1c-1.6,0.6-2.9,1.7-3.8,3.2H125c1.1-2.7,3.3-4.7,6.2-5.5l0,0
				c0.1,0,0.3-0.1,0.4-0.1l0,0c0.3-0.1,0.6-0.1,0.9-0.2l0.3,0l0.2,0l0.2,0c0.2,0,0.3,0,0.5,0l70.4-3.6c5.2,0,9.4,4.2,9.4,9.4v4.8
				v6.6v2.1c0,1.8-0.5,3.5-1.4,5h0l-0.1,0.1l0,0.1l0,0.1l0,0.1l-0.1,0.1l0,0l-0.1,0.1l0,0l-0.1,0.2l0,0l0,0
				c-0.1,0.1-0.2,0.2-0.3,0.3l0,0l-0.1,0.2l0,0l0,0c-0.1,0.2-0.3,0.3-0.4,0.4l-0.1,0.1l0,0l-0.1,0.1l0,0l-0.2,0.1l0,0l-0.1,0.1l0,0
				l0,0l-0.1,0.1l0,0l0,0l-0.1,0.1l0,0l-0.1,0l-0.2,0.1l-0.1,0.1l0,0l-0.1,0l-0.1,0l0,0l-0.1,0l-0.2,0.1l0,0l0,0l-0.1,0.1l0,0
				l-0.1,0l-0.1,0.1l-0.2,0.1l-0.2,0.1l-0.1,0.1l0,0l0,0l0,0l0,0l0,0l0,0l0,0l0,0l0,0l0,0l0,0l0,0l0,0l0,0l0,0l0,0l0,0l0,0l0,0l0,0
				l0,0l0,0l0,0l0,0l0,0l0,0l0,0l0,0l0,0l0,0l0,0l0,0l0,0l0,0l0,0l0,0l-0.2,0.1l-0.1,0l-0.1,0.1l-0.1,0l0,0l0,0l-0.2,0.1l0,0
				l-0.2,0.1l0,0l-0.2,0.1l0,0l-0.1,0l-0.1,0l-0.2,0l-0.1,0l-0.1,0l-0.1,0l-0.1,0l-0.1,0l-0.1,0l-0.1,0l-0.1,0l0,0v0l-0.1,0l-0.2,0
				l-0.2,0l-0.3,0l-0.2,0c-0.1,0-0.2,0-0.2,0l-0.2,0C185.5,44.7,166.8,44.7,148.1,44.7z"/>
			<path class="st0" d="M196.5,50.9c5,2.6,9.2,4.7,14.2,7.3c2.3,1.2,3.9,0.2,2.6-2.5l-2.7-5.3l0.1,0l0.2,0l0.2,0l0.2,0l0.2,0
				c0.2,0,0.4-0.1,0.5-0.1l0.3-0.1l0.2,0c0.1,0,0.2-0.1,0.3-0.1l0.2-0.1l0.3-0.1l0.6-0.3l0.3-0.1l0.1-0.1c0.1-0.1,0.2-0.1,0.3-0.2
				l0.2-0.1c0.3-0.2,0.6-0.4,0.9-0.7l0,0c2.2-1.8,3.4-4.5,3.4-7.3v-9.9c0-0.5,0-1.1-0.1-1.6c-0.4-2.4-1.8-4.6-3.7-6
				c0.1,0.6,0.1,1.2,0.1,1.8v9.9c0,2.2-0.6,4.3-1.8,6.1l-0.2,0.3l-0.2,0.2l-0.1,0.2l-0.2,0.3c-0.1,0.1-0.2,0.3-0.3,0.4l-0.2,0.2
				c-0.2,0.2-0.3,0.4-0.5,0.6l-0.2,0.1l-0.2,0.2l-0.2,0.2l-0.2,0.1l-0.2,0.2l-0.2,0.2l-0.2,0.2l-0.2,0.1l-0.2,0.1l-0.2,0.1l-0.3,0.1
				l-0.2,0.1l-0.2,0.1l-0.2,0.1l-0.1,0.1l-0.1,0l-0.2,0.1l-0.1,0.1l-0.3,0.1l-0.3,0.1l-0.3,0.1l-0.2,0.1l-0.3,0.1l-0.2,0l-0.2,0.1
				l-0.2,0l-0.3,0.1l-0.3,0l-0.3,0l-0.3,0l-0.3,0l-0.3,0l-0.2,0c-0.1,0-0.2,0-0.3,0l-0.3,0c-18.5,0-37.1,0-55.6,0l-11.4,5.9
				L196.5,50.9z"/>
		</g>
		<path class="st0" d="M29.5,31.3c0-0.1,0-0.3,0-0.4v-5.1c0-0.4,0.1-0.7,0.3-1c0.3-0.3,0.7-0.3,1-0.3h2.3v2.3h-1c0,0,0,0-0.1,0
			c0,0,0,0,0,0.1v9.3h-2.3l-4.3-6.3c-0.1-0.2-0.2-0.4-0.3-0.5c0,0.1,0,0.3,0,0.4v5.1c0,0.4-0.1,0.7-0.3,1c-0.3,0.3-0.7,0.3-1,0.3
			h-2.3v-2.3h1c0,0,0,0,0.1,0c0,0,0,0,0-0.1v-9.3h2.3l4.3,6.3C29.2,30.9,29.3,31.1,29.5,31.3L29.5,31.3z M35.3,35.1
			c-0.9-0.9-1.4-1.9-1.4-3.2c0-1.3,0.4-2.3,1.4-3.2c0.9-0.9,2-1.3,3.3-1.3c1.3,0,2.4,0.4,3.3,1.3c0.9,0.9,1.4,1.9,1.4,3.2
			c0,1.3-0.4,2.3-1.4,3.2c-0.9,0.9-2.1,1.3-3.3,1.3C37.4,36.4,36.2,36,35.3,35.1L35.3,35.1z M45.1,29.7h-1v-2.1h1.1v-2.2h2.5v2.2
			h1.8v2.1h-1.8v3c0,0.3,0.1,0.8,0.4,1c0.3,0.2,0.6,0.3,0.9,0.3l0.7-0.1v2.3l-0.2,0c-0.2,0-0.4,0.1-0.7,0.1c-0.3,0-0.6,0-0.8-0.1
			c-0.3,0-0.6-0.1-0.9-0.3c-0.3-0.1-0.6-0.3-0.9-0.5c-0.3-0.3-0.5-0.6-0.7-1c-0.2-0.5-0.3-1-0.3-1.5V29.7L45.1,29.7z M50.4,34.4
			l1.5-1.9l0.2,0.2c0,0,0.1,0.1,0.1,0.1c0.1,0.1,0.2,0.2,0.3,0.3c0.2,0.1,0.4,0.3,0.5,0.4c0.2,0.1,0.5,0.2,0.7,0.3
			c0.3,0.1,0.5,0.1,0.8,0.1c0.4,0,0.7-0.1,1-0.3c0.2-0.2,0.4-0.4,0.4-0.7c0-0.2-0.1-0.4-0.2-0.5c-0.2-0.2-0.4-0.4-0.7-0.5
			c-0.3-0.2-0.7-0.3-1-0.5c-0.4-0.2-0.8-0.4-1.1-0.6c-0.4-0.2-0.7-0.4-1.1-0.7c-0.4-0.3-0.6-0.6-0.8-1c-0.2-0.4-0.3-0.9-0.3-1.4
			c0-1,0.4-1.8,1.1-2.5c0.8-0.7,1.8-1,2.8-1c0.5,0,1,0.1,1.5,0.2c0.5,0.1,1,0.4,1.4,0.8c0.4,0.4,0.7,0.9,0.7,1.5v1.3h-2.4v-0.8
			c0-0.2-0.2-0.3-0.3-0.4c-0.3-0.2-0.6-0.2-0.9-0.2c-0.4,0-0.7,0.1-1,0.3c-0.2,0.2-0.3,0.4-0.3,0.6c0,0.2,0.1,0.4,0.2,0.5
			c0.2,0.2,0.4,0.4,0.7,0.5c0.3,0.2,0.7,0.3,1,0.5c0.4,0.2,0.8,0.3,1.1,0.5c0.4,0.2,0.7,0.4,1.1,0.7c0.4,0.3,0.6,0.6,0.8,1.1
			c0.2,0.5,0.3,0.9,0.3,1.5c0,1-0.4,1.8-1.1,2.5c-0.8,0.8-1.8,1-2.9,1c-0.5,0-1-0.1-1.4-0.2c-0.4-0.1-0.8-0.3-1.1-0.5
			c-0.3-0.2-0.5-0.3-0.8-0.5c-0.2-0.1-0.4-0.3-0.5-0.5L50.4,34.4L50.4,34.4z M61,35.1c-0.9-0.9-1.4-1.9-1.4-3.2
			c0-1.3,0.4-2.3,1.4-3.2c0.9-0.9,2-1.3,3.3-1.3c1.3,0,2.4,0.4,3.3,1.3c0.9,0.9,1.4,1.9,1.4,3.2c0,1.3-0.4,2.3-1.4,3.2
			c-0.9,0.9-2.1,1.3-3.3,1.3C63.1,36.4,62,36,61,35.1L61,35.1z M73.2,28.5c0.2-0.2,0.4-0.4,0.6-0.5c0.5-0.4,1.1-0.6,1.7-0.6
			c1.1,0,1.9,0.4,2.4,1.3c0.2-0.3,0.6-0.6,0.9-0.8c0.5-0.4,1.1-0.5,1.8-0.5c2.1,0,2.9,1.4,2.9,3.3v3.1c0,0,0,0,0,0.1c0,0,0,0,0.1,0
			h0.9v2.2h-2.2c-0.4,0-0.7-0.1-1-0.3c-0.3-0.3-0.3-0.7-0.3-1v-3.7c0-0.3,0-0.8-0.2-1.1c-0.1-0.2-0.4-0.3-0.6-0.3
			c-0.4,0-0.7,0.2-1,0.4c-0.3,0.3-0.5,0.7-0.6,1.2l0,0c-0.1,0.3-0.1,0.6-0.1,0.9v3.8h-2.5v-5c0-0.3,0-0.8-0.2-1.1
			c-0.1-0.2-0.4-0.3-0.6-0.3c-0.4,0-0.7,0.1-1,0.4c-0.3,0.3-0.5,0.8-0.6,1.2c-0.1,0.3-0.1,0.6-0.1,0.9v3.8h-2.5v-6.2c0,0,0,0,0-0.1
			c0,0,0,0-0.1,0h-0.9v-2.3h2.1C72.6,27.6,73.1,27.9,73.2,28.5L73.2,28.5z M87.9,32.5c0.1,0.4,0.3,0.8,0.6,1.1
			c0.4,0.3,0.9,0.5,1.4,0.5c0.4,0,0.7-0.1,1-0.2c0.2-0.1,0.6-0.2,0.8-0.4l0.5-0.4l1.1,1.8l-0.2,0.2c0,0-0.1,0.1-0.1,0.1
			c-0.1,0.1-0.3,0.2-0.5,0.3c-0.2,0.1-0.5,0.3-0.7,0.4c-0.3,0.1-0.6,0.2-0.9,0.3c-0.4,0.1-0.8,0.1-1.2,0.1c-1.3,0-2.4-0.4-3.3-1.3
			c-0.9-0.9-1.3-1.9-1.3-3.2c0-1.2,0.4-2.3,1.2-3.2c0.8-0.9,1.9-1.3,3.1-1.3c1.1,0,2.1,0.3,2.8,1.2c0.7,0.8,1,1.8,1,2.9l-0.1,1H87.9
			L87.9,32.5z M94.3,32.6v-0.9h2.6v0.7c0,0.4,0.1,0.9,0.3,1.1c0.2,0.2,0.5,0.3,0.8,0.3c0.3,0,0.6-0.1,0.8-0.3
			c0.3-0.3,0.3-0.7,0.3-1.1v-5.7c0,0,0,0,0-0.1c0,0,0,0-0.1,0h-3v-2.3h4.3c0.9,0,1.3,0.5,1.3,1.3v6.8c0,1.1-0.3,2.1-1.1,2.8
			c-0.8,0.7-1.7,1-2.7,1c-1,0-1.9-0.3-2.6-1C94.6,34.7,94.3,33.7,94.3,32.6L94.3,32.6z M104.7,35.1c-0.9-0.9-1.4-1.9-1.4-3.2
			c0-1.3,0.4-2.3,1.4-3.2c0.9-0.9,2-1.3,3.3-1.3c1.3,0,2.4,0.4,3.3,1.3c0.9,0.9,1.4,1.9,1.4,3.2c0,1.3-0.4,2.3-1.4,3.2
			c-0.9,0.9-2.1,1.3-3.3,1.3C106.8,36.4,105.7,36,104.7,35.1L104.7,35.1z M116.8,28.1c0.1-0.1,0.3-0.2,0.4-0.3
			c0.2-0.1,0.5-0.2,0.7-0.3c0.3-0.1,0.6-0.1,1-0.1c1.1,0,2.1,0.4,2.8,1.3c0.8,0.9,1,2,1,3.2c0,1.2-0.3,2.3-1.1,3.2
			c-0.8,0.8-1.7,1.2-2.9,1.2c-0.5,0-1-0.1-1.5-0.3c-0.2-0.1-0.5-0.2-0.7-0.4v0.5h-2.4v-9.4c0,0,0,0,0-0.1c0,0,0,0-0.1,0h-0.9v-2.3
			h2.2c0.9,0,1.3,0.5,1.3,1.3L116.8,28.1L116.8,28.1z M124.7,26.8h-1v-2.3h5.1c1,0,1.9,0.2,2.7,0.8c0.7,0.6,1.1,1.4,1.1,2.3
			c0,0.6-0.1,1.1-0.4,1.6c-0.2,0.3-0.4,0.5-0.6,0.7c0.4,0.2,0.7,0.5,1,0.9c0.3,0.5,0.5,1.1,0.5,1.8c0,1.1-0.3,2-1.2,2.6
			c-0.8,0.6-1.9,0.9-2.9,0.9h-2.8c-0.4,0-0.7-0.1-1-0.3c-0.3-0.3-0.3-0.7-0.3-1V26.8L124.7,26.8z M135.4,35.1
			c-0.9-0.9-1.4-1.9-1.4-3.2c0-1.3,0.4-2.3,1.4-3.2c0.9-0.9,2-1.3,3.3-1.3c1.3,0,2.4,0.4,3.3,1.3c0.9,0.9,1.4,1.9,1.4,3.2
			c0,1.3-0.4,2.3-1.4,3.2c-0.9,0.9-2.1,1.3-3.3,1.3C137.4,36.4,136.3,36,135.4,35.1L135.4,35.1z M149.2,30.6c0-0.3-0.1-0.6-0.3-0.8
			c-0.2-0.2-0.6-0.3-0.9-0.3c-0.2,0-0.4,0-0.6,0.1c-0.1,0-0.2,0.1-0.2,0.2v0.7h-2.4v-1.1c0-0.4,0.1-0.8,0.4-1.1
			c0.3-0.3,0.6-0.5,1-0.6c0.3-0.1,0.7-0.2,1-0.2c0.3,0,0.6-0.1,0.9-0.1c2.3,0,3.7,1.1,3.7,3.5v3c0,0,0,0,0,0.1c0,0,0,0,0.1,0h0.9
			v2.2h-2.1c-0.3,0-0.7-0.1-1-0.3c-0.1-0.1-0.2-0.3-0.3-0.4c-0.1,0.1-0.3,0.3-0.4,0.4c-0.2,0.2-0.5,0.3-0.8,0.4
			c-0.3,0.1-0.7,0.2-1,0.2c-0.8,0-1.5-0.2-2.1-0.7c-0.6-0.5-0.9-1.2-0.9-2c0-0.4,0.1-0.8,0.3-1.2c0.2-0.4,0.5-0.6,0.8-0.9
			c0.3-0.2,0.6-0.4,1-0.5c0.4-0.1,0.8-0.2,1.1-0.3c0.3,0,0.7-0.1,1-0.1C148.7,30.6,149,30.6,149.2,30.6L149.2,30.6z M156.8,28.7
			c0.1-0.2,0.3-0.4,0.5-0.5c0.5-0.4,1.1-0.6,1.8-0.6h0l0.6,0.1v2.5l-0.3,0c-0.1,0-0.3,0-0.4,0c-0.4,0-0.8,0.1-1.2,0.4
			c-0.4,0.3-0.6,0.7-0.8,1.1c-0.1,0.4-0.2,0.8-0.2,1.2v3.4h-2.5v-6.2c0,0,0,0,0-0.1c0,0,0,0-0.1,0h-0.9v-2.3h2.1
			C156.2,27.6,156.7,28,156.8,28.7L156.8,28.7z M166.1,28v-1.2c0,0,0,0,0-0.1c0,0,0,0-0.1,0h-0.9v-2.3h2.2c0.9,0,1.3,0.5,1.3,1.3v8
			c0,0,0,0,0,0.1c0,0,0,0,0.1,0h0.9v2.2h-2.1c-0.6,0-1.1-0.2-1.2-0.7c-0.1,0.1-0.3,0.3-0.5,0.4c-0.2,0.2-0.5,0.3-0.8,0.3
			c-0.3,0.1-0.7,0.2-1,0.2c-1.1,0-2.1-0.4-2.8-1.3c-0.8-0.9-1-2-1-3.2c0-1.2,0.3-2.3,1.1-3.2c0.7-0.8,1.7-1.2,2.8-1.2
			c0.3,0,0.7,0,1,0.1c0.2,0.1,0.5,0.1,0.7,0.3C165.9,27.9,166,27.9,166.1,28L166.1,28z M171,36.2v-2.5h2.5v2.5H171L171,36.2z
			 M174.8,31.9c0-1.2,0.4-2.3,1.3-3.2c0.9-0.9,2.1-1.3,3.4-1.3c0.4,0,0.9,0.1,1.3,0.2c0.5,0.1,0.9,0.3,1.3,0.6
			c0.4,0.3,0.6,0.8,0.6,1.3v1.2h-2.3V30c0-0.1-0.1-0.2-0.2-0.2c-0.2-0.1-0.4-0.1-0.7-0.1c-0.6,0-1.1,0.2-1.5,0.6
			c-0.4,0.4-0.6,1-0.6,1.6c0,0.6,0.2,1.2,0.6,1.6c0.5,0.4,1,0.6,1.6,0.6c0.4,0,0.7-0.1,1.1-0.2c0.3-0.1,0.6-0.3,0.8-0.5l0.5-0.5
			l1.1,1.8l-0.1,0.1c0,0.1-0.1,0.1-0.2,0.2c-0.1,0.1-0.3,0.3-0.4,0.4c-0.2,0.2-0.5,0.3-0.7,0.5c-0.3,0.2-0.7,0.3-1,0.4
			c-0.4,0.1-0.8,0.2-1.3,0.2c-1.3,0-2.4-0.4-3.3-1.3C175.2,34.2,174.8,33.1,174.8,31.9L174.8,31.9z M185.1,35.1
			c-0.9-0.9-1.4-1.9-1.4-3.2c0-1.3,0.4-2.3,1.4-3.2c0.9-0.9,2-1.3,3.3-1.3c1.3,0,2.4,0.4,3.3,1.3c0.9,0.9,1.4,1.9,1.4,3.2
			c0,1.3-0.4,2.3-1.4,3.2c-0.9,0.9-2.1,1.3-3.3,1.3C187.1,36.4,186,36,185.1,35.1L185.1,35.1z M197.2,28.5c0.2-0.2,0.4-0.4,0.6-0.5
			c0.5-0.4,1.1-0.6,1.7-0.6c1.1,0,1.9,0.4,2.4,1.3c0.2-0.3,0.5-0.6,0.9-0.8c0.5-0.4,1.1-0.5,1.8-0.5c2.1,0,2.9,1.4,2.9,3.3v3.1
			c0,0,0,0,0,0.1c0,0,0,0,0.1,0h0.9v2.2h-2.2c-0.4,0-0.7-0.1-1-0.3c-0.3-0.3-0.3-0.7-0.3-1v-3.7c0-0.3,0-0.8-0.2-1.1
			c-0.1-0.2-0.4-0.3-0.6-0.3c-0.4,0-0.7,0.2-1,0.4c-0.3,0.3-0.5,0.7-0.6,1.2l0,0c-0.1,0.3-0.1,0.6-0.1,0.9v3.8h-2.5v-5
			c0-0.3,0-0.8-0.2-1.1c-0.1-0.2-0.4-0.3-0.6-0.3c-0.4,0-0.7,0.1-1,0.4c-0.3,0.3-0.5,0.8-0.6,1.2c-0.1,0.3-0.1,0.6-0.1,0.9v3.8h-2.5
			v-6.2c0,0,0,0,0-0.1c0,0,0,0-0.1,0h-0.9v-2.3h2.1C196.6,27.6,197.1,27.9,197.2,28.5L197.2,28.5z M36.5,31.9c0,0.6,0.2,1.2,0.6,1.6
			c0.4,0.4,0.9,0.6,1.5,0.6c0.6,0,1.1-0.2,1.5-0.6c0.4-0.4,0.6-1,0.6-1.6c0-0.6-0.2-1.2-0.6-1.6c-0.4-0.4-0.9-0.6-1.5-0.6
			c-0.6,0-1.1,0.2-1.5,0.6C36.7,30.7,36.5,31.3,36.5,31.9L36.5,31.9z M62.3,31.9c0,0.6,0.2,1.2,0.6,1.6c0.4,0.4,0.9,0.6,1.5,0.6
			c0.6,0,1.1-0.2,1.5-0.6c0.4-0.4,0.6-1,0.6-1.6c0-0.6-0.2-1.2-0.6-1.6c-0.4-0.4-0.9-0.6-1.5-0.6c-0.6,0-1.1,0.2-1.5,0.6
			C62.4,30.7,62.3,31.3,62.3,31.9L62.3,31.9z M88,30.6h2.8c0-0.3-0.2-0.5-0.3-0.7c-0.2-0.2-0.5-0.4-0.9-0.4c-0.4,0-0.8,0.1-1.1,0.4
			C88.2,30.1,88.1,30.3,88,30.6L88,30.6z M105.9,31.9c0,0.6,0.2,1.2,0.6,1.6c0.4,0.4,0.9,0.6,1.5,0.6c0.6,0,1.1-0.2,1.5-0.6
			c0.4-0.4,0.6-1,0.6-1.6c0-0.6-0.2-1.2-0.6-1.6c-0.4-0.4-0.9-0.6-1.5-0.6c-0.6,0-1.1,0.2-1.5,0.6C106.1,30.7,105.9,31.3,105.9,31.9
			L105.9,31.9z M116.7,31.9c0,0.6,0.1,1.1,0.5,1.6c0.3,0.4,0.7,0.6,1.2,0.6c0.5,0,0.9-0.2,1.2-0.6c0.4-0.5,0.5-1,0.5-1.6
			c0-0.6-0.1-1.2-0.5-1.6c-0.3-0.4-0.7-0.6-1.2-0.6c-0.5,0-0.9,0.2-1.2,0.5C116.8,30.7,116.7,31.3,116.7,31.9L116.7,31.9z M127.3,29
			h1.5c0.3,0,0.6-0.1,0.8-0.3c0.2-0.2,0.3-0.5,0.3-0.8c0-0.3-0.1-0.6-0.3-0.8c-0.2-0.2-0.5-0.3-0.8-0.3h-1.4V29L127.3,29z
			 M127.3,31.2v2.6c0,0,0,0,0,0.1c0,0,0,0,0.1,0h1.6c0.4,0,0.7-0.1,1-0.4c0.3-0.3,0.3-0.6,0.3-1c0-0.4-0.1-0.7-0.3-1
			c-0.3-0.3-0.6-0.4-0.9-0.4H127.3L127.3,31.2z M136.6,31.9c0,0.6,0.2,1.2,0.6,1.6c0.4,0.4,0.9,0.6,1.5,0.6c0.6,0,1.1-0.2,1.5-0.6
			c0.4-0.4,0.6-1,0.6-1.6c0-0.6-0.2-1.2-0.6-1.6c-0.4-0.4-0.9-0.6-1.5-0.6c-0.6,0-1.1,0.2-1.5,0.6C136.8,30.7,136.6,31.3,136.6,31.9
			L136.6,31.9z M149.3,32.5L149.3,32.5c-0.7,0-2.5,0-2.5,1c0,0.2,0.1,0.4,0.2,0.5c0.2,0.2,0.5,0.2,0.7,0.2c0.5,0,0.8-0.2,1.1-0.6
			C149.1,33.3,149.3,32.9,149.3,32.5L149.3,32.5z M164.4,34.1c0.5,0,0.9-0.2,1.2-0.5c0.4-0.4,0.5-1.1,0.5-1.7c0-0.6-0.1-1.1-0.5-1.6
			c-0.3-0.4-0.7-0.6-1.2-0.6c-0.5,0-0.9,0.2-1.2,0.6c-0.4,0.5-0.5,1-0.5,1.6c0,0.6,0.1,1.2,0.5,1.6
			C163.5,33.9,163.9,34.1,164.4,34.1L164.4,34.1z M186.3,31.9c0,0.6,0.2,1.2,0.6,1.6c0.4,0.4,0.9,0.6,1.5,0.6c0.6,0,1.1-0.2,1.5-0.6
			c0.4-0.4,0.6-1,0.6-1.6c0-0.6-0.2-1.2-0.6-1.6c-0.4-0.4-0.9-0.6-1.5-0.6c-0.6,0-1.1,0.2-1.5,0.6C186.5,30.7,186.3,31.3,186.3,31.9
			z"/>
	</g>
</g>
</svg>
