<?xml version="1.0" encoding="utf-8"?>
<!-- Generator: Adobe Illustrator 21.0.0, SVG Export Plug-In . SVG Version: 6.00 Build 0)  -->
<svg version="1.1" id="Layer_1" xmlns="http://www.w3.org/2000/svg" xmlns:xlink="http://www.w3.org/1999/xlink" x="0px" y="0px"
	 viewBox="0 0 137.8 97.2" style="enable-background:new 0 0 137.8 97.2;" xml:space="preserve">
<style type="text/css">
	.st0{fill:#ED1651;}
	.st1{fill:#F05B72;}
	.st2{fill:#849DAA;}
	.st3{fill:#CA6C38;}
	.st4{fill:#F9AA8F;}
	.st5{fill:#FCD3C1;}
	.st6{clip-path:url(#SVGID_2_);}
	.st7{fill:#485E88;}
	.st8{fill:#FFF685;}
	.st9{fill:#006633;}
	.st10{fill:#78DE21;}
	.st11{fill:#00AB29;}
	.st12{fill:#231F20;}
	.st13{fill:#FFFFFF;}
</style>
<g>
	<path class="st0" d="M77.4,62.9c-1.3-1.2-4.7-0.7-5.8,0.2c-0.2-0.1,0-0.5-0.2-0.6c-0.9-1.4-2.2-2.1-3.7-3c-2.2-1.3-6.1-0.5-9.4-0.8
		c-0.8-0.1-1.8-0.3-2.6-0.4c-0.9-0.2-1.9-0.2-2.6-0.6c-0.2-0.1-0.3-0.3-0.5-0.5c-0.2-0.1-0.5-0.2-0.6-0.3c-0.4-0.3-0.7-0.7-1.1-0.8
		c-0.6-0.9-1.4-1.6-1.8-2.7c4-2.3,8.9-3.7,15.1-3.8c-1.2,0.7-2.9,0.8-3.7,1.9c0.3,0,0.7-0.2,1.2-0.4c3.8-1.4,9.3-3.3,14.2-1.8
		c0.3,0.1,0.2-0.3,0.5-0.2c0.9,0.1,1.5,0.6,2,1.3c0.5,0.8,0.8,2,0.8,3.2C79.1,56.8,77.9,60.2,77.4,62.9L77.4,62.9z"/>
	<path class="st1" d="M77.7,42c-0.5,2.1-0.2,4.7-0.3,7c-0.8-0.8-1.7-1.5-2.7-2.3c0-1.6,0.1-3.2,0.1-4.6c0-0.3-0.1-0.3,0-0.6
		c0,0.1-0.1,0.1-0.1,0.2c-0.3,1.5-0.3,3.2-0.3,4.8c-0.5-0.4-1-0.8-1.6-1.2c-0.4-0.3-0.7-0.6-1.1-0.8c0-0.9,0-1.8,0.1-2.7
		c0-0.3-0.1-0.3-0.1-0.6c0,0.1-0.1,0.1-0.1,0.2c-0.2,0.9-0.3,1.9-0.3,2.9c-0.9-0.6-1.8-1.2-2.6-1.8c0-0.4,0-0.7,0-1.1
		c0-0.3-0.1-0.3,0-0.6c0,0.1-0.1,0.1-0.1,0.2c-0.1,0.4-0.2,0.9-0.2,1.3c-0.9-0.6-1.8-1.2-2.7-1.7c0,0,0-0.1,0-0.2l-0.1,0.1
		c-2-1.2-3.9-2.3-5.7-3.4c-0.3-0.2-0.3-0.1-0.6-0.3c0,0.1,0.1,0.1,0.1,0.2c1.7,1.5,4.1,2.5,6.1,3.8c-0.2,0.9-0.2,1.9-0.2,2.9
		c-0.9-0.6-1.8-1.1-2.7-1.6c0-0.5,0-1.1,0-1.6c0-0.3-0.1-0.3,0-0.6c0,0.1-0.1,0.1-0.1,0.2c-0.1,0.6-0.2,1.2-0.2,1.8
		c-0.9-0.5-1.8-1.1-2.7-1.6l0-0.2c0-0.3-0.1-0.3,0-0.6c0,0.1-0.1,0.1-0.1,0.2c0,0.2-0.1,0.4-0.1,0.5c-0.5-0.3-0.9-0.5-1.3-0.8
		c-0.3-0.2-0.3-0.1-0.6-0.3c0,0.1,0.1,0.1,0.1,0.2c0.5,0.5,1.1,0.9,1.8,1.3c-0.1,0.9-0.1,1.9-0.1,2.9c-0.9-0.5-1.8-1.1-2.7-1.6
		c0-0.8,0-1.5,0.1-2.2c0-0.3-0.1-0.3,0-0.6c0,0.1-0.1,0.1-0.1,0.2c-0.2,0.8-0.2,1.6-0.3,2.4c-0.2-0.1-0.3-0.1-0.5-0.3
		c0,0.1,0.1,0.1,0.1,0.2c0.1,0.1,0.3,0.2,0.4,0.4c0,1,0,2.1,0,3.1c-0.6-0.4-1.2-0.7-1.8-1.1c-0.3-0.2-0.3-0.1-0.6-0.3
		c0,0.1,0.1,0.1,0.1,0.2c0.7,0.6,1.5,1.1,2.3,1.6c0,0.5-0.1,1.1-0.1,1.6c-0.1,0.4-0.1,0.9-0.2,1.3c-0.9-0.5-1.7-1-2.5-1.5
		c0.1-2.7,0.1-5.2,0.2-7.6c0-0.3-0.1-0.3,0-0.6c0,0.1-0.1,0.1-0.1,0.2c-0.5,2.4-0.1,5.3-0.4,7.8c-0.2-0.1-0.3-0.2-0.5-0.3
		C52,46.1,52,46.2,51.7,46c0,0.1,0.1,0.1,0.1,0.2c0.3,0.3,0.6,0.5,0.9,0.7c-0.1,1-0.2,1.9-0.3,2.9c-0.7-0.4-1.4-0.8-2-1.2
		c-0.3-0.2-0.3-0.1-0.6-0.3c0,0.1,0.1,0.1,0.1,0.2c0.7,0.6,1.6,1.2,2.5,1.7c-0.1,0.9-0.2,1.9-0.3,2.8c-1.2-0.7-2.4-1.4-3.5-2.1
		c-0.3-0.2-0.3-0.1-0.6-0.3c0,0.1,0.1,0.1,0.1,0.2c1.1,1,2.6,1.8,4,2.6c0,0.1,0,0.2,0,0.3c-0.1,0.9-0.3,1.7-0.4,2.5
		c-1.7-1-3.4-2-4.9-2.9c-0.3-0.2-0.3-0.1-0.6-0.3c0,0.1,0.1,0.1,0.1,0.2c1.5,1.3,3.5,2.3,5.3,3.3c-0.2,0.9-0.3,1.8-0.5,2.7
		c-2.2-1.3-4.3-2.5-6.2-3.7c-0.3-0.2-0.3-0.1-0.6-0.3c0,0.1,0.1,0.1,0.1,0.2c1.8,1.6,4.5,2.7,6.6,4.1c-0.5,2.5-1.2,4.9-2,7.6
		c0.7-1.4,1.7-4.1,2.4-7.3c0.7,0.5,1.5,1.1,2.2,1.6c-0.5,2-1,3.9-1.6,6.1c0.6-1.2,1.4-3.3,2.1-5.8c0.8,0.5,1.5,1,2.3,1.6
		c-0.4,1.5-0.8,3-1.3,4.7c0.5-0.9,1.1-2.5,1.6-4.4c0.2,0.1,0.4,0.3,0.5,0.4c0.6,0.4,1.2,0.9,1.7,1.3c-0.3,1-0.5,2-0.8,3
		c0.4-0.7,0.7-1.6,1.1-2.8c0.8,0.6,1.5,1.3,2.3,1.9c-0.1,0.4-0.2,0.9-0.4,1.3c0.2-0.3,0.4-0.7,0.5-1.2c2.1,1.8,4.1,3.7,6.3,5.8
		c-1-1.4-3.3-3.8-6.1-6.4c0.3-0.7,0.6-1.6,0.8-2.5c0.8,0.6,1.5,1.3,2.2,1.9c-0.2,0.9-0.5,1.8-0.7,2.7c0.3-0.6,0.7-1.4,1-2.4
		c0.8,0.7,1.5,1.4,2.3,2.1c-0.1,0.3-0.1,0.5-0.2,0.8c0.1-0.2,0.2-0.4,0.3-0.7c0.7,0.7,1.5,1.4,2.3,2.2c-0.5-0.7-1.2-1.5-2.1-2.5
		c0.3-0.7,0.6-1.6,1-2.7c0.7,0.7,1.4,1.4,2.2,2.1c-0.2,0.7-0.4,1.3-0.6,2c0.2-0.5,0.5-1.1,0.8-1.8c0.2,0.2,0.4,0.4,0.6,0.6
		c-0.2-0.2-0.4-0.5-0.6-0.8c0.3-0.9,0.6-1.9,1-3c0.5,0.5,1,0.9,1.5,1.4c-0.3-0.5-0.8-1.1-1.4-1.7c0.3-0.9,0.5-1.9,0.8-3
		c0.7,0.7,1.4,1.3,2.1,2c-0.5,2.1-1.1,4.3-1.7,6.6c0.9-1.7,2.1-5.4,2.9-9.6c0.3,0.3,0.7,0.6,1,1c-0.2-0.4-0.6-0.8-1-1.2
		c0.2-1.1,0.4-2.1,0.6-3.3c0.7,0.7,1.5,1.4,2.3,2.2c-0.5-0.7-1.2-1.6-2.2-2.6c0.2-1.1,0.3-2.2,0.4-3.2c1.2,1.1,2.4,2.3,3.7,3.5
		c-0.7-1-2-2.5-3.7-4.1c0.1-1.1,0.1-2.2,0.2-3.2c1.8,1.5,3.5,3.2,5.4,5c-0.9-1.3-2.8-3.4-5.3-5.7c0.1-2.4,0.1-4.7,0.2-6.8
		c0-0.3-0.1-0.3,0-0.6C77.8,41.9,77.7,41.9,77.7,42L77.7,42z M77.3,49.6c0,0.1,0,0.2,0,0.2c-0.1,0.9-0.2,1.9-0.3,2.8
		c-0.7-0.7-1.6-1.4-2.4-2.2c0-1,0.1-2.1,0.1-3.1C75.6,48.1,76.5,48.8,77.3,49.6L77.3,49.6z M76.9,53.2c-0.1,1.1-0.2,2.1-0.3,3.2
		c-0.7-0.7-1.4-1.4-2.3-2.2c0.1-1,0.2-2.1,0.2-3.1C75.3,51.8,76.1,52.5,76.9,53.2L76.9,53.2z M76.5,56.9L76.5,56.9
		C76.3,58,76.2,59,76,60.1c-0.6-0.7-1.3-1.4-2.1-2.2c0.1-0.3,0.1-0.7,0.2-1c0.1-0.7,0.2-1.3,0.3-2C75,55.5,75.7,56.2,76.5,56.9
		L76.5,56.9z M75.9,60.4c-0.2,1.1-0.4,2.2-0.7,3.3c-0.5-0.7-1.2-1.5-2.1-2.4c0.2-1,0.4-2,0.6-3C74.5,59,75.2,59.7,75.9,60.4
		L75.9,60.4z M65.6,40.8c0.2,0.1,0.4,0.3,0.6,0.4c0.7,0.5,1.4,1,2.1,1.5c-0.1,0.9,0,1.9,0,2.9c-0.9-0.6-1.8-1.2-2.7-1.7
		C65.6,42.8,65.6,41.8,65.6,40.8L65.6,40.8z M68.6,42.9c0.9,0.6,1.8,1.2,2.7,1.9c0,1,0,2,0,3c-0.1-0.1-0.2-0.2-0.3-0.3
		c-0.8-0.6-1.6-1.1-2.3-1.7C68.6,44.8,68.6,43.9,68.6,42.9L68.6,42.9z M71.7,45c0.2,0.1,0.4,0.3,0.6,0.4c0.7,0.6,1.4,1.1,2.1,1.7
		c0,0.8,0,1.6-0.1,2.3c0,0.2-0.1,0.4-0.1,0.7c-0.8-0.7-1.7-1.4-2.6-2.1C71.6,47,71.6,46,71.7,45L71.7,45z M61.7,66.9
		c-0.7-0.6-1.5-1.3-2.3-1.9c0.2-0.8,0.5-1.6,0.7-2.5c0.8,0.6,1.5,1.2,2.2,1.8C62.2,65.2,62,66,61.7,66.9L61.7,66.9z M59.2,64.8
		c-0.4-0.3-0.9-0.7-1.3-1c-0.3-0.2-0.6-0.5-0.9-0.7c0.2-0.8,0.4-1.6,0.7-2.5c0.5,0.4,1.1,0.8,1.6,1.2c0.2,0.2,0.4,0.3,0.6,0.5
		C59.6,63.1,59.4,63.9,59.2,64.8L59.2,64.8z M56.5,62.8c-0.7-0.5-1.5-1-2.3-1.5c0.2-0.8,0.4-1.7,0.6-2.5c0.8,0.5,1.5,1,2.2,1.5
		C56.9,61.1,56.7,61.9,56.5,62.8L56.5,62.8z M53.8,60.9c-0.8-0.5-1.5-1-2.3-1.4c0.2-0.9,0.4-1.8,0.6-2.7c0.4,0.2,0.7,0.5,1,0.7
		c0.4,0.3,0.8,0.6,1.2,0.9C54.2,59.2,54,60.1,53.8,60.9L53.8,60.9z M67.7,68.5c-0.6-0.7-1.4-1.4-2.2-2.2c0.3-0.8,0.5-1.7,0.8-2.6
		c0.7,0.6,1.4,1.3,2.2,1.9C68.2,66.5,67.9,67.5,67.7,68.5L67.7,68.5z M65.2,66c-0.7-0.6-1.4-1.3-2.2-1.9c0.2-0.8,0.5-1.7,0.7-2.6
		c0.7,0.6,1.5,1.2,2.2,1.8C65.6,64.2,65.4,65.1,65.2,66L65.2,66z M62.6,63.7c-0.7-0.6-1.4-1.2-2.2-1.8c0.2-0.8,0.4-1.7,0.6-2.6l0,0
		c0.8,0.6,1.5,1.1,2.2,1.7C63,62,62.8,62.8,62.6,63.7L62.6,63.7z M59.9,61.6l-0.2-0.2c-0.7-0.5-1.3-1-2-1.5c0.2-0.8,0.4-1.7,0.5-2.6
		c0.8,0.5,1.5,1,2.2,1.6C60.3,59.9,60.1,60.7,59.9,61.6L59.9,61.6z M57.2,59.6c-0.8-0.5-1.5-1-2.3-1.5c0.2-0.9,0.3-1.8,0.5-2.7
		c0.8,0.5,1.5,1.1,2.3,1.6C57.6,57.9,57.4,58.8,57.2,59.6L57.2,59.6z M54.4,57.8c-0.8-0.5-1.5-0.9-2.3-1.4c0.2-0.8,0.3-1.6,0.4-2.5
		c0-0.1,0-0.2,0-0.3c0.8,0.5,1.6,0.9,2.3,1.4C54.8,56,54.6,56.9,54.4,57.8L54.4,57.8z M71,67.8c-0.6-0.7-1.3-1.5-2.1-2.3
		c0.3-0.9,0.5-1.8,0.8-2.8c0.7,0.6,1.4,1.3,2.1,2C71.6,65.7,71.3,66.7,71,67.8L71,67.8z M68.6,65.1c-0.7-0.6-1.4-1.3-2.1-2
		c0.2-0.9,0.4-1.8,0.6-2.7c0.7,0.6,1.5,1.2,2.2,1.9C69,63.3,68.8,64.2,68.6,65.1L68.6,65.1z M66,62.7c-0.7-0.6-1.4-1.2-2.2-1.9
		c0.2-0.9,0.4-1.7,0.6-2.6c0.8,0.6,1.5,1.2,2.2,1.8C66.4,60.9,66.2,61.8,66,62.7L66,62.7z M63.3,60.5c-0.6-0.5-1.2-0.9-1.7-1.4
		c-0.2-0.1-0.3-0.2-0.5-0.3c0.2-0.9,0.3-1.7,0.5-2.6c0.4,0.3,0.9,0.6,1.3,0.9c0.3,0.2,0.6,0.5,1,0.7C63.7,58.7,63.5,59.6,63.3,60.5
		L63.3,60.5z M60.6,58.4c-0.7-0.5-1.5-1.1-2.3-1.6c0.1-0.7,0.2-1.4,0.3-2.1c0-0.2,0.1-0.4,0.1-0.6c0.8,0.5,1.5,1.1,2.3,1.6
		C60.9,56.7,60.8,57.5,60.6,58.4L60.6,58.4z M57.8,56.5c-0.8-0.5-1.5-1-2.3-1.4c0-0.2,0.1-0.4,0.1-0.7c0.1-0.7,0.2-1.5,0.3-2.2
		c0.3,0.2,0.7,0.4,1,0.6c0.5,0.3,0.9,0.7,1.4,1c0,0.2-0.1,0.4-0.1,0.7C58,55.1,57.9,55.8,57.8,56.5L57.8,56.5z M55,54.7
		c-0.8-0.5-1.6-0.9-2.3-1.4c0.1-0.9,0.2-1.9,0.3-2.8c0.8,0.5,1.6,0.9,2.4,1.4c-0.1,0.7-0.2,1.5-0.3,2.2C55,54.3,55,54.5,55,54.7
		L55,54.7z M71.9,64.3c-0.6-0.7-1.3-1.4-2.1-2.1c0.2-0.9,0.4-1.8,0.6-2.8c0.7,0.6,1.4,1.3,2.2,2C72.4,62.4,72.2,63.4,71.9,64.3
		L71.9,64.3z M69.4,61.8c-0.7-0.6-1.4-1.3-2.2-2c0.2-0.9,0.4-1.8,0.5-2.7c0.8,0.6,1.5,1.2,2.2,1.9C69.7,59.9,69.6,60.8,69.4,61.8
		L69.4,61.8z M66.7,59.4c-0.7-0.6-1.4-1.2-2.2-1.8c0.1-0.7,0.2-1.3,0.3-2c0-0.2,0.1-0.5,0.1-0.7c0.8,0.6,1.5,1.2,2.3,1.8
		C67,57.6,66.9,58.5,66.7,59.4L66.7,59.4z M64,57.2c-0.2-0.1-0.3-0.3-0.5-0.4c-0.6-0.4-1.2-0.9-1.8-1.3c0-0.1,0-0.2,0-0.3
		c0.1-0.8,0.2-1.6,0.3-2.4c0.8,0.5,1.6,1.1,2.3,1.6c0,0.3-0.1,0.5-0.1,0.8C64.2,55.9,64.1,56.5,64,57.2L64,57.2z M61.2,55.1
		c-0.8-0.5-1.5-1-2.3-1.5c0.1-0.9,0.2-1.9,0.3-2.8c0.8,0.6,1.6,1.1,2.4,1.7c-0.1,0.8-0.2,1.6-0.3,2.4L61.2,55.1L61.2,55.1z
		 M58.3,53.3c-0.8-0.5-1.6-1-2.4-1.4c0.1-1,0.2-2,0.2-2.9c0.9,0.5,1.7,1,2.4,1.5C58.5,51.4,58.4,52.3,58.3,53.3L58.3,53.3z
		 M55.4,51.5c-0.8-0.5-1.6-1-2.4-1.4c0.1-1,0.1-2,0.2-2.9c0.8,0.5,1.6,1,2.5,1.5C55.6,49.6,55.5,50.5,55.4,51.5L55.4,51.5z
		 M72.7,60.9c-0.6-0.7-1.4-1.4-2.1-2.1c0.1-0.8,0.3-1.6,0.4-2.4c0-0.2,0-0.3,0.1-0.5c0.8,0.6,1.5,1.3,2.2,2
		C73.1,58.9,72.9,59.9,72.7,60.9L72.7,60.9z M70,58.3c-0.7-0.6-1.4-1.3-2.2-1.9c0-0.1,0-0.3,0.1-0.4c0.1-0.8,0.2-1.6,0.3-2.4
		c0.8,0.6,1.6,1.2,2.3,1.9c0,0.2-0.1,0.4-0.1,0.6C70.3,56.9,70.1,57.6,70,58.3L70,58.3z M67.3,56c-0.6-0.5-1.3-1-2-1.5
		c-0.1-0.1-0.2-0.2-0.3-0.2c0.1-0.9,0.2-1.9,0.3-2.8c0.5,0.3,0.9,0.7,1.4,1c0.3,0.3,0.7,0.5,1,0.8c-0.1,0.8-0.2,1.7-0.3,2.5L67.3,56
		L67.3,56z M64.4,53.8c-0.8-0.6-1.6-1.1-2.3-1.6c0.1-0.9,0.2-1.9,0.2-2.8c0.8,0.6,1.6,1.1,2.4,1.7C64.6,52,64.5,52.9,64.4,53.8
		L64.4,53.8z M61.5,51.8c-0.8-0.5-1.6-1-2.4-1.5c0.1-1,0.1-2,0.2-3c0.4,0.3,0.9,0.5,1.3,0.8c0.4,0.3,0.8,0.6,1.2,0.9
		C61.7,50,61.6,50.9,61.5,51.8L61.5,51.8z M58.6,50c-0.8-0.5-1.6-1-2.5-1.5c0.1-1,0.1-2,0.1-2.9c0.9,0.5,1.8,1,2.7,1.5
		c0,0.1,0,0.2,0,0.3C58.8,48.3,58.7,49.1,58.6,50L58.6,50z M73.3,57.3c-0.7-0.7-1.4-1.3-2.2-2c0.1-1,0.2-2,0.3-2.9
		c0.8,0.7,1.6,1.3,2.3,2c-0.1,0.7-0.2,1.4-0.3,2.1C73.4,56.8,73.4,57.1,73.3,57.3L73.3,57.3z M70.5,54.8c-0.7-0.6-1.5-1.3-2.3-1.9
		c0.1-1,0.2-1.9,0.2-2.9l0.1,0c0.8,0.6,1.6,1.2,2.4,1.8C70.7,52.9,70.7,53.9,70.5,54.8L70.5,54.8z M67.7,52.5
		c-0.2-0.1-0.3-0.3-0.5-0.4c-0.6-0.5-1.3-0.9-1.9-1.4c0.1-1,0.1-1.9,0.1-2.8c0.9,0.6,1.7,1.2,2.5,1.8C67.9,50.7,67.8,51.6,67.7,52.5
		L67.7,52.5z M64.8,50.4c-0.8-0.6-1.6-1.1-2.5-1.6c0-1,0.1-2,0.1-3l0,0c0.9,0.6,1.8,1.3,2.6,1.8c0,0.2,0,0.3-0.1,0.5
		C64.9,48.9,64.9,49.7,64.8,50.4L64.8,50.4z M61.9,48.5C61,48,60.2,47.5,59.3,47c0-1,0.1-2,0.1-3c0.9,0.5,1.9,1,2.7,1.6
		c0,0.8,0,1.5-0.1,2.2C61.9,48,61.9,48.3,61.9,48.5L61.9,48.5z M59,46.8c-0.9-0.5-1.8-1.1-2.7-1.6c0-1,0-2.1,0.1-3
		c0.8,0.6,1.7,1.1,2.7,1.6C59,44.8,59.1,45.8,59,46.8L59,46.8z M73.8,53.7c-0.7-0.7-1.5-1.4-2.4-2c0.1-1,0.1-2,0.1-3
		c0.9,0.7,1.7,1.3,2.5,2C74,51.7,73.9,52.7,73.8,53.7L73.8,53.7z M70.9,51.3c-0.6-0.5-1.2-1-1.9-1.4c-0.2-0.1-0.4-0.3-0.6-0.4
		c0-1,0.1-1.9,0.1-2.9c0.6,0.4,1.2,0.9,1.8,1.3c0.3,0.2,0.6,0.4,0.9,0.7c0,0.2,0,0.4-0.1,0.6C71.1,49.8,71,50.5,70.9,51.3L70.9,51.3
		z M68,49.1c-0.9-0.6-1.7-1.2-2.6-1.8c0-1,0.1-2,0.1-2.9c0.9,0.6,1.8,1.2,2.7,1.9c0,0.8,0,1.6-0.1,2.4C68.1,48.8,68.1,48.9,68,49.1
		L68,49.1z M65.1,47.1c-0.9-0.6-1.8-1.1-2.7-1.7c0-1,0-2.1,0.1-3c0.6,0.4,1.3,0.8,1.8,1.2c0.3,0.2,0.6,0.4,0.8,0.6
		C65.2,45.1,65.2,46.1,65.1,47.1L65.1,47.1z M62.1,45.2c-0.9-0.6-1.8-1.1-2.7-1.6c0-1,0-2,0.1-3c0.9,0.5,1.8,1,2.7,1.5
		C62.1,43.1,62.1,44.2,62.1,45.2L62.1,45.2z"/>
	<path class="st2" d="M64.3,0.9c0,0.1,0,0.1,0,0.2c0.1,0,0-0.2,0.2-0.2c-0.1,0.2-0.2,0.4-0.3,0.6c-0.2,0-0.3,0.1-0.5-0.1
		C63.8,1.1,63.9,0.9,64.3,0.9L64.3,0.9z M68.4,25.8c0.1,0.2,0.2,0.4,0.4,0.5c0.3-0.1,0.3-0.4,0.6-0.1c-0.6,0.3-1.4,0.5-2.3,0.3
		c-0.1-0.2,0.2-0.3,0.2-0.5C67.7,26.4,68.4,26.2,68.4,25.8L68.4,25.8z M65.5,25.7c0.2,0.2,0.7,0.4,0.9,0.1c0.2,0.1,0.1,0.4,0.3,0.5
		c-0.4,0.1-0.9-0.2-1.4-0.3C65.3,25.9,65.5,25.9,65.5,25.7L65.5,25.7z M70.1,25.6c0.1,0,0.1,0.1,0.2,0.1c-0.1,0.1-0.2,0.2-0.4,0.2
		C70,25.8,70.1,25.8,70.1,25.6L70.1,25.6z M69.8,25.5c0,0.2-0.1,0.3-0.3,0.3c-0.1-0.1-0.1-0.2-0.2-0.4
		C69.5,25.3,69.7,25.4,69.8,25.5L69.8,25.5z M68.4,25.2c0,0.2-0.2,0.7-0.6,0.8c-0.2-0.1-0.1-0.6-0.2-0.8
		C67.8,25.1,68.2,25.6,68.4,25.2L68.4,25.2z M67,25c0.2,0,0.2,0.2,0.4,0.3c0,0.4-0.2,0.6-0.4,0.9C66.6,26,66.8,25.3,67,25L67,25z
		 M68.9,24.9c0.1,0,0.1,0.1,0.2,0.1c0,0.3,0,0.7-0.2,0.8C68.7,25.7,68.8,25.2,68.9,24.9L68.9,24.9z M65.7,24.7
		c0.2,0.2,0.3,0.5,0.6,0.6c0,0.2-0.2,0.2-0.3,0.3c-0.2,0-0.2-0.2-0.4-0.3C65.8,25.1,65.8,25,65.7,24.7L65.7,24.7z M67.2,24.2
		c0.2,0,0.3,0,0.5,0c0,0.3,0.1,0.7-0.2,0.8C67.1,24.9,67.1,24.5,67.2,24.2L67.2,24.2z M66.8,24.2c0,0.2,0.1,0.3,0.1,0.5
		c-0.2,0.1-0.4,0.1-0.4,0.4c-0.3,0-0.3-0.3-0.5-0.5C66.2,24.4,66.3,24.1,66.8,24.2L66.8,24.2z M68.1,24.1c0.3-0.1,0.3,0.3,0.5,0.4
		C68.4,24.7,68.4,25,68,25C67.9,24.7,68.1,24.4,68.1,24.1L68.1,24.1z M65.9,24.1c0.1,0,0.1,0,0.2,0c-0.1,0.1-0.1,0.2-0.2,0.2
		C65.9,24.3,65.9,24.2,65.9,24.1L65.9,24.1z M65.3,24c0,0,0.1,0.1,0.2,0.1c0,0.2,0,0.4,0.2,0.5c-0.1,0.2-0.6,0.2-0.8,0.1
		C65.1,24.4,65.2,24.2,65.3,24L65.3,24z M57.9,25.9c0.2,0.4,0.7,0.7,1.1,0.3c0.2,0.8,1,0.4,1.2-0.2c0.2,0.2,0.3,0.4,0.5,0.4
		c0.3,0,0.5-0.3,0.7-0.1c-0.5,0.5-1.5,0.9-2.6,0.7c-0.6-0.1-0.9-0.8-1.3-1C57.6,26,57.8,26.1,57.9,25.9L57.9,25.9z M65.1,24.9
		c0.1,0,0.2,0,0.3,0c0,0.4,0,0.7-0.4,0.8C64.9,25.5,65.2,25.2,65.1,24.9L65.1,24.9z M57.2,24.8c0,0.3-0.2,0.3-0.3,0.5
		C56.7,25.2,56.9,24.6,57.2,24.8L57.2,24.8z M56.1,23.8c0.2,0.3,0.9,0.7,1.3,0.3c0.2,0.3,0.9,0.5,1.1,0.1c0.3,0.4,1,0.3,1.2-0.1
		c0.1,0.3,0.8,0.7,1.1,0.2c0.1,0.4,0.5,0.1,0.7,0.2c0.2,0.1,0.2,0.3,0.4,0.3c0.2,0,0.3-0.4,0.5-0.4c0.2,0,0.8,0.6,1,0
		c0.3,0.6,1,0.2,1.4,0.4c-0.3,0.2-0.2,0.8-0.4,1c-0.5-0.1,0.1-0.6-0.2-0.9c-0.5-0.1-0.3,0.7-0.5,0.9c-0.1-0.1-0.2-0.1-0.4-0.1
		c-0.1-0.3,0.1-0.4,0.1-0.7c0-0.1-0.1-0.1-0.2-0.2c-0.4,0-0.3,0.3-0.3,0.7c-0.1,0.2-0.4,0.5-0.7,0.3c0-0.3,0.2-0.4,0.2-0.7
		c-0.8-0.8-0.3,1-1,1.1c-0.2-0.4,0.5-1,0-1.3c-0.7,0.1-0.1,1.2-0.7,1.3c-0.6,0-0.3-0.8-0.5-1.3c-0.5,0.3-0.2,1.3-0.7,1.5
		c-0.8-0.3,0.3-1.3-0.3-1.8c-0.9-0.1,0,1.5-0.7,1.5c-0.9,0.1,0.2-1.5-0.5-1.6c-0.5,0-0.4,0.8-0.3,1.2c-0.2,0.2-0.5,0.1-0.7-0.1
		c0.2-0.3,0.6-0.4,0.5-0.8c-0.1-0.6-1.2-0.2-1,0.7c-0.3-0.1-0.6-0.3-0.5-0.7c0.2,0-0.1,0.2,0.2,0.2c0.6-0.5-0.7-0.7-0.4,0.2
		c-1-0.6-3.3-0.3-4.4,0c-0.1-0.2,0.3-0.5,0.3-0.8c0.3,0.6,1.3,0.4,1.6,0c0.3,0.3,1,0.3,1.2-0.1C54.9,24.9,55.9,24.5,56.1,23.8
		L56.1,23.8z M64.8,23.7c0.1,0.1,0.3,0.1,0.4,0.2c0,0.2-0.2,0.4-0.3,0.5C64.7,24.4,64.7,23.9,64.8,23.7L64.8,23.7z M53.5,23.5
		c0,0.2-0.1,0.2-0.1,0.3C53.2,23.8,53.3,23.5,53.5,23.5L53.5,23.5z M54.4,24c-0.2,0.2-0.7,0.3-1,0.1c0.1-0.2,0.3-0.3,0.3-0.7
		c0.2,0,0.4,0,0.5-0.1C54.4,23.4,54.3,23.7,54.4,24L54.4,24z M53.2,23.1c-0.4,0.2-0.1,0.5-0.2,0.9c-0.2,0.7-1.5,0.5-1-0.5
		c0.2,0,0.3,0.1,0.4,0.1C52.5,23.4,53,23.1,53.2,23.1L53.2,23.1z M55.8,22.8c0,0.1,0.1,0.2,0.2,0.2c-0.1,0.6-0.7,1.7-1.3,1
		c0.3-0.4,0.1-0.9-0.1-1.1C55,23,55.5,23.2,55.8,22.8L55.8,22.8z M64.5,23.6c-0.1,0.4,0,0.8-0.4,0.8c-0.3-0.1-0.3-0.5-0.4-0.8
		c-0.4,0-0.4,0.6-0.8,0.6c-0.1-0.1-0.2-0.2-0.3-0.2c0-0.2,0.2-0.6-0.1-0.7c-0.6,0-0.2,1-0.7,1c-0.4-0.3,0.5-1.1-0.2-1.4
		c-0.6,0-0.3,0.9-0.5,1.2c-0.5-0.2,0.2-0.9-0.3-1.1c-0.6,0-0.1,1-0.6,1.1c-0.3,0-0.3-0.2-0.4-0.4c0.2-0.2,0.4-0.8-0.1-0.9
		c-0.5,0.2-0.3,1.6-1.1,1.1c0.1-0.3,0.6-0.9,0.1-1.2c-0.4,0.1-0.5,0.5-0.5,1c-0.1,0.2-0.6,0.3-0.8,0.1c0.1-0.3,0.5-0.7,0.2-1.1
		c-0.6-0.1-0.6,0.4-0.6,1c-0.4,0.5-1.2,0-0.9-0.7c0.6,0.1,0.9-0.2,1.2-0.5c0.3,0.2,0.9,0.1,1-0.3c0.4,0.3,0.7-0.2,1.1,0.2
		c0.3,0.1,0.3-0.3,0.5-0.3c0.1,0,0.4,0.5,0.7,0.1c0.2,0.6,1,0.2,1.1-0.2C62.7,22.7,63.5,23.3,64.5,23.6L64.5,23.6z M53.2,22.2
		c0.2,0,0,0.2,0.1,0.3C53.1,22.5,53.3,22.4,53.2,22.2L53.2,22.2z M54.9,21.9c0.1,0,0,0.3,0,0.4C54.7,22.2,54.9,22,54.9,21.9
		L54.9,21.9z M57.5,21.6c0.2,0,0.1,0.4-0.1,0.4C57.4,21.9,57.4,21.7,57.5,21.6L57.5,21.6z M54.7,21.7c-0.1,0.3-0.1,0.7,0,1
		c-0.2,0.4-1,0.8-1.3,0.3c0.1-0.3,0.4-0.8-0.1-1c-0.5,0-0.1,0.6-0.2,0.8c-0.1,0.4-0.5,0.5-0.8,0.4c0.1-0.3,0.3-0.4,0.3-0.7
		c0.1,0,0.2-0.1,0.3-0.1c0-0.2-0.2-0.1-0.3-0.1c0-0.2-0.1-0.2-0.1-0.4c0.4,0.2,0.7-0.1,0.9-0.3C53.8,22.1,54.3,21.8,54.7,21.7
		L54.7,21.7z M61.2,21.5c0.1,0.2,0.3,0.3,0.4,0.5c-0.1,0.1-0.2,0.2-0.4,0.3C61,22.2,61.3,21.8,61.2,21.5L61.2,21.5z M57.2,21.5
		c-0.2,0.3,0,0.8,0.1,1.1c-0.2,0.3-0.9,0.5-1.2,0.1c0-0.3,0.1-0.8-0.2-0.8c-0.3,0-0.3,0.5-0.2,0.8c-0.1,0.1-0.4,0.3-0.6,0.2
		c0-0.4,0.2-1,0.5-1.3C56.2,22,56.4,21.1,57.2,21.5L57.2,21.5z M53.3,20.7c0.2,0,0.2,0.3,0.1,0.5C53.3,21.1,53.3,20.9,53.3,20.7
		L53.3,20.7z M59.7,20.5c0.1,0.1,0.2,0.1,0.3,0.2c0.2,0,0.3-0.1,0.4-0.2c0.3,0.3,0.4,0.6,0.6,0.9c-0.4,0.1-0.1,0.8-0.6,0.8
		c-0.2-0.3,0.5-1.1-0.1-1.2c-0.6,0-0.1,1.2-0.8,1.2c-0.3-0.3,0.3-1-0.3-1.2c-0.6,0.1,0.1,1.2-0.6,1.1c0-0.3,0.2-1-0.2-1
		c-0.6,0.2,0.2,1.5-0.7,1.2c0.1-0.3,0.4-1.2-0.3-1.2c0.1-0.1,0.2-0.2,0.3-0.4c0.4,0.6,0.7-0.2,1-0.3c0.1,0,0.3,0.2,0.5,0.2
		C59.5,20.8,59.5,20.7,59.7,20.5L59.7,20.5z M56.6,20.1c0.2,0.1,0.1,0.5,0.1,0.7C56.4,20.7,56.5,20.2,56.6,20.1L56.6,20.1z M60,19.7
		c0.1,0.1,0.3,0.5,0.1,0.6c0,0-0.1-0.1-0.2-0.1C59.8,20.1,60,19.9,60,19.7L60,19.7z M59.8,19.1c-0.5,0.3,0,1.4-0.7,1.4
		c-0.2-0.3,0.2-0.8-0.1-1c-0.5,0.2-0.1,1.2-0.9,1.2c-0.3-0.3,0.2-0.9-0.2-1c-0.5,0.4-0.1,1.6-1.1,1.4c0.3-0.4,0.4-1.3-0.2-1.3
		c-0.5,0-0.5,0.9-0.3,1.4c-0.2,0.1-0.4,0.3-0.5,0.1c-0.1-0.3,0.3-1-0.1-1.3c-0.7,0.2,0,2.1-1.1,1.4c0.1-0.5,0.1-1.1-0.5-1.2
		c-0.3,0.3,0.1,1,0.1,1.2c-0.1,0.3-0.5,0.3-0.7,0.2c0.2-0.4,0.2-1.1-0.2-1.1c-0.5,0-0.4,0.7-0.2,1.1c-0.2,0.1-0.3,0.3-0.6,0.3
		c-0.3-0.2-0.3-0.6-0.3-1c0.2-0.2,0.3,0.1,0.5,0.1c-0.1-0.2-0.3-0.5-0.6-0.4c0-0.2-0.1-0.3-0.1-0.6c0.7-0.2,1.3,0.4,1.8-0.2
		c0.2,0.2,0.6,0,0.7-0.2c0.1,0.1,0.3,0.1,0.4,0.2c0.2-0.1,0.5-0.1,0.6-0.3c0.3,0.4,1,0.2,1.3-0.1c0.1,0.1,0.2,0.1,0.3,0.2
		c0.3-0.1,0.5-0.2,0.6-0.4c0.3,0.2,0.8,0.1,0.8-0.2C59.1,19.1,59.4,18.8,59.8,19.1L59.8,19.1z M52.7,18.8c0.2,0.1,0.1,0.5,0.1,0.7
		C52.6,19.3,52.7,19,52.7,18.8L52.7,18.8z M55.6,18.2c0.2,0.2,0,0.6-0.1,0.7C55.4,18.7,55.5,18.4,55.6,18.2L55.6,18.2z M59.1,17.1
		c0.1,0.5,0.2,1.4-0.3,1.6c-0.2-0.2,0.3-0.8-0.1-1c-0.7,0.1,0,1.4-0.9,1.1c0.1-0.3,0.2-1-0.2-1.1c-0.5,0.3,0.2,1.5-0.6,1.4
		c-0.3-0.2,0.2-1.1-0.3-1.2c-0.5,0-0.3,0.8-0.2,1c-0.1,0.3-0.6,0.5-0.8,0.2c0.2-0.4,0.5-1.2-0.1-1.4c-0.5,0-0.6,1-0.3,1.3
		c-0.1,0.2-0.2,0.3-0.5,0.3c-0.3-0.3,0.1-1.1-0.4-1.3c-0.4,0.3,0.2,1.6-0.5,1.4c0-0.3,0.1-1-0.4-1.1c-0.4,0.2-0.1,0.8,0,1.1
		c-0.1,0.2-0.4,0.4-0.7,0.2c0.1-0.3,0.3-1.3-0.2-1.4c-0.4,0.1-0.2,1-0.2,1.4c-0.1,0-0.3,0.1-0.5,0.1c-0.1-0.6-0.5-1.4,0.1-1.7
		c-0.2,0-0.3,0.1-0.3,0.3c-0.2-0.1-0.1-0.4-0.2-0.5c0.4,0,0.8,0,1-0.2c0.7,0.5,1.4-0.3,2.1-0.1c0.2-0.1,0.4-0.1,0.5-0.2
		c0.2,0.1,0.4,0.3,0.7,0.2c0.3,0.6,1,0.3,1.3-0.1C57.8,18,58.3,16.8,59.1,17.1L59.1,17.1z M51.1,15.4C51.1,15.3,51.2,15.3,51.1,15.4
		c0.4,0.1,0.4-0.3,0.7-0.3c0.4,0.2,0.9,0,1.2,0.3c0.3,0.1,0.3-0.2,0.5-0.2c0,0.1,0.2,0.1,0.3,0.2c0.3-0.1,0.5-0.2,0.6-0.4
		c0.2,0.2,0.3,0.4,0.5,0.5c0.2,0,0.4-0.1,0.5-0.3c0.3,0.3,0.8,0.1,1-0.2c0.2,0.2,0.8,0.2,1-0.1c0.2,0.3,0.9,0.2,1-0.2
		c0,0.5,0.8,0.4,1,0.3c-0.2,0.6-0.3,1.3-0.4,2c-0.4-0.1-0.1-0.8-0.3-1.1c0,0-0.1,0-0.1,0c-0.4,0.2,0.2,1-0.3,1.2
		c0.1-0.4,0.1-1-0.3-1.1c-0.1,0-0.1,0-0.2,0.1c-0.2,0.2-0.1,0.9,0.1,1.1c-0.1,0.2-0.4,0.4-0.6,0.2c0.1-0.4,0.3-1.2-0.1-1.3
		c-0.5-0.1-0.6,0.7-0.3,1.2c-0.1,0.4-0.8,0.6-0.8,0.2c0-0.1,0.5-0.7,0.4-1.2c0-0.2-0.1-0.3-0.4-0.4c-0.5,0.1-0.5,1-0.4,1.5
		c-0.2,0-0.2-0.1-0.3-0.1c0.1-0.5,0.4-1.2-0.1-1.4c-0.5,0.1-0.4,0.9-0.3,1.4c-0.1,0.1-0.3,0.2-0.5,0.2c0.1-0.5,0-1.2-0.4-1.3
		c-0.4,0.2-0.1,1.1,0,1.4c-0.1,0-0.2,0.1-0.4,0.1c0-0.7-0.1-1.1-0.5-1.3c-0.2,0.1-0.3,0.2-0.3,0.4c-0.7-1.1-1.2,0.6-0.5,1.1
		c-0.2,0.1-0.6,0.2-0.8,0.1c0-0.5-0.3-1-0.1-1.4c0.2,0,0.1,0.4,0.3,0.5c0.1-0.2,0-0.6-0.1-0.7c-0.2-0.1-0.3,0.1-0.3,0
		C51.1,15.8,51.2,15.5,51.1,15.4L51.1,15.4z M55.9,9.7c0,0.3-0.1,0.9-0.6,1C54.9,10.1,55.5,9.8,55.9,9.7L55.9,9.7z M52.9,17
		c0.1,0.2,0.2,0.3,0.3,0.5c-0.1,0.1-0.4,0-0.5-0.1C52.8,17.3,52.9,17.2,52.9,17L52.9,17z M57,16.3c0.2-0.1,0.2,0.3,0,0.3
		C57,16.5,57,16.4,57,16.3L57,16.3z M53.1,16.3c0.2,0.2,0.3,0.5,0.3,0.9C53.2,17,53.1,16.7,53.1,16.3L53.1,16.3z M52.3,16.3
		c0.4,0,0.5,0.7,0.2,1C52.3,17.1,52.1,16.6,52.3,16.3L52.3,16.3z M55.9,16.1c0.2,0.1,0.1,0.6,0,0.8C55.8,16.7,55.9,16.3,55.9,16.1
		L55.9,16.1z M54,12.7c0.2,0.1,0.3,0.3,0.6,0.4c0.4-0.4,1,0.3,1.3-0.2c0.3,0.2,0.3,0.3,0.6,0.3c0.2,0,0.4-0.3,0.4-0.3
		c0.3,0,0.3,0.4,0.6,0.4c0.3,0,0.5-0.2,0.7-0.4c0.2,0,0.1,0.3,0.4,0.3c0.2,0,0.3-0.1,0.3-0.3c0.2,0.4,0.6,1.7,0.1,2
		c-0.6-0.1,0-0.9-0.3-1.2c-0.4,0.2-0.2,1.1-0.8,1.1c-0.3-0.2,0.2-0.7-0.1-1c-0.5-0.1-0.3,0.4-0.4,0.7c-0.2,0.2-0.5,0.4-0.7,0.2
		c0.1-0.3,0.3-0.8-0.1-1c-0.3,0.1-0.4,0.6-0.2,0.8c-0.1,0.3-0.4,0.5-0.7,0.3c0.2-0.2,0.3-1-0.1-1.1c-0.7,0.1,0.1,1.2-0.5,1.3
		c-0.7-0.2,0-0.9-0.3-1.4c-0.5-0.1-0.3,0.6-0.4,0.8c-0.1,0.4-0.4,0.5-0.7,0.5c-0.1-0.3,0.2-1-0.2-1.1c-0.4,0-0.3,0.8-0.2,1
		c0,0.2-0.4,0.3-0.5,0.1c0.1-0.3,0.3-0.9,0-1.1c-0.5,0-0.4,0.7-0.3,1.1c-0.2,0.1-0.4,0.1-0.6,0c-0.1-0.2,0.2-0.9-0.2-1
		c-0.6,0.1,0.1,1.1-0.4,1.3c-0.4-0.2-0.2-1-0.4-1.4c0.1-0.1,0.2,0.1,0.3,0.1c-0.1-0.3-0.5-0.3-0.4-0.8c0.2,0.2,0.7,0.1,0.8-0.1
		c0.2,0.3,0.9,0.3,1.1-0.1C53.1,13.3,53.9,13.2,54,12.7L54,12.7z M54.4,12.2c0.1,0.2,0.5,0.3,0.4,0.6c-0.3,0-0.3-0.1-0.5-0.2
		C54.3,12.4,54.3,12.3,54.4,12.2L54.4,12.2z M56.1,11.7c0.2,0.1,0,0.3,0.1,0.5C56,12.1,56.1,11.8,56.1,11.7L56.1,11.7z M51.9,11.5
		c0.4,0.2,0.1,0.8-0.1,1C51.7,12.2,51.8,11.7,51.9,11.5L51.9,11.5z M54.9,10.5c0.1,0.2,0.2,0.4,0.4,0.4c0.2,0,0.4-0.1,0.5-0.3
		c0.1,0.5,0.9,0.5,1.2,0.2c0.2,0.4,0.7,0.4,1,0.1c-0.1,0.5,0.6,0.6,0.7,0.2c0.1,0.1,0.1,0.3,0.4,0.3c0,0.2,0,0.4,0,0.6
		c0,0.3-0.2-0.2-0.3,0c-0.1,0.2-0.1,0.6-0.2,0.8c-0.4-0.2,0.2-1-0.2-1.2c-0.4,0.3-0.2,1.4-0.9,1.3c-0.2,0-0.2-0.1-0.3-0.3
		c0.1-0.2,0.3-0.8,0-1c-0.4,0.2-0.3,1.6-1,1.1c0.2-0.4,0.4-1.3-0.1-1.5c-0.6,0.1-0.3,1.1-0.3,1.5c-0.2,0.1-0.4,0.1-0.6-0.1
		c0.1-0.4,0.1-1-0.3-1.2c-0.1,0-0.2,0-0.2,0.1c-0.2-0.2-0.2-0.6-0.2-1C54.7,10.6,54.9,10.6,54.9,10.5L54.9,10.5z M59,10.2
		c0.1,0,0.2,0.1,0.3,0.1c-0.1,0.2-0.1,0.5-0.2,0.7C58.9,10.9,59,10.6,59,10.2L59,10.2z M58.6,10.1c0.2,0.3,0,0.8-0.2,1
		C58.1,10.9,58.2,10.1,58.6,10.1L58.6,10.1z M51,10.1c0.1,0.4,0.6,0.3,1,0.4c0.3,0.1,0.6,0.3,1,0c0.2,0.2,0.8,0.3,1,0
		c0.2,0.6-0.1,1.3,0.1,2c-0.2,0.2-0.2,0.4-0.5,0.4c-0.6,0-0.1-1-0.5-1.3c-0.5,0-0.3,0.8-0.2,1.1c-0.2,0.1-0.5,0.3-0.7,0.1
		c0.4-0.4,0.7-1.4,0-1.6c-0.6,0.1-0.6,1.1-0.4,1.6c-0.2,0.1-0.5,0-0.6-0.1c-0.1-0.4,0-0.7,0-1.1C51,11.7,51,11.9,51,12
		c0.1-0.1,0.1-0.3,0.1-0.5C50.8,11.3,51,10.5,51,10.1L51,10.1z M52.6,9.8c0.1,0.1,0.1,0.3,0.1,0.4c-0.1,0.1-0.2,0.1-0.4,0.1
		C52.4,10.2,52.6,10.1,52.6,9.8L52.6,9.8z M56.5,9.5c0.6,0,1.2,0.1,1.6,0.3c-0.2,0.4-0.3,0.9-0.7,1.1c-0.4-0.4,0.5-0.8,0.1-1.2
		c-0.6,0.1-0.4,1.2-1.2,1.1c-0.1-0.1-0.1-0.1-0.2-0.2C56.1,10.1,56.4,9.9,56.5,9.5L56.5,9.5z M53,9.5c0.1,0.1,0,0.4,0,0.5
		C52.8,9.9,53,9.6,53,9.5L53,9.5z M52.2,9.4c0.4,0.1,0,0.9-0.2,0.7C52,9.8,52.1,9.6,52.2,9.4L52.2,9.4z M57.1,8.7
		c0,0.1,0,0.1,0.1,0.1c0,0.1-0.2,0-0.3,0.1C56.9,8.8,57,8.7,57.1,8.7L57.1,8.7z M59.4,8.5c0.1,0,0,0.2,0.2,0.2
		c-0.1,0.3-0.2,0.5-0.2,0.8c-0.5-0.2-0.9-0.4-1.5-0.6c0.2-0.1,0.4-0.2,0.5-0.4C58.6,9,59.3,8.9,59.4,8.5L59.4,8.5z M51.3,8.1
		c0.1,0.6,1.1,0.4,1.3,0c0.1,0.3,0.5,0.4,0.9,0.5c0.3,0.1,0.7,0.4,1,0.1c0.2,0.4,1,0.5,1.3,0.1c0.1,0,0.1,0.2,0.2,0.2
		c-0.5,0.3-1.1,0.4-1.5,0.8c-0.1-0.1,0-0.3-0.1-0.4c-0.5,0.2-0.5,1.4-1.3,0.8c0.2-0.2,0.3-1-0.1-1.1c-0.2,0-0.3,0.2-0.3,0.4
		c-0.3-0.9-1.3,0-0.9,0.7c-0.6,0-0.8-0.5-0.7-1.1c0.1-0.1,0.1,0,0.3,0C51.1,8.9,51.2,8.5,51.3,8.1L51.3,8.1z M54.7,7.6
		c0.1,0.1,0,0.4,0,0.5C54.5,8,54.7,7.8,54.7,7.6L54.7,7.6z M53.8,7.5c0.3,0.1,0.1,0.7-0.2,0.7C53.6,7.9,53.7,7.7,53.8,7.5L53.8,7.5z
		 M52.4,5.8c0.1,0.4,0.7,0.6,1,0.2c0.2,0.2,0.4,0.4,0.7,0.3c0,0.2,0.2,0.3,0.3,0.4c0.3,0.1,0.5-0.1,0.7-0.1c0.1,0,0.3,0.2,0.5,0.3
		c0.1,0,0.3-0.1,0.4-0.1c0.2,0.1,0.2,0.3,0.4,0.3c0.2,0,0.3-0.1,0.6-0.1c0.3,0,0.6,0.4,1,0.1c0,0.2,0.2,0.2,0.3,0.3
		c0.6-0.2,0.9,0.1,1.3-0.2c0.1,0.2,0.2,0.4,0.5,0.4C60,7.9,59.8,8,59.8,8.3c-0.2-0.2,0.1-0.4,0-0.6c-0.6,0.1-0.4,1.1-1.1,0.8
		c-0.1-0.4,0.2-0.7,0.1-1c-0.4-0.1-0.4,0.3-0.4,0.6c-0.2,0.2-0.5,0.8-1,0.5c-0.1-0.4,0.3-0.5,0.2-0.9c0-0.1-0.1-0.1-0.2-0.2
		c-0.6,0.3-0.3,1.3-1.3,1.2c-0.1-0.1-0.1-0.2-0.2-0.2c0.1-0.4,0.6-0.9,0.2-1.3C55.4,7.3,56,8.8,55,8.7c0-0.1-0.1-0.2-0.2-0.2
		c0.3-0.3,0.5-1.2-0.1-1.2c-0.4,0-0.5,0.6-0.4,1.1c-0.1,0.1-0.3,0.1-0.5,0.1c0.3-0.3,0.5-1.2-0.1-1.3c-0.5,0.1-0.6,0.6-0.5,1.2
		C53,8.3,53,8.1,52.8,8c0-0.3,0.1-0.4,0.1-0.7c-0.5,0.2-0.5,1.2-1.3,0.9c-0.1-0.6,0.2-1.2,0.5-1.5c0.2-0.1,0.3,0.1,0.4,0.1
		c0-0.2-0.2-0.3-0.5-0.3C52.1,6.2,52.3,6.1,52.4,5.8L52.4,5.8z M54,3.5c0,0.6,0.2,1.1,0.9,0.8c0.3,0.2,0.7,0.5,1.2,0.3
		c0.3,0.2,0.6,0.4,1.1,0.2c0,0.4,0.7,0.6,1.1,0.3c0.1,0.1,0.5,0.4,0.7,0.2c0.1,0.3,0.5,0.8,1,0.5c0.2,0.3,0.5,0.4,0.8,0.2
		c0,0.1,0,0.2,0.2,0.2c0,0.2-0.2,0.1-0.3,0.2c-0.1,0.4-0.2,0.8-0.6,0.8c-0.2-0.4,0.5-0.8,0-1.1c-0.4,0.1-0.2,0.9-0.8,0.8
		c0-0.2,0.4-0.9-0.1-1c-0.5,0.1,0,1.1-0.7,1c0.2-0.2,0.6-1.1-0.1-1.1c-0.4,0-0.4,0.4-0.4,0.9c-0.1,0-0.3,0.1-0.5,0.1
		c0.8-1.1-0.8-1.9-0.6-0.1c-0.2,0-0.3,0-0.5-0.1c0.4-0.3,0.6-1.3,0-1.3c-0.5,0-0.4,0.7-0.5,1.2c-0.1,0-0.2-0.1-0.3-0.1
		c0.1-0.3,0.6-0.9,0.2-1.2c-0.4,0.1-0.5,0.6-0.5,1.1c-0.1,0.1-0.6,0.3-0.7,0c0.1-0.2,1-1.3,0.3-1.4C54.2,4.9,54,5.6,54,6.1
		c-0.2,0.1-0.4,0-0.4-0.2c0.1-0.3,0.5-0.6,0.3-1.1c-0.8-0.1-0.3,1.2-1.1,1.2C52.4,5,53.7,4.3,54,3.5L54,3.5z M57.1,3.9
		c0.1,0.1-0.2,0.5,0,0.6c-0.1,0.2-0.5,0.1-0.6,0C56.6,4.4,56.9,4.2,57.1,3.9L57.1,3.9z M69.2,4c0.1-0.4,0.3,0.3,0.6-0.1
		c0-0.2-0.4-0.3-0.2-0.5c0.3,0.3,0.6,0.6,0.8,0.9C70.1,4.4,69.7,4,69.2,4L69.2,4z M62,1.7c-0.1,0.2-0.2,0.3-0.4,0.4
		C61.6,2,61.8,1.7,62,1.7L62,1.7z M58.4,1.7C58.3,2,58,2.1,57.8,2.3C57.8,2.1,58.1,1.7,58.4,1.7L58.4,1.7z M57.2,3.8
		c-0.1-1-1.2-0.1-1.1,0.6c-0.8,0.2-1-0.2-0.5-0.7c-0.2-0.6-0.7,0-0.7,0.4c-0.2,0.1-0.5,0-0.6-0.1c0-0.7,0.3-1.1,0.7-1.4
		c0.2-0.1,0.2,0.1,0.4,0.2c0-0.2,0-0.4-0.2-0.4c0.4-0.4,0.9-0.6,1.5-0.7c-0.2,0.6,0.1,1,0.8,0.9c0.1,0.4,0.4,0.7,1.1,0.6
		c0,0.3,0.2,0.4,0.4,0.5c0.3,0,0.5,0,0.7-0.1C59.9,3.8,60,4.1,60.4,4c-0.1,0.5,0.4,0.5,0.7,0.6C61.3,4.7,61.1,4.8,61,5
		c-0.2,0.4-0.2,0.7-0.6,0.8c-0.3-0.3,0.6-0.9,0.1-1.3c-0.5,0-0.5,0.5-0.5,1c-0.1,0-0.2,0-0.2,0.1c-0.3,0-0.3-0.2-0.4-0.4
		C59.6,5,60.4,4.2,59.7,4c-0.7-0.1-0.4,1-1.1,1.1c-0.2-0.4,0.5-0.9,0.1-1.2c-0.4,0.3-0.6,1.7-1.3,0.8c0.3-0.2,0.9-1.2,0.3-1.4
		C57.5,3.3,57.3,3.6,57.2,3.8C57.1,3.8,57.1,3.8,57.2,3.8L57.2,3.8z M66.2,2.5c0-0.1-0.1-0.2-0.2-0.2c-0.5,0-0.5,0.6-0.8,0.7
		c-0.4-0.6,0.6-0.6,0.5-1.3c0-0.1-0.1-0.1-0.2-0.2c-0.6,0.1-0.4,0.9-1,0.9c-0.2-0.6,0.3-1,0.5-1.3c0.6,0.1,1.2,0.3,1.7,0.4
		c-0.2,0.3-0.3,0.5-0.2,0.8c0.1,0.3,0.3,0.2,0.5,0.4c0.2,0.3,0,0.6,0.2,0.8c-0.4,0-0.7,0.1-1.1,0.1c0.3-0.3,0.6-0.4,0.6-1
		c0-0.1-0.1-0.1-0.2-0.2C66,2.7,66,3.3,65.7,3.6C65.4,3.1,66.3,3,66.2,2.5L66.2,2.5z M62.4,1.5c0-0.1-0.2-0.1-0.2-0.2
		c-0.6,0-0.9,0.3-0.9,0.9c-0.1,0.1-0.3,0.1-0.5,0.1c-0.3-0.7,0.5-0.7,0.5-1.3c-0.4-0.4-0.7,0.3-0.8,0.6c-0.6,0.6-1.6-0.3-0.7-0.7
		c1.1-0.1,2.6-0.2,4-0.1c-0.3,0.4-0.3,1.2,0.5,1.1c-0.2,0.5,0,1,0.6,0.9c0,0.3,0.1,0.6,0.5,0.6c-0.1,0.1,0,0.4,0.2,0.5
		C65.2,3.9,65,3.9,64.7,4c-0.2,0,0.1-0.2-0.1-0.3c-0.4,0.1-0.4,0.5-0.8,0.5c0-0.7,0.6-0.6,0.7-1.2c0,0-0.1-0.1-0.1-0.1
		c-0.7,0-0.5,0.8-1.2,0.8C63,3.1,63.9,3.1,64,2.4c0-0.1-0.1-0.1-0.1-0.2c-0.7,0-0.6,0.6-1,0.9c-0.3,0.1-0.4-0.1-0.5-0.2
		c0.2-0.3,0.8-0.4,0.7-0.8C63,1.5,61.8,1.9,62,2.7c-0.2,0-0.4-0.1-0.4-0.3C61.9,2.2,62.3,2.1,62.4,1.5L62.4,1.5z M54.6,5.2
		c0.2,0.2-0.1,0.5-0.2,0.7C54.2,5.7,54.5,5.4,54.6,5.2L54.6,5.2z M61.9,4.8c0.2,0.1-0.1,0.4,0.1,0.5c-0.4,0.2-0.6,0.5-1,0.7
		c0-0.5,0.4-0.6,0.4-1.1C61.7,4.9,61.8,4.9,61.9,4.8L61.9,4.8z M62.9,4c0.2,0,0.3,0.2,0.5,0.1c0,0.1,0.1,0.1,0.1,0.3
		c-0.5,0.2-0.8,0.6-1.3,0.7C62.3,4.6,62.7,4.4,62.9,4L62.9,4z M57.6,3.7c0.2,0.2-0.1,0.5-0.3,0.7C57.2,4.1,57.5,3.9,57.6,3.7
		L57.6,3.7z M56.8,3.6c0.3,0.2-0.2,0.5-0.4,0.7C56.3,4,56.6,3.7,56.8,3.6L56.8,3.6z M67.9,3.3c0.1,0.1-0.2,0.2-0.4,0.2
		C67.6,3.4,67.8,3.5,67.9,3.3L67.9,3.3z M69,2.9c0.1,0.1,0.2,0.1,0.3,0.3c-0.1,0.3-0.2,0.6-0.5,0.6C68.8,3.4,68.9,3.2,69,2.9L69,2.9
		z M67.8,2.9C68,3,67.7,3.2,67.5,3.2C67.5,3,67.7,3,67.8,2.9L67.8,2.9z M62.7,2.1c0.2,0.2-0.2,0.4-0.4,0.5
		C62.3,2.3,62.5,2.2,62.7,2.1L62.7,2.1z M67.8,2c0.4,0.2,0.8,0.4,1.1,0.7c-0.1,0.3-0.3,0.6-0.3,1.1c-0.1,0-0.3,0-0.4-0.1
		c0.1-0.4,0.1-1-0.3-1.1c-0.2,0-0.4,0.3-0.6,0.3C67.4,2.6,67.8,2.5,67.8,2L67.8,2z M67,1.7c0.2,0,0.4,0.1,0.5,0.2
		C67.2,2,67,2.2,67,2.6C66.7,2.4,66.9,1.9,67,1.7L67,1.7z M59.2,1c-0.5,0.8,0.5,1.4,1.2,1c-0.1,0.6,0.5,0.8,0.8,0.6
		C61.5,2.8,61.6,3,62.1,3c0.1,0.3,0.3,0.5,0.8,0.5c0,0-0.1,0.3,0,0.3c-0.5,0.2-0.7,0.8-1.4,0.8C61.5,4,62,4,62.1,3.5
		C62,3.4,62,3.3,61.9,3.3c-0.6-0.1-0.6,1.4-1.2,0.7c0.1-0.4,0.9-0.4,0.8-1c-0.1-0.6-1,0.1-1.1,0.6c-0.3,0-0.4-0.1-0.5-0.2
		c0.2-0.2,0.7-0.6,0.3-0.8c-0.4,0-0.5,0.3-0.6,0.7c-0.3,0.1-0.7,0.2-0.8-0.1c0.2-0.4,0.8-0.4,0.8-1.1c0-0.1-0.1-0.1-0.1-0.2
		c-0.5,0-0.7,0.4-0.8,0.8c-0.4,0.1-0.9,0-0.9-0.4c0.5-0.2,0.8-0.4,1-0.9c-0.4-0.6-1.3,0.1-1.3,0.7c-0.3,0-0.5-0.1-0.6-0.3
		c0-0.5,0.5-0.8,1-0.6C57.9,1.1,58.8,1.2,59.2,1L59.2,1z"/>
	<path class="st3" d="M73.7,2.4c0.2,0.6,0.9,0.9,1,1.6c0.1,0.8-0.8,2.5-1.4,2.6c-0.7,0.2-1.3-0.4-2-0.3c-0.4,0.1-0.6,0.5-1,0.7
		c-0.5-0.3-0.7-1.3-1.3-1.3c-0.7,0-1,1.1-1.6,1.2c-0.1-0.6-0.3-0.9-0.3-1.4c-0.9,0-1.8,0.5-2.6,0.8c0.1-0.7,0.8-1.3,1.1-1.9
		c1.7-0.3,3.5,0.1,4.8,0.6c0.3,0.1,0.4,0.3,0.6,0.3C72,5.4,73.6,3.6,73.7,2.4L73.7,2.4z"/>
	<path class="st4" d="M64.8,4.6c-0.2,0.4-1.5,2-1,2.6c0.9-0.3,1.7-0.8,2.8-1c0.2,0.5,0.1,1.6,0.7,1.7c0.5,0,1.2-1.3,1.6-1.4
		c0.2,0.3,0.5,0.5,0.8,0.8c0.2,0.3,0.3,1,0.9,0.7c0.1-0.4,0.4-0.9,0.7-1c0.4,0.3,0.3,1.1,0.4,1.6c-0.7,0-1.4-0.3-1.9,0
		c-0.2,0.1-0.2,0.3-0.3,0.5c-0.3,0.3-0.8,0.4-1.1,0.8c-0.1,0.2-0.2,0.4-0.3,0.6c-0.7-1.8-3.1-2.6-4.8-1.2c-0.5,0.4-0.8,1.1-1.1,1.7
		c-0.8-0.5-1.7-1-2.6-1.4c0.1-0.6,0.4-1,0.7-1.3c0-0.2-0.1-0.2-0.1-0.4c0.8-1.8,2.3-2.9,4.3-3.5C64.8,4.6,64.8,4.6,64.8,4.6
		L64.8,4.6z M59.5,10.5c0.8,0.3,1.8,1,2.7,1.4c0,1.1,0.8,2.7,1.6,3c0.6,0.2,1.6,0.2,2.1,0.1c1-0.2,1.9-1.1,2.3-1.8
		c0.7,0.5,0.8,1.5,1.7,1.8c-0.5,0.3-1.4,0.8-2.1,0.4c-0.5,0.7,0.2,1.7,0.3,2.1c-1.7,0.1-3.6,0-4.7-0.8c0.1-0.2,0.4-0.3,0.3-0.6
		c-0.6-0.4-1.9,0.7-1.4,1.4c0.4,0,0.3-0.3,0.6-0.4c0.4,1.3,2,2.4,3.4,2.9c0.5,0.2,2.1,0.5,2-0.2c-0.1-0.6-1.1,0-1.5-0.3
		c0.1-0.5,0.2-1,0.4-1.3c0.9,0.1,1.5-0.1,1.7-0.7c-0.3-0.4-0.6-0.8-0.7-1.4c0.9,0.2,2.9-0.6,2.9-1.2c0-0.2-0.2-0.4-0.6-0.4
		c0.8-0.1,1.3-0.5,1.9-0.8c1.2,2.2-1,4.6-2.4,5.6c0.8,2.7-1.4,4.9-4.3,4.1c-2-0.6-3.5-1.5-4.6-3.1c-0.6-1-1.2-2.1-1.4-3.1
		c-0.1-1,0.2-1.6,0.3-2.4c-0.4-0.7-0.7-2.4-0.3-3.4C59.6,11,59.6,10.7,59.5,10.5L59.5,10.5z"/>
	<path class="st5" d="M70.1,9.4c0.4-0.2,0.8,0.1,1.3,0c0.5,0.3,0.9,0.7,1.2,1.2c0.4,1.8-1.1,3.5-2.8,3.1
		C68.1,13.3,68.3,9.6,70.1,9.4L70.1,9.4z M63.7,9.9c0.7,0.2,1.1-0.4,1.7-0.4c1.1,0,2,1,2.3,1.8c0.6,1.7-1,2.9-2.4,3
		c-0.3,0-0.9,0.1-1.2-0.1c-0.5-0.2-1.3-1.3-1.3-2C62.7,11.4,63.2,10.5,63.7,9.9L63.7,9.9z M65.8,12.7L65.8,12.7
		c0.7,0,0.9-1.7-0.1-1.4C65.2,11.5,65.1,12.8,65.8,12.7L65.8,12.7z M70.4,12.8L70.4,12.8c0.5,0,0.8-1.6,0-1.4
		C69.9,11.5,69.6,12.8,70.4,12.8L70.4,12.8z"/>
	<path d="M65.7,11.3c1-0.3,0.7,1.3,0.1,1.4C65.1,12.8,65.2,11.5,65.7,11.3L65.7,11.3z"/>
	<path d="M70.4,11.3c0.8-0.2,0.5,1.4,0,1.4C69.6,12.8,69.9,11.5,70.4,11.3L70.4,11.3z"/>
	<path class="st4" d="M86.5,12.5c0.2,0.4,0.4,0.7,0.4,1c0,0.6-1.6,2.3-0.2,2.8c-0.2,0.4-0.3,1.2,0.1,1.5c-0.3,0.5-0.1,1.4,0.4,1.5
		c-1,3.3-1.5,7.2-3.4,9.6c-2.3,0.2-5,0.1-7.5,0.2c0.2-0.6,0.4-1.3,0.4-2.1c2.1,0.1,4.4,0.1,6.3,0.2c1.1-1.7,1.8-3.9,2.4-6.4
		c0.2-0.7,0.5-1.8,0.4-2.5c-0.1-0.5-0.6-0.8-0.8-1.2C83.7,15.1,85.6,13.7,86.5,12.5L86.5,12.5z M89.4,14.4c0.3,0.7-0.5,1.7,0.3,1.9
		c-0.2,0.6-0.9,1.7-1.5,2.1c-0.3,0.2-0.6,0.3-1,0.2c0-0.7,0.7-1.3-0.2-1.5c-0.1-0.6,0.7-0.6,0.7-1c0-0.5-0.6-0.3-1-0.6
		c0.2-1.3,0.9-2.1,1.6-2.9C89.4,12.8,88.4,14.4,89.4,14.4L89.4,14.4z"/>
	<g>
		<defs>
			<path id="SVGID_1_" d="M56.6,35c-0.3,0.1-0.7,0-0.9,0.2c-0.4,0.7-0.5,1.8-0.5,2.7c-0.1,0.3,0.2,0.2,0.2,0.3c-0.5,1-0.9,2.4-0.7,4
				c-0.5,0.6-1.3,1-1.7,1.7c-1.3,0.1-2.5,0-3.8,0.1c0.3-1.4,0.5-2.9,0.6-4.6c1-0.2,2-0.4,2.6-0.8c0.4-0.2,0.8-0.5,1-0.9
				c0.5-1,0.3-2.5,0.2-3.7c-0.1-0.6,0-1.3-0.2-1.9c-0.1-0.5-0.2-1.1-0.5-1.4c-0.6,0.2-0.2,0.7-0.2,1.1c0.3,1.4,0.4,3.2,0.3,4.8
				c-1.7-1.4-5.4-1.2-7.7-0.5c1-5,4.2-7.9,7.6-10.4c0.2,0,0.3-0.1,0.5-0.1c0-0.1,0.1-0.1,0.2-0.2c1.7-0.4,2.1,1.5,2.5,2.6
				C57.1,30,56.9,32.7,56.6,35L56.6,35z M69.3,36.6c0.3,0.8,0.1,2.2-0.5,2.5C68.4,38.6,68.4,36.7,69.3,36.6L69.3,36.6z M71.9,36.5
				c0.1,0,0.2,0.1,0.4,0.1c0.3,0.7,0.2,2-0.4,2.3C71.5,38.4,71.7,37.1,71.9,36.5L71.9,36.5z M75.8,26.3c0.4,1.9-0.5,3.7-1.4,4.8
				c-0.6-2.2-2-3.6-3.6-4.9c0.3-0.1,0.4-0.3,0.6-0.4C73.1,25.7,74.4,26.1,75.8,26.3L75.8,26.3z M70.1,26.5c0.6,0.7,1.5,1.1,2.1,1.9
				c1.1,1.2,1.5,2.9,1.6,4.8c0.6,0,1.3,0.2,1.8,0.7c3.2,2.9,2,11.7-0.5,14.4c-1-0.2-2.1-0.3-3.3-0.3c-0.2,0-0.2-0.3-0.3-0.4
				c-3.3-2-6.7-3.8-12-3.8c0.1-1-0.6-1.1-1.1-1.5c0-1.4,0.3-2.5,0.5-3.7c0.5-0.3,0.7-0.9,1-1.7c0.3-0.9,0.7-1.9-0.4-1.9
				c0.5-2.3,0.4-5.4-0.4-7.3c1.7,0.2,2.5-0.9,3.9-1.3c0.3-0.1,0.8-0.2,1-0.2c1.1,0,2.3,0.7,3.6,0.8C68.6,27.1,69.4,26.9,70.1,26.5
				L70.1,26.5z M64.7,37.1L64.7,37.1c0.1-0.3,0.2-1-0.1-1.3c-0.6-0.9-2.6,0.2-1.7,1.1c0.3-0.1,0.2-0.5,0.4-0.7
				c0.2-0.1,0.5-0.2,0.7-0.1c0.4,1.7-1.9,1.6-1.9,3.3c0.5,0.3,2.9,0.5,2.4-0.4c-0.4-0.2-1.1,0-1.6-0.1
				C63.5,38.3,64.5,37.9,64.7,37.1L64.7,37.1z M61.9,35.5L61.9,35.5c-0.4,0.6-1,0.9-1.3,1.6c0.3,0.3,0.7-0.3,1-0.3
				c0,0.9-0.6,1.8-0.3,2.6c0.1,0,0.2,0,0.4,0c0.3-1.2,0.6-2.6,0.6-3.9C62.1,35.6,62.1,35.5,61.9,35.5L61.9,35.5z M66.3,38L66.3,38
				c0.2-0.6,0.8-1.6,0.6-2c-0.1-0.5-1.6-0.6-2,0.1c0.1,0.4,0.8,0.2,1.2,0.2c-0.3,1.1-0.7,2.1-1,3.2C65.8,40.5,66,38.8,66.3,38
				L66.3,38z M75,35.8L75,35.8c-0.3,0.5-0.8,1.1-0.7,1.7c0.2,0.2,0.4-0.1,0.4-0.1c0.1,0.7-0.5,2.6,0.3,2.5c0.4-0.1,0.3-0.7,0.3-1.1
				c0.1-0.9,0.3-2.4,0-3.1C75.2,35.8,75.1,35.8,75,35.8L75,35.8z M68.1,39.4L68.1,39.4c0.1,0.1,0.3,0.3,0.5,0.4
				c1.7,0.3,2-4.2,0.5-3.9C68.2,36.1,67.5,38.3,68.1,39.4L68.1,39.4z M71.6,36L71.6,36c-0.5,0.6-0.9,3.4,0.1,3.6
				c1.4,0.3,2.1-3.1,1-3.8C72.2,35.8,71.9,35.9,71.6,36L71.6,36z M73.9,38.9L73.9,38.9c-0.4-0.6-0.9,0.3-0.5,0.7
				c0.2,0.1,0.2,0.1,0.4,0C73.9,39.5,73.8,39.1,73.9,38.9L73.9,38.9z M67.2,39.7L67.2,39.7c0.4,0,0.6-0.5,0.3-0.8
				C66.7,38.6,66.6,39.7,67.2,39.7L67.2,39.7z M70.6,39.6L70.6,39.6c0.2-0.1,0.3-0.5,0.2-0.7C70.2,38.6,70,39.7,70.6,39.6L70.6,39.6
				z M59.4,44.5C59.4,44.4,59.4,44.4,59.4,44.5c4.7,0.1,8.4,1.6,11.2,3.6c-1.6-0.2-3.2,0.7-4.5,0.8c-0.3,0-0.7-0.1-1-0.1
				c-2.6-0.1-4.9,0.3-7.2,0.6c-0.4-0.8,0-1.2,0.3-1.7c0.1-0.3,0.2-0.6,0.3-0.9c0.3-0.7,1-1.3,1.1-2.1C59.5,44.6,59.5,44.5,59.4,44.5
				L59.4,44.5z M52.5,46.8c-0.2,1.1,1,1.2,1.7,1.5c0,0.6,0,1.4,0.2,1.8c-1.9,0.9-3.9,1.6-5.6,2.6c-0.4-0.9-1.2-2-1-3.2
				c-0.3-0.8-0.1-2.1-0.1-3C49.3,46.8,50.8,46.9,52.5,46.8L52.5,46.8z"/>
		</defs>
		<clipPath id="SVGID_2_">
			<use xlink:href="#SVGID_1_"  style="overflow:visible;"/>
		</clipPath>
		<g class="st6">
			<defs>
				<rect id="SVGID_3_" x="45.4" y="25" width="33.4" height="27.8"/>
			</defs>
			<clipPath id="SVGID_4_">
				<use xlink:href="#SVGID_3_"  style="overflow:visible;"/>
			</clipPath>
			<g style="clip-path:url(#SVGID_4_);">
				
					<image style="overflow:visible;" width="264" height="218" xlink:href="F829ED29E3A46762.jpg"  transform="matrix(0.1304 0 0 -0.1304 45.0688 53.1769)">
				</image>
			</g>
		</g>
	</g>
	<path class="st7" d="M55.8,25.8c1.2,0.2,1.7,1.5,2.8,2c1,1.8,0.7,4.9,0.4,7.2c-0.4,0-1.1,0-1.6,0c0.2-2,0.3-4.9-0.3-6.6
		c-0.2-0.4-0.5-0.8-0.7-1.3C56.2,26.7,56.1,26.1,55.8,25.8L55.8,25.8z M58.6,38.1c-0.4,1.2-0.7,2.4-0.7,4c-0.8,0-1.7-0.3-2.5-0.2
		c-0.1-1.7,0.3-2.7,0.7-3.9C56.8,38.2,57.8,38.1,58.6,38.1L58.6,38.1z M57.1,48.5c0.1,0.3,0,0.8,0.2,1c-0.7,0.2-1.6,0.3-2.3,0.5
		c-0.1-0.4-0.1-1-0.2-1.4C55.6,48.7,56.4,48.6,57.1,48.5L57.1,48.5z"/>
	<path class="st8" d="M59.5,35.8c-0.1,0.6-0.3,1.3-0.6,1.7c-1,0-2,0-3,0c0-0.7,0.1-1.3,0.2-1.9c0.8,0.1,1.7-0.2,2.6-0.1
		C59.1,35.4,59.4,35.5,59.5,35.8L59.5,35.8z M56.6,36.4L56.6,36.4c-0.2,0.5,0.6,0.5,1.2,0.5c0.7,0,1.5,0,1.2-0.6
		C58.3,36.3,57.3,36.3,56.6,36.4L56.6,36.4z"/>
	<path d="M63,38.9c0.5,0,1.2-0.1,1.6,0.1c0.5,1-1.9,0.7-2.4,0.4c0-1.7,2.3-1.6,1.9-3.3c-0.3-0.1-0.5,0-0.7,0.1
		c-0.1,0.2-0.1,0.6-0.4,0.7c-0.9-1,1.1-2.1,1.7-1.1c0.2,0.4,0.2,1,0.1,1.3C64.5,37.9,63.5,38.3,63,38.9L63,38.9z"/>
	<path d="M62.3,35.6c0,1.3-0.3,2.7-0.6,3.9c-0.1,0-0.2,0-0.4,0c-0.3-0.9,0.2-1.8,0.3-2.6c-0.2,0-0.6,0.6-1,0.3
		c0.3-0.7,0.9-1,1.3-1.6C62.1,35.5,62.1,35.6,62.3,35.6L62.3,35.6z"/>
	<path d="M65.1,39.6c0.3-1.2,0.7-2.1,1-3.2c-0.4,0-1.1,0.2-1.2-0.2c0.3-0.7,1.8-0.6,2-0.1c0.1,0.5-0.5,1.5-0.6,2
		C66,38.8,65.8,40.5,65.1,39.6L65.1,39.6z"/>
	<path d="M75.3,35.8c0.3,0.7,0.1,2.2,0,3.1c0,0.4,0.1,1.1-0.3,1.1c-0.8,0.1-0.2-1.8-0.3-2.5c0-0.1-0.3,0.2-0.4,0.1
		c-0.1-0.7,0.4-1.3,0.7-1.7C75.1,35.8,75.2,35.8,75.3,35.8L75.3,35.8z"/>
	<path d="M69.1,35.9c1.5-0.3,1.2,4.1-0.5,3.9c-0.2,0-0.4-0.2-0.5-0.4C67.5,38.3,68.2,36.1,69.1,35.9L69.1,35.9z M68.8,39.2
		L68.8,39.2c0.6-0.4,0.8-1.8,0.5-2.5C68.4,36.7,68.4,38.6,68.8,39.2L68.8,39.2z"/>
	<path d="M72.6,35.9c1.1,0.6,0.5,4-1,3.8c-1-0.2-0.6-3-0.1-3.6C71.9,35.9,72.2,35.8,72.6,35.9L72.6,35.9z M71.9,38.9L71.9,38.9
		c0.6-0.3,0.8-1.6,0.4-2.3c-0.2,0-0.3-0.1-0.4-0.1C71.7,37.1,71.5,38.4,71.9,38.9L71.9,38.9z"/>
	<path d="M82.3,35.9c0.2,1.3-0.6,2.7-1.1,4c-0.2,0.6-0.4,1.4-0.6,2c-0.2,0.5-0.3,1.6-1.1,1.3c-0.1-0.6,0.3-1.2,0.5-1.8
		c0.3-1.2,0.8-2.4,1.2-3.6c0.2-0.7,0.5-1.4,0.8-1.9C82.1,35.9,82.2,35.9,82.3,35.9L82.3,35.9z"/>
	<path d="M59,36.3c0.3,0.6-0.5,0.7-1.2,0.6c-0.6,0-1.4,0-1.2-0.5C57.3,36.3,58.3,36.3,59,36.3L59,36.3z"/>
	<path class="st4" d="M49.6,36.3C49.3,39,49,41.6,48.5,44c-0.2,0.1-0.2,0.6-0.2,0.8c0.4,0.2,0.7-0.2,0.8-0.4c1.1-0.1,1.9,0,2.8,0
		c0.3,0,0.8,0,1.1-0.1c0.3-0.1,0.5-0.5,0.8-0.7c0.8-0.7,1.3-1.1,2.8-0.8c0.2,0,2.1,0.4,2.2,0.4c0,0.2,0.1,0.3,0.1,0.6
		c-0.9,0-2-0.3-2.6-0.1c0.2,0.7,1.6,0.3,2.2,0.6c0.3,0.1,0.5,0.5,0.5,0.9c-0.3,0.4-1.2,0-1.4,0.3c0,0.4,0.7,0.4,1,0.3
		c-0.6,0.6-0.5,1.7-1.2,2.1c-0.4,0.3-1.3,0.2-1.8,0.2c-0.9-0.1-1.5-0.7-2.2-0.8c0-0.3-0.1-0.4-0.1-0.7c-0.7-0.4-2.5-0.1-3.9-0.2
		c-0.9,0-1.7-0.1-2.7-0.1c-0.1-3.8,0.5-6.9,1.3-9.7C48.5,36.3,49.1,36.3,49.6,36.3L49.6,36.3z"/>
	<path d="M73.7,39.6c-0.2,0.1-0.2,0.1-0.4,0c-0.4-0.4,0.2-1.3,0.5-0.7C73.8,39.1,73.9,39.5,73.7,39.6L73.7,39.6z"/>
	<path d="M67.4,38.9c0.3,0.3,0.1,0.8-0.3,0.8C66.6,39.7,66.7,38.6,67.4,38.9L67.4,38.9z"/>
	<path d="M70.8,38.9c0.1,0.2,0,0.6-0.2,0.7C70,39.7,70.2,38.6,70.8,38.9L70.8,38.9z"/>
	<path d="M84.7,39.4c-0.1,0.7-0.5,1.2-1,1.7c-0.4,0.5-0.8,1.1-1.2,1.5c-0.2,0.2-0.5,0.4-0.8,0.2c0-0.7,0.7-1.3,1.2-1.8
		c0.5-0.6,0.9-1.3,1.4-1.7C84.6,39.2,84.6,39.3,84.7,39.4L84.7,39.4z"/>
	<path d="M123.9,40.8c-0.4,0.2-0.9,0.4-1.2,0.7c-0.2,0.2-0.4,0.6-0.6,0.6c-0.4,0.1-1-0.4-1.5-0.5c-0.3-0.1-0.5,0.1-0.7-0.2
		c0.2-0.8,1.6-0.3,2-0.1c0.4-0.5,1.1-1.2,2-1.3C124.5,40,124.6,40.4,123.9,40.8L123.9,40.8z"/>
	<path class="st9" d="M93.7,42.3c0.5,0.4,0.8,0.9,1.1,1.5c0.3,0.6,0.7,1.1,0.9,1.6c0.1,0.3,0.1,0.6,0.2,0.9c0.2,0.6,0.5,1,0.3,1.8
		c-0.1,0.5-0.5,1.2-0.7,1.8c-0.4,0.7-0.8,1.2-1.3,1.7c-0.4,0.4-1.1,1.4-1.5,1.4c-0.6,0.1-2.1-0.4-2.8-0.5c-0.9-0.2-1.7-0.3-2.4-0.5
		c-0.7-1.4-0.9-3.4-0.9-5.6C88.6,44.6,90.8,43.2,93.7,42.3L93.7,42.3z M14,51.3c0,0.8-0.3,2.3-0.7,3.7c-0.4,1.2-0.8,2.5-1.3,3
		c-1,0.9-2.5-0.3-2.2-1.8C11.2,54.6,12.7,53,14,51.3L14,51.3z M9,51.3c0.1,1.2-0.4,2.3-0.7,3.3c-0.9-0.1-1.5-0.4-1.6-1.2
		C7.2,52.6,8.4,52.3,9,51.3L9,51.3z M16.5,56.3c0.3,1.6,0.1,3.8-0.7,4.8c-0.8-0.1-1.6-0.5-1.6-1.1c0-0.5,0.8-1.2,1.2-1.7
		C15.9,57.5,16.3,56.9,16.5,56.3L16.5,56.3z M36.3,54.3c0,1.9-0.7,3.2-1,4.8c-1.1,0.5-2.3,1-3.5,1.3c-0.1,0.1-0.5,0-0.7-0.1
		c-1.1-0.4-1.5-1.3-2.2-2c0.1-2.6,0.9-4.4,1.9-6.1C33,52.5,34.9,53.1,36.3,54.3L36.3,54.3z M32.5,55.5L32.5,55.5
		c-0.2-0.4-0.6-1.8-1.1-1.7c-0.5,0.1,0,0.9,0.1,1.2c0.1,0.3,0.3,0.6,0.4,0.9c0.2,0.6,0.5,1.9,1.1,1.6C33.3,56.8,32.8,56.1,32.5,55.5
		L32.5,55.5z M33.9,54.1L33.9,54.1c-0.2,0.7-0.3,2.6,0.4,2.4c0.6-0.1,0-1.8,0-2.4C34.2,54.2,34.1,54.1,33.9,54.1L33.9,54.1z
		 M31.9,57.5L31.9,57.5c0-0.3-1.5-1.2-1.7-1.1C29.5,56.9,31.9,58.5,31.9,57.5L31.9,57.5z M46.2,43c0,1.1-0.4,2.7,0.1,3.6
		c0.3,0,0.7,0.1,1.1,0.1c-0.4,0.8,0,1.7-0.2,2.6c-0.1,0.3-0.7,0.9-1.1,1.2c-0.9,0.8-1.5,1.3-2.4,2.1c-0.6,0.5-1,1-2,1
		c-1.3-0.1-2.9-0.8-4-1.2c-0.1-4.2,1.2-7.3,2.9-9.9C42.5,42.2,44.6,42.5,46.2,43L46.2,43z M43.1,48.8L43.1,48.8
		c-0.5-1.1-0.9-2-1.3-3.2C41.7,45.1,41.3,44,41,44c0,0.1-0.1,0.1-0.1,0.2c-0.2,0.6,0.1,1.1,0.3,1.5c0.4,1.3,0.9,2.7,1.5,3.9
		c0.2,0.4,0.4,1,1,0.8C43.9,49.8,43.4,49.3,43.1,48.8L43.1,48.8z M44.3,46.1L44.3,46.1c0,0.9,0,3.2,0.7,3.1c0.6-0.1,0.1-1.2,0.1-1.7
		c-0.1-0.8,0-2.7-0.6-2.7c-0.1,0-0.1,0.1-0.2,0.2C44.2,45.2,44.3,45.7,44.3,46.1L44.3,46.1z M40.8,49.4L40.8,49.4
		c-0.5-0.3-1.1-0.8-1.5-0.7c-0.4,0.4,0.6,0.9,1,1.2c0.5,0.4,1.1,0.7,1.5,0.5C42,49.9,41.3,49.7,40.8,49.4L40.8,49.4z M80.9,49.1
		c-1.3-0.8-2.5-1.6-3.9-2.3c1.3-2.8,1.8-8.3,0.4-11.3c0.8-0.4,1.5-0.9,2.3-1.4c0.5-0.3,1.2-0.8,1.7-0.8c0.5,0,1.4,0.6,1.8,1
		c1.1,1,1.9,2.3,2.5,3.5c0.5,1.1,1.2,2.4,1.2,4c-0.1,2.2-2,3.8-3.1,5C82.9,47.6,82,48.4,80.9,49.1L80.9,49.1z M82,35.9L82,35.9
		c-0.3,0.5-0.5,1.2-0.8,1.9c-0.4,1.2-0.9,2.4-1.2,3.6c-0.2,0.6-0.6,1.2-0.5,1.8c0.8,0.3,1-0.7,1.1-1.3c0.2-0.6,0.4-1.4,0.6-2
		c0.5-1.3,1.2-2.7,1.1-4C82.2,35.9,82.1,35.9,82,35.9L82,35.9z M84.3,39.2L84.3,39.2c-0.5,0.5-0.9,1.2-1.4,1.7
		c-0.5,0.5-1.1,1.1-1.2,1.8c0.3,0.2,0.6,0,0.8-0.2c0.4-0.4,0.8-1,1.2-1.5c0.4-0.5,0.9-1.1,1-1.7C84.6,39.3,84.6,39.2,84.3,39.2
		L84.3,39.2z M92.8,44L92.8,44c-0.6,0.5-0.8,1.8-1.2,2.8c-0.4,1.1-1.1,2.2-0.8,3c0.7,0.1,0.7-0.8,0.9-1.2c0.4-1.1,0.8-2.1,1.2-3.1
		c0.2-0.5,0.6-1,0.4-1.5C93.1,43.9,92.9,43.9,92.8,44L92.8,44z M89.9,47.4L89.9,47.4c-0.1-0.5-0.1-1.3-0.5-1.4c0,0,0-0.1-0.1-0.1
		c0,0.1-0.1,0-0.1,0.2c0,0.8-0.1,2.5,0.7,2.8C90.3,48.6,90,47.9,89.9,47.4L89.9,47.4z M94.6,47.3L94.6,47.3
		c-0.5,0.4-0.9,0.9-1.3,1.5c-0.3,0.4-0.8,0.8-0.8,1.3c0.9,0.2,1.2-0.7,1.7-1.3c0.3-0.4,0.8-0.9,0.8-1.4
		C94.8,47.3,94.8,47.2,94.6,47.3L94.6,47.3z"/>
	<path class="st10" d="M126.3,43.2c1.1,1.6,0.5,4.4-1.3,4.7c-0.4,0.1-1,0.1-1.4-0.2c-0.5-0.4-0.8-1.2-0.8-1.7
		c-0.2-1.3,0.8-3.2,2.1-3.3c0.4,0,0.7-0.1,1,0.1C126.1,42.8,126.1,43.1,126.3,43.2L126.3,43.2z M124,46.2L124,46.2
		c0.1,0.2,0.5,0.2,0.8,0.2c0.4-0.3,0.4-1.2,0-1.4C124,44.8,123.9,45.5,124,46.2L124,46.2z"/>
	<path class="st11" d="M117.4,43.3c-1,0.6-1.8,1.3-2.3,2.4c-1.6-0.9-6.2-2.1-7.3,0c-0.8,1.6,1,3.2,2.6,2.6c0.3-0.1,0.8-0.5,0.6-1
		c-0.3-0.5-0.9,0.2-1.2,0.2c-0.9,0.1-1.8-0.8-1.2-1.6c0.2-0.3,0.7-0.5,1.1-0.5c1.9-0.3,3.6,0.5,5.2,0.9c0,0.7-0.1,1.5,0.4,1.9
		c0.5,1.8,2,2.8,4.3,2.8c1.9-0.2,2.8-1.7,3.3-3.3c0.4,0.3,0.8,0.8,1.5,1c1,0.2,1.8-0.4,2.4-0.8c2.4,1.6,4.3,3.6,5.4,6.5
		c0,0.2-0.5-0.1-0.5,0.2c0.6,0.7,1.6,1,2.4,1.4c-0.2,0.2-0.3,0-0.5,0c-1,0.1-1.9,1.1-2,2c0,0.3,0.1,0.6-0.1,1
		c-0.1,0.3-0.6,0.7-0.8,0.9c-2,1.6-5.1,2.4-9.1,2.1c-2.4-0.2-4.4-0.8-6.2-1.7c-1-0.5-1.8-0.9-2.8-1.5c-1-0.6-2.1-1.2-3-1.8
		c-1-0.6-2.3-2-3-3.1c-0.1-0.1-0.2-0.4-0.2-0.5c0-0.2,0.6-0.4,0.9-0.6c0.5-0.4,1.3-0.5,1.3-1.4c-1.2,0.1-2.3,1.3-3.2,2.2
		c-0.4,0.4-1.2,0.9-0.5,1.3c0.6-0.1,0.8-0.6,1.2-0.8c0.7,1.7,2.2,2.7,3.7,3.7c-0.5,0.6-1.5,1.7-1.3,2.7c0.1,0.7,0.9,0.8,1.3,1.2
		c-0.1,0.4-0.5,0.7-0.6,1.1c-1.7-1.2-3.4-2.7-4.8-4.6c-1.4-1.8-2.6-3.9-2.8-6.6c-0.6-3,1.5-5.9,4.4-7.3
		C108.5,42.8,113.9,42.1,117.4,43.3L117.4,43.3z M100.7,58.9c0.4,0.7,0.8,1.3,1.2,2C100.5,62,99.3,59.6,100.7,58.9L100.7,58.9z
		 M93.7,92c-1.7,0.8-4.3,1.4-6.5,0.7c-0.1-0.1-0.8-0.4-0.9-0.5c-1.2-0.4-1.5-1.7-2.1-2.9c-0.6-1.3-1.2-2.9-1.5-4.3
		c-0.8-1.7-0.9-4.8-0.1-6.8c0.2-0.4,0.5-0.8,0.4-1.3c-0.1-0.5-0.7-0.6-1.1-0.8c-0.5-0.2-1-0.5-1.4-0.4c-0.2,1,1.1,1,1.6,1.4
		c-0.4,0.8-0.8,1.8-1,2.9c-4.8,1.5-10.8,2.6-17,2.2c-1-0.1-1.9-0.2-2.6-0.6c0.6-2.7,0.4-5.3-0.4-7.6C60.9,73,60.5,72,60,71.3
		c-0.4-0.6-1.1-1.1-1.6-1.6c-0.5-0.5-0.8-1.4-1.6-1.4c-0.2,0.4,0.2,0.7,0.4,1c0.2,0.3,0.4,0.6,0.7,0.9c0.5,0.5,1.2,1,1.5,1.6
		c0.5,0.7,0.8,1.7,1.1,2.6c0.8,2.2,0.9,4.9,0.2,7.7c-0.6,2.4-1.6,4.4-3.2,5.8c-0.5,0.4-1.5,1.1-2.2,1.4c-0.4,0.2-2.1,0.3-2,1
		c0.1,0.3,0.2,0.3,0.6,0.4c0.2,0.4,0.5,0.6,0.7,1c-0.7,0.4-1.1,1.1-1.3,2.1c-0.3-0.8-0.8-1.7-1.8-1.4c-0.6,0.2-0.8,1-1,1.6
		c-0.4-0.4-0.5-1.2-1.1-1.3c-0.6-0.1-0.9,0.2-1.2,0.7c-0.5,0.7-1.1,1.6-1.2,2.7c-3-0.6-5-2.3-6.6-4.3c0.1-3.7,1.8-6.3,4.2-7.9
		c0.2-0.2,0.1,0.1,0.3,0.2c0.2-0.2,0.4-0.4,0.6-0.6c-2.8-2.9-4.7-7.5-4-13.2c-0.6,0.4-0.8,1.7-0.8,2.9c0,0.8,0.1,1.7,0.2,2.4
		c-4.6-0.3-8.6-2.1-12.6-3.2c-4-1.1-7.3-3-10.5-5c-0.5-0.3-1.1-0.6-1.6-1c-1.5-1-2.9-2.1-4.2-3.4c-3.5-3.2-6.7-7.1-8.5-12
		C4.2,52,5.2,52.7,6,53.5C6,55.6,8.3,55.1,9.3,56c-0.8,2,1.6,3.9,3.2,2.5c0.5,0.2,0.8,0.5,1.4,0.6c-0.8,0.8-0.2,1.9,0.9,2.4
		c1.2,0.5,1.9,0.1,2.2-1.1c2.1,1.1,5.7,1.4,9.2,1.3c1.5-0.1,3.5-0.3,4.7-0.5c5.6-1.1,9.3-5.2,13.9-8.7c0.9-0.7,1.6-1.6,2.5-2.2
		c0.4,1.8,1.2,3.4,2.1,4.8c0.8,1.2,1.8,2.1,3,2.8c1.8,0.5,3.7,1.1,6.1,1.3c2.9,0.2,6.3-0.3,8.6,0.7c0.4,0.2,0.9,0.5,1.4,0.8
		c0.8,0.5,1.4,1.1,2,1.8c0.4,1.3,0.9,2.4,2.2,2.8c-0.1,1.4-0.6,2.4-0.8,3.8c0.8,0.6,2,0.6,3.2,0.8c2.9,0.5,6-0.2,7.7-1.3
		c0.1-2.8-3-4.2-5.6-3c-0.5,0-1.5,0-1.6-0.3c0-0.3,0.5-0.3,0.7-0.3c0.8-0.2,1.6-0.4,1.9-1c-0.2-0.6,0.2-1.5,0.4-2.4
		c0.2-0.6,0.3-1.3,0.4-2c0.3-1.7,0.7-3.2,0.8-5.2c1.1,0.8,2,1.7,3.1,2.6c2.1,1.8,4.5,3.1,7.4,4.1c2.3,0.8,4.6,1.4,7.8,1.1
		c0.7-0.1,1.2-0.4,1.8-0.7c0.5,0.5,1.8,0.8,2.4,0.2c1.5,1.2,2.6,2.9,4.3,3.9c0.1,0.1-0.1,0.3-0.2,0.4c-0.3,0.4-0.6,0.9-1,1.3
		c-0.3,0.4-0.8,0.7-1.2,1.2c-0.7,0.8-1.5,1.6-2.4,2.3c-0.4,0.4-0.8,0.8-1.2,1.1c-1.9,1.6-4.3,2.5-6.4,3.8c-0.4-0.3-0.4-1.1-1.1-1.1
		c-0.4,0.6,0.3,1.3,0.6,1.8c0.5,0.9,1.1,1.7,1.3,2.9c0.1,0.2-0.1,0.2-0.1,0.4c0.4,0.6,0.4,1.8,0.3,2.7c-1.2,0-2.3,0.2-3.3,0.5
		c-0.6,0.2-1.6,0.3-1.5,1c0.9,0.1,1.8-0.4,2.8-0.5c1.5-0.2,3.3,0,4.8,0.1c-0.3,0.9,0.2,1.5,0.5,2c-2.1-0.3-3.3,1.3-2.3,2.9
		c-0.8-1-2.7-0.4-3,1C93.1,89.9,93.6,91.1,93.7,92L93.7,92z M48.7,66.3L48.7,66.3c0.4,0,1.1-0.4,1.4-0.8c1-1.5-1-3.3-2.5-2
		C47,64.7,47.2,66.5,48.7,66.3L48.7,66.3z M89.4,64.1L89.4,64.1c-0.2-1-1.9-0.9-2.4-0.1C86.5,66.1,89.8,65.8,89.4,64.1L89.4,64.1z
		 M35.8,64.4L35.8,64.4c-0.2,0.3-0.3,0.5-0.3,0.7c-0.1,1.2,1.1,2.2,2.3,2c0.7-0.1,1.6-1.5,1.3-2.5c-0.2-0.5-1-1.2-1.5-1.3
		c-0.2,0-0.5,0-0.7,0.1C36.2,63.5,36.1,63.8,35.8,64.4L35.8,64.4z M100.3,67.3L100.3,67.3c0.8,0.4,2.2-0.9,1.4-1.6
		c-0.6-0.5-0.8,0.5-1.4,0.5C100,66.6,100.1,67.2,100.3,67.3L100.3,67.3z M24.6,66.6L24.6,66.6c-0.1-0.8-1.6-1.2-2-0.3
		c0.1,0.4,0.1,0.6,0.2,1.1C23.5,67.9,24.7,67.3,24.6,66.6L24.6,66.6z M94.3,70.7L94.3,70.7c0.5,1.1,2.4,1.2,3.2,0.3
		c1.3-1.4-1.2-3.7-2.2-2.1C94.4,68.9,94,69.9,94.3,70.7L94.3,70.7z M30.9,69.2L30.9,69.2c-0.6,1.6,2.4,1.9,2.3,0.4
		c0-0.6-0.8-1.2-1.4-1.1C31.4,68.6,30.9,69,30.9,69.2L30.9,69.2z M52.5,72.2L52.5,72.2c1.8,1.1,2.5-2.5,0.8-2.1
		C52.6,70.2,51.6,71.6,52.5,72.2L52.5,72.2z M79.1,73.7L79.1,73.7c1.3,0,1.7-2.2-0.2-2c0,0-0.1,0-0.1,0.1
		C78.1,72.2,78,73.7,79.1,73.7L79.1,73.7z M56.3,74.9L56.3,74.9c0.2,0.5,1.3,0.8,1.9,0.6c0.6-0.2,1.1-1.3,1-1.9
		c-0.1-0.5-0.9-1-1.8-0.8C56.7,72.9,55.9,73.9,56.3,74.9L56.3,74.9z M64.6,76.6L64.6,76.6c0.5,0.6,1.6,0.7,2.1,0.6
		c1.8-0.5,1.1-4.1-1.1-3.5C64.8,73.9,63.8,75.7,64.6,76.6L64.6,76.6z M89.2,75.5L89.2,75.5c-0.4,1.6,2.6,1.2,2.5-0.3
		c0-0.4-0.5-0.7-1.3-0.6C90.1,74.7,89.3,75.1,89.2,75.5L89.2,75.5z M71.8,77L71.8,77c0.1,0.5,1.2,0.7,1.6,0.4c0.3-0.2,0.5-1,0.4-1.3
		c-0.1-0.4-0.4-0.6-1-0.5C72.3,75.7,71.7,76.3,71.8,77L71.8,77z M92.4,78.4L92.4,78.4c-1.1,0.3-1.7,2.5-0.3,2.6
		c1.7,0.2,2.8-3,0.6-3.1C92.5,78,92.5,78.2,92.4,78.4L92.4,78.4z M57.8,81.1L57.8,81.1c1.1,0,1.6-2,0-1.7
		C56.7,79.6,56.8,81.1,57.8,81.1L57.8,81.1z M53.9,84.1L53.9,84.1c0.1,1,1.9,0.4,1.2-0.7C54.5,83,53.9,83.6,53.9,84.1L53.9,84.1z
		 M126.3,55.9L126.3,55.9c0.7-0.3,1.5-0.4,2.3-0.4c0.4,0,1,0.2,1.1-0.2c0.1-0.6-0.8-0.6-1.4-0.5c-1.5,0.1-3.3,0.7-3.8,2
		C125.2,56.7,125.7,56.2,126.3,55.9L126.3,55.9z M128.7,56.2L128.7,56.2c-1.2-0.1-2.8,0.9-3,1.7c-0.2,0.8,0.3,1.2,0.8,1.3
		c0.5,0.1,1.1-0.1,1.7-0.4c1-0.5,2.3-1.1,1.5-2.4C129.3,56.5,129.1,56.2,128.7,56.2L128.7,56.2z"/>
	<path class="st10" d="M119.1,43.7c1.6-0.2,2.1,0.5,2.5,1.7c0.4,1.2,0.7,2.1,0.1,3.1c-0.2,0.4-0.6,0.9-0.9,1.1
		c-1.1,1-3.6,0.7-4.4-0.4C114.7,47.1,116.5,44.1,119.1,43.7L119.1,43.7z M119.4,47.8L119.4,47.8c0.7,0,0.9-1.2,0.4-1.7
		C118.4,45.6,118.3,47.9,119.4,47.8L119.4,47.8z"/>
	<path d="M93.2,44c0.3,0.5-0.2,1.1-0.4,1.5c-0.4,1-0.8,2-1.2,3.1c-0.2,0.4-0.2,1.3-0.9,1.2c-0.3-0.8,0.4-1.9,0.8-3
		c0.4-1,0.6-2.3,1.2-2.8C92.9,43.9,93.1,43.9,93.2,44L93.2,44z"/>
	<path d="M43.7,50.4c-0.5,0.2-0.8-0.4-1-0.8c-0.6-1.1-1.2-2.5-1.5-3.9c-0.1-0.5-0.4-0.9-0.3-1.5c0-0.1,0.1-0.1,0.1-0.2
		c0.4,0,0.7,1.1,0.8,1.6c0.4,1.2,0.8,2.2,1.3,3.2C43.4,49.3,43.9,49.8,43.7,50.4L43.7,50.4z"/>
	<path d="M44.3,44.9c0-0.1,0.1-0.1,0.2-0.2c0.6,0,0.5,1.9,0.6,2.7c0.1,0.6,0.5,1.7-0.1,1.7c-0.7,0.1-0.6-2.2-0.7-3.1
		C44.3,45.7,44.2,45.2,44.3,44.9L44.3,44.9z"/>
	<path d="M124.9,45c0.4,0.3,0.4,1.2,0,1.4c-0.4,0-0.7,0-0.8-0.2C123.9,45.5,124,44.8,124.9,45L124.9,45z"/>
	<path d="M89.9,48.9c-0.8-0.3-0.7-2-0.7-2.8c0-0.1,0.1-0.1,0.1-0.2c0.1,0,0.1,0,0.1,0.1c0.4,0.2,0.4,0.9,0.5,1.4
		C90,47.9,90.3,48.6,89.9,48.9L89.9,48.9z"/>
	<path d="M119.8,46.1c0.5,0.5,0.2,1.7-0.4,1.7C118.3,47.9,118.4,45.6,119.8,46.1L119.8,46.1z"/>
	<path class="st11" d="M99.3,51.8c-0.3,2.5,0.3,4.9,1.1,6.6c-0.8,0.3-1.4,1.2-1.1,2.3c-1.1,0.7-2.8,0.7-4.5,0.6
		c-3.1-0.2-6.3-1.5-8.5-2.8c-1.2-0.7-2.3-1.5-3.3-2.3c-1.1-0.8-2-1.9-3.2-2.4c0.2-1.7-0.3-2.9-0.9-3.9c-0.6-0.9-1.1-1.6-2.6-1.6
		c-0.1-0.2,0.4-0.7,0.4-1.1c1.9,1.2,3.9,2.8,6.3,4c2,1,4.3,1.6,6.8,2.2C93.3,54.2,97.2,53.3,99.3,51.8L99.3,51.8z"/>
	<path d="M94.9,47.4c0,0.5-0.5,0.9-0.8,1.4c-0.4,0.6-0.8,1.6-1.7,1.3c0-0.5,0.5-0.9,0.8-1.3c0.4-0.6,0.8-1.1,1.3-1.5
		C94.8,47.2,94.8,47.3,94.9,47.4L94.9,47.4z"/>
	<path d="M41.9,50.4c-0.4,0.3-1-0.1-1.5-0.5c-0.4-0.3-1.5-0.8-1-1.2c0.4-0.1,1,0.4,1.5,0.7C41.3,49.7,42,49.9,41.9,50.4L41.9,50.4z"
		/>
	<path d="M1.4,51.9c0.4,0.4,0.3,1,0.5,1.4c0.1,0.5,0.3,0.9,0.5,1.3c0.4,0.9,0.9,1.6,1.3,2.4C2.6,57,2.2,56,1.8,54.9
		c-0.4-1-0.8-1.9-0.6-2.9c0-0.1,0.1-0.1,0.1-0.2C1.4,51.9,1.4,51.9,1.4,51.9L1.4,51.9z M0.1,53.7c0.1,0,0.1,0,0.2,0
		c0.2,0.4,0.3,0.9,0.5,1.4C1,55.5,1.3,56,1.2,56.4c-0.6-0.1-1.1-1.4-1.2-2C0,54.2,0,53.9,0.1,53.7L0.1,53.7z"/>
	<path class="st10" d="M45.5,74.8c0.4,0.4,0.3,1,0.5,1.4c0.1,0.5,0.3,0.9,0.5,1.3c0.4,0.9,0.9,1.6,1.3,2.4c-1.1-0.1-1.5-1.1-1.9-2.2
		c-0.4-1-0.8-1.9-0.6-2.9c0-0.1,0.1-0.1,0.1-0.2C45.4,74.8,45.4,74.8,45.5,74.8L45.5,74.8z M44.2,76.6c0.1,0,0.1,0,0.2,0
		c0.2,0.4,0.3,0.9,0.5,1.4c0.2,0.4,0.5,0.9,0.4,1.3c-0.6-0.1-1.1-1.4-1.2-2C44,77,44.1,76.8,44.2,76.6L44.2,76.6z"/>
	<path class="st10" d="M86.3,84.1c0.3,0.4,0.2,1,0.3,1.5c0.1,0.5,0.2,0.9,0.3,1.4c0.3,0.9,0.7,1.7,0.9,2.6c-1.1-0.3-1.3-1.3-1.6-2.4
		c-0.3-1-0.5-2-0.2-2.9c0-0.1,0.1-0.1,0.1-0.1C86.3,84.1,86.3,84.1,86.3,84.1L86.3,84.1z M84.8,85.7c0.1,0,0.1,0,0.2,0
		c0.1,0.5,0.2,0.9,0.3,1.4c0.1,0.5,0.4,1,0.2,1.4c-0.5-0.2-0.9-1.5-0.9-2.1C84.6,86.2,84.6,85.9,84.8,85.7L84.8,85.7z"/>
	<path class="st10" d="M62.5,63c0.4,0.4,0.3,1,0.4,1.4c0.1,0.5,0.3,0.9,0.5,1.3c0.3,0.9,0.9,1.6,1.2,2.5c-1.1-0.2-1.4-1.2-1.8-2.2
		c-0.4-1-0.7-1.9-0.5-2.9c0-0.1,0.1-0.1,0.1-0.2C62.4,63,62.4,63,62.5,63L62.5,63z M61.1,64.7c0.1,0,0.1,0,0.2,0
		c0.1,0.5,0.3,0.9,0.5,1.4c0.2,0.4,0.5,0.9,0.3,1.3c-0.6-0.1-1.1-1.4-1.1-2.1C60.9,65.2,61,64.9,61.1,64.7L61.1,64.7z"/>
	<path d="M33,57.5c-0.5,0.3-0.8-1-1.1-1.6c-0.1-0.3-0.2-0.6-0.4-0.9c-0.1-0.3-0.6-1-0.1-1.2c0.4-0.1,0.9,1.3,1.1,1.7
		C32.8,56.1,33.3,56.8,33,57.5L33,57.5z"/>
	<path d="M34.3,54.2c0,0.6,0.6,2.3,0,2.4c-0.7,0.2-0.6-1.8-0.4-2.4C34.1,54.1,34.2,54.2,34.3,54.2L34.3,54.2z"/>
	<path d="M124.5,56.7c0.5-1.3,2.3-1.8,3.8-2c0.6,0,1.5,0,1.4,0.5c-0.1,0.4-0.6,0.2-1.1,0.2c-0.7,0-1.6,0.2-2.3,0.4
		C125.7,56.2,125.2,56.7,124.5,56.7L124.5,56.7z"/>
	<path d="M128.4,58.9c-1.1,0.5-3.3,1.2-2.7-1c0.2-0.8,1.8-1.8,3-1.7C130.9,56.3,130,58.1,128.4,58.9L128.4,58.9z"/>
	<path d="M30.2,56.5c0.2-0.1,1.7,0.8,1.7,1.1C31.9,58.5,29.5,56.9,30.2,56.5L30.2,56.5z"/>
	<path class="st8" d="M113.2,59.8c-0.3,0.7-0.7,1.4-1.2,1.9c-1.1-0.3-2-0.9-2.8-1.6c0.2-0.9,0.6-1.5,1.1-2.1
		C111.3,58.6,112.1,59.3,113.2,59.8L113.2,59.8z"/>
	<path class="st8" d="M118.3,62c-0.4,0.5-0.5,1.2-1,1.4c-1.1,0.4-2.1-0.6-3.1-0.6c0.3-0.7,0.7-1.3,1.1-1.9
		C116.3,61.3,117.2,61.7,118.3,62L118.3,62z"/>
	<path class="st8" d="M107,61.9c-0.4,0.7-0.8,1.3-1.4,1.7c-0.4-0.2-0.5-0.7-0.9-0.9c0.5-0.4,1.1-0.9,1.5-1.4
		C106.6,61.4,106.6,61.8,107,61.9L107,61.9z M106.6,62L106.6,62c-0.2-0.7-1.3,0.5-1.3,0.8C105.6,63.5,106.7,62.3,106.6,62L106.6,62z
		"/>
	<path class="st12" d="M105.3,62.8c0-0.3,1-1.5,1.3-0.8C106.7,62.3,105.6,63.5,105.3,62.8L105.3,62.8z"/>
	<path class="st13" d="M74.6,62.9c0.4,1,0.2,1.9,0.4,3c0.7-0.1,1.3,0.1,2.1,0.2c-0.8,0.7-2.6,1.1-3.9,0.6c0.2-1.2,0.3-2.4,0.2-3.7
		C73.7,63,74.1,62.9,74.6,62.9L74.6,62.9z"/>
	<path d="M47.6,63.5c1.6-1.3,3.6,0.5,2.5,2c-0.3,0.4-0.9,0.8-1.4,0.8C47.2,66.5,47,64.7,47.6,63.5L47.6,63.5z M48.3,65.7L48.3,65.7
		c0.5,0.2,1.2-0.1,1.4-0.6c0.3-1.1-0.8-1.5-1.7-1C47.7,64.7,47.7,65.5,48.3,65.7L48.3,65.7z"/>
	<path d="M87,63.9c0.4-0.8,2.2-0.9,2.4,0.1C89.8,65.8,86.5,66.1,87,63.9L87,63.9z M87.5,64.7L87.5,64.7c0.4,0.5,1.3,0.4,1.2-0.5
		C88.3,63.9,87.3,63.7,87.5,64.7L87.5,64.7z"/>
	<path d="M36.9,63.4c0.3-0.1,0.5-0.1,0.7-0.1c0.5,0.1,1.4,0.8,1.5,1.3c0.3,1-0.6,2.3-1.3,2.5c-1.2,0.2-2.4-0.8-2.3-2
		c0-0.2,0.2-0.4,0.3-0.7C36.1,63.8,36.2,63.5,36.9,63.4L36.9,63.4z M37.2,64.1L37.2,64.1c-0.6,0-1.2,0.5-1.2,1.1
		c-0.1,0.9,0.7,1.3,1.7,1.3c0.5-0.3,0.6-0.9,0.7-1.5C38.1,64.7,37.8,64.1,37.2,64.1L37.2,64.1z"/>
	<path d="M100.3,66.2c0.6,0,0.8-1,1.4-0.5c0.8,0.7-0.6,2-1.4,1.6C100.1,67.2,100,66.6,100.3,66.2L100.3,66.2z M100.7,66.4
		L100.7,66.4c-0.1,0.1,0,0.3-0.1,0.5c0.4,0,0.8-0.3,0.7-0.7C101.1,66.5,100.9,66.3,100.7,66.4L100.7,66.4z"/>
	<path d="M22.8,67.3c0-0.4,0-0.7-0.2-1.1c0.4-0.9,1.9-0.5,2,0.3C24.7,67.3,23.5,67.9,22.8,67.3L22.8,67.3z M23.2,67.1L23.2,67.1
		c0.3,0.1,0.8,0,0.8-0.4C23.8,66.3,23,66.3,23.2,67.1L23.2,67.1z"/>
	<path class="st10" d="M101.3,66.2c0.1,0.4-0.3,0.7-0.7,0.7c0-0.2,0-0.4,0.1-0.5C100.9,66.3,101.1,66.5,101.3,66.2L101.3,66.2z
		 M57.7,80C57.7,80,57.7,80,57.7,80c0.2,0.2,0.4-0.1,0.6,0C58.6,80.6,57.1,80.7,57.7,80L57.7,80z M54.7,83.8c0.1,0.2,0,0.4-0.3,0.3
		C54.4,83.9,54.5,83.8,54.7,83.8L54.7,83.8z M73.2,76.2c0.2,0.2,0.1,0.7-0.1,0.9c-0.5,0-0.9,0-0.8-0.5
		C72.5,76.4,72.7,76.2,73.2,76.2L73.2,76.2z M79.6,72.5c0.1,0.6-0.6,0.8-0.8,0.5C78.7,72.4,79.3,72.1,79.6,72.5L79.6,72.5z
		 M88.7,64.2c0.1,0.8-0.8,0.9-1.2,0.5C87.3,63.7,88.3,63.9,88.7,64.2L88.7,64.2z M91.1,75.2c0.1,0.7-0.9,1-1.3,0.6
		C89.8,75.3,90.4,75.3,91.1,75.2L91.1,75.2z M91.9,80.3c0-0.5,0.2-1.2,0.6-1.4C94,77.9,93.2,81.2,91.9,80.3L91.9,80.3z M96.2,69.1
		c0.7-0.1,1.1,0.4,1,1.1c-0.2,0.9-2,0.9-2.2,0.2C94.7,69.5,95.6,69.2,96.2,69.1L96.2,69.1z"/>
	<path d="M95.3,68.9c1-1.6,3.5,0.7,2.2,2.1c-0.8,0.9-2.8,0.7-3.2-0.3C94,69.9,94.4,68.9,95.3,68.9L95.3,68.9z M94.9,70.4L94.9,70.4
		c0.2,0.7,2.1,0.7,2.2-0.2c0.1-0.7-0.4-1.1-1-1.1C95.6,69.2,94.7,69.5,94.9,70.4L94.9,70.4z"/>
	<path d="M31.8,68.5c0.5-0.1,1.3,0.5,1.4,1.1c0.1,1.5-2.8,1.2-2.3-0.4C30.9,69,31.4,68.6,31.8,68.5L31.8,68.5z M31.5,69.5L31.5,69.5
		c-0.1,0.6,0.8,0.6,1,0.2C32.2,69.3,31.9,69.2,31.5,69.5L31.5,69.5z"/>
	<path d="M53.2,70c1.7-0.4,1,3.2-0.8,2.1C51.6,71.6,52.6,70.2,53.2,70L53.2,70z M52.6,71.7L52.6,71.7c0.6,0.4,1.3-0.2,1-1
		C53,70.4,52.5,71.2,52.6,71.7L52.6,71.7z"/>
	<path d="M78.9,71.7C78.9,71.7,78.9,71.7,78.9,71.7c1.9-0.3,1.5,2,0.3,2C78,73.7,78.1,72.2,78.9,71.7L78.9,71.7z M78.8,73L78.8,73
		c0.3,0.4,1,0.2,0.8-0.5C79.3,72.1,78.7,72.4,78.8,73L78.8,73z"/>
	<path d="M57.3,72.7c0.9-0.2,1.7,0.3,1.8,0.8c0.1,0.7-0.4,1.7-1,1.9c-0.6,0.2-1.7,0-1.9-0.6C55.9,73.9,56.7,72.9,57.3,72.7
		L57.3,72.7z M57.1,73.2L57.1,73.2c-0.3,0.4-0.5,0.7-0.5,1.4c0.6,0.8,2.1,0.3,1.9-0.9C58.3,73.3,57.5,73.5,57.1,73.2L57.1,73.2z"/>
	<path d="M65.6,73.7c2.2-0.6,2.9,3,1.1,3.5c-0.5,0.1-1.7,0-2.1-0.6C63.8,75.7,64.8,73.9,65.6,73.7L65.6,73.7z M65.5,74.3L65.5,74.3
		c-0.4,0.3-0.7,1.1-0.5,1.8c0.3,0.3,0.8,0.5,1.5,0.5C67.6,76,67,73.7,65.5,74.3L65.5,74.3z"/>
	<path class="st10" d="M66.5,76.6c-0.7,0-1.2-0.1-1.5-0.5c-0.2-0.7,0.1-1.5,0.5-1.8C67,73.7,67.6,76,66.5,76.6L66.5,76.6z
		 M24.1,66.8c0,0.4-0.5,0.5-0.8,0.4C23,66.3,23.8,66.3,24.1,66.8L24.1,66.8z M32.4,69.7c-0.1,0.4-1.1,0.4-1-0.2
		C31.9,69.2,32.2,69.3,32.4,69.7L32.4,69.7z M38.5,65c-0.2,0.6-0.3,1.2-0.7,1.5c-1,0.1-1.8-0.4-1.7-1.3c0-0.5,0.6-1.1,1.2-1.1
		C37.8,64.1,38.1,64.7,38.5,65L38.5,65z M47.9,64.1c0.9-0.5,2-0.1,1.7,1c-0.1,0.5-0.9,0.8-1.4,0.6C47.7,65.5,47.7,64.7,47.9,64.1
		L47.9,64.1z M53.6,70.7c0.3,0.7-0.3,1.4-1,1C52.5,71.2,53,70.4,53.6,70.7L53.6,70.7z M58.5,73.7c0.2,1.2-1.3,1.7-1.9,0.9
		c-0.1-0.7,0.2-1,0.5-1.4C57.5,73.5,58.3,73.3,58.5,73.7L58.5,73.7z"/>
	<path d="M90.4,74.6c0.8-0.2,1.2,0.1,1.3,0.6c0.1,1.5-2.9,1.9-2.5,0.3C89.3,75.1,90.1,74.7,90.4,74.6L90.4,74.6z M89.7,75.9
		L89.7,75.9c0.4,0.4,1.4,0.1,1.3-0.6C90.4,75.3,89.8,75.3,89.7,75.9L89.7,75.9z"/>
	<path d="M72.8,75.6c0.6-0.1,0.9,0.1,1,0.5c0.1,0.4-0.1,1.1-0.4,1.3c-0.4,0.3-1.5,0.1-1.6-0.4C71.7,76.3,72.3,75.7,72.8,75.6
		L72.8,75.6z M72.3,76.6L72.3,76.6c-0.1,0.5,0.4,0.5,0.8,0.5c0.1-0.2,0.2-0.7,0.1-0.9C72.7,76.2,72.5,76.4,72.3,76.6L72.3,76.6z"/>
	<path d="M92.7,78c2.2,0.1,1.1,3.3-0.6,3.1c-1.4-0.2-0.9-2.4,0.3-2.6C92.5,78.2,92.5,78,92.7,78L92.7,78z M92.4,78.9L92.4,78.9
		c-0.4,0.2-0.6,0.9-0.6,1.4C93.2,81.2,94,77.9,92.4,78.9L92.4,78.9z"/>
	<path d="M57.8,79.4c1.6-0.3,1.1,1.7,0,1.7C56.8,81.1,56.7,79.6,57.8,79.4L57.8,79.4z M58.3,80L58.3,80c-0.2-0.1-0.4,0.2-0.6,0.1
		c0,0,0-0.1-0.1-0.1C57.1,80.7,58.6,80.6,58.3,80L58.3,80z"/>
	<path class="st11" d="M42.4,79.9c0.6,1.2,1.3,2.4,2.1,3.4c-1.6,0.9-2.8,2.2-3.7,3.9c-1.1-0.5-2.1-1-2.8-2c0-2.8,1.3-4.3,2.7-5.7
		C41.4,79.6,41.8,79.8,42.4,79.9L42.4,79.9z"/>
	<path d="M55.1,83.4c0.7,1.1-1.1,1.7-1.2,0.7C53.9,83.6,54.5,83,55.1,83.4L55.1,83.4z M54.4,84.1L54.4,84.1c0.3,0.1,0.4-0.1,0.3-0.3
		C54.5,83.8,54.4,83.9,54.4,84.1L54.4,84.1z"/>
	<path d="M102.5,87c-0.2-0.9,0.7-1.7,0.9-2.6C104.5,84.7,103.2,87,102.5,87L102.5,87z M105.8,83.1c0.6,0.2,0.2,1,0.1,1.4
		c-0.5,1.8-1.3,3.7-2.8,4.4c0.7-1.3,1.6-2.6,2.1-4.2C105.4,84.1,105.4,83.5,105.8,83.1L105.8,83.1z"/>
	<path class="st11" d="M82,85.9c0.6,1.6,1.2,3.3,2,4.8c-1.1,0.1-2.1-0.1-2.8-0.5c-0.5-1.1-1.2-1.9-1.5-3.1
		C80.4,86.6,81.2,86.3,82,85.9L82,85.9z"/>
	<path class="st10" d="M50.1,96.5c-0.9,0-1.6-0.2-2.4-0.3c0.2-1.2,0.8-2.1,1.5-2.9C49.9,93.9,50.1,95.1,50.1,96.5L50.1,96.5z
		 M96.8,89.9c-0.9,0.5-1.5,1.1-2.5,1.5c0.1-0.8-0.4-1.5-0.2-2.3C94.5,87.5,96.5,88.9,96.8,89.9L96.8,89.9z M99.9,86.6
		c-0.7,0.9-1.2,2.1-2.3,2.6c-0.2-0.6-1.7-1.8-0.9-3c0.1-0.2,0.4-0.5,0.9-0.7c0.4-0.1,1,0,1.3,0.1C99.3,85.8,99.6,86.3,99.9,86.6
		L99.9,86.6z M98.7,83.3c0.5,0.1,1.1,0,1.5,0.2c0.2,0.1,0.4,0.6,0.6,0.6c0.1,0.3,0.4,0.8,0.3,1.1c-0.1,0.4-0.7,0.5-0.8,0.5
		c-0.1,0-0.9-0.8-1.1-0.9C98.8,84.4,98.4,83.9,98.7,83.3L98.7,83.3z M55.9,94.4C55.7,94.7,56,94.6,56,95c-0.4,0.3-1.7,0.7-2.2,0.9
		c0.1-1.4,0.2-3.2,1.3-3.7C55.5,92.8,55.8,93.6,55.9,94.4L55.9,94.4z M52.9,96.2c-0.8,0.1-1.3,0.4-2.2,0.3c0.2-1.3,0.3-2.9,1.1-3.5
		c0.3-0.3,0.9,1,1,1.3C52.9,95,52.8,95.5,52.9,96.2L52.9,96.2z"/>
	<path class="st13" d="M63.9,17.8c0.8,0,1.7,0.4,2.7,0.4c-0.1,0.3-0.4,0.7-0.2,1.1C65.5,19,64.5,18.5,63.9,17.8L63.9,17.8z"/>
	<path class="st10" d="M41.1,76.1c0.1,1.1,0.6,1.9,0.9,2.9c-2.1-0.6-4.1-1.5-6-2.3c-1-0.4-1.9-1.1-2.9-1.5c-2-0.9-4.2-1.6-6-2.7
		C31.6,73.9,35.8,75.5,41.1,76.1L41.1,76.1z M110.5,62c-0.2,0.4-0.3,0.8-0.5,1.3c-0.3-0.1-0.5-0.3-0.7-0.4
		C109.8,62.6,109.9,61.4,110.5,62L110.5,62z M108.8,66c-2.4,4-5.4,7.4-9,10.3c-1.2,1-2.5,2-4.1,2.6c-0.2-1.2-0.7-2.1-1.3-3
		c5.3-2.4,9.6-5.8,12.9-10.3C107.9,65.7,108.3,65.9,108.8,66L108.8,66z M81.2,80.8c0,1.4,0.2,3.1,0.6,4.3c-1.6,0.6-3,1.5-5.1,1.9
		c-4,1.2-8.7,1.3-13,0.1c-1.4-0.2-2.8-0.3-3.8-0.8c0.5-1.2,1.3-2.6,1.6-4.2c1.5,0.8,3.9,0.7,6.1,0.8c2.2,0.1,4.7-0.3,7-0.7
		c1.7-0.3,3.4-0.4,5-0.9C80.2,81.1,80.8,81,81.2,80.8L81.2,80.8z"/>
	<path d="M36.2,58.4c0,0.1,0.4-0.2,0.6-0.4c1.5-1.2,3.3-2.5,4.7-3.8c-1.6-0.4-3.4-0.7-4.5-1.6c0-4,0.8-6.9,2.3-9.4
		c1-1.8,1.7-1.7,4-1.5c1.1,0.1,2.2,0.3,3,0.5c0.1-1.2,0.3-2.2,0.5-3.3c-0.8-0.5-2.3-0.8-2.3-1.9c0-0.3,0.2-0.5,0.3-0.8
		c0.3-1,0.4-1.9,0.8-2.9c1-2.5,2.8-4.7,4.7-6.3c-0.3-0.3-0.8-0.3-0.8-0.7c0-0.4,0.4-0.7,0.8-0.8c0.3-0.8,1.4-1.7,1.5-2.7
		c0.1-0.8-0.2-2-0.4-2.9c-0.9-4.2-1.7-10.1,0.3-13.8c1-1.9,2-3.8,3.8-4.8c0.9-0.5,2.4-0.9,3.9-1.2c2.3-0.4,5.4-0.4,6.8,0.6
		c2.4,0.5,4,1.7,5.2,3.3c0,0.3,0,0.4-0.1,0.5c0.6-0.2,0.9-0.9,1.3-1.5C72.8,2.9,73,2.7,73,2.4c0.1-0.5-0.4-1.1-0.1-1.5
		c0.6-0.1,1,0.6,1.4,1.2c0.6,0.9,1.4,1.9,0.8,3.4c-0.2,0.6-1.1,1.8-1.7,2c-0.4,0.1-0.8-0.2-1.2-0.1c0.1,0.9,0.2,2.1,0.9,2.5
		c0.7-0.6,1.3-1.8,2.2-2.2c0.3-0.1,0.8-0.3,1.2-0.3c1.3,0.2,1.1,2.9-0.4,2.6c-0.2-0.7,1.2-1.2,0.3-1.9c-1.5,0.2-2,1.4-3,2.2
		c0.4,1,0,2.4-0.6,3c1.7,2-0.5,5.4-2.1,6.3c0.5,2-0.7,3.5-1.9,4.3c0.4,0.7,0.9,1.2,2,1.4c0.7,0.1,1.6,0,2.5,0.1
		c0.2,0,0.5,0.2,0.7,0.2c1.3,0.2,2.5,0,2.5,1.1c1.6-0.1,3.5-0.2,5-0.1c0.4,0,0.8,0.2,1.2,0c0.3-0.2,0.6-1.3,0.8-1.8
		c0.5-1.3,0.8-2.5,1.2-3.9c0.1-0.5,0.4-1.7,0.3-2.2c-0.1-0.4-0.6-0.7-0.8-1.1c-0.3-0.5-0.5-1.2-0.4-2.1c0.1-1.4,1.3-2.3,2.1-3.2
		c0.2-0.3,0.6-0.9,1-0.7c0.4,0.1,0.3,0.6,0.5,1c0.4-0.1,0.9-0.9,1.4-0.8c0.4,0.1,1,1.3,1,2c0.4,0.4,0.7,1.2,0.4,1.9
		c1.1,1.3-1.2,3.6-2.4,4c-0.9,3.5-1.5,7.3-3.3,9.9c-2.3,0.7-5.5,0.4-8.2,0.2c-0.2,0.3-0.2,0.6-0.4,1c-0.4,0.7-1.4,1.3-1.2,2
		c0.2,0.5,1.1,0.4,1.5,0.8c0.4,0.5,0.8,0.9,1.1,1.5c0.6-0.3,1.2-0.7,1.9-1.2c0.6-0.4,1.2-1,1.8-1.2c1-0.3,1.3-0.1,2,0.5
		c2.5,2,5.1,5.1,5.1,8.5c0,1.6-0.8,2.4-1.5,3.3c-0.4,0.6-4.1,4.3-4.8,4.6c1.6,0.8,3,1.8,5,2.2c-0.5-1.6-0.6-3.7-0.4-5.7
		c1-1.3,6-4.8,7.7-4.4c1.4,0.4,3.7,5.7,2.9,7.5c-0.2,0.5-2.4,3.5-2.8,3.8c2-0.4,4-0.9,5.1-2.1c1-3,1.1-2.8,3.4-4.8
		c1.6-1.4,2.5-2.5,5.9-3.4c3-0.8,7.4-1,10.1,0.4c1.8-0.6,3.3,0.3,3.8,1.6c0.7-1.6,1.4-2.6,3.3-2.6c0.5,0,1,0.2,1.5,0.7
		c1,1.1,0.9,3.7,0.1,4.8c2.8,1.4,4.7,3.7,5.9,6.7c0,0.2,0,0.4-0.1,0.6c0.6,0.3,2.1,0.7,1.8,1.7c-0.1,0.2-0.2,0.3-0.4,0.3
		c-0.3,1.3-1.1,1.8-1.8,2.1c-0.2,0.6-0.8,1.3-1.4,1.7c-2.2,1.8-5.2,2.5-9.4,2.3c-0.9-0.1-1.8-0.2-2.6-0.4c-0.6,1.2-1.5,2.4-3.5,1.8
		c-0.8-0.2-2.2-0.8-2.2-1.2c-0.1-0.9,1-1.8,1.4-2.4c-0.3-0.1-0.5-0.2-0.8-0.3c-0.7,0.9-1.1,2.8-2.8,2.1c-0.6,0.8-0.8,1.8-1.2,2.6
		c-1.2,2.6-3,4.7-4.8,6.8c-1.5,1.9-3.4,3.5-5.3,5c-1.2,1-2.5,2-4.1,2.6c0.1,0.8,0.2,1.8,0.1,2.6c0.5-0.1,5.4,0.6,5.9,2
		c0.2,1.2-1.9,4.1-2.5,4.8c-2.7,3.1-9,6-13,4.2c-0.9-0.4-1.5-1-2-1.6c-1.6,0.2-3,0.1-3.7-0.8c-0.3-0.3-1.5-3-1.5-3.3
		c-9,2.5-16.8,0.3-19.7-0.4c-0.1,0-0.6,0.5-0.7,0.7c-1.1,1.2-2.4,2.3-4.2,2.6c0.7,0.9,1.8,2.2,2,3.8c0.1,0.7,0,1.4-0.4,1.7
		c-1.6,1.4-6,1.6-8.1,1.2c-2.2-0.4-3.7-1-5.2-2.1c-1.4-1-2.4-1.9-3.2-3.4c0-1.4,0.3-2.5,0.7-3.4c-0.8-0.5-1.6-0.9-2.4-1.6
		c-0.3-0.3-0.6-0.7-0.7-1c-0.1-0.7,0.1-1.7,0.3-2.3c0.6-1.4,1.7-2.8,2.5-3.7c-0.7-0.4-1.3-0.5-2.2-0.8c-1.8-0.6-3.4-1.7-5.2-2.6
		c-0.9-0.4-1.8-0.8-2.7-1.2c-0.9-0.4-1.8-0.8-2.6-1.2c-3.5-1.6-6.9-3.2-10-5.5c-1.5-1.1-3-2.1-4.4-3.3c-1.3-1.2-2.7-2.4-4-3.7
		c-0.6-0.6-1.1-1.4-1.7-2.2c-0.5-0.8-1.2-1.5-1.6-2.2c-0.5-0.8-0.9-1.7-1.3-2.5c-0.4-0.9-0.9-1.8-1.2-2.7c-0.1-0.5-0.2-1-0.3-1.5
		c-0.1-0.4-0.5-1-0.2-1.4c0.4,0.1,0.4,0.6,0.5,0.8C4,50.6,4.9,52,6.2,52.8c1-0.8,2.1-1.5,2.8-2.8c0.2-0.3,0.3-0.9,0.7-0.9
		c0.5,0.1,0.2,1.4,0.2,1.7c-0.2,1.5-0.4,2.9-1,4c0.2,0.3,0.6,0.3,0.8,0.5c0.8-0.8,1.5-1.7,2.3-2.7c0.6-0.7,1.3-1.3,1.7-2.1
		c0.3-0.5,0.3-1.2,1-1.4c0.4,0.7,0.1,1.6,0.1,2.3c-0.3,2.3-0.9,4.5-1.8,6.2c0.4,0.3,1,0.4,1.3,0.8c0.7-1.1,1.5-1.9,2-3.3
		c0.1-0.2,0.3-1.2,0.7-1.2c0.6,0.1,0.4,2.1,0.4,2.8c0.1,1.2,0,2-0.2,2.9c1.6,1.1,4.8,1.2,7.7,1.2c2.1,0,4.3-0.1,5.9-0.4
		c-0.8-0.7-2.5-1.1-2.6-2.3c-0.1-0.6,0.1-1.5,0.2-2.2c0.1-0.6,0.4-1.3,0.6-1.7c0.3-0.6,0.5-1.3,0.9-1.8c0.8-1.4,1-1,2.7-0.7
		c0.9,0.1,2,0.5,2.8,0.8c0.7,0.3,1.6,0.9,1.7,1.3c0.2,0.5,0,1.4-0.1,2.1C36.8,57,36.4,57.8,36.2,58.4C36.2,58.4,36.2,58.4,36.2,58.4
		L36.2,58.4z M61.6,2.4L61.6,2.4c0,0.2,0.2,0.3,0.4,0.3c-0.2-0.8,1-1.2,1.1-0.6c0.1,0.4-0.5,0.6-0.7,0.8c0.2,0.1,0.2,0.3,0.5,0.2
		c0.4-0.3,0.3-0.9,1-0.9c0,0.1,0.1,0.1,0.1,0.2c-0.1,0.6-1,0.6-0.8,1.3c0.7,0,0.5-0.9,1.2-0.8c0,0.1,0,0.1,0.1,0.1
		c0,0.6-0.7,0.5-0.7,1.2c0.4,0,0.4-0.5,0.8-0.5C64.8,3.7,64.5,4,64.7,4c0.2-0.1,0.5-0.1,0.7-0.2c-0.1-0.1-0.2-0.4-0.2-0.5
		c-0.3,0-0.4-0.3-0.5-0.6c-0.6,0.1-0.7-0.4-0.6-0.9c-0.8,0.2-0.8-0.7-0.5-1.1c-1.4-0.1-2.8,0-4,0.1c-0.8,0.4,0.2,1.4,0.7,0.7
		c0-0.4,0.3-1,0.8-0.6c0.1,0.6-0.8,0.6-0.5,1.3c0.2,0,0.4,0,0.5-0.1c0-0.6,0.3-0.9,0.9-0.9c0,0.1,0.2,0,0.2,0.2
		C62.3,2.1,61.9,2.2,61.6,2.4L61.6,2.4z M63.8,1.5L63.8,1.5c0.2,0.1,0.2,0.1,0.5,0.1c0.1-0.2,0.2-0.4,0.3-0.6
		c-0.2,0-0.1,0.1-0.2,0.2c0-0.1,0-0.1,0-0.2C63.9,0.9,63.8,1.1,63.8,1.5L63.8,1.5z M57.8,1.5L57.8,1.5c-0.5-0.1-1,0.1-1,0.6
		c0.1,0.2,0.3,0.3,0.6,0.3c0-0.6,0.9-1.3,1.3-0.7c-0.2,0.5-0.6,0.7-1,0.9c0,0.4,0.5,0.5,0.9,0.4c0.1-0.4,0.3-0.8,0.8-0.8
		c0,0.1,0.1,0.1,0.1,0.2c0,0.6-0.6,0.6-0.8,1.1c0.1,0.3,0.6,0.2,0.8,0.1c0-0.4,0.2-0.7,0.6-0.7c0.4,0.3-0.1,0.7-0.3,0.8
		c0.1,0.1,0.3,0.2,0.5,0.2c0-0.6,0.9-1.3,1.1-0.6c0.1,0.5-0.7,0.5-0.8,1c0.6,0.7,0.6-0.8,1.2-0.7c0.1,0,0.1,0.1,0.2,0.2
		C62,4,61.5,4,61.5,4.6c0.7,0,0.9-0.6,1.4-0.8c-0.1,0,0-0.3,0-0.3c-0.5,0.1-0.7-0.1-0.8-0.5c-0.5,0.1-0.6-0.2-0.8-0.4
		c-0.4,0.2-1,0-0.8-0.6c-0.7,0.4-1.7-0.1-1.2-1C58.8,1.2,57.9,1.1,57.8,1.5L57.8,1.5z M65.7,3.6L65.7,3.6C66,3.3,66,2.7,66.5,2.7
		c0.1,0.1,0.2,0.1,0.2,0.2c0,0.5-0.3,0.7-0.6,1c0.4,0,0.6-0.2,1.1-0.1c-0.1-0.3,0-0.5-0.2-0.8c-0.1-0.2-0.4-0.2-0.5-0.4
		c-0.1-0.3,0.1-0.5,0.2-0.8c-0.5-0.2-1.1-0.3-1.7-0.4c-0.3,0.3-0.8,0.6-0.5,1.3c0.6,0,0.4-0.8,1-0.9c0.1,0.1,0.2,0.1,0.2,0.2
		c0.1,0.7-0.9,0.7-0.5,1.3c0.3-0.2,0.3-0.7,0.8-0.7c0.1,0,0.2,0.1,0.2,0.2C66.3,3,65.4,3.1,65.7,3.6L65.7,3.6z M57.2,3.8L57.2,3.8
		c0.1-0.2,0.3-0.5,0.6-0.4c0.6,0.2,0,1.1-0.3,1.4c0.6,0.9,0.9-0.6,1.3-0.8c0.5,0.3-0.3,0.8-0.1,1.2C59.3,5,59,3.9,59.7,4
		c0.7,0.1-0.1,1-0.4,1.2c0.1,0.1,0.1,0.4,0.4,0.4c0-0.1,0.1-0.1,0.2-0.1c0-0.5,0-1,0.5-1c0.5,0.4-0.3,0.9-0.1,1.3
		C60.8,5.8,60.8,5.4,61,5c0.1-0.2,0.3-0.3,0.2-0.5c-0.4-0.1-0.8-0.1-0.7-0.6c-0.5,0.1-0.6-0.2-0.8-0.3c-0.2,0.1-0.4,0.1-0.7,0.1
		c-0.2-0.1-0.3-0.3-0.4-0.5c-0.6,0.1-0.9-0.2-1.1-0.6c-0.6,0.1-1-0.3-0.8-0.9c-0.6,0.2-1.1,0.4-1.5,0.7c0.2,0,0.2,0.2,0.2,0.4
		c-0.1,0-0.1-0.2-0.4-0.2c-0.4,0.3-0.8,0.6-0.7,1.4c0.1,0.1,0.4,0.2,0.6,0.1c0-0.4,0.5-1,0.7-0.4c-0.4,0.5-0.2,0.9,0.5,0.7
		C55.9,3.7,57,2.8,57.2,3.8C57.1,3.8,57.1,3.8,57.2,3.8L57.2,3.8z M57.8,2.3L57.8,2.3C58,2.1,58.3,2,58.4,1.7
		C58.1,1.7,57.8,2.1,57.8,2.3L57.8,2.3z M61.7,2.1L61.7,2.1C61.8,2,61.9,1.9,62,1.7C61.8,1.7,61.6,2,61.7,2.1L61.7,2.1z M67,2.6
		L67,2.6c0-0.4,0.2-0.6,0.5-0.7c-0.2-0.1-0.3-0.1-0.5-0.2C66.9,1.9,66.7,2.4,67,2.6L67,2.6z M67.3,2.9L67.3,2.9
		c0.2,0,0.3-0.3,0.6-0.3c0.4,0.1,0.4,0.7,0.3,1.1c0.1,0.1,0.2,0.1,0.4,0.1c0-0.5,0.2-0.7,0.3-1.1c-0.3-0.3-0.7-0.5-1.1-0.7
		C67.8,2.5,67.4,2.6,67.3,2.9L67.3,2.9z M62.3,2.6L62.3,2.6c0.2-0.1,0.6-0.4,0.4-0.5C62.5,2.2,62.3,2.3,62.3,2.6L62.3,2.6z
		 M71.1,5.4L71.1,5.4c-0.3,0-0.4-0.2-0.6-0.3c-1.3-0.5-3.2-0.9-4.8-0.6c-0.4,0.6-1,1.2-1.1,1.9c0.8-0.3,1.7-0.8,2.6-0.8
		c0,0.5,0.3,0.9,0.3,1.4C68,6.8,68.4,5.7,69,5.8c0.6,0,0.8,1,1.3,1.3c0.4-0.2,0.5-0.6,1-0.7c0.6-0.1,1.3,0.5,2,0.3
		c0.6-0.1,1.5-1.9,1.4-2.6c-0.1-0.7-0.8-1.1-1-1.6C73.6,3.6,72,5.4,71.1,5.4L71.1,5.4z M67.5,3.2L67.5,3.2c0.1,0,0.4-0.2,0.3-0.3
		C67.7,3,67.5,3,67.5,3.2L67.5,3.2z M68.8,3.8L68.8,3.8c0.4,0,0.4-0.4,0.5-0.6C69.3,3.1,69.1,3,69,2.9C68.9,3.2,68.8,3.4,68.8,3.8
		L68.8,3.8z M67.5,3.6L67.5,3.6c0.2,0,0.5-0.1,0.4-0.2C67.8,3.5,67.6,3.4,67.5,3.6L67.5,3.6z M70.5,4.3L70.5,4.3
		c-0.3-0.3-0.6-0.6-0.8-0.9c-0.2,0.3,0.1,0.3,0.2,0.5c-0.2,0.3-0.5-0.3-0.6,0.1C69.7,4,70.1,4.4,70.5,4.3L70.5,4.3z M52.8,6.1
		L52.8,6.1c0.8,0,0.2-1.3,1.1-1.2c0.2,0.5-0.2,0.7-0.3,1.1c0.1,0.2,0.2,0.3,0.4,0.2c0-0.5,0.2-1.2,0.6-1.2c0.7,0.1-0.2,1.2-0.3,1.4
		c0.1,0.3,0.6,0.1,0.7,0c0-0.5,0.1-1,0.5-1.1c0.5,0.3,0,0.9-0.2,1.2c0.1,0,0.2,0.1,0.3,0.1c0.1-0.4,0.1-1.2,0.5-1.2
		c0.6,0,0.4,1,0,1.3c0.1,0,0.3,0.1,0.5,0.1c-0.2-1.8,1.4-1,0.6,0.1c0.2,0,0.3,0,0.5-0.1c0-0.5,0.1-0.9,0.4-0.9
		c0.6,0,0.2,0.9,0.1,1.1c0.7,0.1,0.2-1,0.7-1c0.5,0.1,0.1,0.8,0.1,1c0.6,0.1,0.4-0.7,0.8-0.8c0.5,0.3-0.2,0.7,0,1.1
		c0.4-0.1,0.6-0.4,0.6-0.8c0.1-0.1,0.3,0,0.3-0.2c-0.1,0-0.1-0.1-0.2-0.2c-0.3,0.2-0.7,0-0.8-0.2c-0.4,0.3-0.8-0.2-1-0.5
		c-0.2,0.3-0.6,0-0.7-0.2c-0.3,0.3-1,0.1-1.1-0.3c-0.4,0.2-0.8,0-1.1-0.2c-0.5,0.2-0.9-0.1-1.2-0.3C54.3,4.6,54,4.1,54,3.5
		C53.7,4.3,52.4,5,52.8,6.1L52.8,6.1z M56.4,4.2L56.4,4.2c0.1-0.2,0.6-0.5,0.4-0.7C56.6,3.7,56.3,4,56.4,4.2L56.4,4.2z M57.4,4.4
		L57.4,4.4c0.1-0.2,0.5-0.5,0.3-0.7C57.5,3.9,57.2,4.1,57.4,4.4L57.4,4.4z M56.4,4.6L56.4,4.6c0.1,0.1,0.6,0.2,0.6,0
		c-0.2-0.2,0.1-0.6,0-0.6C56.9,4.2,56.6,4.4,56.4,4.6L56.4,4.6z M62.3,5.1L62.3,5.1c0.5-0.2,0.8-0.6,1.3-0.7c0-0.1-0.1-0.1-0.1-0.3
		c-0.3,0-0.4-0.1-0.5-0.1C62.7,4.4,62.3,4.6,62.3,5.1L62.3,5.1z M64.7,4.6L64.7,4.6c-2,0.6-3.5,1.7-4.3,3.5c0,0.2,0.1,0.2,0.1,0.4
		c-0.4,0.3-0.6,0.7-0.7,1.3c0.9,0.5,1.8,0.9,2.6,1.4c0.3-0.7,0.5-1.3,1.1-1.7c1.7-1.4,4-0.6,4.8,1.2c0.1-0.2,0.1-0.4,0.3-0.6
		c0.3-0.4,0.8-0.6,1.1-0.8c0.1-0.1,0.1-0.4,0.3-0.5c0.5-0.3,1.2,0,1.9,0c-0.2-0.5-0.1-1.3-0.4-1.6c-0.4,0.1-0.7,0.5-0.7,1
		c-0.6,0.2-0.7-0.5-0.9-0.7c-0.3-0.3-0.6-0.5-0.8-0.8c-0.4,0.2-1.1,1.5-1.6,1.4c-0.5-0.1-0.4-1.2-0.7-1.7c-1,0.2-1.8,0.7-2.8,1
		c-0.6-0.6,0.7-2.1,1-2.6C64.8,4.6,64.8,4.6,64.7,4.6L64.7,4.6z M61.5,4.9L61.5,4.9c0,0.5-0.4,0.6-0.4,1.1c0.4-0.2,0.6-0.5,1-0.7
		c-0.2-0.1,0.1-0.4-0.1-0.5C61.8,4.9,61.7,4.9,61.5,4.9L61.5,4.9z M54.4,5.9L54.4,5.9c0.1-0.2,0.4-0.4,0.2-0.7
		C54.5,5.4,54.2,5.7,54.4,5.9L54.4,5.9z M52.1,6.5L52.1,6.5c0.3,0,0.5,0.1,0.5,0.3c-0.2,0-0.2-0.2-0.4-0.1c-0.4,0.3-0.6,0.9-0.5,1.5
		c0.8,0.3,0.8-0.7,1.3-0.9c0,0.3-0.1,0.4-0.1,0.7C53,8.1,53,8.3,53.3,8.3c0-0.6,0.1-1.1,0.5-1.2c0.6,0.1,0.3,1,0.1,1.3
		c0.2,0,0.3,0,0.5-0.1c-0.1-0.5,0-1.1,0.4-1.1c0.5,0,0.4,0.9,0.1,1.2c0.1,0,0.2,0.1,0.2,0.2c1,0.1,0.4-1.4,1.2-1.5
		c0.4,0.4-0.1,0.9-0.2,1.3c0.1,0.1,0.1,0.1,0.2,0.2c0.9,0.1,0.7-0.9,1.3-1.2c0.1,0,0.1,0.1,0.2,0.2c0,0.4-0.3,0.5-0.2,0.9
		c0.5,0.3,0.8-0.3,1-0.5c0-0.3,0-0.6,0.4-0.6c0.1,0.3-0.2,0.6-0.1,1c0.7,0.2,0.5-0.8,1.1-0.8c0.1,0.2-0.2,0.5,0,0.6
		c0-0.3,0.2-0.4,0.3-0.7c-0.3,0-0.4-0.2-0.5-0.4c-0.4,0.3-0.7-0.1-1.3,0.2C58.2,7.3,58,7.3,58,7.2c-0.4,0.3-0.7-0.1-1-0.1
		c-0.2,0-0.4,0.1-0.6,0.1c-0.2,0-0.3-0.3-0.4-0.3c-0.1,0-0.3,0.1-0.4,0.1c-0.2,0-0.4-0.3-0.5-0.3c-0.2,0-0.5,0.2-0.7,0.1
		c-0.1-0.1-0.3-0.2-0.3-0.4c-0.4,0.1-0.6-0.1-0.7-0.3c-0.3,0.4-0.9,0.2-1-0.2C52.3,6.1,52.1,6.2,52.1,6.5L52.1,6.5z M53.6,8.2
		L53.6,8.2c0.3-0.1,0.4-0.6,0.2-0.7C53.7,7.7,53.6,7.9,53.6,8.2L53.6,8.2z M54.7,8.1L54.7,8.1c0-0.1,0.1-0.4,0-0.5
		C54.7,7.8,54.5,8,54.7,8.1L54.7,8.1z M51.4,9.2L51.4,9.2c-0.1,0-0.2-0.1-0.3,0c-0.2,0.6,0.1,1.1,0.7,1.1c-0.4-0.8,0.6-1.7,0.9-0.7
		c0-0.3,0.1-0.4,0.3-0.4c0.4,0.1,0.3,0.9,0.1,1.1c0.7,0.6,0.8-0.7,1.3-0.8c0.1,0.1,0,0.3,0.1,0.4c0.4-0.4,1-0.6,1.5-0.8
		c-0.1,0-0.1-0.2-0.2-0.2c-0.2,0.5-1,0.3-1.3-0.1c-0.3,0.3-0.7,0-1-0.1c-0.4-0.1-0.8-0.1-0.9-0.5c-0.2,0.4-1.1,0.6-1.3,0
		C51.2,8.5,51.1,8.9,51.4,9.2L51.4,9.2z M58.4,8.6L58.4,8.6c-0.1,0.2-0.3,0.3-0.5,0.4c0.5,0.1,1,0.4,1.5,0.6c0-0.4,0.1-0.6,0.2-0.8
		c-0.1,0,0-0.2-0.2-0.2C59.3,8.9,58.6,9,58.4,8.6L58.4,8.6z M56.8,8.9L56.8,8.9c0.1,0,0.3,0.1,0.3-0.1c0,0-0.1,0-0.1-0.1
		C57,8.7,56.9,8.8,56.8,8.9L56.8,8.9z M52,10.1L52,10.1c0.2,0.2,0.6-0.6,0.2-0.7C52.1,9.6,52,9.8,52,10.1L52,10.1z M69.9,13.7
		L69.9,13.7c1.7,0.4,3.2-1.3,2.8-3.1c-0.3-0.5-0.7-0.9-1.2-1.2c-0.5,0.1-0.9-0.2-1.3,0C68.3,9.6,68.1,13.3,69.9,13.7L69.9,13.7z
		 M53,10L53,10c0-0.1,0.1-0.4,0-0.5C53,9.6,52.8,9.9,53,10L53,10z M56.1,10.6L56.1,10.6c0.1,0.1,0.1,0.1,0.2,0.2
		c0.9,0.1,0.6-1,1.2-1.1c0.4,0.4-0.5,0.8-0.1,1.2c0.5-0.1,0.6-0.6,0.7-1.1c-0.5-0.2-1-0.3-1.6-0.3C56.4,9.9,56.1,10.1,56.1,10.6
		L56.1,10.6z M62.7,12.3L62.7,12.3c0.1,0.8,0.8,1.8,1.3,2c0.3,0.1,0.9,0.1,1.2,0.1c1.4-0.2,3-1.3,2.4-3c-0.3-0.8-1.2-1.8-2.3-1.8
		c-0.6,0-1,0.5-1.7,0.4C63.2,10.5,62.7,11.4,62.7,12.3L62.7,12.3z M55.3,10.7L55.3,10.7c0.5,0,0.6-0.6,0.6-1
		C55.5,9.8,54.9,10.1,55.3,10.7L55.3,10.7z M52.3,10.3L52.3,10.3c0.2,0,0.3,0,0.4-0.1c0-0.2,0-0.3-0.1-0.4
		C52.6,10.1,52.4,10.2,52.3,10.3L52.3,10.3z M51.1,11.6L51.1,11.6c0,0.2,0,0.4-0.1,0.5c0-0.2,0-0.3-0.1-0.4c0,0.4-0.1,0.7,0,1.1
		c0.1,0.1,0.4,0.2,0.6,0.1c-0.2-0.6-0.1-1.5,0.4-1.6c0.7,0.3,0.4,1.3,0,1.6c0.2,0.2,0.5,0,0.7-0.1c-0.1-0.3-0.3-1.1,0.2-1.1
		c0.5,0.4-0.1,1.3,0.5,1.3c0.3,0,0.3-0.3,0.5-0.4c-0.1-0.7,0.1-1.4-0.1-2c-0.2,0.3-0.8,0.2-1,0c-0.3,0.3-0.6,0.1-1,0
		c-0.4-0.1-0.8,0-1-0.4C51,10.5,50.8,11.3,51.1,11.6L51.1,11.6z M58.4,11L58.4,11c0.2-0.1,0.4-0.6,0.2-1
		C58.2,10.1,58.1,10.9,58.4,11L58.4,11z M59.2,11L59.2,11c0.1-0.2,0.1-0.5,0.2-0.7c-0.1,0-0.2-0.1-0.3-0.1
		C59,10.6,58.9,10.9,59.2,11L59.2,11z M59.7,11.1L59.7,11.1c-0.3,1.1-0.1,2.7,0.3,3.4c0,0.8-0.4,1.4-0.3,2.4c0.1,1,0.8,2.1,1.4,3.1
		c1,1.7,2.6,2.6,4.6,3.1c2.9,0.8,5.2-1.4,4.3-4.1c1.4-0.9,3.7-3.4,2.4-5.6c-0.5,0.4-1.1,0.7-1.9,0.8c0.3-0.1,0.6,0.2,0.6,0.4
		c0,0.6-2,1.4-2.9,1.2c0.1,0.6,0.4,1,0.7,1.4c-0.2,0.6-0.8,0.8-1.7,0.7C67,18.5,67,19,66.9,19.5c0.4,0.4,1.4-0.3,1.5,0.3
		c0.1,0.8-1.5,0.4-2,0.2c-1.4-0.5-3-1.7-3.4-2.9c-0.3,0.1-0.2,0.4-0.6,0.4c-0.4-0.7,0.8-1.8,1.4-1.4c0.1,0.3-0.2,0.4-0.3,0.6
		c1,0.8,2.9,0.9,4.7,0.8c0-0.5-0.8-1.4-0.3-2.1c0.7,0.3,1.6-0.1,2.1-0.4c-0.9-0.3-1-1.3-1.7-1.8c-0.4,0.7-1.3,1.6-2.3,1.8
		c-0.6,0.1-1.5,0.2-2.1-0.1c-0.8-0.3-1.7-1.8-1.6-3c-0.9-0.5-1.9-1.1-2.7-1.4C59.6,10.7,59.6,11,59.7,11.1L59.7,11.1z M54.6,10.7
		L54.6,10.7c0,0.4,0,0.7,0.2,1c0-0.1,0.1-0.1,0.2-0.1c0.3,0.2,0.4,0.7,0.3,1.2c0.2,0.2,0.4,0.2,0.6,0.1c0-0.4-0.3-1.4,0.3-1.5
		c0.5,0.2,0.3,1.1,0.1,1.5c0.7,0.6,0.6-0.9,1-1.1c0.3,0.2,0.1,0.7,0,1c0.1,0.2,0.1,0.2,0.3,0.3c0.7,0.1,0.5-1,0.9-1.3
		c0.4,0.2-0.2,1,0.2,1.2c0.1-0.2,0.1-0.6,0.2-0.8c0.1-0.2,0.2,0.3,0.3,0c0-0.2,0-0.4,0-0.6c-0.2,0-0.2-0.2-0.4-0.3
		c-0.1,0.4-0.8,0.3-0.7-0.2c-0.3,0.4-0.8,0.4-1-0.1c-0.3,0.4-1,0.3-1.2-0.2c-0.1,0.1-0.3,0.2-0.5,0.3c-0.2-0.1-0.3-0.3-0.4-0.4
		C54.9,10.6,54.7,10.6,54.6,10.7L54.6,10.7z M51.8,12.5L51.8,12.5c0.2-0.2,0.5-0.8,0.1-1C51.8,11.7,51.7,12.2,51.8,12.5L51.8,12.5z
		 M56.1,12.2L56.1,12.2c0-0.3,0.1-0.4-0.1-0.5C56.1,11.8,56,12.1,56.1,12.2L56.1,12.2z M54.3,12.6L54.3,12.6
		c0.1,0.1,0.2,0.3,0.5,0.2c0.1-0.3-0.3-0.4-0.4-0.6C54.3,12.3,54.3,12.4,54.3,12.6L54.3,12.6z M84.8,17.1L84.8,17.1
		c0.2,0.4,0.8,0.7,0.8,1.2c0.1,0.7-0.2,1.8-0.4,2.5c-0.6,2.4-1.3,4.6-2.4,6.4c-1.9-0.1-4.2-0.1-6.3-0.2c0,0.8-0.2,1.5-0.4,2.1
		c2.5-0.1,5.3,0.1,7.5-0.2c1.9-2.5,2.3-6.3,3.4-9.6c-0.4-0.2-0.6-1-0.4-1.5c-0.4-0.3-0.4-1.1-0.1-1.5c-1.3-0.5,0.2-2.2,0.2-2.8
		c0-0.4-0.2-0.6-0.4-1C85.6,13.7,83.7,15.1,84.8,17.1L84.8,17.1z M88.4,12.6L88.4,12.6c-0.7,0.8-1.3,1.7-1.6,2.9
		c0.4,0.3,1,0.1,1,0.6c0,0.4-0.7,0.4-0.7,1c0.9,0.2,0.2,0.8,0.2,1.5c0.3,0.2,0.7,0,1-0.2c0.6-0.4,1.3-1.5,1.5-2.1
		c-0.8-0.2,0-1.2-0.3-1.9C88.4,14.4,89.4,12.8,88.4,12.6L88.4,12.6z M52.8,12.9L52.8,12.9c-0.2,0.3-0.9,0.3-1.1,0.1
		c-0.1,0.2-0.6,0.2-0.8,0.1c-0.1,0.5,0.3,0.5,0.4,0.8c-0.2,0-0.2-0.2-0.3-0.1c0.2,0.4-0.1,1.3,0.4,1.4c0.5-0.1-0.3-1.1,0.4-1.3
		c0.3,0.1,0.1,0.8,0.2,1c0.2,0.1,0.4,0.1,0.6,0c-0.1-0.3-0.2-1.1,0.3-1.1c0.3,0.2,0.1,0.8,0,1.1c0.1,0.2,0.5,0.1,0.5-0.1
		c-0.2-0.2-0.2-1,0.2-1c0.4,0.1,0.1,0.9,0.2,1.1c0.4,0.1,0.6-0.1,0.7-0.5c0.1-0.3-0.1-0.9,0.4-0.8c0.2,0.6-0.4,1.2,0.3,1.4
		c0.6-0.2-0.2-1.2,0.5-1.3c0.4,0.1,0.3,0.8,0.1,1.1c0.3,0.2,0.6-0.1,0.7-0.3c-0.2-0.3-0.1-0.8,0.2-0.8c0.4,0.1,0.2,0.6,0.1,1
		c0.3,0.2,0.6,0,0.7-0.2c0-0.3-0.1-0.8,0.4-0.7c0.2,0.3-0.2,0.8,0.1,1c0.6,0,0.4-0.9,0.8-1.1c0.3,0.2-0.3,1.1,0.3,1.2
		c0.6-0.3,0.2-1.5-0.1-2c0,0.2-0.1,0.3-0.3,0.3c-0.2,0-0.2-0.2-0.4-0.3c-0.1,0.2-0.4,0.4-0.7,0.4c-0.3,0.1-0.3-0.4-0.6-0.4
		c-0.1,0-0.2,0.3-0.4,0.3c-0.3,0-0.3,0-0.6-0.3c-0.3,0.5-0.9-0.1-1.3,0.2c-0.3-0.1-0.4-0.2-0.6-0.4C53.9,13.2,53.1,13.3,52.8,12.9
		L52.8,12.9z M51.2,15.9L51.2,15.9c0.1,0.1,0.2-0.1,0.3,0c0.1,0.1,0.2,0.5,0.1,0.7c-0.2-0.1,0-0.5-0.3-0.5c-0.2,0.4,0.1,1,0.1,1.4
		c0.3,0.1,0.6,0,0.8-0.1c-0.7-0.5-0.1-2.2,0.5-1.1c0-0.3,0.1-0.4,0.3-0.4c0.4,0.2,0.6,0.7,0.5,1.3c0.2,0,0.2,0,0.4-0.1
		c-0.1-0.3-0.4-1.2,0-1.4c0.4,0.2,0.5,0.8,0.4,1.3c0.3,0,0.4-0.1,0.5-0.2c-0.1-0.5-0.1-1.3,0.3-1.4c0.5,0.3,0.1,1,0.1,1.4
		c0.1,0,0.2,0.1,0.3,0.1c-0.1-0.5-0.2-1.4,0.4-1.5c0.3,0.1,0.3,0.2,0.4,0.4c0.1,0.4-0.4,1-0.4,1.2c0.1,0.4,0.8,0.2,0.8-0.2
		c-0.3-0.4-0.2-1.3,0.3-1.2c0.4,0.1,0.2,0.9,0.1,1.3c0.2,0.2,0.5,0,0.6-0.2c-0.2-0.2-0.3-0.8-0.1-1.1c0.1,0,0.1-0.1,0.2-0.1
		c0.4,0.1,0.4,0.7,0.3,1.1c0.5-0.1-0.1-1,0.3-1.2c0,0,0.1,0,0.1,0c0.2,0.2-0.1,1,0.3,1.1c0.1-0.7,0.2-1.4,0.4-2
		c-0.2,0.2-0.9,0.3-1-0.3c-0.1,0.4-0.7,0.5-1,0.2c-0.2,0.3-0.8,0.3-1,0.1c-0.1,0.3-0.7,0.5-1,0.2c-0.1,0.2-0.3,0.3-0.5,0.3
		c-0.2-0.1-0.4-0.3-0.5-0.5c-0.1,0.2-0.4,0.3-0.6,0.4c-0.1-0.1-0.3,0-0.3-0.2c-0.2,0-0.2,0.3-0.5,0.2c-0.3-0.3-0.8,0-1.2-0.3
		c-0.3,0-0.3,0.4-0.6,0.3c0,0,0-0.1-0.1,0C51.2,15.5,51.1,15.8,51.2,15.9L51.2,15.9z M55.9,16.9L55.9,16.9c0.1-0.2,0.2-0.7,0-0.8
		C55.9,16.3,55.8,16.7,55.9,16.9L55.9,16.9z M52.6,17.3L52.6,17.3c0.2-0.3,0.2-1-0.2-1C52.1,16.6,52.3,17.1,52.6,17.3L52.6,17.3z
		 M53.5,17.2L53.5,17.2c0-0.4-0.1-0.7-0.3-0.9C53.1,16.7,53.2,17,53.5,17.2L53.5,17.2z M57,16.6L57,16.6c0.2,0.1,0.2-0.3,0-0.3
		C57,16.4,57,16.5,57,16.6L57,16.6z M52.7,17.4L52.7,17.4c0.1,0.1,0.4,0.2,0.5,0.1c-0.1-0.2-0.2-0.4-0.3-0.5
		C52.9,17.2,52.8,17.3,52.7,17.4L52.7,17.4z M57.1,17.4L57.1,17.4c-0.3,0.3-1.1,0.6-1.3,0.1c-0.3,0.2-0.5-0.1-0.7-0.2
		c-0.1,0.1-0.3,0.1-0.5,0.2c-0.7-0.2-1.3,0.6-2.1,0.1c-0.2,0.2-0.5,0.2-1,0.2c0.1,0.1,0,0.5,0.2,0.5c0-0.2,0.1-0.3,0.3-0.3
		c-0.6,0.3-0.1,1.1-0.1,1.7c0.2,0,0.3,0,0.5-0.1c0-0.4-0.2-1.3,0.2-1.4c0.5,0.1,0.3,1.2,0.2,1.4c0.3,0.2,0.6-0.1,0.7-0.2
		c-0.1-0.3-0.4-0.9,0-1.1c0.5,0,0.3,0.8,0.4,1.1c0.8,0.2,0.1-1.1,0.5-1.4c0.4,0.2,0.1,1,0.4,1.3c0.3,0.1,0.4-0.1,0.5-0.3
		c-0.3-0.4-0.2-1.3,0.3-1.3c0.5,0.2,0.2,1,0.1,1.4c0.2,0.3,0.8,0.1,0.8-0.2c-0.1-0.2-0.2-1,0.2-1c0.4,0.1,0,1,0.3,1.2
		c0.8,0.1,0.1-1.2,0.6-1.4c0.3,0.1,0.2,0.8,0.2,1.1c0.9,0.3,0.2-1,0.9-1.1c0.4,0.2-0.1,0.9,0.1,1c0.4-0.3,0.4-1.2,0.3-1.6
		C58.3,16.8,57.8,18,57.1,17.4L57.1,17.4z M66.4,19.2L66.4,19.2c-0.2-0.4,0.1-0.8,0.2-1.1c-1,0-1.9-0.4-2.7-0.4
		C64.5,18.5,65.5,19,66.4,19.2L66.4,19.2z M55.6,18.9L55.6,18.9c0-0.2,0.2-0.5,0.1-0.7C55.5,18.4,55.4,18.7,55.6,18.9L55.6,18.9z
		 M52.7,19.4L52.7,19.4c0.1-0.1,0.1-0.6-0.1-0.7C52.7,19,52.6,19.3,52.7,19.4L52.7,19.4z M58.5,18.9L58.5,18.9
		c-0.1,0.3-0.5,0.4-0.8,0.2c-0.1,0.3-0.3,0.3-0.6,0.4c-0.1-0.1-0.3-0.1-0.3-0.2c-0.3,0.3-0.9,0.5-1.3,0.1c-0.1,0.2-0.4,0.2-0.6,0.3
		c-0.1-0.1-0.3-0.1-0.4-0.2c-0.1,0.2-0.4,0.4-0.7,0.2c-0.5,0.6-1.1,0-1.8,0.2c0,0.2,0.1,0.4,0.1,0.6c0.3-0.2,0.5,0.1,0.6,0.4
		c-0.2,0-0.3-0.3-0.5-0.1c0,0.4,0.1,0.8,0.3,1c0.3,0,0.4-0.2,0.6-0.3c-0.2-0.4-0.3-1.1,0.2-1.1c0.4,0,0.4,0.7,0.2,1.1
		c0.2,0.1,0.7,0.2,0.7-0.2c0-0.2-0.4-0.9-0.1-1.2c0.5,0,0.6,0.7,0.5,1.2c1,0.7,0.4-1.2,1.1-1.4c0.4,0.3,0,1,0.1,1.3
		c0.2,0.2,0.4,0,0.5-0.1c-0.2-0.5-0.3-1.4,0.3-1.4c0.5,0,0.5,0.9,0.2,1.3c1,0.2,0.6-1,1.1-1.4c0.4,0.2-0.1,0.8,0.2,1
		c0.8,0,0.4-1,0.9-1.2c0.3,0.2-0.1,0.7,0.1,1c0.8,0,0.2-1.1,0.7-1.4C59.4,18.8,59.1,19.1,58.5,18.9L58.5,18.9z M60,20.3L60,20.3
		c0.1,0,0.1,0,0.2,0.1c0.2-0.2,0-0.5-0.1-0.6C60,19.9,59.8,20.1,60,20.3L60,20.3z M56.6,20.8L56.6,20.8c0.1-0.2,0.2-0.6-0.1-0.7
		C56.5,20.2,56.4,20.7,56.6,20.8L56.6,20.8z M59.2,20.8L59.2,20.8c-0.2,0-0.4-0.2-0.5-0.2c-0.3,0-0.6,0.8-1,0.3
		c-0.1,0.1-0.2,0.2-0.3,0.4c0.6,0,0.4,0.8,0.3,1.2c0.9,0.2,0.1-1,0.7-1.2c0.4,0,0.3,0.7,0.2,1c0.7,0.1,0-1,0.6-1.1
		c0.5,0.1,0,0.9,0.3,1.2c0.7-0.1,0.2-1.3,0.8-1.2c0.6,0,0,0.8,0.1,1.2c0.4,0,0.2-0.7,0.6-0.8c-0.2-0.3-0.4-0.6-0.6-0.9
		c0,0.1-0.2,0.2-0.4,0.2c-0.1-0.1-0.2-0.1-0.3-0.2C59.5,20.7,59.5,20.8,59.2,20.8L59.2,20.8z M53.4,21.2L53.4,21.2
		c0.1-0.1,0.1-0.5-0.1-0.5C53.3,20.9,53.3,21.1,53.4,21.2L53.4,21.2z M55.6,21.5L55.6,21.5c-0.3,0.2-0.5,0.9-0.5,1.3
		c0.3,0.1,0.5,0,0.6-0.2c-0.1-0.3-0.1-0.8,0.2-0.8c0.3,0.1,0.2,0.6,0.2,0.8c0.3,0.4,1,0.2,1.2-0.1c-0.1-0.3-0.3-0.7-0.1-1.1
		C56.4,21.1,56.2,22,55.6,21.5L55.6,21.5z M61.2,22.4L61.2,22.4c0.1-0.1,0.2-0.2,0.4-0.3c-0.1-0.2-0.2-0.4-0.4-0.5
		C61.3,21.8,61,22.2,61.2,22.4L61.2,22.4z M53.3,21.7L53.3,21.7c-0.2,0.2-0.5,0.4-0.9,0.3c0,0.2,0.1,0.3,0.1,0.4
		c0.1,0,0.3-0.1,0.3,0.1c-0.2,0-0.2,0.1-0.3,0.1c0,0.3-0.2,0.4-0.3,0.7c0.4,0,0.7,0,0.8-0.4c0.1-0.2-0.3-0.8,0.2-0.8
		c0.5,0.1,0.2,0.6,0.1,1c0.3,0.5,1.1,0.1,1.3-0.3c-0.1-0.3-0.1-0.7,0-1C54.3,21.8,53.8,22.1,53.3,21.7L53.3,21.7z M57.4,22L57.4,22
		c0.2,0,0.2-0.4,0.1-0.4C57.4,21.7,57.4,21.9,57.4,22L57.4,22z M54.9,22.3L54.9,22.3c0,0,0.1-0.3,0-0.4C54.9,22,54.7,22.2,54.9,22.3
		L54.9,22.3z M53.3,22.5L53.3,22.5c0-0.2,0.1-0.3-0.1-0.3C53.3,22.4,53.1,22.5,53.3,22.5L53.3,22.5z M61.9,22.2L61.9,22.2
		c-0.1,0.4-0.9,0.7-1.1,0.2c-0.3,0.4-0.5-0.1-0.7-0.1c-0.2,0-0.2,0.4-0.5,0.3c-0.3-0.4-0.6,0.1-1.1-0.2c0,0.4-0.6,0.5-1,0.3
		c-0.3,0.3-0.6,0.5-1.2,0.5c-0.3,0.6,0.5,1.1,0.9,0.7c0-0.5,0-1,0.6-1c0.3,0.4-0.1,0.8-0.2,1.1c0.2,0.3,0.7,0.2,0.8-0.1
		c0-0.5,0.1-0.9,0.5-1c0.5,0.3,0,0.8-0.1,1.2c0.8,0.5,0.7-0.9,1.1-1.1c0.4,0.1,0.2,0.7,0.1,0.9c0.1,0.2,0.2,0.4,0.4,0.4
		c0.5-0.1,0-1.1,0.6-1.1c0.4,0.2-0.2,1,0.3,1.1c0.2-0.3-0.1-1.2,0.5-1.2c0.7,0.3-0.3,1.1,0.2,1.4c0.6,0,0.1-1,0.7-1
		c0.3,0.1,0.1,0.4,0.1,0.7c0.1,0.1,0.2,0.1,0.3,0.2c0.4,0,0.4-0.6,0.8-0.6c0.1,0.3,0.1,0.7,0.4,0.8c0.4,0,0.4-0.5,0.4-0.8
		C63.5,23.3,62.7,22.7,61.9,22.2L61.9,22.2z M54.7,22.9L54.7,22.9c0.1,0.2,0.3,0.7,0.1,1.1c0.6,0.7,1.2-0.4,1.3-1
		c-0.1,0-0.2-0.1-0.2-0.2C55.5,23.2,55,23,54.7,22.9L54.7,22.9z M52.5,23.6L52.5,23.6c-0.1,0-0.2-0.1-0.4-0.1c-0.5,1,0.7,1.3,1,0.5
		c0.1-0.4-0.2-0.7,0.2-0.9C53,23.1,52.5,23.4,52.5,23.6L52.5,23.6z M54.3,23.3L54.3,23.3c-0.1,0.1-0.3,0.1-0.5,0.1
		c0,0.3-0.2,0.5-0.3,0.7c0.3,0.2,0.8,0.1,1-0.1C54.3,23.7,54.4,23.4,54.3,23.3L54.3,23.3z M53.4,23.8L53.4,23.8
		c0-0.2,0.1-0.2,0.1-0.3C53.3,23.5,53.2,23.8,53.4,23.8L53.4,23.8z M64.8,24.4L64.8,24.4c0.1-0.2,0.3-0.3,0.3-0.5
		c-0.1-0.1-0.3-0.1-0.4-0.2C64.7,23.9,64.7,24.4,64.8,24.4L64.8,24.4z M54.5,24.2L54.5,24.2c-0.2,0.3-0.9,0.3-1.2,0.1
		c-0.3,0.4-1.3,0.6-1.6,0c0,0.3-0.4,0.6-0.3,0.8c1.1-0.3,3.4-0.6,4.4,0c-0.3-0.9,1-0.6,0.4-0.2c-0.2,0,0.1-0.3-0.2-0.2
		c-0.1,0.5,0.2,0.6,0.5,0.7c-0.2-0.9,0.8-1.3,1-0.7c0.1,0.4-0.3,0.6-0.5,0.8c0.2,0.2,0.6,0.3,0.7,0.1c-0.1-0.3-0.1-1.2,0.3-1.2
		c0.7,0.1-0.4,1.7,0.5,1.6c0.7-0.1-0.2-1.6,0.7-1.5c0.6,0.5-0.5,1.5,0.3,1.8c0.6-0.2,0.3-1.2,0.7-1.5c0.2,0.4,0,1.3,0.5,1.3
		c0.6,0,0-1.2,0.7-1.3c0.5,0.3-0.2,0.9,0,1.3c0.6,0,0.1-1.8,1-1.1c0.1,0.4-0.1,0.5-0.2,0.7c0.3,0.2,0.6-0.1,0.7-0.3
		c0-0.3,0-0.7,0.3-0.7c0.1,0,0.1,0.1,0.2,0.2c0,0.3-0.2,0.5-0.1,0.7c0.1,0,0.3,0,0.4,0.1c0.3-0.2,0-1,0.5-0.9
		c0.2,0.3-0.3,0.8,0.2,0.9c0.2-0.2,0.1-0.8,0.4-1c-0.4-0.2-1.1,0.2-1.4-0.4c-0.2,0.6-0.8,0-1,0c-0.2,0-0.3,0.4-0.5,0.4
		c-0.2,0-0.2-0.2-0.4-0.3c-0.2-0.1-0.7,0.2-0.7-0.2c-0.3,0.4-0.9,0.1-1.1-0.2c-0.2,0.4-0.9,0.5-1.2,0.1c-0.2,0.4-1,0.2-1.1-0.1
		c-0.4,0.5-1.1,0.1-1.3-0.3C55.9,24.5,54.9,24.9,54.5,24.2L54.5,24.2z M64.9,24.6L64.9,24.6c0.2,0.1,0.7,0.1,0.8-0.1
		c-0.1-0.1-0.1-0.3-0.2-0.5c-0.1,0-0.2,0-0.2-0.1C65.2,24.2,65.1,24.4,64.9,24.6L64.9,24.6z M65.9,24.3L65.9,24.3
		c0.1,0,0.1-0.1,0.2-0.2c-0.1,0-0.1,0-0.2,0C65.9,24.2,65.9,24.3,65.9,24.3L65.9,24.3z M68,25L68,25c0.3,0,0.4-0.3,0.5-0.5
		c-0.2-0.1-0.1-0.4-0.5-0.4C68.1,24.4,67.9,24.7,68,25L68,25z M66,24.6L66,24.6c0.2,0.1,0.2,0.4,0.5,0.5c0-0.3,0.2-0.3,0.4-0.4
		c0-0.2-0.1-0.4-0.1-0.5C66.3,24.1,66.2,24.4,66,24.6L66,24.6z M67.5,25L67.5,25c0.2-0.1,0.2-0.5,0.2-0.8c-0.2,0-0.3,0-0.5,0
		C67.1,24.5,67.1,24.9,67.5,25L67.5,25z M56.9,25.3L56.9,25.3c0.1-0.2,0.3-0.3,0.3-0.5C56.9,24.6,56.7,25.2,56.9,25.3L56.9,25.3z
		 M65.7,25.3L65.7,25.3c0.1,0.1,0.2,0.3,0.4,0.3c0.1-0.1,0.2-0.1,0.3-0.3c-0.3-0.1-0.4-0.4-0.6-0.6C65.8,25,65.8,25.1,65.7,25.3
		L65.7,25.3z M65,25.7L65,25.7c0.3-0.1,0.4-0.4,0.4-0.8c-0.1,0-0.2,0-0.3,0C65.2,25.2,64.9,25.5,65,25.7L65,25.7z M68.9,25.9
		L68.9,25.9c0.2-0.2,0.2-0.5,0.2-0.8c-0.1,0-0.1-0.1-0.2-0.1C68.8,25.2,68.7,25.7,68.9,25.9L68.9,25.9z M67,26.2L67,26.2
		c0.2-0.3,0.4-0.5,0.4-0.9C67.2,25.2,67.2,25,67,25C66.8,25.3,66.6,26,67,26.2L67,26.2z M67.7,25.2L67.7,25.2c0.1,0.2,0,0.6,0.2,0.8
		c0.3-0.1,0.6-0.6,0.6-0.8C68.2,25.6,67.8,25.1,67.7,25.2L67.7,25.2z M56.2,28L56.2,28c-0.5-1.1-0.8-3-2.5-2.6
		c-0.1,0-0.1,0.1-0.2,0.2c-0.2,0-0.3,0.1-0.5,0.1c-3.5,2.5-6.6,5.4-7.6,10.4c2.4-0.7,6-0.9,7.7,0.5c0.1-1.6,0-3.4-0.3-4.8
		c-0.1-0.4-0.4-1,0.2-1.1c0.3,0.3,0.4,0.9,0.5,1.4c0.1,0.6,0.1,1.2,0.2,1.9c0.1,1.1,0.3,2.7-0.2,3.7c-0.2,0.4-0.7,0.7-1,0.9
		c-0.7,0.4-1.7,0.7-2.6,0.8c-0.1,1.6-0.3,3.1-0.6,4.6c1.3-0.2,2.6,0,3.8-0.1c0.4-0.7,1.2-1.1,1.7-1.7c-0.2-1.5,0.1-3,0.7-4
		c0-0.2-0.3,0-0.2-0.3c0-0.9,0.1-2,0.5-2.7c0.2-0.1,0.6-0.1,0.9-0.2C56.9,32.7,57.1,30,56.2,28L56.2,28z M69.4,25.4L69.4,25.4
		c0,0.2,0.1,0.3,0.2,0.4c0.2,0,0.2-0.2,0.3-0.3C69.7,25.4,69.5,25.3,69.4,25.4L69.4,25.4z M70,25.9L70,25.9c0.2,0,0.3-0.1,0.4-0.2
		c-0.1,0-0.1-0.1-0.2-0.1C70.1,25.8,70,25.8,70,25.9L70,25.9z M56.4,27.1L56.4,27.1c0.2,0.5,0.5,0.8,0.7,1.3
		c0.6,1.7,0.5,4.5,0.3,6.6c0.5,0,1.3,0,1.6,0c0.3-2.3,0.6-5.4-0.4-7.2c-1.1-0.4-1.6-1.8-2.8-2C56.1,26.1,56.2,26.7,56.4,27.1
		L56.4,27.1z M65.3,26L65.3,26c0.5,0,0.9,0.4,1.4,0.3c-0.2-0.1-0.1-0.5-0.3-0.5c-0.2,0.4-0.7,0.1-0.9-0.1
		C65.5,25.9,65.3,25.9,65.3,26L65.3,26z M67.4,26L67.4,26c0,0.2-0.3,0.3-0.2,0.5c0.8,0.2,1.7,0,2.3-0.3c-0.3-0.3-0.3,0-0.6,0.1
		c-0.2-0.1-0.3-0.3-0.4-0.5C68.4,26.2,67.7,26.4,67.4,26L67.4,26z M71.4,25.8L71.4,25.8c-0.3,0.1-0.4,0.3-0.6,0.4
		c1.6,1.3,3,2.7,3.6,4.9c0.9-1.1,1.8-3,1.4-4.8C74.4,26.1,73.1,25.7,71.4,25.8L71.4,25.8z M57.5,26.1L57.5,26.1
		c0.4,0.2,0.7,0.8,1.3,1c1.1,0.3,2.1-0.2,2.6-0.7c-0.1-0.3-0.4,0.1-0.7,0.1c-0.3,0-0.3-0.2-0.5-0.4c-0.1,0.5-1,0.9-1.2,0.2
		c-0.4,0.4-0.9,0.1-1.1-0.3C57.8,26.1,57.6,26,57.5,26.1L57.5,26.1z M67.6,27L67.6,27c-1.3-0.1-2.5-0.8-3.6-0.8
		c-0.2,0-0.8,0.1-1,0.2c-1.4,0.4-2.2,1.4-3.9,1.3c0.8,1.9,0.9,5,0.4,7.3c1.1,0,0.6,1,0.4,1.9c-0.2,0.8-0.5,1.4-1,1.7
		c-0.2,1.2-0.5,2.3-0.5,3.7c0.5,0.3,1.2,0.5,1.1,1.5c4.8,0,8.1,1.5,11.1,3.2c1.3,0.8,0.6,0.9,2,1c0.9,0,1.7,0.1,2.5,0.3
		c2.5-2.6,3.7-11.5,0.5-14.4c-0.5-0.5-1.2-0.6-1.8-0.7c-0.1-1.9-0.6-3.6-1.6-4.8c-0.6-0.7-1.5-1.1-2.1-1.9
		C69.4,26.9,68.6,27.1,67.6,27L67.6,27z M83.8,46.6L83.8,46.6c1.1-1.2,3-2.7,3.1-5c0.1-2.2-3.3-8.2-5.5-8.5c-0.5,0-1.3,0.6-1.7,0.8
		c-0.8,0.5-1.5,1-2.3,1.4c1.4,3.1,1,8.5-0.4,11.3c1.4,0.7,2.6,1.6,3.9,2.3C82,48.4,82.9,47.6,83.8,46.6L83.8,46.6z M58.8,35.6
		L58.8,35.6c-0.9-0.1-1.8,0.2-2.6,0.1c-0.1,0.6-0.3,1.2-0.2,1.9c1,0,2,0,3,0c0.3-0.5,0.5-1.1,0.6-1.7C59.4,35.5,59.1,35.4,58.8,35.6
		L58.8,35.6z M48.1,36.3L48.1,36.3c-0.8,2.9-1.4,6-1.3,9.7c1,0,1.8,0.1,2.7,0.1c1,0,2.2-0.1,3.1,0c0.6,0.1,0.9,0.2,0.9,0.9
		c0.7,0.1,1.3,0.8,2.2,0.8c0.5,0,1.4,0.1,1.8-0.2c0.7-0.4,0.6-1.5,1.2-2.1c-0.3,0.1-1,0.1-1-0.3c0.3-0.4,1.2,0.1,1.4-0.3
		c0-0.4-0.1-0.8-0.5-0.9c-0.7-0.3-2,0.1-2.2-0.6c0.7-0.2,1.8,0.1,2.6,0.1c0.1-0.6-0.2-0.6-0.7-0.7c-0.6-0.1-1.5-0.3-1.6-0.3
		c-1.5-0.2-1.9,0.2-2.8,0.8c-0.3,0.3-0.5,0.7-0.8,0.7c-0.3,0.1-0.8,0.1-1.1,0.1c-0.9,0-1.7-0.1-2.8,0c-0.2,0.2-0.5,0.6-0.8,0.4
		c-0.1-0.2,0-0.7,0.2-0.8c0.5-2.4,0.8-5,1.1-7.6C49.1,36.3,48.5,36.3,48.1,36.3L48.1,36.3z M56.1,38.1L56.1,38.1
		c-0.4,1.1-0.8,2.2-0.7,3.9c0.8-0.1,1.7,0.2,2.5,0.2c0-1.6,0.4-2.8,0.7-4C57.8,38.1,56.8,38.2,56.1,38.1L56.1,38.1z M86.7,46.5
		L86.7,46.5c0,2.2,0.2,4.1,0.9,5.6c0.7,0.3,1.6,0.3,2.4,0.5c0.6,0.1,2,0.5,2.6,0.4c1.2-0.2,3.1-3.7,3.4-4.9c0.3-1.1-1.7-5.2-2.4-5.8
		C90.8,43.2,88.6,44.6,86.7,46.5L86.7,46.5z M40.5,42.4L40.5,42.4c-1.7,2.6-3,5.7-2.9,9.9c1.2,0.3,2.7,1.1,4,1.2c1,0.1,1.4-0.5,2-1
		c1-0.7,1.5-1.3,2.4-2.1c0.4-0.4,1-0.9,1.1-1.2c0.2-1-0.2-1.5,0.2-2.6c-0.4,0-0.7,0-1.1-0.1c-0.5-0.9-0.1-2.5-0.1-3.6
		C44.6,42.5,42.5,42.2,40.5,42.4L40.5,42.4z M124.9,42.7L124.9,42.7c-0.8,0.1-1.4,0.8-1.8,1.6c-0.7,1.6,0.1,3.8,1.9,3.6
		c1.2-0.2,1.8-1.4,1.8-2.8C126.9,43.9,126.3,42.5,124.9,42.7L124.9,42.7z M101.4,51.5c0.2,2.7,1.4,4.7,2.8,6.6
		c1.4,1.8,3.2,3.4,4.8,4.6c0.1-0.4,0.5-0.7,0.6-1.1c-0.4-0.5-1.2-0.5-1.3-1.2c-0.2-1,0.9-2.1,1.3-2.7c-1.5-1-3-1.9-3.7-3.7
		c-0.5,0.2-0.6,0.7-1.2,0.8c-0.7-0.4,0.1-1.1,0.5-1.4c0.7-0.7,1.6-1.5,2.6-1.9c1-0.4,0.9-0.2,0.7,0.2c-0.5,0.9-0.4,0.5-1.2,1.1
		c-0.7,0.6-1,0.5-0.7,1.1c1.2,2.1,3.8,3.6,6.2,4.9c2.8,1.5,5.6,3,8.8,3.2c4,0.3,7-0.5,9.1-2.1c0.2-0.2,0.7-0.6,0.8-0.9
		c0.1-0.3,0-0.7,0.1-1c0.1-0.9,1-1.9,2-2c0.2,0,0.3,0.2,0.5,0c-0.8-0.5-1.8-0.7-2.4-1.4c0-0.3,0.5,0,0.5-0.2c-1.1-2.9-3-5-5.4-6.5
		c-0.6,0.4-1.4,1-2.4,0.8c-0.7-0.1-1-0.7-1.5-1c-0.5,1.6-1.4,3.1-3.3,3.3c-1.3,0.1-2.3-0.3-3.1-0.7c-1.3-0.7-1.7-2.4-1.5-3.9
		c-1.6-0.4-3.3-1.2-5.2-0.9c-0.3,0-0.9,0.3-1.1,0.5c-0.6,0.8,0.3,1.7,1.2,1.6c0.2,0,0.9-0.7,1.2-0.2c0.2,0.4-0.3,0.8-0.6,1
		c-1.6,0.6-3.4-1-2.6-2.6c1.1-2.1,5.7-0.9,7.3,0c0.5-1.1,1.3-1.8,2.3-2.4c-2.2-0.8-5.2-0.8-7.8-0.3
		C105.4,43.8,101.1,46.6,101.4,51.5L101.4,51.5z M116.4,49.2L116.4,49.2c0.9,1,3.3,1.3,4.4,0.4c1.2-1.1,1.3-2.8,0.8-4.2
		c-0.4-1.2-1-1.9-2.5-1.7C116.5,44.1,114.7,47.1,116.4,49.2L116.4,49.2z M58.2,47.6c-0.3,0.6-0.6,1-0.3,1.7c2.3-0.3,4.6-0.7,7.2-0.6
		c0.3,0,0.6,0.1,1,0.1c1.3-0.1,2.9-1,4.5-0.8c-2.8-2-6.5-3.5-11.1-3.7c0,0-0.1,0-0.1,0.1c0.2,0.1,0.2,0.3,0.1,0.7
		C59.2,45.9,58.4,47.2,58.2,47.6L58.2,47.6z M47.8,46.7L47.8,46.7c-0.1,0.9-0.2,2.2,0.1,3c-0.2,1.2,0.6,2.2,1,3.2
		c1.7-1.1,3.7-1.8,5.6-2.6c-0.2-0.4-0.2-1.2-0.2-1.8c-0.7-0.4-1.9-0.5-1.7-1.5C50.8,46.9,49.3,46.8,47.8,46.7L47.8,46.7z M89.8,53.4
		L89.8,53.4c-2.5-0.6-4.8-1.2-6.8-2.2c-2.3-1.2-4.3-2.8-6.3-4c0,0.4-0.6,0.8-0.4,1.1c1.4,0,2,0.7,2.6,1.6c0.6,1,1.1,2.2,0.9,3.9
		c1.2,0.6,2.2,1.6,3.2,2.4c1.1,0.8,2.1,1.6,3.3,2.3c2.2,1.3,5.4,2.6,8.5,2.8c1.7,0.1,3.4,0.1,4.5-0.6c-0.3-1.1,0.3-2,1.1-2.3
		c-0.8-1.7-1.4-4.1-1.1-6.6C97.2,53.3,93.3,54.2,89.8,53.4L89.8,53.4z M54.8,48.6L54.8,48.6c0.1,0.5,0.1,1,0.2,1.4
		c0.7-0.2,1.6-0.3,2.3-0.5c-0.2-0.2-0.1-0.7-0.2-1C56.4,48.6,55.6,48.7,54.8,48.6L54.8,48.6z M79.1,53.4L79.1,53.4
		c0-2.3-0.8-4.2-2.7-4.5c-0.3,0-0.2,0.3-0.5,0.2c-4.9-1.5-10.4,0.4-14.2,1.8c-0.5,0.2-0.9,0.4-1.2,0.4c0.7-1.1,2.5-1.2,3.7-1.9
		c-6.2,0.1-11.1,1.5-15.1,3.8c0.4,1.1,1.2,1.8,1.8,2.7c0.5,0.1,0.7,0.6,1.1,0.8c0.2,0.1,0.4,0.2,0.6,0.3c0.2,0.1,0.3,0.4,0.5,0.5
		c0.7,0.3,1.7,0.4,2.6,0.6c0.9,0.1,1.8,0.3,2.6,0.4c3.3,0.3,7.2-0.4,9.4,0.8c1.5,0.9,2.8,1.6,3.7,3c0.1,0.1,0,0.6,0.2,0.6
		c1.1-0.8,4.5-1.4,5.8-0.2C77.9,60.2,79.1,56.8,79.1,53.4L79.1,53.4z M93.2,89.1L93.2,89.1c0.2-1.4,2.1-2,3-1
		c-1-1.6,0.3-3.2,2.3-2.9c-0.3-0.6-0.8-1.1-0.5-2C96.5,83,95,82.9,93.8,83c-1.4,0.2-2.3,0.6-3.3,0.5c0-0.7,0.9-0.8,1.5-1
		c1-0.3,2.1-0.5,3.3-0.5c0.1-0.9,0.1-2.1-0.3-2.7c0-0.2,0.2-0.1,0.1-0.4c-0.2-1.2-0.8-2-1.3-2.9c-0.3-0.5-0.9-1.2-0.6-1.8
		c0.7,0.1,0.7,0.8,1.1,1.1c2.1-1.3,4.5-2.2,6.4-3.8c0.4-0.3,0.8-0.8,1.2-1.1c0.9-0.7,1.7-1.4,2.4-2.3c0.4-0.4,0.9-0.8,1.2-1.2
		c0.3-0.4,0.7-0.9,1-1.3c0.1-0.1,0.2-0.3,0.2-0.4c-1.8-1-2.8-2.6-4.3-3.9c-0.6,0.6-1.9,0.4-2.4-0.2c-0.6,0.3-1.1,0.6-1.8,0.7
		c-3.2,0.3-5.5-0.3-7.8-1.1c-3-1-5.3-2.3-7.4-4.1c-1.1-0.9-2.1-1.9-3.1-2.6c-0.1,1.9-0.5,3.4-0.8,5.2c-0.1,0.6-0.3,1.3-0.4,2
		c-0.2,0.9-0.6,1.8-0.4,2.4c-0.3,0.6-1.1,0.8-1.9,1c-0.2,0-0.7,0-0.7,0.3c0.1,0.3,1,0.3,1.6,0.3c2.6-1.1,5.6,0.2,5.6,3
		c-1.7,1.2-4.8,1.8-7.7,1.3c-1.2-0.2-2.4-0.2-3.2-0.8c0.2-1.3,0.8-2.3,0.8-3.8c-1.3-0.3-1.8-1.5-2.2-2.8c-0.6-0.7-1.1-1.3-2-1.8
		c-0.5-0.3-0.9-0.6-1.4-0.8c-2.2-1-5.7-0.5-8.6-0.7c-2.4-0.2-4.3-0.8-6.1-1.3c-1.2-0.7-2.2-1.6-3-2.8c-0.9-1.4-1.7-3-2.1-4.8
		c-0.9,0.6-1.6,1.5-2.5,2.2c-1,0.8-2,1.6-3,2.4c-2.6,2.1-5.2,4.4-8.3,5.6c-2.9,1.1-4.3,1-7.3,1.1c-3.5,0.2-7.1-0.2-9.2-1.3
		c-0.3,1.1-1,1.6-2.2,1.1c-1.1-0.5-1.7-1.6-0.9-2.4c-0.6-0.1-1-0.4-1.4-0.6c-1.6,1.4-4-0.5-3.2-2.5c-1-0.9-3.4-0.4-3.3-2.5
		c-0.9-0.8-1.8-1.6-2.4-2.6c1.7,4.8,4.9,8.7,8.5,12c1.4,1.2,2.7,2.4,4.2,3.4c0.5,0.4,1.1,0.6,1.6,1c3.2,2,6.5,3.9,10.5,5
		c4,1.1,8,2.9,12.6,3.2c0-0.7-0.2-1.6-0.2-2.4c0-1.1,0.2-2.4,0.8-2.9c-0.7,5.7,1.2,10.4,4,13.2c-2.5,2.4-4.3,2.4-5.1,8.4
		c1.6,2,3.6,3.7,6.6,4.3c0-1.1,0.7-2,1.2-2.7c0.3-0.5,0.6-0.9,1.2-0.7c0.6,0.1,0.7,0.9,1.1,1.3c0.2-0.6,0.4-1.5,1-1.6
		c1-0.3,1.5,0.6,1.8,1.4c0.2-0.9,0.5-1.7,1.3-2.1c-0.2-0.4-0.5-0.6-0.7-1c-0.4-0.1-0.6-0.1-0.6-0.4c-0.2-0.7,1.5-0.8,2-1
		c0.8-0.3,1.7-1,2.2-1.4c1.6-1.3,2.6-3.4,3.2-5.8c0.7-2.7,0.6-5.5-0.2-7.7c-0.3-0.9-0.6-1.9-1.1-2.6c-0.4-0.5-1.1-1.1-1.5-1.6
		c-0.2-0.3-0.5-0.6-0.7-0.9c-0.2-0.2-0.7-0.5-0.4-1c0.8,0,1.1,0.9,1.6,1.4c0.5,0.5,1.2,1,1.6,1.6c0.6,0.7,0.9,1.7,1.3,2.8
		c0.8,2.3,1,4.9,0.4,7.6c0.8,0.4,1.6,0.6,2.6,0.6c6.2,0.4,12.2-0.7,17-2.2c0.2-1.1,0.5-2.1,1-2.9c-0.5-0.5-1.8-0.4-1.6-1.4
		c0.4-0.2,0.9,0.2,1.4,0.4c0.4,0.2,1,0.4,1.1,0.8c0.1,0.5-0.3,0.9-0.4,1.3c-0.8,2-0.7,5.1,0.1,6.8c0.3,1.5,0.8,3,1.5,4.3
		c1.9,4,5.3,4.3,9.3,2.4C93.5,90.9,93.1,89.9,93.2,89.1L93.2,89.1z M6.6,53.5L6.6,53.5c0.2,0.8,0.8,1.1,1.6,1.2
		c0.3-1,0.8-2.1,0.7-3.3C8.4,52.3,7.2,52.6,6.6,53.5L6.6,53.5z M9.8,56.2L9.8,56.2c-0.3,1.5,1.1,2.7,2.2,1.8c0.5-0.4,1-1.8,1.3-3
		c0.4-1.3,0.7-2.9,0.7-3.7C12.7,53,11.2,54.6,9.8,56.2L9.8,56.2z M30.7,52.3L30.7,52.3c-0.9,1.7-1.8,3.5-1.9,6.1
		c1,1,2.4,2.2,3.7,1.8c1-0.3,1.9-0.7,2.7-1.1c0.3-1.6,1-2.8,1-4.8C34.9,53.1,33,52.5,30.7,52.3L30.7,52.3z M15.4,58.2L15.4,58.2
		c-0.4,0.5-1.2,1.2-1.2,1.7c0,0.6,0.9,1,1.6,1.1c0.8-1,1-3.1,0.7-4.8C16.3,56.9,15.9,57.5,15.4,58.2L15.4,58.2z M110.3,58L110.3,58
		c-0.5,0.6-0.9,1.2-1.1,2.1c0.8,0.7,1.6,1.2,2.8,1.6c0.5-0.5,0.9-1.2,1.2-1.9C112.1,59.3,111.3,58.6,110.3,58L110.3,58z M101.9,60.9
		L101.9,60.9c-0.4-0.7-0.9-1.3-1.2-2C99.3,59.6,100.5,62,101.9,60.9L101.9,60.9z M115.4,60.9L115.4,60.9c-0.3,0.4-0.6,0.9-0.8,1.3
		c-0.5,0.8-0.2,0.5,0.7,0.9c0.7,0.3,1.3,0.6,2,0.3c0.5-0.2,0.6-0.9,1-1.4C117.2,61.7,116.3,61.3,115.4,60.9L115.4,60.9z M106.3,61.1
		c-0.3,0.6-1.1,1.2-1.6,1.7c0.4,0.2,0.5,0.7,0.9,0.9c0.6-0.4,1.2-1.2,1.6-1.9C106.8,61.7,106.7,61.2,106.3,61.1L106.3,61.1z
		 M109.3,62.8L109.3,62.8c0.2,0.1,0.4,0.3,0.7,0.4c0.1-0.4,0.3-0.9,0.5-1.3C109.9,61.4,109.8,62.6,109.3,62.8L109.3,62.8z
		 M73.3,63.1L73.3,63.1c0.2,1.3,0,2.4-0.2,3.7c1.2,0.5,3.1,0.2,3.9-0.6c-0.7-0.1-1.4-0.3-2.1-0.2c-0.2-1.1,0-2.1-0.4-3
		C74.1,62.9,73.7,63,73.3,63.1L73.3,63.1z M107.4,65.6L107.4,65.6c-3.3,4.4-7.6,7.9-12.9,10.3c0.6,0.8,1.1,1.7,1.3,3
		c1.6-0.7,2.9-1.7,4.1-2.6c3.6-2.9,6.6-6.3,9-10.3C108.3,65.9,107.9,65.7,107.4,65.6L107.4,65.6z M27.1,72.5L27.1,72.5
		c1.9,1.1,4,1.8,6,2.7c1,0.5,1.9,1.1,2.9,1.5c1.9,0.9,4,1.8,6,2.3c-0.3-1-0.8-1.8-0.9-2.9C35.8,75.5,31.6,73.9,27.1,72.5L27.1,72.5z
		 M40.7,79.5L40.7,79.5c-1.4,1.5-2.7,2.9-2.7,5.7c0.6,1,1.6,1.5,2.8,2c0.8-1.7,2-3,3.7-3.9c-0.8-1-1.5-2.2-2.1-3.4
		C41.8,79.8,41.4,79.6,40.7,79.5L40.7,79.5z M79.6,81.3L79.6,81.3c-1.6,0.5-3.2,0.6-5,0.9c-2.4,0.4-4.9,0.9-7,0.7
		c-2.2-0.1-4.6,0-6.1-0.8c-0.3,1.6-1,3.1-1.6,4.2c1.1,0.5,2.4,0.6,3.8,0.8c8,1,11.1,0.7,18.1-2c-0.3-1.3-0.6-2.9-0.6-4.3
		C80.8,81,80.2,81.1,79.6,81.3L79.6,81.3z M99.2,84.9L99.2,84.9c0.1,0.1,0.9,0.9,1.1,0.9c0.6-0.1,0.8-0.9,0.6-1.5
		c-0.3-0.6-1.1-0.8-2.1-1C98.4,83.9,98.8,84.4,99.2,84.9L99.2,84.9z M96.8,86.4c-0.7,1,0.8,2,0.9,2.9c1.1-0.6,1.6-1.7,2.3-2.6
		C99.1,85.8,97.9,85,96.8,86.4L96.8,86.4z M79.7,87L79.7,87c0.3,1.3,1,2.1,1.5,3.1c0.7,0.5,1.7,0.6,2.8,0.5c-0.8-1.5-1.4-3.1-2-4.8
		C81.2,86.3,80.4,86.6,79.7,87L79.7,87z M94.1,89.1L94.1,89.1c-0.2,0.8,0.3,1.5,0.2,2.3c1-0.3,1.6-1,2.5-1.5
		C96.5,88.9,94.5,87.5,94.1,89.1L94.1,89.1z M55.1,92.2L55.1,92.2c-1.1,0.5-1.2,2.3-1.3,3.7c0,0,2-0.9,2-0.9
		C55.9,93.8,55.5,92.8,55.1,92.2L55.1,92.2z M52.8,94.3L52.8,94.3c-0.1-0.4-0.6-1.6-1-1.3c-0.7,0.6-0.9,2.3-1.1,3.5
		c0.9,0.1,1.4-0.2,2.2-0.3C52.8,95.5,52.9,95,52.8,94.3L52.8,94.3z M49.2,93.3L49.2,93.3c-0.7,0.7-1.3,1.6-1.5,2.9
		c0.8,0.1,1.5,0.3,2.4,0.3C50.1,95.1,49.9,93.9,49.2,93.3L49.2,93.3z"/>
</g>
</svg>
