<?xml version="1.0" encoding="utf-8"?>
<!-- Generator: Adobe Illustrator 21.0.0, SVG Export Plug-In . SVG Version: 6.00 Build 0)  -->
<svg version="1.1" id="Layer_1" xmlns="http://www.w3.org/2000/svg" xmlns:xlink="http://www.w3.org/1999/xlink" x="0px" y="0px"
	 viewBox="0 0 197.6 45.9" style="enable-background:new 0 0 197.6 45.9;" xml:space="preserve">
<style type="text/css">
	.st0{fill:#FFFFFF;}
</style>
<g>
	<g>
		<g>
			<path class="st0" d="M126.6,31.9c-5,2.6-10,5.1-15,7.7c-2.3,1.2-3.9,0.2-2.6-2.5l2.7-5.3h-0.1h-0.2h-0.2H111h-0.2
				c-0.2,0-0.4-0.1-0.5-0.1l-0.3-0.1h-0.2c-0.1,0-0.2-0.1-0.3-0.1l-0.2-0.1l-0.3-0.1l-0.6-0.3l-0.3-0.1l-0.1-0.1
				c-0.1-0.1-0.2-0.1-0.3-0.2l-0.2-0.1c-0.3-0.2-0.6-0.4-0.9-0.7l0,0c-1.2-1-2.2-2.3-2.7-3.7h2.5l0,0l0.1,0.2l0.1,0.2l0.1,0.2
				l0.1,0.1l0,0l0.1,0.1L107,27l0.2,0.3l0.2,0.2l0.2,0.2l0.3,0.2l0.2,0.1c0.1,0.1,0.1,0.1,0.2,0.2l0.1,0.1l0.1,0.1l0.1,0.1l0.1,0.1
				l0.1,0.1l0.2,0.1l0.1,0.1h0.1h0.1l0.1,0.1l0.2,0.1l0.2,0.1l0.3,0.1l0.2,0.1h0.1l0.2,0.1h0.2h0.2l0.3,0.1h0.2h0.2h0.2h0.2h0.2h0.2
				l0,0h3.5c-1.2,2.5-2.5,4.8-3.8,7.3c5.1-2.6,9.2-4.7,14.2-7.3c18.9,0,37.8,0,56.7,0h0.2h0.2h0.2h0.2h0.1h0.2h0.2h0.2h0.1l0,0
				c0.6-0.1,1.2-0.4,1.8-0.7l0.2-0.1c0.3-0.2,0.6-0.4,0.9-0.6l0,0l0,0l0,0l0,0l0,0l0,0l0,0l0,0l0,0l0,0l0,0l0,0l0,0l0,0
				c0.1-0.1,0.2-0.2,0.3-0.3l0,0l0.1-0.1l0,0l0.1-0.1l0,0l0,0l0,0l0.1-0.1l0.1-0.1c0.1-0.1,0.1-0.1,0.2-0.2l0.1-0.1l0.1-0.1l0,0
				l0.1-0.1l0,0v-0.1l0.1-0.1l0,0l0,0l0.1-0.1l0,0l0.1-0.1l0,0l0.1-0.1l0,0l0.1-0.1c0.6-1,0.9-2.2,0.9-3.5v-2.1v-6.6V9.4
				c0-3.9-3.2-7.1-7.2-7.1l-70.4,3.6h-0.2h-0.2h-0.1H112h-0.2h-0.2h-0.2h-0.2H111h-0.1L110.6,6h-0.1h-0.1l-0.2,0.1L110,6.2
				c-1.6,0.6-2.9,1.7-3.8,3.2h-2.7c1.1-2.7,3.3-4.7,6.2-5.5l0,0c0.1,0,0.3-0.1,0.4-0.1l0,0c0.3-0.1,0.6-0.1,0.9-0.2h0.3h0.2h0.2
				c0.2,0,0.3,0,0.5,0L182.6,0c5.2,0,9.4,4.2,9.4,9.4v4.8v6.6v2.1c0,1.8-0.5,3.5-1.4,5l0,0l-0.1,0.1v0.1v0.1v0.1l-0.1,0.1l0,0
				l-0.1,0.1l0,0l-0.1,0.2l0,0l0,0c-0.1,0.1-0.2,0.2-0.3,0.3l0,0l-0.1,0.2l0,0l0,0c-0.1,0.2-0.3,0.3-0.4,0.4l-0.1,0.1l0,0l-0.1,0.1
				l0,0l-0.2,0.1l0,0l-0.1,0.1l0,0l0,0l-0.1,0.1l0,0l0,0l-0.1,0.1l0,0h-0.1l-0.2,0.1l-0.1,0.1l0,0h-0.1h-0.1l0,0H188l-0.2,0.1l0,0
				l0,0l-0.1,0.1l0,0h-0.1l-0.1,0.1l-0.2,0.1l-0.2,0.1L187,31l0,0l0,0l0,0l0,0l0,0l0,0l0,0l0,0l0,0l0,0l0,0l0,0l0,0l0,0l0,0l0,0l0,0
				l0,0l0,0l0,0l0,0l0,0l0,0l0,0l0,0l0,0l0,0l0,0l0,0l0,0l0,0l0,0l0,0l0,0l0,0l0,0l-0.2,0.1h-0.1l-0.1,0.1h-0.1l0,0l0,0l-0.2,0.1
				l0,0l-0.2,0.1l0,0l-0.2,0.1l0,0h-0.1h-0.1h-0.2h-0.1h-0.1h-0.1h-0.1H185h-0.1h-0.1h-0.1l0,0l0,0h-0.1h-0.2h-0.2h-0.3h-0.2
				c-0.1,0-0.2,0-0.2,0h-0.2C164,31.9,145.3,31.9,126.6,31.9z"/>
			<path class="st0" d="M175,38.1c5,2.6,9.2,4.7,14.2,7.3c2.3,1.2,3.9,0.2,2.6-2.5l-2.7-5.3h0.1h0.2h0.2h0.2h0.2
				c0.2,0,0.4-0.1,0.5-0.1l0.3-0.1h0.2c0.1,0,0.2-0.1,0.3-0.1l0.2-0.1l0.3-0.1l0.6-0.3l0.3-0.1l0.1-0.1c0.1-0.1,0.2-0.1,0.3-0.2
				l0.2-0.1c0.3-0.2,0.6-0.4,0.9-0.7l0,0c2.2-1.8,3.4-4.5,3.4-7.3v-9.9c0-0.5,0-1.1-0.1-1.6c-0.4-2.4-1.8-4.6-3.7-6
				c0.1,0.6,0.1,1.2,0.1,1.8v9.9c0,2.2-0.6,4.3-1.8,6.1l-0.2,0.3l-0.2,0.2l-0.1,0.2l-0.2,0.3c-0.1,0.1-0.2,0.3-0.3,0.4l-0.2,0.2
				c-0.2,0.2-0.3,0.4-0.5,0.6l-0.2,0.1l-0.2,0.2l-0.2,0.2l-0.2,0.1l-0.2,0.2l-0.2,0.2L189,32l-0.2,0.1l-0.2,0.1l-0.2,0.1l-0.3,0.1
				l-0.2,0.1l-0.2,0.1l-0.2,0.1l-0.1,0.1h-0.1l-0.2,0.1L187,33l-0.3,0.1l-0.3,0.1l-0.3,0.1l-0.2,0.1l-0.3,0.1h-0.2l-0.2,0.1H185
				l-0.3,0.1h-0.3h-0.3h-0.3h-0.3h-0.3H183c-0.1,0-0.2,0-0.3,0h-0.3c-18.5,0-37.1,0-55.6,0l-11.4,5.9L175,38.1z"/>
		</g>
		<path class="st0" d="M8,18.5c0-0.1,0-0.3,0-0.4V13c0-0.4,0.1-0.7,0.3-1c0.3-0.3,0.7-0.3,1-0.3h2.3V14h-1c0,0,0,0-0.1,0
			c0,0,0,0,0,0.1v9.3H8.2l-4.3-6.3c-0.1-0.2-0.2-0.4-0.3-0.5c0,0.1,0,0.3,0,0.4v5.1c0,0.4-0.1,0.7-0.3,1c-0.3,0.3-0.7,0.3-1,0.3H0
			v-2.3h1c0,0,0,0,0.1,0c0,0,0,0,0-0.1v-9.3h2.3L7.7,18C7.7,18.1,7.8,18.3,8,18.5L8,18.5z M13.8,22.3c-0.9-0.9-1.4-1.9-1.4-3.2
			s0.4-2.3,1.4-3.2c0.9-0.9,2-1.3,3.3-1.3s2.4,0.4,3.3,1.3c0.9,0.9,1.4,1.9,1.4,3.2c0,1.3-0.4,2.3-1.4,3.2c-0.9,0.9-2.1,1.3-3.3,1.3
			C15.9,23.6,14.7,23.2,13.8,22.3L13.8,22.3z M23.6,16.9h-1v-2.1h1.1v-2.2h2.5v2.2H28v2.1h-1.8v3c0,0.3,0.1,0.8,0.4,1
			c0.3,0.2,0.6,0.3,0.9,0.3l0.7-0.1v2.3H28c-0.2,0-0.4,0.1-0.7,0.1s-0.6,0-0.8-0.1c-0.3,0-0.6-0.1-0.9-0.3c-0.3-0.1-0.6-0.3-0.9-0.5
			c-0.3-0.3-0.5-0.6-0.7-1c-0.2-0.5-0.3-1-0.3-1.5L23.6,16.9L23.6,16.9z M28.9,21.6l1.5-1.9l0.2,0.2l0.1,0.1
			c0.1,0.1,0.2,0.2,0.3,0.3c0.2,0.1,0.4,0.3,0.5,0.4c0.2,0.1,0.5,0.2,0.7,0.3c0.3,0.1,0.5,0.1,0.8,0.1c0.4,0,0.7-0.1,1-0.3
			c0.2-0.2,0.4-0.4,0.4-0.7c0-0.2-0.1-0.4-0.2-0.5c-0.2-0.2-0.4-0.4-0.7-0.5c-0.3-0.2-0.7-0.3-1-0.5c-0.4-0.2-0.8-0.4-1.1-0.6
			c-0.4-0.2-0.7-0.4-1.1-0.7c-0.4-0.3-0.6-0.6-0.8-1s-0.3-0.9-0.3-1.4c0-1,0.4-1.8,1.1-2.5c0.8-0.7,1.8-1,2.8-1c0.5,0,1,0.1,1.5,0.2
			s1,0.4,1.4,0.8s0.7,0.9,0.7,1.5v1.3h-2.4v-0.8c0-0.2-0.2-0.3-0.3-0.4c-0.3-0.2-0.6-0.2-0.9-0.2c-0.4,0-0.7,0.1-1,0.3
			c-0.2,0.2-0.3,0.4-0.3,0.6s0.1,0.4,0.2,0.5c0.2,0.2,0.4,0.4,0.7,0.5c0.3,0.2,0.7,0.3,1,0.5c0.4,0.2,0.8,0.3,1.1,0.5
			c0.4,0.2,0.7,0.4,1.1,0.7c0.4,0.3,0.6,0.6,0.8,1.1S37,19.4,37,20c0,1-0.4,1.8-1.1,2.5c-0.8,0.8-1.8,1-2.9,1c-0.5,0-1-0.1-1.4-0.2
			c-0.4-0.1-0.8-0.3-1.1-0.5s-0.5-0.3-0.8-0.5c-0.2-0.1-0.4-0.3-0.5-0.5L28.9,21.6L28.9,21.6z M39.5,22.3c-0.9-0.9-1.4-1.9-1.4-3.2
			s0.4-2.3,1.4-3.2c0.9-0.9,2-1.3,3.3-1.3s2.4,0.4,3.3,1.3s1.4,1.9,1.4,3.2c0,1.3-0.4,2.3-1.4,3.2c-0.9,0.9-2.1,1.3-3.3,1.3
			C41.6,23.6,40.5,23.2,39.5,22.3L39.5,22.3z M51.7,15.7c0.2-0.2,0.4-0.4,0.6-0.5c0.5-0.4,1.1-0.6,1.7-0.6c1.1,0,1.9,0.4,2.4,1.3
			c0.2-0.3,0.6-0.6,0.9-0.8c0.5-0.4,1.1-0.5,1.8-0.5c2.1,0,2.9,1.4,2.9,3.3V21c0,0,0,0,0,0.1c0,0,0,0,0.1,0H63v2.2h-2.2
			c-0.4,0-0.7-0.1-1-0.3c-0.3-0.3-0.3-0.7-0.3-1v-3.7c0-0.3,0-0.8-0.2-1.1c-0.1-0.2-0.4-0.3-0.6-0.3c-0.4,0-0.7,0.2-1,0.4
			c-0.3,0.3-0.5,0.7-0.6,1.2l0,0C57,18.8,57,19.1,57,19.4v3.8h-2.5v-5c0-0.3,0-0.8-0.2-1.1c-0.1-0.2-0.4-0.3-0.6-0.3
			c-0.4,0-0.7,0.1-1,0.4s-0.5,0.8-0.6,1.2C52,18.7,52,19,52,19.3v3.8h-2.5v-6.2c0,0,0,0,0-0.1c0,0,0,0-0.1,0h-0.9v-2.3h2.1
			C51.1,14.8,51.6,15.1,51.7,15.7L51.7,15.7z M66.4,19.7c0.1,0.4,0.3,0.8,0.6,1.1c0.4,0.3,0.9,0.5,1.4,0.5c0.4,0,0.7-0.1,1-0.2
			c0.2-0.1,0.6-0.2,0.8-0.4l0.5-0.4l1.1,1.8l-0.2,0.2l-0.1,0.1c-0.1,0.1-0.3,0.2-0.5,0.3s-0.5,0.3-0.7,0.4c-0.3,0.1-0.6,0.2-0.9,0.3
			c-0.4,0.1-0.8,0.1-1.2,0.1c-1.3,0-2.4-0.4-3.3-1.3c-0.9-0.9-1.3-1.9-1.3-3.2c0-1.2,0.4-2.3,1.2-3.2c0.8-0.9,1.9-1.3,3.1-1.3
			c1.1,0,2.1,0.3,2.8,1.2c0.7,0.8,1,1.8,1,2.9l-0.1,1h-5.2V19.7z M72.8,19.8v-0.9h2.6v0.7c0,0.4,0.1,0.9,0.3,1.1
			c0.2,0.2,0.5,0.3,0.8,0.3s0.6-0.1,0.8-0.3c0.3-0.3,0.3-0.7,0.3-1.1v-5.7c0,0,0,0,0-0.1c0,0,0,0-0.1,0h-3v-2.3h4.3
			c0.9,0,1.3,0.5,1.3,1.3v6.8c0,1.1-0.3,2.1-1.1,2.8c-0.8,0.7-1.7,1-2.7,1s-1.9-0.3-2.6-1C73.1,21.9,72.8,20.9,72.8,19.8L72.8,19.8z
			 M83.2,22.3c-0.9-0.9-1.4-1.9-1.4-3.2s0.4-2.3,1.4-3.2c0.9-0.9,2-1.3,3.3-1.3s2.4,0.4,3.3,1.3s1.4,1.9,1.4,3.2
			c0,1.3-0.4,2.3-1.4,3.2c-0.9,0.9-2.1,1.3-3.3,1.3C85.3,23.6,84.2,23.2,83.2,22.3L83.2,22.3z M95.3,15.3c0.1-0.1,0.3-0.2,0.4-0.3
			c0.2-0.1,0.5-0.2,0.7-0.3c0.3-0.1,0.6-0.1,1-0.1c1.1,0,2.1,0.4,2.8,1.3c0.8,0.9,1,2,1,3.2s-0.3,2.3-1.1,3.2
			c-0.8,0.8-1.7,1.2-2.9,1.2c-0.5,0-1-0.1-1.5-0.3c-0.2-0.1-0.5-0.2-0.7-0.4v0.5h-2.4v-9.4c0,0,0,0,0-0.1c0,0,0,0-0.1,0h-0.9v-2.3
			h2.2c0.9,0,1.3,0.5,1.3,1.3L95.3,15.3L95.3,15.3z M103.2,14h-1v-2.3h5.1c1,0,1.9,0.2,2.7,0.8c0.7,0.6,1.1,1.4,1.1,2.3
			c0,0.6-0.1,1.1-0.4,1.6c-0.2,0.3-0.4,0.5-0.6,0.7c0.4,0.2,0.7,0.5,1,0.9c0.3,0.5,0.5,1.1,0.5,1.8c0,1.1-0.3,2-1.2,2.6
			c-0.8,0.6-1.9,0.9-2.9,0.9h-2.8c-0.4,0-0.7-0.1-1-0.3c-0.3-0.3-0.3-0.7-0.3-1v-8H103.2z M113.9,22.3c-0.9-0.9-1.4-1.9-1.4-3.2
			s0.4-2.3,1.4-3.2c0.9-0.9,2-1.3,3.3-1.3s2.4,0.4,3.3,1.3c0.9,0.9,1.4,1.9,1.4,3.2c0,1.3-0.4,2.3-1.4,3.2c-0.9,0.9-2.1,1.3-3.3,1.3
			C115.9,23.6,114.8,23.2,113.9,22.3L113.9,22.3z M127.7,17.8c0-0.3-0.1-0.6-0.3-0.8c-0.2-0.2-0.6-0.3-0.9-0.3c-0.2,0-0.4,0-0.6,0.1
			c-0.1,0-0.2,0.1-0.2,0.2v0.7h-2.4v-1.1c0-0.4,0.1-0.8,0.4-1.1c0.3-0.3,0.6-0.5,1-0.6c0.3-0.1,0.7-0.2,1-0.2s0.6-0.1,0.9-0.1
			c2.3,0,3.7,1.1,3.7,3.5v3c0,0,0,0,0,0.1c0,0,0,0,0.1,0h0.9v2.2h-2.1c-0.3,0-0.7-0.1-1-0.3c-0.1-0.1-0.2-0.3-0.3-0.4
			c-0.1,0.1-0.3,0.3-0.4,0.4c-0.2,0.2-0.5,0.3-0.8,0.4c-0.3,0.1-0.7,0.2-1,0.2c-0.8,0-1.5-0.2-2.1-0.7s-0.9-1.2-0.9-2
			c0-0.4,0.1-0.8,0.3-1.2s0.5-0.6,0.8-0.9c0.3-0.2,0.6-0.4,1-0.5s0.8-0.2,1.1-0.3c0.3,0,0.7-0.1,1-0.1
			C127.2,17.8,127.5,17.8,127.7,17.8L127.7,17.8z M135.3,15.9c0.1-0.2,0.3-0.4,0.5-0.5c0.5-0.4,1.1-0.6,1.8-0.6l0,0l0.6,0.1v2.5
			h-0.3c-0.1,0-0.3,0-0.4,0c-0.4,0-0.8,0.1-1.2,0.4s-0.6,0.7-0.8,1.1c-0.1,0.4-0.2,0.8-0.2,1.2v3.4h-2.5v-6.2c0,0,0,0,0-0.1
			c0,0,0,0-0.1,0h-0.9v-2.3h2.1C134.7,14.8,135.2,15.2,135.3,15.9L135.3,15.9z M144.6,15.2V14c0,0,0,0,0-0.1c0,0,0,0-0.1,0h-0.9
			v-2.3h2.2c0.9,0,1.3,0.5,1.3,1.3v8c0,0,0,0,0,0.1c0,0,0,0,0.1,0h0.9v2.2H146c-0.6,0-1.1-0.2-1.2-0.7c-0.1,0.1-0.3,0.3-0.5,0.4
			c-0.2,0.2-0.5,0.3-0.8,0.3c-0.3,0.1-0.7,0.2-1,0.2c-1.1,0-2.1-0.4-2.8-1.3c-0.8-0.9-1-2-1-3.2s0.3-2.3,1.1-3.2
			c0.7-0.8,1.7-1.2,2.8-1.2c0.3,0,0.7,0,1,0.1c0.2,0.1,0.5,0.1,0.7,0.3C144.4,15.1,144.5,15.1,144.6,15.2L144.6,15.2z M149.5,23.4
			v-2.5h2.5v2.5H149.5L149.5,23.4z M153.3,19.1c0-1.2,0.4-2.3,1.3-3.2c0.9-0.9,2.1-1.3,3.4-1.3c0.4,0,0.9,0.1,1.3,0.2
			c0.5,0.1,0.9,0.3,1.3,0.6c0.4,0.3,0.6,0.8,0.6,1.3v1.2h-2.3v-0.7c0-0.1-0.1-0.2-0.2-0.2c-0.2-0.1-0.4-0.1-0.7-0.1
			c-0.6,0-1.1,0.2-1.5,0.6s-0.6,1-0.6,1.6s0.2,1.2,0.6,1.6c0.5,0.4,1,0.6,1.6,0.6c0.4,0,0.7-0.1,1.1-0.2c0.3-0.1,0.6-0.3,0.8-0.5
			l0.5-0.5l1.1,1.8l-0.1,0.1c0,0.1-0.1,0.1-0.2,0.2c-0.1,0.1-0.3,0.3-0.4,0.4c-0.2,0.2-0.5,0.3-0.7,0.5c-0.3,0.2-0.7,0.3-1,0.4
			c-0.4,0.1-0.8,0.2-1.3,0.2c-1.3,0-2.4-0.4-3.3-1.3C153.7,21.4,153.3,20.3,153.3,19.1L153.3,19.1z M163.6,22.3
			c-0.9-0.9-1.4-1.9-1.4-3.2s0.4-2.3,1.4-3.2c0.9-0.9,2-1.3,3.3-1.3s2.4,0.4,3.3,1.3c0.9,0.9,1.4,1.9,1.4,3.2c0,1.3-0.4,2.3-1.4,3.2
			c-0.9,0.9-2.1,1.3-3.3,1.3C165.6,23.6,164.5,23.2,163.6,22.3L163.6,22.3z M175.7,15.7c0.2-0.2,0.4-0.4,0.6-0.5
			c0.5-0.4,1.1-0.6,1.7-0.6c1.1,0,1.9,0.4,2.4,1.3c0.2-0.3,0.5-0.6,0.9-0.8c0.5-0.4,1.1-0.5,1.8-0.5c2.1,0,2.9,1.4,2.9,3.3V21
			c0,0,0,0,0,0.1c0,0,0,0,0.1,0h0.9v2.2h-2.2c-0.4,0-0.7-0.1-1-0.3c-0.3-0.3-0.3-0.7-0.3-1v-3.7c0-0.3,0-0.8-0.2-1.1
			c-0.1-0.2-0.4-0.3-0.6-0.3c-0.4,0-0.7,0.2-1,0.4c-0.3,0.3-0.5,0.7-0.6,1.2l0,0c-0.1,0.3-0.1,0.6-0.1,0.9v3.8h-2.5v-5
			c0-0.3,0-0.8-0.2-1.1c-0.1-0.2-0.4-0.3-0.6-0.3c-0.4,0-0.7,0.1-1,0.4s-0.5,0.8-0.6,1.2c-0.1,0.3-0.1,0.6-0.1,0.9v3.8h-2.5v-6.2
			c0,0,0,0,0-0.1c0,0,0,0-0.1,0h-0.9v-2.3h2.1C175.1,14.8,175.6,15.1,175.7,15.7L175.7,15.7z M15,19.1c0,0.6,0.2,1.2,0.6,1.6
			c0.4,0.4,0.9,0.6,1.5,0.6s1.1-0.2,1.5-0.6c0.4-0.4,0.6-1,0.6-1.6s-0.2-1.2-0.6-1.6c-0.4-0.4-0.9-0.6-1.5-0.6s-1.1,0.2-1.5,0.6
			C15.2,17.9,15,18.5,15,19.1L15,19.1z M40.8,19.1c0,0.6,0.2,1.2,0.6,1.6c0.4,0.4,0.9,0.6,1.5,0.6c0.6,0,1.1-0.2,1.5-0.6
			c0.4-0.4,0.6-1,0.6-1.6s-0.2-1.2-0.6-1.6s-0.9-0.6-1.5-0.6s-1.1,0.2-1.5,0.6C40.9,17.9,40.8,18.5,40.8,19.1L40.8,19.1z M66.5,17.8
			h2.8c0-0.3-0.2-0.5-0.3-0.7c-0.2-0.2-0.5-0.4-0.9-0.4s-0.8,0.1-1.1,0.4C66.7,17.3,66.6,17.5,66.5,17.8L66.5,17.8z M84.4,19.1
			c0,0.6,0.2,1.2,0.6,1.6s0.9,0.6,1.5,0.6s1.1-0.2,1.5-0.6c0.4-0.4,0.6-1,0.6-1.6s-0.2-1.2-0.6-1.6s-0.9-0.6-1.5-0.6
			s-1.1,0.2-1.5,0.6C84.6,17.9,84.4,18.5,84.4,19.1L84.4,19.1z M95.2,19.1c0,0.6,0.1,1.1,0.5,1.6c0.3,0.4,0.7,0.6,1.2,0.6
			s0.9-0.2,1.2-0.6c0.4-0.5,0.5-1,0.5-1.6s-0.1-1.2-0.5-1.6c-0.3-0.4-0.7-0.6-1.2-0.6s-0.9,0.2-1.2,0.5
			C95.3,17.9,95.2,18.5,95.2,19.1L95.2,19.1z M105.8,16.2h1.5c0.3,0,0.6-0.1,0.8-0.3c0.2-0.2,0.3-0.5,0.3-0.8s-0.1-0.6-0.3-0.8
			c-0.2-0.2-0.5-0.3-0.8-0.3h-1.4L105.8,16.2L105.8,16.2z M105.8,18.4V21c0,0,0,0,0,0.1c0,0,0,0,0.1,0h1.6c0.4,0,0.7-0.1,1-0.4
			c0.3-0.3,0.3-0.6,0.3-1s-0.1-0.7-0.3-1c-0.3-0.3-0.6-0.4-0.9-0.4h-1.8V18.4z M115.1,19.1c0,0.6,0.2,1.2,0.6,1.6
			c0.4,0.4,0.9,0.6,1.5,0.6s1.1-0.2,1.5-0.6c0.4-0.4,0.6-1,0.6-1.6s-0.2-1.2-0.6-1.6c-0.4-0.4-0.9-0.6-1.5-0.6s-1.1,0.2-1.5,0.6
			C115.3,17.9,115.1,18.5,115.1,19.1L115.1,19.1z M127.8,19.7L127.8,19.7c-0.7,0-2.5,0-2.5,1c0,0.2,0.1,0.4,0.2,0.5
			c0.2,0.2,0.5,0.2,0.7,0.2c0.5,0,0.8-0.2,1.1-0.6C127.6,20.5,127.8,20.1,127.8,19.7L127.8,19.7z M142.9,21.3c0.5,0,0.9-0.2,1.2-0.5
			c0.4-0.4,0.5-1.1,0.5-1.7c0-0.6-0.1-1.1-0.5-1.6c-0.3-0.4-0.7-0.6-1.2-0.6s-0.9,0.2-1.2,0.6c-0.4,0.5-0.5,1-0.5,1.6
			c0,0.6,0.1,1.2,0.5,1.6C142,21.1,142.4,21.3,142.9,21.3L142.9,21.3z M164.8,19.1c0,0.6,0.2,1.2,0.6,1.6c0.4,0.4,0.9,0.6,1.5,0.6
			s1.1-0.2,1.5-0.6c0.4-0.4,0.6-1,0.6-1.6s-0.2-1.2-0.6-1.6c-0.4-0.4-0.9-0.6-1.5-0.6s-1.1,0.2-1.5,0.6
			C165,17.9,164.8,18.5,164.8,19.1z"/>
	</g>
</g>
</svg>
