<?xml version="1.0" encoding="utf-8"?>
<!-- Generator: Adobe Illustrator 21.0.0, SVG Export Plug-In . SVG Version: 6.00 Build 0)  -->
<svg version="1.1" id="_x2014_ÎÓÈ_1" xmlns="http://www.w3.org/2000/svg" xmlns:xlink="http://www.w3.org/1999/xlink" x="0px"
	 y="0px" viewBox="0 0 321.6 500.7" style="enable-background:new 0 0 321.6 500.7;" xml:space="preserve">
<style type="text/css">
	
		.st0{fill-rule:evenodd;clip-rule:evenodd;fill:none;stroke:#FFFFFF;stroke-width:2.126;stroke-linecap:round;stroke-linejoin:round;stroke-miterlimit:22.9256;}
	.st1{fill-rule:evenodd;clip-rule:evenodd;fill:#FFFFFF;}
</style>
<path class="st0" d="M109.8,61.8l162.5,30.1c6.8,1.3,11.4,7.9,10.1,14.7L242,324.4c-1.3,6.8-7.9,11.4-14.7,10.1l-28.1-5.2
	l-17.7,12.2l2.8-14.9L64.9,304.4c-6.8-1.3-11.4-7.9-10.1-14.7L95.1,71.9C96.4,65.1,103,60.5,109.8,61.8z"/>
<path class="st0" d="M99.5,0.3L304,38.2c9.1,1.7,15.2,10.5,13.5,19.7L238,486.9c-1.7,9.1-10.5,15.2-19.7,13.5L13.8,462.6
	C4.7,460.9-1.4,452,0.3,442.9L79.8,13.8C81.5,4.7,90.3-1.4,99.5,0.3L99.5,0.3z M88.7,43.9l209.8,38.9l-68.6,370.1L20.1,414
	L88.7,43.9z"/>
<path class="st0" d="M117.7,472.9c8.4,1.6,16.6-4,18.1-12.5c1.6-8.4-4-16.6-12.5-18.1c-8.4-1.6-16.6,4-18.1,12.5
	S109.3,471.3,117.7,472.9z"/>
<path class="st0" d="M118.7,467.6c5.5,1,10.9-2.6,11.9-8.2c1-5.5-2.6-10.9-8.2-11.9c-5.5-1-10.9,2.6-11.9,8.2
	C109.5,461.2,113.1,466.6,118.7,467.6z"/>
<g>
	<path class="st0" d="M167.7,43.2c3.5,0.6,6.9-1.7,7.5-5.2c0.6-3.5-1.7-6.9-5.2-7.5c-3.5-0.6-6.9,1.7-7.5,5.2
		C161.9,39.2,164.2,42.5,167.7,43.2z"/>
	<path class="st0" d="M191.8,34.8l35.7,6.6c3.4,0.6,5.6,3.9,5,7.2l0,0c-0.6,3.4-3.9,5.6-7.2,5L189.5,47c-3.4-0.6-5.6-3.9-5-7.2l0,0
		C185.2,36.4,188.4,34.2,191.8,34.8z"/>
</g>
<path class="st1" d="M107.1,81.9c-0.1,0.6-0.2,1-0.2,1.2c0,0.4,0,0.6,0.1,0.8c0.1,0.2,0.2,0.4,0.4,0.5c0.2,0.1,0.4,0.2,0.7,0.3
	c0.5,0.1,0.9,0,1.1-0.3c0.2-0.2,0.3-0.6,0.5-1.2l1.4-7.8l2.3,0.4l-1.5,8.1c-0.1,0.8-0.4,1.4-0.8,1.8c-0.4,0.4-0.9,0.7-1.5,0.9
	c-0.6,0.1-1.2,0.2-1.8,0c-0.7-0.1-1.2-0.3-1.6-0.6c-0.4-0.3-0.8-0.6-1-1c-0.2-0.4-0.3-0.9-0.4-1.4c0-0.5,0-1.2,0.2-2.1L107.1,81.9z"
	/>
<path class="st1" d="M112.9,83.1c0.2-0.8,0.5-1.6,1-2.2c0.5-0.6,1.1-1.1,1.8-1.3c0.7-0.2,1.5-0.3,2.3-0.1c0.8,0.2,1.5,0.5,2.1,1
	c0.6,0.5,1,1.1,1.2,1.9c0.2,0.8,0.2,1.5,0.1,2.3c-0.2,0.8-0.5,1.6-1,2.2c-0.5,0.6-1.1,1.1-1.8,1.3c-0.7,0.2-1.5,0.3-2.3,0.1
	c-0.8-0.1-1.5-0.5-2.1-0.9c-0.6-0.5-1-1.1-1.2-1.8C112.8,84.7,112.8,83.9,112.9,83.1L112.9,83.1z M115.2,83.5
	c-0.1,0.7-0.1,1.4,0.2,1.9c0.2,0.5,0.7,0.9,1.4,1c0.6,0.1,1.1,0,1.5-0.3c0.4-0.3,0.7-1,0.9-1.9c0.1-0.7,0.1-1.4-0.1-1.9
	c-0.2-0.5-0.7-0.8-1.4-1c-0.7-0.1-1.2,0-1.7,0.4C115.6,82.2,115.3,82.8,115.2,83.5z"/>
<path class="st1" d="M129.4,90.4l-2.2-0.4l0.9-5c0.1-0.6,0.1-1-0.1-1.3c-0.2-0.3-0.5-0.5-0.9-0.6c-0.4-0.1-0.7,0-1,0.1
	c-0.3,0.1-0.6,0.3-0.7,0.6c-0.2,0.3-0.3,0.7-0.4,1.2l-0.8,4.5l-2.2-0.4l2.1-11.2l2.2,0.4l-0.7,4c0.3-0.4,0.7-0.6,1.2-0.8
	c0.5-0.2,1-0.2,1.5-0.1c0.5,0.1,0.9,0.2,1.2,0.5c0.4,0.2,0.6,0.5,0.8,0.8c0.2,0.3,0.3,0.6,0.4,1c0.1,0.3,0,0.8-0.1,1.5L129.4,90.4z"
	/>
<path class="st1" d="M138.6,92.1l-2.2-0.4l0.9-5c0.1-0.6,0.1-1-0.1-1.3c-0.2-0.3-0.5-0.5-1-0.6c-0.6-0.1-1,0-1.4,0.3
	c-0.4,0.3-0.6,0.8-0.7,1.5l-0.8,4.5l-2.2-0.4l1.5-8.3l2.1,0.4l-0.2,1.2c0.4-0.4,0.8-0.7,1.2-0.9c0.4-0.2,1-0.2,1.6-0.1
	c0.9,0.2,1.5,0.5,1.9,1.1c0.4,0.6,0.5,1.4,0.4,2.3L138.6,92.1z"/>
<path class="st1" d="M150.7,82.7l-0.3,1.8c-0.2,0-0.3-0.1-0.5-0.1c-0.3-0.1-0.5-0.1-0.6,0c-0.1,0-0.2,0.1-0.3,0.2
	c-0.1,0.1-0.1,0.3-0.2,0.7c0,0.1,0,0.2,0,0.3l1.4,0.3l-0.3,1.5l-1.4-0.3l-1.2,6.7l-2.2-0.4l1.2-6.7l-1.2-0.2l0.3-1.5l1.2,0.2
	c0.1-0.7,0.3-1.2,0.4-1.5c0.1-0.3,0.3-0.5,0.5-0.7c0.2-0.2,0.5-0.3,0.9-0.4c0.4-0.1,0.8,0,1.5,0.1C150.1,82.5,150.4,82.6,150.7,82.7
	z"/>
<path class="st1" d="M156,86.6l-0.4,2.2c-0.2-0.1-0.4-0.1-0.5-0.1c-0.6-0.1-1-0.1-1.4,0.1c-0.4,0.1-0.6,0.3-0.8,0.6
	c-0.2,0.3-0.3,0.7-0.4,1.3l-0.7,4l-2.2-0.4l1.5-8.3l2.1,0.4l-0.3,1.4c0.2-0.3,0.4-0.5,0.7-0.7c0.3-0.2,0.6-0.4,0.9-0.5
	c0.3-0.1,0.7-0.1,1,0C155.7,86.5,155.9,86.5,156,86.6z"/>
<path class="st1" d="M155.1,90.9c0.2-0.8,0.5-1.6,1-2.2c0.5-0.6,1.1-1.1,1.8-1.3c0.7-0.2,1.5-0.3,2.3-0.1c0.8,0.2,1.5,0.5,2.1,1
	c0.6,0.5,1,1.1,1.2,1.9c0.2,0.7,0.2,1.5,0.1,2.3c-0.2,0.8-0.5,1.6-1,2.2c-0.5,0.6-1.1,1.1-1.8,1.3c-0.7,0.2-1.5,0.3-2.3,0.1
	c-0.8-0.1-1.5-0.5-2.1-0.9c-0.6-0.5-1-1.1-1.2-1.8C155,92.5,155,91.7,155.1,90.9L155.1,90.9z M157.4,91.3c-0.1,0.7-0.1,1.4,0.2,1.9
	c0.2,0.5,0.7,0.9,1.4,1c0.6,0.1,1.1,0,1.5-0.3c0.4-0.3,0.7-1,0.9-1.9c0.1-0.7,0.1-1.4-0.1-1.9c-0.2-0.5-0.7-0.8-1.4-1
	c-0.7-0.1-1.2,0-1.7,0.4C157.8,90,157.5,90.6,157.4,91.3z"/>
<path class="st1" d="M175.9,99l-2.2-0.4l1-5.2c0.1-0.5,0.1-0.9-0.1-1.2c-0.2-0.3-0.5-0.4-0.8-0.5c-0.4-0.1-0.8,0-1.1,0.2
	c-0.3,0.2-0.5,0.6-0.6,1.2l-0.9,5l-2.2-0.4l0.9-5c0.1-0.4,0.1-0.8,0.1-1c0-0.2-0.1-0.4-0.3-0.6c-0.2-0.2-0.4-0.3-0.7-0.3
	c-0.5-0.1-0.9,0-1.3,0.3c-0.2,0.2-0.4,0.6-0.5,1.1l-0.9,5l-2.2-0.4l1.5-8.3l2.1,0.4l-0.2,1.2c0.3-0.4,0.7-0.7,1-0.9
	c0.5-0.2,1-0.3,1.6-0.2c0.4,0.1,0.7,0.2,1,0.4c0.3,0.2,0.5,0.4,0.6,0.6c0.1,0.2,0.3,0.4,0.4,0.8c0.4-0.4,0.7-0.7,1.2-0.8
	c0.4-0.2,0.9-0.2,1.5-0.1c0.5,0.1,0.9,0.3,1.3,0.5c0.3,0.3,0.6,0.5,0.7,0.8c0.2,0.3,0.2,0.6,0.3,1c0,0.3,0,0.8-0.1,1.4L175.9,99z"/>
<polygon class="st1" points="182.3,100.2 184.3,89 186.7,89.5 185.8,94 191,90.3 194,90.8 188.6,94.6 192.2,102 189.2,101.5 
	186.6,95.9 185.3,96.9 184.6,100.6 "/>
<path class="st1" d="M194.8,92.9l0.4-2l2.2,0.4l-0.4,2L194.8,92.9L194.8,92.9z M193.1,102.2l1.5-8.3l2.2,0.4l-1.5,8.3L193.1,102.2z"
	/>
<path class="st1" d="M202.9,98.5c0-0.5-0.1-0.8-0.3-1.1c-0.2-0.3-0.5-0.4-0.9-0.5c-0.5-0.1-1,0-1.3,0.3c-0.4,0.4-0.7,1-0.9,2
	c-0.2,0.9-0.1,1.6,0.1,2c0.2,0.4,0.6,0.7,1.1,0.8c0.4,0.1,0.8,0,1.1-0.2c0.3-0.2,0.5-0.5,0.6-1l2.2,0.4c-0.2,0.7-0.5,1.2-1,1.7
	c-0.4,0.4-0.9,0.7-1.5,0.9c-0.6,0.1-1.2,0.2-1.9,0c-0.8-0.2-1.5-0.5-2-0.9c-0.5-0.5-0.9-1.1-1-1.8c-0.2-0.7-0.2-1.5,0-2.2
	c0.2-0.9,0.5-1.7,0.9-2.4c0.4-0.6,1-1.1,1.7-1.3c0.7-0.2,1.4-0.3,2.1-0.1c0.5,0.1,0.9,0.2,1.3,0.4c0.4,0.2,0.7,0.4,0.9,0.7
	c0.2,0.2,0.4,0.5,0.6,0.8c0.1,0.3,0.2,0.6,0.3,0.9c0,0.3,0,0.6,0,1.1L202.9,98.5z"/>
<polygon class="st1" points="205.1,104.4 207.2,93.3 209.3,93.7 208.2,99.7 211.5,97.1 214.2,97.6 210.7,100.2 212.7,105.8 
	210.1,105.4 208.8,101.5 207.7,102.2 207.2,104.8 "/>
<path class="st1" d="M217.2,106.7l6.1-10.4l2.7,0.5l1.9,11.9l-2.5-0.5l-0.3-2.4l-4.1-0.8l-1.2,2.2L217.2,106.7L217.2,106.7z
	 M221.8,103.2l2.8,0.5l-0.6-4.7l0,0L221.8,103.2z"/>
<path class="st1" d="M233.9,103.8c0-0.3,0-0.5-0.1-0.6c-0.1-0.2-0.2-0.3-0.4-0.5c-0.2-0.1-0.5-0.2-0.8-0.3c-0.5-0.1-0.9-0.1-1.1,0
	c-0.2,0.1-0.4,0.3-0.4,0.5c0,0.1,0,0.2,0,0.3c0,0.1,0.1,0.2,0.2,0.3c0.1,0.1,0.3,0.2,0.7,0.4l1.4,0.7c0.5,0.2,0.8,0.4,0.9,0.4
	c0.3,0.2,0.5,0.3,0.7,0.5c0.2,0.2,0.3,0.4,0.4,0.6c0.1,0.2,0.2,0.4,0.2,0.6c0,0.2,0,0.5,0,0.7c-0.1,0.5-0.2,0.8-0.5,1.2
	c-0.2,0.3-0.5,0.6-0.9,0.8c-0.4,0.2-0.8,0.3-1.3,0.3c-0.5,0-1,0-1.7-0.1c-0.6-0.1-1.2-0.3-1.6-0.5c-0.5-0.2-0.8-0.5-1-0.8
	c-0.2-0.3-0.4-0.6-0.5-1c-0.1-0.3-0.1-0.8-0.1-1.3l2.2,0.4c0,0.3,0,0.5,0,0.7c0.1,0.2,0.2,0.4,0.5,0.6c0.2,0.2,0.5,0.3,0.9,0.3
	c0.6,0.1,1,0.1,1.3-0.1c0.2-0.1,0.3-0.3,0.4-0.5c0-0.2,0-0.3-0.1-0.5c-0.1-0.2-0.4-0.3-1-0.6c-1.2-0.5-1.9-0.9-2.3-1.1
	c-0.5-0.3-0.8-0.6-1-1c-0.2-0.4-0.2-0.8-0.1-1.3c0.1-0.5,0.3-0.9,0.7-1.3c0.3-0.4,0.8-0.6,1.4-0.8c0.6-0.1,1.2-0.1,2,0
	c0.4,0.1,0.9,0.2,1.2,0.4c0.4,0.2,0.7,0.4,0.9,0.6c0.2,0.2,0.4,0.5,0.6,0.7c0.1,0.3,0.2,0.5,0.3,0.8c0,0.2,0,0.6,0,1L233.9,103.8z"
	/>
<path class="st1" d="M242.3,105.4c0-0.3,0-0.5-0.1-0.6c-0.1-0.2-0.2-0.3-0.4-0.5c-0.2-0.1-0.5-0.2-0.8-0.3c-0.5-0.1-0.9-0.1-1.1,0
	c-0.2,0.1-0.4,0.3-0.4,0.5c0,0.1,0,0.2,0,0.3c0,0.1,0.1,0.2,0.2,0.3c0.1,0.1,0.3,0.2,0.7,0.4l1.4,0.7c0.5,0.2,0.8,0.4,0.9,0.4
	c0.3,0.2,0.5,0.3,0.7,0.5c0.2,0.2,0.3,0.4,0.4,0.6c0.1,0.2,0.2,0.4,0.2,0.6c0,0.2,0,0.5,0,0.7c-0.1,0.5-0.2,0.8-0.5,1.2
	c-0.2,0.3-0.5,0.6-0.9,0.8c-0.4,0.2-0.8,0.3-1.3,0.3c-0.5,0-1,0-1.7-0.1c-0.6-0.1-1.2-0.3-1.6-0.5c-0.5-0.2-0.8-0.5-1-0.8
	c-0.2-0.3-0.4-0.6-0.5-1c-0.1-0.3-0.1-0.8-0.1-1.3l2.2,0.4c0,0.3,0,0.5,0,0.7c0.1,0.2,0.2,0.4,0.5,0.6c0.2,0.2,0.5,0.3,0.9,0.3
	c0.6,0.1,1,0.1,1.3-0.1c0.2-0.1,0.3-0.3,0.4-0.5c0-0.2,0-0.3-0.1-0.5c-0.1-0.2-0.4-0.3-1-0.6c-1.2-0.5-1.9-0.9-2.3-1.1
	c-0.5-0.3-0.8-0.6-1-1c-0.2-0.4-0.2-0.8-0.1-1.3c0.1-0.5,0.3-0.9,0.7-1.3c0.3-0.4,0.8-0.6,1.4-0.8c0.6-0.1,1.2-0.1,2,0
	c0.4,0.1,0.9,0.2,1.2,0.4c0.4,0.2,0.7,0.4,0.9,0.6c0.2,0.2,0.4,0.5,0.6,0.7c0.1,0.3,0.2,0.5,0.3,0.8c0,0.2,0,0.6,0,1L242.3,105.4z"
	/>
<path class="st1" d="M107.1,99.6c0-0.3,0-0.5-0.1-0.6c-0.1-0.2-0.2-0.3-0.4-0.5c-0.2-0.1-0.5-0.2-0.8-0.3c-0.5-0.1-0.9-0.1-1.1,0
	c-0.2,0.1-0.4,0.3-0.4,0.5c0,0.1,0,0.2,0,0.3c0,0.1,0.1,0.2,0.2,0.3c0.1,0.1,0.3,0.2,0.7,0.4l1.4,0.7c0.5,0.2,0.8,0.4,0.9,0.4
	c0.3,0.2,0.5,0.3,0.7,0.5c0.2,0.2,0.3,0.4,0.4,0.6c0.1,0.2,0.2,0.4,0.2,0.6c0,0.2,0,0.5,0,0.7c-0.1,0.5-0.2,0.8-0.5,1.2
	c-0.2,0.3-0.5,0.6-0.9,0.8c-0.4,0.2-0.8,0.3-1.3,0.3c-0.5,0-1,0-1.7-0.1c-0.6-0.1-1.2-0.3-1.6-0.5c-0.5-0.2-0.8-0.5-1-0.8
	c-0.2-0.3-0.4-0.6-0.5-1c-0.1-0.3-0.1-0.8-0.1-1.3l2.2,0.4c0,0.3,0,0.5,0,0.7c0.1,0.2,0.2,0.4,0.5,0.6c0.2,0.2,0.5,0.3,0.9,0.3
	c0.6,0.1,1,0.1,1.3-0.1c0.2-0.1,0.3-0.3,0.4-0.5c0-0.2,0-0.3-0.1-0.5c-0.1-0.2-0.4-0.3-1-0.6c-1.2-0.5-1.9-0.9-2.3-1.1
	c-0.5-0.3-0.8-0.6-1-1c-0.2-0.4-0.2-0.8-0.1-1.3c0.1-0.5,0.3-0.9,0.7-1.3c0.3-0.4,0.8-0.6,1.4-0.8c0.6-0.1,1.2-0.1,2,0
	c0.4,0.1,0.9,0.2,1.2,0.4c0.4,0.2,0.7,0.4,0.9,0.6c0.2,0.2,0.4,0.5,0.6,0.7c0.1,0.3,0.2,0.5,0.3,0.8c0,0.2,0,0.6,0,1L107.1,99.6z"/>
<path class="st1" d="M111.3,99.4l-1.2-0.2l0.3-1.5l1.2,0.2l0.4-2.2l2.2,0.4l-0.4,2.2l1.3,0.2l-0.3,1.5l-1.3-0.2l-0.8,4.4
	c0,0.3-0.1,0.4,0,0.5c0,0.1,0.1,0.2,0.2,0.2c0.1,0.1,0.3,0.1,0.6,0.2c0.1,0,0.3,0,0.4,0.1l-0.3,1.6c-0.5-0.1-0.8-0.1-1-0.1
	c-0.7-0.1-1.2-0.3-1.5-0.5c-0.3-0.2-0.5-0.4-0.6-0.7c-0.1-0.3-0.1-0.6,0-1L111.3,99.4z"/>
<path class="st1" d="M117.5,101.7l-2.1-0.4c0.2-0.8,0.7-1.5,1.4-1.9c0.7-0.4,1.7-0.5,3-0.3c0.5,0.1,1,0.3,1.5,0.4
	c0.4,0.2,0.7,0.4,0.9,0.6c0.2,0.2,0.3,0.5,0.4,0.8c0.1,0.4,0.1,0.9,0,1.4l-0.8,4.2c-0.1,0.5-0.1,0.8-0.1,1c0.1,0.2,0.2,0.3,0.3,0.4
	l-0.1,0.3l-2.4-0.4c-0.1-0.3-0.1-0.7,0-1c-0.5,0.4-1,0.6-1.4,0.7c-0.4,0.1-0.9,0.1-1.4,0c-0.5-0.1-1-0.3-1.4-0.6
	c-0.4-0.3-0.6-0.6-0.7-1.1c-0.1-0.4-0.1-0.9-0.1-1.3c0.1-0.7,0.4-1.2,0.9-1.6c0.4-0.4,1.2-0.6,2.2-0.5l1.9,0.1c0.3,0,0.5,0,0.6-0.1
	c0.1-0.1,0.2-0.2,0.2-0.4c0.1-0.3,0-0.5-0.2-0.8c-0.2-0.2-0.5-0.3-1-0.4c-0.5-0.1-0.8-0.1-1.1,0.1
	C117.8,101,117.6,101.3,117.5,101.7L117.5,101.7z M119.9,103.8c-0.2,0.1-0.4,0.1-0.6,0.1c-0.2,0-0.4,0-0.7,0c-0.6,0-0.9,0-1.1,0
	c-0.3,0.1-0.5,0.2-0.6,0.3c-0.1,0.1-0.2,0.3-0.3,0.6c-0.1,0.3,0,0.6,0.2,0.9c0.2,0.2,0.4,0.4,0.7,0.4c0.5,0.1,0.9,0,1.4-0.2
	c0.5-0.2,0.7-0.7,0.9-1.4L119.9,103.8z"/>
<path class="st1" d="M129,98l-0.3,1.8c-0.2,0-0.3-0.1-0.5-0.1c-0.3-0.1-0.5-0.1-0.6,0c-0.1,0-0.2,0.1-0.3,0.2
	c-0.1,0.1-0.1,0.3-0.2,0.7c0,0.1,0,0.2,0,0.3l1.4,0.3l-0.3,1.5l-1.4-0.3l-1.2,6.7l-2.2-0.4l1.2-6.7l-1.2-0.2l0.3-1.5l1.2,0.2
	c0.1-0.7,0.3-1.2,0.4-1.5c0.1-0.3,0.3-0.5,0.5-0.7c0.2-0.2,0.5-0.3,0.9-0.4c0.4-0.1,0.8,0,1.5,0.1C128.4,97.8,128.7,97.9,129,98z"/>
<path class="st1" d="M133.9,98.9l-0.3,1.8c-0.2,0-0.3-0.1-0.5-0.1c-0.3-0.1-0.5-0.1-0.6,0c-0.1,0-0.2,0.1-0.3,0.2
	c-0.1,0.1-0.1,0.3-0.2,0.7c0,0.1,0,0.2,0,0.3l1.4,0.3l-0.3,1.5l-1.4-0.3l-1.2,6.7l-2.2-0.4l1.2-6.7l-1.2-0.2l0.3-1.5l1.2,0.2
	c0.1-0.7,0.3-1.2,0.4-1.5c0.1-0.3,0.3-0.5,0.5-0.7c0.2-0.2,0.5-0.3,0.9-0.4c0.4-0.1,0.8,0,1.5,0.1C133.3,98.8,133.6,98.8,133.9,98.9
	z"/>
<path class="st1" d="M134.7,101.1l0.4-2l2.2,0.4l-0.4,2L134.7,101.1L134.7,101.1z M133,110.4l1.5-8.3l2.2,0.4l-1.5,8.3L133,110.4z"
	/>
<path class="st1" d="M144.4,112.5l-2.2-0.4l0.9-5c0.1-0.6,0.1-1-0.1-1.3c-0.2-0.3-0.5-0.5-1-0.6c-0.6-0.1-1,0-1.4,0.3
	c-0.4,0.3-0.6,0.8-0.7,1.5l-0.8,4.5l-2.2-0.4l1.5-8.3l2.1,0.4l-0.2,1.2c0.4-0.4,0.8-0.7,1.2-0.9c0.4-0.2,1-0.2,1.6-0.1
	c0.9,0.2,1.5,0.5,1.9,1.1c0.4,0.6,0.5,1.4,0.4,2.3L144.4,112.5z"/>
<path class="st1" d="M153.1,105.6l2.1,0.4l-1.5,7.8c-0.1,0.8-0.3,1.3-0.6,1.8c-0.2,0.4-0.6,0.7-1,1c-0.4,0.2-0.9,0.4-1.4,0.4
	c-0.5,0.1-1.1,0-1.8-0.1c-1.2-0.2-2.1-0.6-2.7-1.2c-0.5-0.5-0.8-1.2-0.7-2l2.4,0.4c0,0.2,0.1,0.5,0.2,0.6c0.2,0.2,0.6,0.4,1,0.5
	c0.7,0.1,1.2,0,1.5-0.2c0.4-0.3,0.6-0.9,0.8-1.8c0-0.1,0.1-0.3,0.1-0.6c-0.4,0.4-0.7,0.7-1,0.8c-0.5,0.2-1,0.2-1.6,0.1
	c-0.7-0.1-1.2-0.4-1.7-0.8c-0.5-0.4-0.8-1-1-1.7c-0.2-0.7-0.2-1.5,0-2.3c0.1-0.8,0.4-1.4,0.7-1.9c0.3-0.5,0.7-1,1.1-1.2
	c0.4-0.3,0.8-0.5,1.2-0.6c0.4-0.1,0.9-0.1,1.3,0c0.5,0.1,0.9,0.3,1.3,0.6c0.3,0.3,0.6,0.7,0.8,1.3L153.1,105.6L153.1,105.6z
	 M150.1,111.7c0.5,0.1,1,0,1.4-0.3c0.4-0.3,0.7-0.9,0.8-1.7c0.2-0.8,0.1-1.5-0.2-2c-0.3-0.5-0.7-0.8-1.2-0.9c-0.5-0.1-1,0-1.4,0.4
	c-0.4,0.3-0.7,0.9-0.9,1.8c-0.2,0.8-0.1,1.4,0.2,1.9C149.2,111.3,149.6,111.6,150.1,111.7z"/>
<path class="st1" d="M167.2,116.7l-2.2-0.4l0.9-5c0.1-0.6,0.1-1-0.1-1.3c-0.2-0.3-0.5-0.5-0.9-0.6c-0.4-0.1-0.7,0-1,0.1
	c-0.3,0.1-0.6,0.3-0.7,0.6c-0.2,0.3-0.3,0.7-0.4,1.2l-0.8,4.5l-2.2-0.4l2.1-11.2l2.2,0.4l-0.7,4c0.3-0.4,0.7-0.6,1.2-0.8
	c0.5-0.2,1-0.2,1.5-0.1c0.5,0.1,0.9,0.2,1.2,0.5c0.4,0.2,0.6,0.5,0.8,0.8c0.2,0.3,0.3,0.6,0.4,1c0.1,0.3,0,0.8-0.1,1.5L167.2,116.7z
	"/>
<path class="st1" d="M171.9,111.8l-2.1-0.4c0.2-0.8,0.7-1.5,1.4-1.9c0.7-0.4,1.7-0.5,3-0.3c0.5,0.1,1,0.3,1.5,0.4
	c0.4,0.2,0.7,0.4,0.9,0.6c0.2,0.2,0.3,0.5,0.4,0.8c0.1,0.4,0.1,0.9,0,1.4l-0.8,4.2c-0.1,0.5-0.1,0.8-0.1,1c0.1,0.2,0.2,0.3,0.3,0.4
	l-0.1,0.3l-2.4-0.4c-0.1-0.3-0.1-0.7,0-1c-0.5,0.4-1,0.6-1.4,0.7c-0.4,0.1-0.9,0.1-1.4,0c-0.5-0.1-1-0.3-1.4-0.6
	c-0.4-0.3-0.6-0.6-0.7-1.1s-0.1-0.9-0.1-1.3c0.1-0.7,0.4-1.2,0.9-1.6c0.4-0.4,1.2-0.6,2.2-0.5l1.9,0.1c0.3,0,0.5,0,0.6-0.1
	c0.1-0.1,0.2-0.2,0.2-0.4c0.1-0.3,0-0.5-0.2-0.8c-0.2-0.2-0.5-0.3-1-0.4c-0.5-0.1-0.8-0.1-1.1,0.1
	C172.2,111.1,172,111.3,171.9,111.8L171.9,111.8z M174.3,113.9c-0.2,0.1-0.4,0.1-0.6,0.1c-0.2,0-0.4,0-0.7,0c-0.6,0-0.9,0-1.1,0
	c-0.3,0.1-0.5,0.2-0.6,0.3c-0.1,0.1-0.2,0.3-0.3,0.6c-0.1,0.3,0,0.6,0.2,0.9c0.2,0.2,0.4,0.4,0.7,0.4c0.5,0.1,0.9,0,1.4-0.2
	c0.5-0.2,0.7-0.7,0.9-1.4L174.3,113.9z"/>
<path class="st1" d="M183.2,113.7c0-0.3,0-0.5-0.1-0.6c-0.1-0.2-0.2-0.3-0.4-0.5c-0.2-0.1-0.5-0.2-0.8-0.3c-0.5-0.1-0.9-0.1-1.1,0
	c-0.2,0.1-0.4,0.3-0.4,0.5c0,0.1,0,0.2,0,0.3c0,0.1,0.1,0.2,0.2,0.3c0.1,0.1,0.3,0.2,0.7,0.4l1.4,0.7c0.5,0.2,0.8,0.4,0.9,0.4
	c0.3,0.2,0.5,0.3,0.7,0.5c0.2,0.2,0.3,0.4,0.4,0.6c0.1,0.2,0.2,0.4,0.2,0.6c0,0.2,0,0.5,0,0.7c-0.1,0.5-0.2,0.8-0.5,1.2
	c-0.2,0.3-0.5,0.6-0.9,0.8c-0.4,0.2-0.8,0.3-1.3,0.3c-0.5,0-1,0-1.7-0.1c-0.6-0.1-1.2-0.3-1.6-0.5c-0.5-0.2-0.8-0.5-1-0.8
	c-0.2-0.3-0.4-0.6-0.5-1c-0.1-0.3-0.1-0.8-0.1-1.3l2.2,0.4c0,0.3,0,0.5,0,0.7c0.1,0.2,0.2,0.4,0.5,0.6c0.2,0.2,0.5,0.3,0.9,0.3
	c0.6,0.1,1,0.1,1.3-0.1c0.2-0.1,0.3-0.3,0.4-0.5c0-0.2,0-0.3-0.1-0.5c-0.1-0.2-0.4-0.3-1-0.6c-1.2-0.5-1.9-0.9-2.3-1.1
	c-0.5-0.3-0.8-0.6-1-1c-0.2-0.4-0.2-0.8-0.1-1.3c0.1-0.5,0.3-0.9,0.7-1.3c0.3-0.4,0.8-0.6,1.4-0.8c0.6-0.1,1.2-0.1,2,0
	c0.4,0.1,0.9,0.2,1.2,0.4c0.4,0.2,0.7,0.4,0.9,0.6c0.2,0.2,0.4,0.5,0.6,0.7c0.1,0.3,0.2,0.5,0.3,0.8c0,0.2,0,0.6,0,1L183.2,113.7z"
	/>
<path class="st1" d="M193,115.7l-2.1-0.4c0.2-0.8,0.7-1.5,1.4-1.9c0.7-0.4,1.7-0.5,3-0.3c0.5,0.1,1,0.3,1.5,0.4
	c0.4,0.2,0.7,0.4,0.9,0.6c0.2,0.2,0.3,0.5,0.4,0.8c0.1,0.4,0.1,0.9,0,1.4l-0.8,4.2c-0.1,0.5-0.1,0.8-0.1,1c0.1,0.2,0.2,0.3,0.3,0.4
	l-0.1,0.3l-2.4-0.4c-0.1-0.3-0.1-0.7,0-1c-0.5,0.4-1,0.6-1.4,0.7c-0.4,0.1-0.9,0.1-1.4,0c-0.5-0.1-1-0.3-1.4-0.6
	c-0.4-0.3-0.6-0.6-0.7-1.1c-0.1-0.4-0.1-0.9-0.1-1.3c0.1-0.7,0.4-1.2,0.9-1.6c0.4-0.4,1.2-0.6,2.2-0.5l1.9,0.1c0.3,0,0.5,0,0.6-0.1
	c0.1-0.1,0.2-0.2,0.2-0.4c0.1-0.3,0-0.5-0.2-0.8c-0.2-0.2-0.5-0.3-1-0.4c-0.5-0.1-0.8-0.1-1.1,0.1C193.3,115,193.1,115.3,193,115.7
	L193,115.7z M195.5,117.8c-0.2,0.1-0.4,0.1-0.6,0.1c-0.2,0-0.4,0-0.7,0c-0.6,0-0.9,0-1.1,0c-0.3,0.1-0.5,0.2-0.6,0.3
	c-0.1,0.1-0.2,0.3-0.3,0.6c-0.1,0.3,0,0.6,0.2,0.9c0.2,0.2,0.4,0.4,0.7,0.4c0.5,0.1,0.9,0,1.4-0.2c0.5-0.2,0.7-0.7,0.9-1.4
	L195.5,117.8z"/>
<path class="st1" d="M206,123.9l-2.2-0.4l0.9-5c0.1-0.6,0.1-1-0.1-1.3c-0.2-0.3-0.5-0.5-1-0.6c-0.6-0.1-1,0-1.4,0.3
	c-0.4,0.3-0.6,0.8-0.7,1.5l-0.8,4.5l-2.2-0.4l1.5-8.3l2.1,0.4l-0.2,1.2c0.4-0.4,0.8-0.7,1.2-0.9c0.4-0.2,1-0.2,1.6-0.1
	c0.9,0.2,1.5,0.5,1.9,1.1c0.4,0.6,0.5,1.4,0.4,2.3L206,123.9z"/>
<path class="st1" d="M212.4,120.8c0.2-0.8,0.5-1.6,1-2.2c0.5-0.6,1.1-1.1,1.8-1.3c0.7-0.2,1.5-0.3,2.3-0.1c0.8,0.2,1.5,0.5,2.1,1
	c0.6,0.5,1,1.1,1.2,1.9c0.2,0.7,0.2,1.5,0.1,2.3c-0.2,0.8-0.5,1.6-1,2.2c-0.5,0.6-1.1,1.1-1.8,1.3c-0.7,0.2-1.5,0.3-2.3,0.1
	c-0.8-0.1-1.5-0.5-2.1-0.9c-0.6-0.5-1-1.1-1.2-1.8C212.3,122.4,212.2,121.7,212.4,120.8L212.4,120.8z M214.6,121.2
	c-0.1,0.7-0.1,1.4,0.2,1.9c0.2,0.5,0.7,0.9,1.4,1c0.6,0.1,1.1,0,1.5-0.3c0.4-0.3,0.7-1,0.9-1.9c0.1-0.7,0.1-1.4-0.1-1.9
	c-0.2-0.5-0.7-0.8-1.4-1c-0.7-0.1-1.2,0-1.7,0.4C215,119.9,214.8,120.5,214.6,121.2z"/>
<path class="st1" d="M220.7,129.9l2.1-11.5l2.1,0.4l-0.2,1.2l0,0c0.2-0.3,0.5-0.5,0.7-0.7c0.2-0.2,0.5-0.3,0.8-0.3s0.7-0.1,1.1,0
	c0.6,0.1,1.2,0.3,1.6,0.7c0.4,0.3,0.7,0.7,0.9,1.1c0.2,0.4,0.3,0.8,0.4,1.4c0.1,0.6,0,1.2-0.1,1.8c-0.2,0.8-0.4,1.6-0.8,2.2
	c-0.4,0.7-0.9,1.1-1.5,1.4c-0.6,0.3-1.3,0.3-2.1,0.2c-0.6-0.1-1-0.3-1.3-0.6c-0.3-0.3-0.6-0.7-0.7-1.1l0,0l-0.8,4.2L220.7,129.9
	L220.7,129.9z M226.5,120.8c-0.6-0.1-1.1,0-1.5,0.5c-0.4,0.4-0.7,1-0.8,1.7c-0.2,0.9-0.1,1.5,0.2,2c0.3,0.5,0.7,0.8,1.2,0.9
	c0.5,0.1,1,0,1.4-0.4c0.4-0.3,0.7-1,0.9-1.8c0.1-0.7,0.1-1.4-0.1-1.9S227.1,120.9,226.5,120.8z"/>
<path class="st1" d="M232.8,125.3c-0.1,0.6,0,1.1,0.3,1.6c0.3,0.4,0.7,0.7,1.2,0.8c0.4,0.1,0.7,0,1-0.1c0.3-0.1,0.5-0.3,0.7-0.6
	l2.2,0.4c-0.2,0.5-0.5,0.9-0.9,1.3c-0.4,0.3-0.9,0.6-1.5,0.7c-0.6,0.1-1.3,0.1-1.9,0c-0.8-0.1-1.4-0.4-1.9-0.9
	c-0.5-0.4-0.9-1-1.1-1.8c-0.2-0.8-0.2-1.6-0.1-2.5c0.2-1.2,0.7-2.1,1.4-2.8c0.8-0.8,1.9-1.1,3.3-0.8c0.6,0.1,1.1,0.3,1.5,0.5
	c0.4,0.2,0.8,0.5,1.1,0.9c0.3,0.4,0.5,0.8,0.6,1.3c0.1,0.5,0.1,1,0.1,1.5c0,0.4-0.1,0.9-0.2,1.5L232.8,125.3L232.8,125.3z
	 M236.5,124.5c0.1-0.6,0-1-0.1-1.4c-0.2-0.4-0.6-0.7-1.2-0.8c-0.4-0.1-0.7,0-1,0.1c-0.3,0.1-0.5,0.3-0.7,0.6
	c-0.1,0.2-0.3,0.5-0.4,0.8L236.5,124.5z"/>
<path class="st1" d="M246.5,131.4l-2.2-0.4l0.9-5c0.1-0.6,0.1-1-0.1-1.3c-0.2-0.3-0.5-0.5-1-0.6c-0.6-0.1-1,0-1.4,0.3
	c-0.4,0.3-0.6,0.8-0.7,1.5l-0.8,4.5L239,130l1.5-8.3l2.1,0.4l-0.2,1.2c0.4-0.4,0.8-0.7,1.2-0.9c0.4-0.2,1-0.2,1.6-0.1
	c0.9,0.2,1.5,0.5,1.9,1.1c0.4,0.6,0.5,1.4,0.4,2.3L246.5,131.4z"/>
<path class="st1" d="M250.1,122.5l0.4-2l2.2,0.4l-0.4,2L250.1,122.5L250.1,122.5z M248.3,131.8l1.5-8.3l2.2,0.4l-1.5,8.3
	L248.3,131.8z"/>
<path class="st1" d="M259.8,133.9l-2.2-0.4l0.9-5c0.1-0.6,0.1-1-0.1-1.3c-0.2-0.3-0.5-0.5-1-0.6c-0.6-0.1-1,0-1.4,0.3
	c-0.4,0.3-0.6,0.8-0.7,1.5l-0.8,4.5l-2.2-0.4l1.5-8.3l2.1,0.4l-0.2,1.2c0.4-0.4,0.8-0.7,1.2-0.9c0.4-0.2,1-0.2,1.6-0.1
	c0.9,0.2,1.5,0.5,1.9,1.1c0.4,0.6,0.5,1.4,0.4,2.3L259.8,133.9z"/>
<path class="st1" d="M268.5,126.9l2.1,0.4l-1.5,7.8c-0.1,0.8-0.3,1.3-0.6,1.8c-0.2,0.4-0.6,0.7-1,1c-0.4,0.2-0.9,0.4-1.4,0.4
	c-0.5,0.1-1.1,0-1.8-0.1c-1.2-0.2-2.1-0.6-2.7-1.2c-0.5-0.5-0.8-1.2-0.7-2l2.4,0.4c0,0.2,0.1,0.5,0.2,0.6c0.2,0.2,0.6,0.4,1,0.5
	c0.7,0.1,1.2,0,1.5-0.2c0.4-0.3,0.6-0.9,0.8-1.8c0-0.1,0.1-0.3,0.1-0.6c-0.4,0.4-0.7,0.7-1,0.8c-0.5,0.2-1,0.2-1.6,0.1
	c-0.7-0.1-1.2-0.4-1.7-0.8c-0.5-0.4-0.8-1-1-1.7c-0.2-0.7-0.2-1.5,0-2.3c0.1-0.8,0.4-1.4,0.7-1.9c0.3-0.5,0.7-1,1.1-1.2
	c0.4-0.3,0.8-0.5,1.2-0.6c0.4-0.1,0.9-0.1,1.3,0c0.5,0.1,0.9,0.3,1.3,0.6c0.3,0.3,0.6,0.7,0.8,1.3L268.5,126.9L268.5,126.9z
	 M265.5,133.1c0.5,0.1,1,0,1.4-0.3c0.4-0.3,0.7-0.9,0.8-1.7c0.2-0.8,0.1-1.5-0.2-2c-0.3-0.5-0.7-0.8-1.2-0.9c-0.5-0.1-1,0-1.4,0.4
	c-0.4,0.3-0.7,0.9-0.9,1.8c-0.2,0.8-0.1,1.4,0.2,1.9C264.5,132.7,264.9,133,265.5,133.1z"/>
<path class="st1" d="M100.7,117.9l-2.1-0.4c0.2-0.8,0.7-1.5,1.4-1.9c0.7-0.4,1.7-0.5,3-0.3c0.5,0.1,1,0.3,1.5,0.4
	c0.4,0.2,0.7,0.4,0.9,0.6c0.2,0.2,0.3,0.5,0.4,0.8c0.1,0.4,0.1,0.9,0,1.4l-0.8,4.2c-0.1,0.5-0.1,0.8-0.1,1c0.1,0.2,0.2,0.3,0.3,0.4
	l-0.1,0.3l-2.4-0.4c-0.1-0.3-0.1-0.7,0-1c-0.5,0.4-1,0.6-1.4,0.7c-0.4,0.1-0.9,0.1-1.4,0c-0.5-0.1-1-0.3-1.4-0.6
	c-0.4-0.3-0.6-0.6-0.7-1.1c-0.1-0.4-0.1-0.9-0.1-1.3c0.1-0.7,0.4-1.2,0.9-1.6c0.4-0.4,1.2-0.6,2.2-0.5l1.9,0.1c0.3,0,0.5,0,0.6-0.1
	c0.1-0.1,0.2-0.2,0.2-0.4c0.1-0.3,0-0.5-0.2-0.8c-0.2-0.2-0.5-0.3-1-0.4c-0.5-0.1-0.8-0.1-1.1,0.1
	C101,117.2,100.8,117.5,100.7,117.9L100.7,117.9z M103.1,120c-0.2,0.1-0.4,0.1-0.6,0.1c-0.2,0-0.4,0-0.7,0c-0.6,0-0.9,0-1.1,0
	c-0.3,0.1-0.5,0.2-0.6,0.3c-0.1,0.1-0.2,0.3-0.3,0.6c-0.1,0.3,0,0.6,0.2,0.9c0.2,0.2,0.4,0.4,0.7,0.4c0.5,0.1,0.9,0,1.4-0.2
	c0.5-0.2,0.7-0.7,0.9-1.4L103.1,120z"/>
<path class="st1" d="M107.8,118.1l-1.2-0.2l0.3-1.5l1.2,0.2l0.4-2.2l2.2,0.4l-0.4,2.2l1.3,0.2l-0.3,1.5l-1.3-0.2l-0.8,4.4
	c0,0.3-0.1,0.4,0,0.5c0,0.1,0.1,0.2,0.2,0.2c0.1,0.1,0.3,0.1,0.6,0.2c0.1,0,0.3,0,0.4,0.1l-0.3,1.6c-0.5-0.1-0.8-0.1-1-0.1
	c-0.7-0.1-1.2-0.3-1.5-0.5c-0.3-0.2-0.5-0.4-0.6-0.7c-0.1-0.3-0.1-0.6,0-1L107.8,118.1z"/>
<path class="st1" d="M124.3,116.6l2.3,0.4l-1.3,6.8c-0.1,0.7-0.3,1.2-0.4,1.5c-0.2,0.5-0.5,0.9-0.8,1.3c-0.3,0.3-0.7,0.6-1.1,0.7
	c-0.4,0.2-0.8,0.3-1.4,0.3c-0.5,0-1.1,0-1.7-0.1c-0.7-0.1-1.2-0.3-1.8-0.6c-0.5-0.3-0.9-0.6-1.2-0.9c-0.3-0.4-0.5-0.7-0.7-1.1
	c-0.1-0.4-0.2-0.9-0.2-1.4c0-0.3,0.1-0.8,0.2-1.4l1.3-6.8l2.3,0.4l-1.3,7.1c-0.1,0.5-0.1,1-0.1,1.3c0,0.3,0.2,0.6,0.5,0.9
	c0.3,0.3,0.7,0.5,1.3,0.6c0.6,0.1,1,0.1,1.4,0c0.3-0.1,0.6-0.3,0.8-0.6c0.2-0.3,0.4-0.7,0.5-1.3L124.3,116.6z"/>
<path class="st1" d="M128.5,117.3l2.2,0.4l-0.7,4c0.4-0.4,0.8-0.6,1.2-0.8c0.5-0.2,1-0.2,1.4-0.1c0.6,0.1,1.1,0.4,1.6,0.8
	c0.5,0.4,0.8,1,1,1.7c0.2,0.7,0.2,1.6,0,2.5c-0.1,0.8-0.4,1.5-0.8,2.2c-0.4,0.6-0.9,1.1-1.5,1.4c-0.6,0.3-1.3,0.4-2,0.2
	c-0.6-0.1-1-0.3-1.3-0.6c-0.3-0.3-0.6-0.7-0.8-1.2l-0.2,1l-2.1-0.4L128.5,117.3L128.5,117.3z M130.7,127.6c0.5,0.1,1,0,1.4-0.4
	c0.4-0.3,0.7-1,0.9-1.8c0.2-0.9,0.1-1.5-0.2-2c-0.3-0.5-0.7-0.8-1.2-0.9c-0.5-0.1-1,0-1.4,0.4c-0.4,0.3-0.7,1-0.9,1.9
	c-0.1,0.6-0.1,1.1,0,1.5c0.1,0.4,0.3,0.7,0.5,0.9C130.1,127.4,130.4,127.6,130.7,127.6z"/>
<path class="st1" d="M137.9,127c-0.1,0.6,0,1.1,0.3,1.6c0.3,0.4,0.7,0.7,1.2,0.8c0.4,0.1,0.7,0,1-0.1c0.3-0.1,0.5-0.3,0.7-0.6
	l2.2,0.4c-0.2,0.5-0.5,0.9-0.9,1.3c-0.4,0.3-0.9,0.6-1.5,0.7c-0.6,0.1-1.3,0.1-1.9,0c-0.8-0.1-1.4-0.4-1.9-0.9
	c-0.5-0.4-0.9-1-1.1-1.8c-0.2-0.8-0.2-1.6-0.1-2.5c0.2-1.2,0.7-2.1,1.4-2.8c0.8-0.8,1.9-1.1,3.3-0.8c0.6,0.1,1.1,0.3,1.5,0.5
	c0.4,0.2,0.8,0.5,1.1,0.9c0.3,0.4,0.5,0.8,0.6,1.3c0.1,0.5,0.1,1,0.1,1.5c0,0.4-0.1,0.9-0.2,1.5L137.9,127L137.9,127z M141.6,126.2
	c0.1-0.6,0-1-0.1-1.4c-0.2-0.4-0.6-0.7-1.2-0.8c-0.4-0.1-0.7,0-1,0.1c-0.3,0.1-0.5,0.3-0.7,0.6c-0.1,0.2-0.3,0.5-0.4,0.8
	L141.6,126.2z"/>
<path class="st1" d="M150.5,124.2l-0.4,2.2c-0.2-0.1-0.4-0.1-0.5-0.1c-0.6-0.1-1-0.1-1.4,0.1c-0.4,0.1-0.6,0.3-0.8,0.6
	c-0.2,0.3-0.3,0.7-0.4,1.3l-0.7,4l-2.2-0.4l1.5-8.3l2.1,0.4l-0.3,1.4c0.2-0.3,0.4-0.5,0.7-0.7c0.3-0.2,0.6-0.4,0.9-0.5
	c0.3-0.1,0.7-0.1,1,0C150.2,124.1,150.3,124.1,150.5,124.2z"/>
<path class="st1" d="M160.2,123.1l-0.3,1.8c-0.2,0-0.3-0.1-0.5-0.1c-0.3-0.1-0.5-0.1-0.6,0c-0.1,0-0.2,0.1-0.3,0.2
	c-0.1,0.1-0.1,0.3-0.2,0.7c0,0.1,0,0.2,0,0.3l1.4,0.3l-0.3,1.5l-1.4-0.3l-1.2,6.7l-2.2-0.4l1.2-6.7l-1.2-0.2l0.3-1.5l1.2,0.2
	c0.1-0.7,0.3-1.2,0.4-1.5c0.1-0.3,0.3-0.5,0.5-0.7c0.2-0.2,0.5-0.3,0.9-0.4c0.4-0.1,0.8,0,1.5,0.1
	C159.6,122.9,159.9,123,160.2,123.1z"/>
<path class="st1" d="M159.2,130.3c0.2-0.8,0.5-1.6,1-2.2c0.5-0.6,1.1-1.1,1.8-1.3c0.7-0.2,1.5-0.3,2.3-0.1c0.8,0.2,1.5,0.5,2.1,1
	c0.6,0.5,1,1.1,1.2,1.9c0.2,0.7,0.2,1.5,0.1,2.3c-0.2,0.8-0.5,1.6-1,2.2c-0.5,0.6-1.1,1.1-1.8,1.3c-0.7,0.2-1.5,0.3-2.3,0.1
	c-0.8-0.1-1.5-0.5-2.1-0.9c-0.6-0.5-1-1.1-1.2-1.8C159.1,131.9,159.1,131.1,159.2,130.3L159.2,130.3z M161.5,130.7
	c-0.1,0.7-0.1,1.4,0.2,1.9c0.2,0.5,0.7,0.9,1.4,1c0.6,0.1,1.1,0,1.5-0.3c0.4-0.3,0.7-1,0.9-1.9c0.1-0.7,0.1-1.4-0.1-1.9
	c-0.2-0.5-0.7-0.8-1.4-1c-0.7-0.1-1.2,0-1.7,0.4C161.9,129.4,161.6,129.9,161.5,130.7z"/>
<path class="st1" d="M174.5,128.6l-0.4,2.2c-0.2-0.1-0.4-0.1-0.5-0.1c-0.6-0.1-1-0.1-1.4,0.1c-0.4,0.1-0.6,0.3-0.8,0.6
	c-0.2,0.3-0.3,0.7-0.4,1.3l-0.7,4l-2.2-0.4l1.5-8.3l2.1,0.4l-0.3,1.4c0.2-0.3,0.4-0.5,0.7-0.7c0.3-0.2,0.6-0.4,0.9-0.5
	c0.3-0.1,0.7-0.1,1,0C174.3,128.5,174.4,128.6,174.5,128.6z"/>
<path class="st1" d="M184.7,131.2c0.1-0.6,0-1-0.2-1.3c-0.2-0.3-0.5-0.5-0.8-0.5l-0.5,3c0.7,0.4,1.3,0.7,1.6,0.9
	c0.4,0.3,0.7,0.6,0.9,0.9c0.2,0.3,0.3,0.6,0.4,1c0.1,0.4,0.1,0.8,0,1.2c-0.1,0.5-0.3,0.9-0.5,1.3c-0.3,0.4-0.6,0.7-1,0.9
	c-0.4,0.2-0.8,0.4-1.3,0.4c-0.3,0-0.7,0.1-1.2,0l-0.3,1.5l-0.8-0.1l0.3-1.5c-0.7-0.1-1.2-0.4-1.7-0.8c-0.5-0.4-0.8-0.9-1-1.4
	c-0.2-0.6-0.2-1.2-0.1-2l2,0.4c-0.1,0.7,0,1.3,0.2,1.6c0.2,0.3,0.5,0.6,0.9,0.7l0.6-3.3c-0.7-0.4-1.2-0.7-1.5-0.9
	c-0.3-0.2-0.6-0.5-0.8-0.8c-0.2-0.3-0.3-0.6-0.4-1c-0.1-0.4-0.1-0.7,0-1.2c0.1-0.5,0.3-1,0.5-1.4c0.3-0.4,0.6-0.7,0.9-0.9
	c0.4-0.2,0.8-0.3,1.2-0.4c0.3,0,0.7,0,1.2,0l0.2-1l0.7,0.1l-0.2,1c0.6,0.2,1.1,0.4,1.5,0.6c0.4,0.2,0.6,0.5,0.8,0.9
	c0.2,0.3,0.3,0.7,0.4,1c0.1,0.4,0.1,0.8,0,1.3L184.7,131.2L184.7,131.2z M183,129.2c-0.4,0-0.8,0.1-1,0.3c-0.3,0.2-0.4,0.5-0.5,0.8
	c-0.1,0.4,0,0.7,0.2,1c0.1,0.2,0.4,0.4,0.8,0.6L183,129.2L183,129.2z M182.2,137.4c0.4,0.1,0.8,0,1.1-0.2c0.3-0.2,0.5-0.5,0.6-0.9
	c0.1-0.4,0-0.8-0.1-1.1c-0.2-0.3-0.5-0.6-1-0.8L182.2,137.4z"/>
<path class="st1" d="M193.3,134.7c0.3,0.3,0.6,0.5,0.8,0.8c0.2,0.2,0.3,0.5,0.4,0.9c0.1,0.4,0.1,0.8,0,1.2c-0.1,0.5-0.3,1-0.6,1.5
	c-0.3,0.4-0.6,0.8-1,1c-0.4,0.2-0.8,0.4-1.3,0.5c-0.5,0.1-1,0.1-1.5,0c-0.6-0.1-1.1-0.3-1.6-0.5c-0.5-0.2-0.9-0.5-1.2-0.9
	c-0.3-0.3-0.5-0.8-0.6-1.2c-0.1-0.5-0.1-1,0-1.5c0.1-0.5,0.2-0.9,0.4-1.2c0.2-0.3,0.4-0.6,0.7-0.8c0.3-0.2,0.6-0.3,1-0.5
	c-0.3-0.2-0.5-0.4-0.6-0.6c-0.2-0.2-0.3-0.5-0.4-0.9c-0.1-0.3-0.1-0.7,0-1c0.1-0.6,0.3-1,0.7-1.4c0.4-0.4,0.9-0.7,1.4-0.8
	c0.6-0.1,1.2-0.2,1.8,0c0.6,0.1,1.2,0.4,1.7,0.7c0.5,0.4,0.9,0.8,1.1,1.3c0.2,0.5,0.3,1.1,0.1,1.6c-0.1,0.5-0.3,0.9-0.6,1.2
	C194.1,134.4,193.7,134.6,193.3,134.7L193.3,134.7z M191.2,133.8c0.4,0.1,0.7,0,1-0.2c0.3-0.2,0.5-0.5,0.6-1c0.1-0.4,0-0.8-0.2-1.1
	c-0.2-0.3-0.5-0.5-0.9-0.6c-0.4-0.1-0.7,0-1,0.2c-0.3,0.2-0.5,0.6-0.6,1c-0.1,0.4,0,0.8,0.2,1.1
	C190.5,133.5,190.8,133.7,191.2,133.8L191.2,133.8z M192.2,137.3c0.1-0.5,0-1-0.2-1.3c-0.2-0.4-0.6-0.6-1.1-0.7
	c-0.5-0.1-0.9,0-1.2,0.2c-0.3,0.2-0.6,0.7-0.7,1.2c-0.1,0.5,0,1,0.2,1.3c0.2,0.4,0.6,0.6,1,0.7c0.5,0.1,0.9,0,1.2-0.2
	C191.9,138.3,192.1,137.9,192.2,137.3z"/>
<path class="st1" d="M195.8,136.4l1.9-5.9l6.1,1.1l-0.3,1.8l-4.5-0.8l-0.8,2.3c0.3-0.1,0.6-0.2,0.9-0.3c0.4-0.1,0.8,0,1.2,0
	c0.6,0.1,1.2,0.4,1.7,0.8c0.5,0.4,0.8,0.9,1,1.5c0.2,0.6,0.2,1.2,0.1,1.9c-0.1,0.8-0.4,1.4-0.9,2c-0.4,0.5-1,0.9-1.6,1.1
	c-0.7,0.2-1.4,0.2-2.1,0.1c-0.5-0.1-1-0.3-1.5-0.5c-0.4-0.3-0.8-0.6-1.1-1c-0.3-0.4-0.4-0.8-0.5-1.2c-0.1-0.3-0.1-0.7,0-1.2l2.1,0.4
	c0,0.5,0.1,0.9,0.3,1.2c0.2,0.3,0.6,0.5,1,0.6c0.5,0.1,0.9,0,1.3-0.3c0.4-0.3,0.6-0.8,0.7-1.4c0.1-0.7,0.1-1.2-0.2-1.6
	c-0.2-0.4-0.6-0.6-1.1-0.7c-0.4-0.1-0.7,0-1,0.1c-0.2,0.1-0.4,0.2-0.6,0.4L195.8,136.4z"/>
<polygon class="st1" points="208.1,131.7 209.9,132 203.4,142.7 201.6,142.4 "/>
<path class="st1" d="M215,144.9l-2.2-0.4l0.9-5c0.1-0.6,0.1-1-0.1-1.3c-0.2-0.3-0.5-0.5-0.9-0.6c-0.4-0.1-0.7,0-1,0.1
	c-0.3,0.1-0.6,0.3-0.7,0.6c-0.2,0.3-0.3,0.7-0.4,1.2l-0.8,4.5l-2.2-0.4l2.1-11.2l2.2,0.4l-0.7,4c0.3-0.4,0.7-0.6,1.2-0.8
	c0.5-0.2,1-0.2,1.5-0.1c0.5,0.1,0.9,0.2,1.2,0.5c0.4,0.2,0.6,0.5,0.8,0.8c0.2,0.3,0.3,0.6,0.4,1c0.1,0.3,0,0.8-0.1,1.5L215,144.9z"
	/>
<path class="st1" d="M223.2,137.7l-0.4,2.2c-0.2-0.1-0.4-0.1-0.5-0.1c-0.6-0.1-1-0.1-1.4,0.1c-0.4,0.1-0.6,0.3-0.8,0.6
	c-0.2,0.3-0.3,0.7-0.4,1.3l-0.7,4l-2.2-0.4l1.5-8.3l2.1,0.4l-0.3,1.4c0.2-0.3,0.4-0.5,0.7-0.7c0.3-0.2,0.6-0.4,0.9-0.5
	c0.3-0.1,0.7-0.1,1,0C222.9,137.5,223,137.6,223.2,137.7z"/>
<rect x="87.4" y="154" transform="matrix(0.1822 -0.9833 0.9833 0.1822 -76.4129 218.4329)" class="st1" width="11.3" height="2.4"/>
<path class="st1" d="M96.6,154.6l-1.2-0.2l0.3-1.5l1.2,0.2l0.4-2.2l2.2,0.4l-0.4,2.2l1.3,0.2l-0.3,1.5l-1.3-0.2l-0.8,4.4
	c0,0.3-0.1,0.4,0,0.5c0,0.1,0.1,0.2,0.2,0.2c0.1,0.1,0.3,0.1,0.6,0.2c0.1,0,0.3,0,0.4,0.1l-0.3,1.6c-0.5-0.1-0.8-0.1-1-0.1
	c-0.7-0.1-1.2-0.3-1.5-0.5c-0.3-0.2-0.5-0.4-0.6-0.7c-0.1-0.3-0.1-0.6,0-1L96.6,154.6z"/>
<path class="st1" d="M105.7,157.3c0-0.3,0-0.5-0.1-0.6c-0.1-0.2-0.2-0.3-0.4-0.5c-0.2-0.1-0.5-0.2-0.8-0.3c-0.5-0.1-0.9-0.1-1.1,0
	c-0.2,0.1-0.4,0.3-0.4,0.5c0,0.1,0,0.2,0,0.3c0,0.1,0.1,0.2,0.2,0.3c0.1,0.1,0.3,0.2,0.7,0.4l1.4,0.7c0.5,0.2,0.8,0.4,0.9,0.4
	c0.3,0.2,0.5,0.3,0.7,0.5c0.2,0.2,0.3,0.4,0.4,0.6c0.1,0.2,0.2,0.4,0.2,0.6c0,0.2,0,0.5,0,0.7c-0.1,0.5-0.2,0.8-0.5,1.2
	c-0.2,0.3-0.5,0.6-0.9,0.8c-0.4,0.2-0.8,0.3-1.3,0.3c-0.5,0-1,0-1.7-0.1c-0.6-0.1-1.2-0.3-1.6-0.5c-0.5-0.2-0.8-0.5-1-0.8
	c-0.2-0.3-0.4-0.6-0.5-1c-0.1-0.3-0.1-0.8-0.1-1.3l2.2,0.4c0,0.3,0,0.5,0,0.7c0.1,0.2,0.2,0.4,0.5,0.6c0.2,0.2,0.5,0.3,0.9,0.3
	c0.6,0.1,1,0.1,1.3-0.1c0.2-0.1,0.3-0.3,0.4-0.5c0-0.2,0-0.3-0.1-0.5c-0.1-0.2-0.4-0.3-1-0.6c-1.2-0.5-1.9-0.9-2.3-1.1
	c-0.5-0.3-0.8-0.6-1-1c-0.2-0.4-0.2-0.8-0.1-1.3c0.1-0.5,0.3-0.9,0.7-1.3c0.3-0.4,0.8-0.6,1.4-0.8c0.6-0.1,1.2-0.1,2,0
	c0.4,0.1,0.9,0.2,1.2,0.4c0.4,0.2,0.7,0.4,0.9,0.6c0.2,0.2,0.4,0.5,0.6,0.7c0.1,0.3,0.2,0.5,0.3,0.8c0,0.2,0,0.6,0,1L105.7,157.3z"
	/>
<path class="st1" d="M115.5,159.2l-2.1-0.4c0.2-0.8,0.7-1.5,1.4-1.9c0.7-0.4,1.7-0.5,3-0.3c0.5,0.1,1,0.3,1.5,0.4
	c0.4,0.2,0.7,0.4,0.9,0.6c0.2,0.2,0.3,0.5,0.4,0.8c0.1,0.4,0.1,0.9,0,1.4l-0.8,4.2c-0.1,0.5-0.1,0.8-0.1,1c0.1,0.2,0.2,0.3,0.3,0.4
	l-0.1,0.3l-2.4-0.4c-0.1-0.3-0.1-0.7,0-1c-0.5,0.4-1,0.6-1.4,0.7c-0.4,0.1-0.9,0.1-1.4,0c-0.5-0.1-1-0.3-1.4-0.6
	c-0.4-0.3-0.6-0.6-0.7-1.1c-0.1-0.4-0.1-0.9-0.1-1.3c0.1-0.7,0.4-1.2,0.9-1.6c0.4-0.4,1.2-0.6,2.2-0.5l1.9,0.1c0.3,0,0.5,0,0.6-0.1
	c0.1-0.1,0.2-0.2,0.2-0.4c0.1-0.3,0-0.5-0.2-0.8c-0.2-0.2-0.5-0.3-1-0.4c-0.5-0.1-0.8-0.1-1.1,0.1
	C115.8,158.6,115.6,158.8,115.5,159.2L115.5,159.2z M117.9,161.3c-0.2,0.1-0.4,0.1-0.6,0.1c-0.2,0-0.4,0-0.7,0c-0.6,0-0.9,0-1.1,0
	c-0.3,0.1-0.5,0.2-0.6,0.3c-0.1,0.1-0.2,0.3-0.3,0.6c-0.1,0.3,0,0.6,0.2,0.9c0.2,0.2,0.4,0.4,0.7,0.4c0.5,0.1,0.9,0,1.4-0.2
	c0.5-0.2,0.7-0.7,0.9-1.4L117.9,161.3z"/>
<path class="st1" d="M123.1,154.9l2.2,0.4l-0.7,4c0.4-0.4,0.8-0.6,1.2-0.8c0.5-0.2,1-0.2,1.4-0.1c0.6,0.1,1.1,0.4,1.6,0.8
	c0.5,0.4,0.8,1,1,1.7c0.2,0.7,0.2,1.6,0,2.5c-0.1,0.8-0.4,1.5-0.8,2.2c-0.4,0.6-0.9,1.1-1.5,1.4c-0.6,0.3-1.3,0.4-2,0.2
	c-0.6-0.1-1-0.3-1.3-0.6c-0.3-0.3-0.6-0.7-0.8-1.2l-0.2,1l-2.1-0.4L123.1,154.9L123.1,154.9z M125.3,165.2c0.5,0.1,1,0,1.4-0.4
	c0.4-0.3,0.7-1,0.9-1.8c0.2-0.9,0.1-1.5-0.2-2c-0.3-0.5-0.7-0.8-1.2-0.9c-0.5-0.1-1,0-1.4,0.4c-0.4,0.3-0.7,1-0.9,1.9
	c-0.1,0.6-0.1,1.1,0,1.5c0.1,0.4,0.3,0.7,0.5,0.9C124.6,165,124.9,165.2,125.3,165.2z"/>
<path class="st1" d="M130.6,163.6c0.2-0.8,0.5-1.6,1-2.2c0.5-0.6,1.1-1.1,1.8-1.3c0.7-0.2,1.5-0.3,2.3-0.1c0.8,0.2,1.5,0.5,2.1,1
	c0.6,0.5,1,1.1,1.2,1.9c0.2,0.7,0.2,1.5,0.1,2.3c-0.2,0.8-0.5,1.6-1,2.2c-0.5,0.6-1.1,1.1-1.8,1.3c-0.7,0.2-1.5,0.3-2.3,0.1
	c-0.8-0.1-1.5-0.5-2.1-0.9c-0.6-0.5-1-1.1-1.2-1.8C130.5,165.2,130.4,164.4,130.6,163.6L130.6,163.6z M132.8,164
	c-0.1,0.7-0.1,1.4,0.2,1.9c0.2,0.5,0.7,0.9,1.4,1c0.6,0.1,1.1,0,1.5-0.3c0.4-0.3,0.7-1,0.9-1.9c0.1-0.7,0.1-1.4-0.1-1.9
	c-0.2-0.5-0.7-0.8-1.4-1c-0.7-0.1-1.2,0-1.7,0.4C133.2,162.7,132.9,163.3,132.8,164z"/>
<path class="st1" d="M141.1,161.3l2.2,0.4l-0.9,5c-0.1,0.5-0.1,0.9,0,1.2c0.2,0.4,0.5,0.6,1,0.7c0.4,0.1,0.7,0,1-0.1
	c0.3-0.1,0.5-0.3,0.7-0.6c0.2-0.3,0.3-0.7,0.4-1.2l0.8-4.5l2.2,0.4l-1.5,8.3l-2.1-0.4l0.2-1.2c-0.3,0.4-0.7,0.7-1.1,0.8
	c-0.5,0.2-1.1,0.2-1.7,0.1c-0.4-0.1-0.8-0.2-1.1-0.4c-0.3-0.2-0.6-0.4-0.7-0.7c-0.2-0.2-0.3-0.5-0.4-0.8c-0.1-0.3-0.1-0.6-0.1-1
	c0-0.3,0.1-0.7,0.2-1.2L141.1,161.3z"/>
<path class="st1" d="M150.3,164.6l-1.2-0.2l0.3-1.5l1.2,0.2l0.4-2.2l2.2,0.4l-0.4,2.2l1.3,0.2l-0.3,1.5l-1.3-0.2l-0.8,4.4
	c0,0.3-0.1,0.4,0,0.5c0,0.1,0.1,0.2,0.2,0.2c0.1,0.1,0.3,0.1,0.6,0.2c0.1,0,0.3,0,0.4,0.1l-0.3,1.6c-0.5-0.1-0.8-0.1-1-0.1
	c-0.7-0.1-1.2-0.3-1.5-0.5c-0.3-0.2-0.5-0.4-0.6-0.7c-0.1-0.3-0.1-0.6,0-1L150.3,164.6z"/>
<path class="st1" d="M161.3,168.6l0.3-1.5c0.6,0.1,1,0.1,1.2,0.1c0.4,0,0.7-0.2,0.9-0.4c0.2-0.2,0.4-0.5,0.4-0.9
	c0.1-0.4,0-0.8-0.2-1.1c-0.2-0.3-0.5-0.5-1-0.6c-0.5-0.1-0.9,0-1.2,0.2c-0.3,0.2-0.5,0.7-0.6,1.3l-2-0.4c0.2-0.5,0.3-0.9,0.5-1.2
	c0.2-0.4,0.5-0.8,0.9-1.1c0.4-0.3,0.8-0.5,1.3-0.6c0.5-0.1,1.1-0.1,1.6,0c0.6,0.1,1.2,0.4,1.7,0.7c0.5,0.4,0.8,0.8,1,1.3
	c0.2,0.5,0.2,1,0.1,1.6c-0.1,0.5-0.3,1-0.6,1.3c-0.3,0.3-0.7,0.6-1.2,0.7l0,0c0.3,0.2,0.5,0.3,0.7,0.5c0.3,0.3,0.4,0.7,0.5,1.1
	c0.1,0.4,0.1,0.8,0,1.3c-0.2,1-0.7,1.8-1.5,2.3c-0.8,0.5-1.8,0.7-3.1,0.4c-0.6-0.1-1.1-0.3-1.5-0.6c-0.5-0.3-0.8-0.6-1.1-1
	c-0.3-0.4-0.4-0.9-0.5-1.5c0-0.4,0-0.8,0.1-1.3l2.1,0.4c-0.1,0.6-0.1,1.2,0.2,1.5c0.2,0.4,0.6,0.6,1.1,0.7c0.5,0.1,0.9,0,1.3-0.2
	c0.4-0.3,0.6-0.6,0.7-1.2c0.1-0.5,0.1-0.8-0.1-1.1c-0.2-0.3-0.4-0.5-0.8-0.7C162.4,168.8,162,168.7,161.3,168.6z"/>
<path class="st1" d="M167,169c0.2-0.9,0.4-1.8,0.7-2.5c0.2-0.5,0.4-0.9,0.7-1.2c0.2-0.3,0.5-0.6,0.9-0.8c0.3-0.2,0.7-0.4,1.1-0.5
	c0.4-0.1,0.9-0.1,1.5,0c0.9,0.2,1.6,0.5,2.2,1.1c0.5,0.6,0.8,1.3,0.9,2.2c0.1,0.9,0,1.8-0.2,2.7c-0.2,0.9-0.4,1.7-0.7,2.5
	c-0.3,0.8-0.6,1.3-0.9,1.7c-0.3,0.4-0.6,0.6-0.9,0.8c-0.3,0.2-0.7,0.3-1.1,0.4c-0.4,0.1-0.9,0.1-1.3,0c-0.5-0.1-1-0.3-1.4-0.5
	c-0.4-0.2-0.7-0.5-0.9-0.8c-0.2-0.3-0.4-0.7-0.5-1c-0.1-0.4-0.2-0.8-0.2-1.4C166.7,170.9,166.8,170,167,169L167,169z M169.2,169.4
	c-0.2,1.2-0.3,2.1-0.3,2.6c0,0.5,0.1,0.9,0.3,1.2c0.2,0.3,0.5,0.5,0.9,0.5c0.4,0.1,0.7,0,1-0.2c0.3-0.2,0.5-0.5,0.7-1
	c0.2-0.5,0.4-1.3,0.6-2.5c0.2-1.2,0.3-2.1,0.3-2.5c0-0.5-0.1-0.9-0.3-1.1c-0.2-0.3-0.5-0.5-0.9-0.5c-0.4-0.1-0.7,0-1,0.2
	c-0.3,0.2-0.5,0.5-0.7,1C169.6,167.4,169.4,168.2,169.2,169.4z"/>
<rect x="180.5" y="170.6" transform="matrix(0.1822 -0.9833 0.9833 0.1822 -21.4554 319.8247)" class="st1" width="2.1" height="4.4"/>
<path class="st1" d="M196.5,168.8l-1.3,6.8l1.2,0.2l-0.3,1.7l-1.2-0.2l-0.4,2.4l-2.1-0.4l0.4-2.4l-4.3-0.8l0.4-1.9l5.3-5.9
	L196.5,168.8L196.5,168.8z M193.1,175.2l0.9-4.6l-3.6,4.1L193.1,175.2z"/>
<path class="st1" d="M197.5,175.3l1.9-5.9l6.1,1.1l-0.3,1.8l-4.5-0.8l-0.8,2.3c0.3-0.1,0.6-0.2,0.9-0.3c0.4-0.1,0.8,0,1.2,0
	c0.6,0.1,1.2,0.4,1.7,0.8c0.5,0.4,0.8,0.9,1,1.5c0.2,0.6,0.2,1.2,0.1,1.9c-0.1,0.8-0.4,1.4-0.9,2c-0.4,0.5-1,0.9-1.6,1.1
	c-0.7,0.2-1.4,0.2-2.1,0.1c-0.5-0.1-1-0.3-1.5-0.5c-0.4-0.3-0.8-0.6-1.1-1c-0.3-0.4-0.4-0.8-0.5-1.2c-0.1-0.3-0.1-0.7,0-1.2l2.1,0.4
	c0,0.5,0.1,0.9,0.3,1.2c0.2,0.3,0.6,0.5,1,0.6c0.5,0.1,0.9,0,1.3-0.3c0.4-0.3,0.6-0.8,0.7-1.4c0.1-0.7,0.1-1.2-0.2-1.6
	c-0.2-0.4-0.6-0.6-1.1-0.7c-0.4-0.1-0.7,0-1,0.1c-0.2,0.1-0.4,0.2-0.6,0.4L197.5,175.3z"/>
<path class="st1" d="M221.3,184.7l-2.2-0.4l1-5.2c0.1-0.5,0.1-0.9-0.1-1.2c-0.2-0.3-0.5-0.4-0.8-0.5c-0.4-0.1-0.8,0-1.1,0.2
	c-0.3,0.2-0.5,0.6-0.6,1.2l-0.9,5l-2.2-0.4l0.9-5c0.1-0.4,0.1-0.8,0.1-1c0-0.2-0.1-0.4-0.3-0.6c-0.2-0.2-0.4-0.3-0.7-0.3
	c-0.5-0.1-0.9,0-1.3,0.3c-0.2,0.2-0.4,0.6-0.5,1.1l-0.9,5l-2.2-0.4l1.5-8.3l2.1,0.4l-0.2,1.2c0.3-0.4,0.7-0.7,1-0.9
	c0.5-0.2,1-0.3,1.6-0.2c0.4,0.1,0.7,0.2,1,0.4c0.3,0.2,0.5,0.4,0.6,0.6c0.1,0.2,0.3,0.4,0.4,0.8c0.4-0.4,0.7-0.7,1.2-0.8
	c0.4-0.2,0.9-0.2,1.5-0.1c0.5,0.1,0.9,0.3,1.3,0.5c0.3,0.3,0.6,0.5,0.7,0.8c0.2,0.3,0.2,0.6,0.3,1c0,0.3,0,0.8-0.1,1.4L221.3,184.7z
	"/>
<path class="st1" d="M224.9,175.8l0.4-2l2.2,0.4l-0.4,2L224.9,175.8L224.9,175.8z M223.2,185l1.5-8.3l2.2,0.4l-1.5,8.3L223.2,185z"
	/>
<path class="st1" d="M234.6,187.1l-2.2-0.4l0.9-5c0.1-0.6,0.1-1-0.1-1.3c-0.2-0.3-0.5-0.5-1-0.6c-0.6-0.1-1,0-1.4,0.3
	c-0.4,0.3-0.6,0.8-0.7,1.5l-0.8,4.5l-2.2-0.4l1.5-8.3l2.1,0.4l-0.2,1.2c0.4-0.4,0.8-0.7,1.2-0.9c0.4-0.2,1-0.2,1.6-0.1
	c0.9,0.2,1.5,0.5,1.9,1.1c0.4,0.6,0.5,1.4,0.4,2.3L234.6,187.1z"/>
<path class="st1" d="M242.2,182.6c0-0.3,0-0.5-0.1-0.6c-0.1-0.2-0.2-0.3-0.4-0.5c-0.2-0.1-0.5-0.2-0.8-0.3c-0.5-0.1-0.9-0.1-1.1,0
	c-0.2,0.1-0.4,0.3-0.4,0.5c0,0.1,0,0.2,0,0.3c0,0.1,0.1,0.2,0.2,0.3c0.1,0.1,0.3,0.2,0.7,0.4l1.4,0.7c0.5,0.2,0.8,0.4,0.9,0.4
	c0.3,0.2,0.5,0.3,0.7,0.5c0.2,0.2,0.3,0.4,0.4,0.6c0.1,0.2,0.2,0.4,0.2,0.6c0,0.2,0,0.5,0,0.7c-0.1,0.5-0.2,0.8-0.5,1.2
	c-0.2,0.3-0.5,0.6-0.9,0.8c-0.4,0.2-0.8,0.3-1.3,0.3c-0.5,0-1,0-1.7-0.1c-0.6-0.1-1.2-0.3-1.6-0.5c-0.5-0.2-0.8-0.5-1-0.8
	c-0.2-0.3-0.4-0.6-0.5-1c-0.1-0.3-0.1-0.8-0.1-1.3l2.2,0.4c0,0.3,0,0.5,0,0.7c0.1,0.2,0.2,0.4,0.5,0.6c0.2,0.2,0.5,0.3,0.9,0.3
	c0.6,0.1,1,0.1,1.3-0.1c0.2-0.1,0.3-0.3,0.4-0.5c0-0.2,0-0.3-0.1-0.5c-0.1-0.2-0.4-0.3-1-0.6c-1.2-0.5-1.9-0.9-2.3-1.1
	c-0.5-0.3-0.8-0.6-1-1c-0.2-0.4-0.2-0.8-0.1-1.3c0.1-0.5,0.3-0.9,0.7-1.3c0.3-0.4,0.8-0.6,1.4-0.8c0.6-0.1,1.2-0.1,2,0
	c0.4,0.1,0.9,0.2,1.2,0.4c0.4,0.2,0.7,0.4,0.9,0.6c0.2,0.2,0.4,0.5,0.6,0.7c0.1,0.3,0.2,0.5,0.3,0.8c0,0.2,0,0.6,0,1L242.2,182.6z"
	/>
<path class="st1" d="M94.9,169l2.2,0.4L95,180.6l-2.1-0.4l0.2-1.2c-0.7,0.8-1.6,1.1-2.7,1c-0.6-0.1-1.2-0.4-1.7-0.8
	c-0.5-0.4-0.8-1-1-1.7c-0.2-0.7-0.2-1.5,0-2.4c0.2-0.9,0.5-1.7,0.9-2.3c0.4-0.6,1-1.1,1.6-1.3c0.6-0.2,1.2-0.3,1.9-0.2
	c1,0.2,1.7,0.8,2.1,1.7L94.9,169L94.9,169z M91.3,178.3c0.5,0.1,1,0,1.4-0.4c0.4-0.3,0.7-0.9,0.9-1.8c0.2-0.9,0.1-1.5-0.2-2
	c-0.3-0.5-0.7-0.8-1.2-0.9c-0.3-0.1-0.7,0-1,0.1c-0.3,0.1-0.6,0.4-0.8,0.8c-0.2,0.4-0.4,0.8-0.5,1.4c-0.2,0.8-0.1,1.5,0.2,2
	C90.4,177.9,90.8,178.2,91.3,178.3z"/>
<path class="st1" d="M103.1,173.3l-0.4,2.2c-0.2-0.1-0.4-0.1-0.5-0.1c-0.6-0.1-1-0.1-1.4,0.1c-0.4,0.1-0.6,0.3-0.8,0.6
	c-0.2,0.3-0.3,0.7-0.4,1.3l-0.7,4l-2.2-0.4l1.5-8.3l2.1,0.4l-0.3,1.4c0.2-0.3,0.4-0.5,0.7-0.7c0.3-0.2,0.6-0.4,0.9-0.5
	c0.3-0.1,0.7-0.1,1,0C102.8,173.2,102.9,173.3,103.1,173.3z"/>
<path class="st1" d="M104,172.7l0.4-2l2.2,0.4l-0.4,2L104,172.7L104,172.7z M102.3,181.9l1.5-8.3l2.2,0.4l-1.5,8.3L102.3,181.9z"/>
<polygon class="st1" points="107,174.3 109.4,174.7 110,181.1 112.9,175.4 115.2,175.8 110.7,183.5 108.4,183.1 "/>
<path class="st1" d="M116.3,180.9c-0.1,0.6,0,1.1,0.3,1.6c0.3,0.4,0.7,0.7,1.2,0.8c0.4,0.1,0.7,0,1-0.1c0.3-0.1,0.5-0.3,0.7-0.6
	l2.2,0.4c-0.2,0.5-0.5,0.9-0.9,1.3c-0.4,0.3-0.9,0.6-1.5,0.7c-0.6,0.1-1.3,0.1-1.9,0c-0.8-0.1-1.4-0.4-1.9-0.9
	c-0.5-0.4-0.9-1-1.1-1.8c-0.2-0.8-0.2-1.6-0.1-2.5c0.2-1.2,0.7-2.1,1.4-2.8c0.8-0.8,1.9-1.1,3.3-0.8c0.6,0.1,1.1,0.3,1.5,0.5
	c0.4,0.2,0.8,0.5,1.1,0.9c0.3,0.4,0.5,0.8,0.6,1.3c0.1,0.5,0.1,1,0.1,1.5c0,0.4-0.1,0.9-0.2,1.5L116.3,180.9L116.3,180.9z
	 M120,180.1c0.1-0.6,0-1-0.1-1.4c-0.2-0.4-0.6-0.7-1.2-0.8c-0.4-0.1-0.7,0-1,0.1c-0.3,0.1-0.5,0.3-0.7,0.6c-0.1,0.2-0.3,0.5-0.4,0.8
	L120,180.1z"/>
<path class="st1" d="M135.7,179.6l-4.4,7.6l-0.8,1.3c-0.3,0.5-0.5,0.8-0.7,1c-0.2,0.2-0.4,0.4-0.6,0.5c-0.2,0.1-0.4,0.2-0.7,0.2
	c-0.3,0-0.6,0-1-0.1c-0.4-0.1-0.7-0.2-1-0.3l0.3-1.7l0.1,0c0.2,0.1,0.4,0.1,0.6,0.1c0.3,0.1,0.6,0,0.9-0.2c0.3-0.2,0.4-0.4,0.5-0.7
	l-1.4-9.3l2.4,0.4l0.6,6.4l0,0l2.8-5.8L135.7,179.6z"/>
<path class="st1" d="M134.9,183.7c0.2-0.8,0.5-1.6,1-2.2c0.5-0.6,1.1-1.1,1.8-1.3c0.7-0.2,1.5-0.3,2.3-0.1c0.8,0.2,1.5,0.5,2.1,1
	c0.6,0.5,1,1.1,1.2,1.9c0.2,0.8,0.2,1.5,0.1,2.3c-0.2,0.8-0.5,1.6-1,2.2c-0.5,0.6-1.1,1.1-1.8,1.3c-0.7,0.2-1.5,0.3-2.3,0.1
	c-0.8-0.1-1.5-0.5-2.1-0.9c-0.6-0.5-1-1.1-1.2-1.8C134.8,185.3,134.7,184.5,134.9,183.7L134.9,183.7z M137.1,184.1
	c-0.1,0.7-0.1,1.4,0.2,1.9c0.2,0.5,0.7,0.9,1.4,1c0.6,0.1,1.1,0,1.5-0.3c0.4-0.3,0.7-1,0.9-1.9c0.1-0.7,0.1-1.4-0.1-1.9
	c-0.2-0.5-0.7-0.8-1.4-1c-0.7-0.1-1.2,0-1.7,0.4C137.5,182.8,137.2,183.4,137.1,184.1z"/>
<path class="st1" d="M145.4,181.4l2.2,0.4l-0.9,5c-0.1,0.5-0.1,0.9,0,1.2c0.2,0.4,0.5,0.6,1,0.7c0.4,0.1,0.7,0,1-0.1
	c0.3-0.1,0.5-0.3,0.7-0.6c0.2-0.3,0.3-0.7,0.4-1.2l0.8-4.5l2.2,0.4l-1.5,8.3l-2.1-0.4l0.2-1.2c-0.3,0.4-0.7,0.7-1.1,0.8
	c-0.5,0.2-1.1,0.2-1.7,0.1c-0.4-0.1-0.8-0.2-1.1-0.4c-0.3-0.2-0.6-0.4-0.7-0.7c-0.2-0.2-0.3-0.5-0.4-0.8c-0.1-0.3-0.1-0.6-0.1-1
	c0-0.3,0.1-0.7,0.2-1.2L145.4,181.4z"/>
<path class="st1" d="M159.5,183.8L159,186c-0.2-0.1-0.4-0.1-0.5-0.1c-0.6-0.1-1-0.1-1.4,0.1c-0.4,0.1-0.6,0.3-0.8,0.6
	c-0.2,0.3-0.3,0.7-0.4,1.3l-0.7,4l-2.2-0.4l1.5-8.3l2.1,0.4l-0.3,1.4c0.2-0.3,0.4-0.5,0.7-0.7c0.3-0.2,0.6-0.4,0.9-0.5
	c0.3-0.1,0.7-0.1,1,0C159.2,183.7,159.3,183.7,159.5,183.8z"/>
<path class="st1" d="M170.7,194.6l-2.2-0.4l0.9-5c0.1-0.6,0.1-1-0.1-1.3c-0.2-0.3-0.5-0.5-0.9-0.6c-0.4-0.1-0.7,0-1,0.1
	c-0.3,0.1-0.6,0.3-0.7,0.6c-0.2,0.3-0.3,0.7-0.4,1.2l-0.8,4.5l-2.2-0.4l2.1-11.2l2.2,0.4l-0.7,4c0.3-0.4,0.7-0.6,1.2-0.8
	c0.5-0.2,1-0.2,1.5-0.1c0.5,0.1,0.9,0.2,1.2,0.5c0.4,0.2,0.6,0.5,0.8,0.8c0.2,0.3,0.3,0.6,0.4,1c0.1,0.3,0,0.8-0.1,1.5L170.7,194.6z
	"/>
<path class="st1" d="M172.7,190.7c0.2-0.8,0.5-1.6,1-2.2c0.5-0.6,1.1-1.1,1.8-1.3c0.7-0.2,1.5-0.3,2.3-0.1c0.8,0.2,1.5,0.5,2.1,1
	c0.6,0.5,1,1.1,1.2,1.9c0.2,0.7,0.2,1.5,0.1,2.3c-0.2,0.8-0.5,1.6-1,2.2c-0.5,0.6-1.1,1.1-1.8,1.3c-0.7,0.2-1.5,0.3-2.3,0.1
	c-0.8-0.1-1.5-0.5-2.1-0.9c-0.6-0.5-1-1.1-1.2-1.8C172.6,192.3,172.6,191.5,172.7,190.7L172.7,190.7z M175,191.1
	c-0.1,0.7-0.1,1.4,0.2,1.9c0.2,0.5,0.7,0.9,1.4,1c0.6,0.1,1.1,0,1.5-0.3c0.4-0.3,0.7-1,0.9-1.9c0.1-0.7,0.1-1.4-0.1-1.9
	c-0.2-0.5-0.7-0.8-1.4-1c-0.7-0.1-1.2,0-1.7,0.4C175.4,189.8,175.1,190.4,175,191.1z"/>
<path class="st1" d="M193.5,198.8l-2.2-0.4l1-5.2c0.1-0.5,0.1-0.9-0.1-1.2c-0.2-0.3-0.5-0.4-0.8-0.5c-0.4-0.1-0.8,0-1.1,0.2
	c-0.3,0.2-0.5,0.6-0.6,1.2l-0.9,5l-2.2-0.4l0.9-5c0.1-0.4,0.1-0.8,0.1-1c0-0.2-0.1-0.4-0.3-0.6c-0.2-0.2-0.4-0.3-0.7-0.3
	c-0.5-0.1-0.9,0-1.3,0.3c-0.2,0.2-0.4,0.6-0.5,1.1l-0.9,5l-2.2-0.4l1.5-8.3l2.1,0.4l-0.2,1.2c0.3-0.4,0.7-0.7,1-0.9
	c0.5-0.2,1-0.3,1.6-0.2c0.4,0.1,0.7,0.2,1,0.4c0.3,0.2,0.5,0.4,0.6,0.6c0.1,0.2,0.3,0.4,0.4,0.8c0.4-0.4,0.7-0.7,1.2-0.8
	c0.4-0.2,0.9-0.2,1.5-0.1c0.5,0.1,0.9,0.3,1.3,0.5c0.3,0.3,0.6,0.5,0.7,0.8c0.2,0.3,0.2,0.6,0.3,1c0,0.3,0,0.8-0.1,1.4L193.5,198.8z
	"/>
<path class="st1" d="M197.5,196c-0.1,0.6,0,1.1,0.3,1.6c0.3,0.4,0.7,0.7,1.2,0.8c0.4,0.1,0.7,0,1-0.1c0.3-0.1,0.5-0.3,0.7-0.6
	l2.2,0.4c-0.2,0.5-0.5,0.9-0.9,1.3c-0.4,0.3-0.9,0.6-1.5,0.7c-0.6,0.1-1.3,0.1-1.9,0c-0.8-0.1-1.4-0.4-1.9-0.9
	c-0.5-0.4-0.9-1-1.1-1.8c-0.2-0.8-0.2-1.6-0.1-2.5c0.2-1.2,0.7-2.1,1.4-2.8c0.8-0.8,1.9-1.1,3.3-0.8c0.6,0.1,1.1,0.3,1.5,0.5
	c0.4,0.2,0.8,0.5,1.1,0.9c0.3,0.4,0.5,0.8,0.6,1.3c0.1,0.5,0.1,1,0.1,1.5c0,0.4-0.1,0.9-0.2,1.5L197.5,196L197.5,196z M201.2,195.2
	c0.1-0.6,0-1-0.1-1.4c-0.2-0.4-0.6-0.7-1.2-0.8c-0.4-0.1-0.7,0-1,0.1c-0.3,0.1-0.5,0.3-0.7,0.6c-0.1,0.2-0.3,0.5-0.4,0.8
	L201.2,195.2z"/>
<rect x="203.3" y="198.5" transform="matrix(0.1822 -0.9833 0.9833 0.1822 -29.0773 364.3924)" class="st1" width="2.4" height="2.4"/>
<path class="st1" d="M86.5,194.8c-0.1,0.4,0,0.7,0,0.9c0.1,0.3,0.3,0.6,0.7,0.8c0.3,0.2,0.8,0.4,1.3,0.5c0.8,0.1,1.4,0.1,1.9-0.1
	c0.4-0.2,0.6-0.5,0.6-0.8c0-0.2,0-0.5-0.1-0.7c-0.1-0.2-0.3-0.4-0.5-0.5c-0.2-0.2-0.6-0.3-1.1-0.6l-1.1-0.5
	c-0.7-0.3-1.3-0.6-1.6-0.8c-0.4-0.3-0.8-0.6-1-0.8c-0.2-0.3-0.3-0.6-0.4-1c-0.1-0.4-0.1-0.8,0-1.3c0.2-0.8,0.5-1.4,1-1.9
	c0.5-0.5,1.1-0.7,1.8-0.8c0.7-0.1,1.4-0.1,2.1,0c0.6,0.1,1.1,0.3,1.6,0.5c0.5,0.2,0.9,0.5,1.2,0.8c0.3,0.3,0.5,0.6,0.7,0.9
	c0.2,0.3,0.3,0.7,0.3,1c0,0.3,0,0.7-0.1,1.3l-2.2-0.4c0-0.3,0-0.7-0.1-0.9c-0.1-0.3-0.3-0.5-0.6-0.7c-0.3-0.2-0.7-0.4-1.2-0.5
	c-0.7-0.1-1.2-0.1-1.6,0.1c-0.4,0.2-0.6,0.5-0.7,0.9c-0.1,0.4,0,0.7,0.2,0.9c0.1,0.1,0.5,0.3,1.2,0.6l2.2,1c0.6,0.2,1,0.5,1.3,0.8
	c0.4,0.4,0.8,0.8,0.9,1.2c0.2,0.5,0.2,1,0.1,1.6c-0.1,0.5-0.3,0.9-0.5,1.3c-0.2,0.4-0.5,0.7-0.8,0.9c-0.3,0.2-0.6,0.4-1,0.5
	c-0.4,0.1-0.9,0.2-1.4,0.2c-0.6,0-1.1,0-1.6-0.1c-0.7-0.1-1.3-0.3-1.9-0.6c-0.4-0.2-0.7-0.4-1-0.7c-0.3-0.3-0.5-0.6-0.7-0.9
	c-0.2-0.3-0.3-0.7-0.3-1c0-0.3,0-0.8,0-1.3L86.5,194.8z"/>
<path class="st1" d="M96.1,196.5c-0.1,0.6,0,1.1,0.3,1.6c0.3,0.4,0.7,0.7,1.2,0.8c0.4,0.1,0.7,0,1-0.1c0.3-0.1,0.5-0.3,0.7-0.6
	l2.2,0.4c-0.2,0.5-0.5,0.9-0.9,1.3c-0.4,0.3-0.9,0.6-1.5,0.7c-0.6,0.1-1.3,0.1-1.9,0c-0.8-0.1-1.4-0.4-1.9-0.9
	c-0.5-0.4-0.9-1-1.1-1.8c-0.2-0.8-0.2-1.6-0.1-2.5c0.2-1.2,0.7-2.1,1.4-2.8c0.8-0.8,1.9-1.1,3.3-0.8c0.6,0.1,1.1,0.3,1.5,0.5
	c0.4,0.2,0.8,0.5,1.1,0.9c0.3,0.4,0.5,0.8,0.6,1.3c0.1,0.5,0.1,1,0.1,1.5c0,0.4-0.1,0.9-0.2,1.5L96.1,196.5L96.1,196.5z M99.8,195.7
	c0.1-0.6,0-1-0.1-1.4c-0.2-0.4-0.6-0.7-1.2-0.8c-0.4-0.1-0.7,0-1,0.1c-0.3,0.1-0.5,0.3-0.7,0.6c-0.1,0.2-0.3,0.5-0.4,0.8L99.8,195.7
	z"/>
<path class="st1" d="M104.5,198.1c-0.1,0.6,0,1.1,0.3,1.6c0.3,0.4,0.7,0.7,1.2,0.8c0.4,0.1,0.7,0,1-0.1c0.3-0.1,0.5-0.3,0.7-0.6
	l2.2,0.4c-0.2,0.5-0.5,0.9-0.9,1.3c-0.4,0.3-0.9,0.6-1.5,0.7c-0.6,0.1-1.3,0.1-1.9,0c-0.8-0.1-1.4-0.4-1.9-0.9
	c-0.5-0.4-0.9-1-1.1-1.8c-0.2-0.8-0.2-1.6-0.1-2.5c0.2-1.2,0.7-2.1,1.4-2.8c0.8-0.8,1.9-1.1,3.3-0.8c0.6,0.1,1.1,0.3,1.5,0.5
	c0.4,0.2,0.8,0.5,1.1,0.9c0.3,0.4,0.5,0.8,0.6,1.3c0.1,0.5,0.1,1,0.1,1.5c0,0.4-0.1,0.9-0.2,1.5L104.5,198.1L104.5,198.1z
	 M108.2,197.3c0.1-0.6,0-1-0.1-1.4c-0.2-0.4-0.6-0.7-1.2-0.8c-0.4-0.1-0.7,0-1,0.1c-0.3,0.1-0.5,0.3-0.7,0.6
	c-0.1,0.2-0.3,0.5-0.4,0.8L108.2,197.3z"/>
<path class="st1" d="M126.8,205.8l-2.2-0.4l1-5.2c0.1-0.5,0.1-0.9-0.1-1.2c-0.2-0.3-0.5-0.4-0.8-0.5c-0.4-0.1-0.8,0-1.1,0.2
	c-0.3,0.2-0.5,0.6-0.6,1.2l-0.9,5l-2.2-0.4l0.9-5c0.1-0.4,0.1-0.8,0.1-1c0-0.2-0.1-0.4-0.3-0.6c-0.2-0.2-0.4-0.3-0.7-0.3
	c-0.5-0.1-0.9,0-1.3,0.3c-0.2,0.2-0.4,0.6-0.5,1.1l-0.9,5l-2.2-0.4l1.5-8.3l2.1,0.4l-0.2,1.2c0.3-0.4,0.7-0.7,1-0.9
	c0.5-0.2,1-0.3,1.6-0.2c0.4,0.1,0.7,0.2,1,0.4c0.3,0.2,0.5,0.4,0.6,0.6c0.1,0.2,0.3,0.4,0.4,0.8c0.4-0.4,0.7-0.7,1.2-0.8
	c0.4-0.2,0.9-0.2,1.5-0.1c0.5,0.1,0.9,0.3,1.3,0.5c0.3,0.3,0.6,0.5,0.7,0.8c0.2,0.3,0.2,0.6,0.3,1c0,0.3,0,0.8-0.1,1.4L126.8,205.8z
	"/>
<path class="st1" d="M131.5,200.8l-2.1-0.4c0.2-0.8,0.7-1.5,1.4-1.9c0.7-0.4,1.7-0.5,3-0.3c0.5,0.1,1,0.3,1.5,0.4
	c0.4,0.2,0.7,0.4,0.9,0.6c0.2,0.2,0.3,0.5,0.4,0.8c0.1,0.4,0.1,0.9,0,1.4l-0.8,4.2c-0.1,0.5-0.1,0.8-0.1,1c0.1,0.2,0.2,0.3,0.3,0.4
	l-0.1,0.3l-2.4-0.4c-0.1-0.3-0.1-0.7,0-1c-0.5,0.4-1,0.6-1.4,0.7c-0.4,0.1-0.9,0.1-1.4,0c-0.5-0.1-1-0.3-1.4-0.6
	c-0.4-0.3-0.6-0.6-0.7-1.1c-0.1-0.4-0.1-0.9-0.1-1.3c0.1-0.7,0.4-1.2,0.9-1.6c0.4-0.4,1.2-0.6,2.2-0.5l1.9,0.1c0.3,0,0.5,0,0.6-0.1
	c0.1-0.1,0.2-0.2,0.2-0.4c0.1-0.3,0-0.5-0.2-0.8c-0.2-0.2-0.5-0.3-1-0.4c-0.5-0.1-0.8-0.1-1.1,0.1
	C131.8,200.1,131.6,200.4,131.5,200.8L131.5,200.8z M133.9,202.9c-0.2,0.1-0.4,0.1-0.6,0.1c-0.2,0-0.4,0-0.7,0c-0.6,0-0.9,0-1.1,0
	c-0.3,0.1-0.5,0.2-0.6,0.3c-0.1,0.1-0.2,0.3-0.3,0.6c-0.1,0.3,0,0.6,0.2,0.9c0.2,0.2,0.4,0.4,0.7,0.4c0.5,0.1,0.9,0,1.4-0.2
	c0.5-0.2,0.7-0.7,0.9-1.4L133.9,202.9z"/>
<path class="st1" d="M136.4,210.9l2.1-11.5l2.1,0.4l-0.2,1.2l0,0c0.2-0.3,0.5-0.5,0.7-0.7c0.2-0.2,0.5-0.3,0.8-0.3
	c0.3-0.1,0.7-0.1,1.1,0c0.6,0.1,1.2,0.3,1.6,0.7c0.4,0.3,0.7,0.7,0.9,1.1c0.2,0.4,0.3,0.8,0.4,1.4c0.1,0.6,0,1.2-0.1,1.8
	c-0.2,0.8-0.4,1.6-0.8,2.2c-0.4,0.7-0.9,1.1-1.5,1.4c-0.6,0.3-1.3,0.3-2.1,0.2c-0.6-0.1-1-0.3-1.3-0.6c-0.3-0.3-0.6-0.7-0.7-1.1l0,0
	l-0.8,4.2L136.4,210.9L136.4,210.9z M142.1,201.7c-0.6-0.1-1.1,0-1.5,0.5c-0.4,0.4-0.7,1-0.8,1.7c-0.2,0.9-0.1,1.5,0.2,2
	c0.3,0.5,0.7,0.8,1.2,0.9c0.5,0.1,1,0,1.4-0.4c0.4-0.3,0.7-1,0.9-1.8c0.1-0.7,0.1-1.4-0.1-1.9C143.2,202.2,142.7,201.8,142.1,201.7z
	"/>
<path class="st1" d="M79.5,232.1c-0.1,0.4,0,0.7,0,0.9c0.1,0.3,0.3,0.6,0.7,0.8c0.3,0.2,0.8,0.4,1.3,0.5c0.8,0.1,1.4,0.1,1.9-0.1
	c0.4-0.2,0.6-0.5,0.6-0.8c0-0.2,0-0.5-0.1-0.7c-0.1-0.2-0.3-0.4-0.5-0.5c-0.2-0.2-0.6-0.3-1.1-0.6l-1.1-0.5
	c-0.7-0.3-1.3-0.6-1.6-0.8c-0.4-0.3-0.8-0.6-1-0.8c-0.2-0.3-0.3-0.6-0.4-1c-0.1-0.4-0.1-0.8,0-1.3c0.2-0.8,0.5-1.4,1-1.9
	c0.5-0.5,1.1-0.7,1.8-0.8c0.7-0.1,1.4-0.1,2.1,0c0.6,0.1,1.1,0.3,1.6,0.5c0.5,0.2,0.9,0.5,1.2,0.8c0.3,0.3,0.5,0.6,0.7,0.9
	c0.2,0.3,0.3,0.7,0.3,1c0,0.3,0,0.7-0.1,1.3l-2.2-0.4c0-0.3,0-0.7-0.1-0.9c-0.1-0.3-0.3-0.5-0.6-0.7c-0.3-0.2-0.7-0.4-1.2-0.5
	c-0.7-0.1-1.2-0.1-1.6,0.1c-0.4,0.2-0.6,0.5-0.7,0.9c-0.1,0.4,0,0.7,0.2,0.9c0.1,0.1,0.5,0.3,1.2,0.6l2.2,1c0.6,0.2,1,0.5,1.3,0.8
	c0.4,0.4,0.8,0.8,0.9,1.2c0.2,0.5,0.2,1,0.1,1.6c-0.1,0.5-0.3,0.9-0.5,1.3c-0.2,0.4-0.5,0.7-0.8,0.9c-0.3,0.2-0.6,0.4-1,0.5
	c-0.4,0.1-0.9,0.2-1.4,0.2c-0.6,0-1.1,0-1.6-0.1c-0.7-0.1-1.3-0.3-1.9-0.6c-0.4-0.2-0.7-0.4-1-0.7c-0.3-0.3-0.5-0.6-0.7-0.9
	c-0.2-0.3-0.3-0.7-0.3-1c0-0.3,0-0.8,0-1.3L79.5,232.1z"/>
<path class="st1" d="M94.7,238.5l-2.2-0.4l0.9-5c0.1-0.6,0.1-1-0.1-1.3c-0.2-0.3-0.5-0.5-0.9-0.6c-0.4-0.1-0.7,0-1,0.1
	c-0.3,0.1-0.6,0.3-0.7,0.6c-0.2,0.3-0.3,0.7-0.4,1.2l-0.8,4.5l-2.2-0.4l2.1-11.2l2.2,0.4l-0.7,4c0.3-0.4,0.7-0.6,1.2-0.8
	c0.5-0.2,1-0.2,1.5-0.1c0.5,0.1,0.9,0.2,1.2,0.5c0.4,0.2,0.6,0.5,0.8,0.8c0.2,0.3,0.3,0.6,0.4,1c0.1,0.3,0,0.8-0.1,1.5L94.7,238.5z"
	/>
<path class="st1" d="M96.7,234.6c0.2-0.8,0.5-1.6,1-2.2c0.5-0.6,1.1-1.1,1.8-1.3c0.7-0.2,1.5-0.3,2.3-0.1c0.8,0.2,1.5,0.5,2.1,1
	c0.6,0.5,1,1.1,1.2,1.9c0.2,0.7,0.2,1.5,0.1,2.3c-0.2,0.8-0.5,1.6-1,2.2c-0.5,0.6-1.1,1.1-1.8,1.3c-0.7,0.2-1.5,0.3-2.3,0.1
	c-0.8-0.1-1.5-0.5-2.1-0.9c-0.6-0.5-1-1.1-1.2-1.8C96.6,236.2,96.6,235.4,96.7,234.6L96.7,234.6z M99,235c-0.1,0.7-0.1,1.4,0.2,1.9
	c0.2,0.5,0.7,0.9,1.4,1c0.6,0.1,1.1,0,1.5-0.3c0.4-0.3,0.7-1,0.9-1.9c0.1-0.7,0.1-1.4-0.1-1.9c-0.2-0.5-0.7-0.8-1.4-1
	c-0.7-0.1-1.2,0-1.7,0.4C99.4,233.7,99.1,234.2,99,235z"/>
<path class="st1" d="M107.3,232.2l2.2,0.4l-0.9,5c-0.1,0.5-0.1,0.9,0,1.2c0.2,0.4,0.5,0.6,1,0.7c0.4,0.1,0.7,0,1-0.1
	c0.3-0.1,0.5-0.3,0.7-0.6c0.2-0.3,0.3-0.7,0.4-1.2l0.8-4.5l2.2,0.4l-1.5,8.3l-2.1-0.4l0.2-1.2c-0.3,0.4-0.7,0.7-1.1,0.8
	c-0.5,0.2-1.1,0.2-1.7,0.1c-0.4-0.1-0.8-0.2-1.1-0.4c-0.3-0.2-0.6-0.4-0.7-0.7c-0.2-0.2-0.3-0.5-0.4-0.8c-0.1-0.3-0.1-0.6-0.1-1
	c0-0.3,0.1-0.7,0.2-1.2L107.3,232.2z"/>
<rect x="111.5" y="235.7" transform="matrix(0.1822 -0.9833 0.9833 0.1822 -137.0738 308.8655)" class="st1" width="11.4" height="2.2"/>
<path class="st1" d="M126.4,232.8l2.2,0.4l-2.1,11.2l-2.1-0.4l0.2-1.2c-0.7,0.8-1.6,1.1-2.7,1c-0.6-0.1-1.2-0.4-1.7-0.8
	c-0.5-0.4-0.8-1-1-1.7c-0.2-0.7-0.2-1.5,0-2.4c0.2-0.9,0.5-1.7,0.9-2.3c0.4-0.6,1-1.1,1.6-1.3c0.6-0.2,1.2-0.3,1.9-0.2
	c1,0.2,1.7,0.8,2.1,1.7L126.4,232.8L126.4,232.8z M122.9,242c0.5,0.1,1,0,1.4-0.4c0.4-0.3,0.7-0.9,0.9-1.8c0.2-0.9,0.1-1.5-0.2-2
	c-0.3-0.5-0.7-0.8-1.2-0.9c-0.3-0.1-0.7,0-1,0.1c-0.3,0.1-0.6,0.4-0.8,0.8c-0.2,0.4-0.4,0.8-0.5,1.4c-0.2,0.8-0.1,1.5,0.2,2
	C121.9,241.7,122.3,241.9,122.9,242z"/>
<polygon class="st1" points="133.3,237.1 135.6,237.5 135.8,243.7 138.1,237.9 140.3,238.4 140.4,244.5 142.8,238.8 145.1,239.2 
	141.1,247.1 138.9,246.7 138.7,240.4 136.3,246.2 134.1,245.8 "/>
<path class="st1" d="M146,244.4c-0.1,0.6,0,1.1,0.3,1.6c0.3,0.4,0.7,0.7,1.2,0.8c0.4,0.1,0.7,0,1-0.1c0.3-0.1,0.5-0.3,0.7-0.6
	l2.2,0.4c-0.2,0.5-0.5,0.9-0.9,1.3c-0.4,0.3-0.9,0.6-1.5,0.7c-0.6,0.1-1.3,0.1-1.9,0c-0.8-0.1-1.4-0.4-1.9-0.9
	c-0.5-0.4-0.9-1-1.1-1.8c-0.2-0.8-0.2-1.6-0.1-2.5c0.2-1.2,0.7-2.1,1.4-2.8c0.8-0.8,1.9-1.1,3.3-0.8c0.6,0.1,1.1,0.3,1.5,0.5
	c0.4,0.2,0.8,0.5,1.1,0.9c0.3,0.4,0.5,0.8,0.6,1.3c0.1,0.5,0.1,1,0.1,1.5c0,0.4-0.1,0.9-0.2,1.5L146,244.4L146,244.4z M149.7,243.6
	c0.1-0.6,0-1-0.1-1.4c-0.2-0.4-0.6-0.7-1.2-0.8c-0.4-0.1-0.7,0-1,0.1c-0.3,0.1-0.5,0.3-0.7,0.6c-0.1,0.2-0.3,0.5-0.4,0.8
	L149.7,243.6z"/>
<path class="st1" d="M162.3,245c0-0.3,0-0.5-0.1-0.6c-0.1-0.2-0.2-0.3-0.4-0.5c-0.2-0.1-0.5-0.2-0.8-0.3c-0.5-0.1-0.9-0.1-1.1,0
	c-0.2,0.1-0.4,0.3-0.4,0.5c0,0.1,0,0.2,0,0.3c0,0.1,0.1,0.2,0.2,0.3c0.1,0.1,0.3,0.2,0.7,0.4l1.4,0.7c0.5,0.2,0.8,0.4,0.9,0.4
	c0.3,0.2,0.5,0.3,0.7,0.5c0.2,0.2,0.3,0.4,0.4,0.6c0.1,0.2,0.2,0.4,0.2,0.6c0,0.2,0,0.5,0,0.7c-0.1,0.5-0.2,0.8-0.5,1.2
	c-0.2,0.3-0.5,0.6-0.9,0.8c-0.4,0.2-0.8,0.3-1.3,0.3c-0.5,0-1,0-1.7-0.1c-0.6-0.1-1.2-0.3-1.6-0.5c-0.5-0.2-0.8-0.5-1-0.8
	c-0.2-0.3-0.4-0.6-0.5-1c-0.1-0.3-0.1-0.8-0.1-1.3l2.2,0.4c0,0.3,0,0.5,0,0.7c0.1,0.2,0.2,0.4,0.5,0.6c0.2,0.2,0.5,0.3,0.9,0.3
	c0.6,0.1,1,0.1,1.3-0.1c0.2-0.1,0.3-0.3,0.4-0.5c0-0.2,0-0.3-0.1-0.5c-0.1-0.2-0.4-0.3-1-0.6c-1.2-0.5-1.9-0.9-2.3-1.1
	c-0.5-0.3-0.8-0.6-1-1c-0.2-0.4-0.2-0.8-0.1-1.3c0.1-0.5,0.3-0.9,0.7-1.3c0.3-0.4,0.8-0.6,1.4-0.8c0.6-0.1,1.2-0.1,2,0
	c0.4,0.1,0.9,0.2,1.2,0.4c0.4,0.2,0.7,0.4,0.9,0.6c0.2,0.2,0.4,0.5,0.6,0.7c0.1,0.3,0.2,0.5,0.3,0.8c0,0.2,0,0.6,0,1L162.3,245z"/>
<path class="st1" d="M167.2,248.3c-0.1,0.6,0,1.1,0.3,1.6c0.3,0.4,0.7,0.7,1.2,0.8c0.4,0.1,0.7,0,1-0.1c0.3-0.1,0.5-0.3,0.7-0.6
	l2.2,0.4c-0.2,0.5-0.5,0.9-0.9,1.3c-0.4,0.3-0.9,0.6-1.5,0.7c-0.6,0.1-1.3,0.1-1.9,0c-0.8-0.1-1.4-0.4-1.9-0.9
	c-0.5-0.4-0.9-1-1.1-1.8c-0.2-0.8-0.2-1.6-0.1-2.5c0.2-1.2,0.7-2.1,1.4-2.8c0.8-0.8,1.9-1.1,3.3-0.8c0.6,0.1,1.1,0.3,1.5,0.5
	c0.4,0.2,0.8,0.5,1.1,0.9c0.3,0.4,0.5,0.8,0.6,1.3c0.1,0.5,0.1,1,0.1,1.5c0,0.4-0.1,0.9-0.2,1.5L167.2,248.3L167.2,248.3z
	 M170.9,247.5c0.1-0.6,0-1-0.1-1.4c-0.2-0.4-0.6-0.7-1.2-0.8c-0.4-0.1-0.7,0-1,0.1c-0.3,0.1-0.5,0.3-0.7,0.6
	c-0.1,0.2-0.3,0.5-0.4,0.8L170.9,247.5z"/>
<path class="st1" d="M180.8,254.4l-2.2-0.4l0.9-5c0.1-0.6,0.1-1-0.1-1.3c-0.2-0.3-0.5-0.5-1-0.6c-0.6-0.1-1,0-1.4,0.3
	c-0.4,0.3-0.6,0.8-0.7,1.5l-0.8,4.5l-2.2-0.4l1.5-8.3l2.1,0.4l-0.2,1.2c0.4-0.4,0.8-0.7,1.2-0.9c0.4-0.2,1-0.2,1.6-0.1
	c0.9,0.2,1.5,0.5,1.9,1.1c0.4,0.6,0.5,1.4,0.4,2.3L180.8,254.4z"/>
<path class="st1" d="M190,244.6l2.2,0.4l-2.1,11.2l-2.1-0.4l0.2-1.2c-0.7,0.8-1.6,1.1-2.7,1c-0.6-0.1-1.2-0.4-1.7-0.8
	c-0.5-0.4-0.8-1-1-1.7c-0.2-0.7-0.2-1.5,0-2.4c0.2-0.9,0.5-1.7,0.9-2.3c0.4-0.6,1-1.1,1.6-1.3c0.6-0.2,1.2-0.3,1.9-0.2
	c1,0.2,1.7,0.8,2.1,1.7L190,244.6L190,244.6z M186.5,253.8c0.5,0.1,1,0,1.4-0.4c0.4-0.3,0.7-0.9,0.9-1.8c0.2-0.9,0.1-1.5-0.2-2
	c-0.3-0.5-0.7-0.8-1.2-0.9c-0.3-0.1-0.7,0-1,0.1c-0.3,0.1-0.6,0.4-0.8,0.8c-0.2,0.4-0.4,0.8-0.5,1.4c-0.2,0.8-0.1,1.5,0.2,2
	C185.5,253.4,185.9,253.7,186.5,253.8z"/>
<path class="st1" d="M198.5,253.4c-0.1,0.6-0.2,1-0.2,1.2c0,0.4,0,0.6,0.1,0.8c0.1,0.2,0.2,0.4,0.4,0.5c0.2,0.1,0.4,0.2,0.7,0.3
	c0.5,0.1,0.9,0,1.1-0.3c0.2-0.2,0.3-0.6,0.5-1.2l1.4-7.8l2.3,0.4l-1.5,8.1c-0.1,0.8-0.4,1.4-0.8,1.8c-0.4,0.4-0.9,0.7-1.5,0.9
	c-0.6,0.1-1.2,0.2-1.8,0c-0.7-0.1-1.2-0.3-1.6-0.6c-0.4-0.3-0.8-0.6-1-1c-0.2-0.4-0.3-0.9-0.4-1.4c0-0.5,0-1.2,0.2-2.1L198.5,253.4z
	"/>
<path class="st1" d="M204.3,254.5c0.2-0.8,0.5-1.6,1-2.2c0.5-0.6,1.1-1.1,1.8-1.3c0.7-0.2,1.5-0.3,2.3-0.1c0.8,0.2,1.5,0.5,2.1,1
	c0.6,0.5,1,1.1,1.2,1.9c0.2,0.7,0.2,1.5,0.1,2.3c-0.2,0.8-0.5,1.6-1,2.2c-0.5,0.6-1.1,1.1-1.8,1.3c-0.7,0.2-1.5,0.3-2.3,0.1
	c-0.8-0.1-1.5-0.5-2.1-0.9c-0.6-0.5-1-1.1-1.2-1.8C204.2,256.1,204.2,255.3,204.3,254.5L204.3,254.5z M206.6,254.9
	c-0.1,0.7-0.1,1.4,0.2,1.9c0.2,0.5,0.7,0.9,1.4,1c0.6,0.1,1.1,0,1.5-0.3c0.4-0.3,0.7-1,0.9-1.9c0.1-0.7,0.1-1.4-0.1-1.9
	c-0.2-0.5-0.7-0.8-1.4-1c-0.7-0.1-1.2,0-1.7,0.4C207,253.6,206.7,254.2,206.6,254.9z"/>
<path class="st1" d="M220.8,261.8l-2.2-0.4l0.9-5c0.1-0.6,0.1-1-0.1-1.3c-0.2-0.3-0.5-0.5-0.9-0.6c-0.4-0.1-0.7,0-1,0.1
	c-0.3,0.1-0.6,0.3-0.7,0.6c-0.2,0.3-0.3,0.7-0.4,1.2l-0.8,4.5l-2.2-0.4l2.1-11.2l2.2,0.4l-0.7,4c0.3-0.4,0.7-0.6,1.2-0.8
	c0.5-0.2,1-0.2,1.5-0.1c0.5,0.1,0.9,0.2,1.2,0.5c0.4,0.2,0.6,0.5,0.8,0.8c0.2,0.3,0.3,0.6,0.4,1c0.1,0.3,0,0.8-0.1,1.5L220.8,261.8z
	"/>
<path class="st1" d="M230,263.5l-2.2-0.4l0.9-5c0.1-0.6,0.1-1-0.1-1.3c-0.2-0.3-0.5-0.5-1-0.6c-0.6-0.1-1,0-1.4,0.3
	c-0.4,0.3-0.6,0.8-0.7,1.5l-0.8,4.5l-2.2-0.4l1.5-8.3l2.1,0.4l-0.2,1.2c0.4-0.4,0.8-0.7,1.2-0.9c0.4-0.2,1-0.2,1.6-0.1
	c0.9,0.2,1.5,0.5,1.9,1.1c0.4,0.6,0.5,1.4,0.4,2.3L230,263.5z"/>
<path class="st1" d="M82.6,247l-4.4,7.6l-0.8,1.3c-0.3,0.5-0.5,0.8-0.7,1c-0.2,0.2-0.4,0.4-0.6,0.5c-0.2,0.1-0.4,0.2-0.7,0.2
	c-0.3,0-0.6,0-1-0.1c-0.4-0.1-0.7-0.2-1-0.3l0.3-1.7l0.1,0c0.2,0.1,0.4,0.1,0.6,0.1c0.3,0.1,0.6,0,0.9-0.2c0.3-0.2,0.4-0.4,0.5-0.7
	l-1.4-9.3l2.4,0.4l0.6,6.4l0,0l2.8-5.8L82.6,247z"/>
<path class="st1" d="M81.7,251.1c0.2-0.8,0.5-1.6,1-2.2c0.5-0.6,1.1-1.1,1.8-1.3c0.7-0.2,1.5-0.3,2.3-0.1c0.8,0.2,1.5,0.5,2.1,1
	c0.6,0.5,1,1.1,1.2,1.9c0.2,0.7,0.2,1.5,0.1,2.3c-0.2,0.8-0.5,1.6-1,2.2c-0.5,0.6-1.1,1.1-1.8,1.3c-0.7,0.2-1.5,0.3-2.3,0.1
	c-0.8-0.1-1.5-0.5-2.1-0.9c-0.6-0.5-1-1.1-1.2-1.8C81.6,252.7,81.6,251.9,81.7,251.1L81.7,251.1z M83.9,251.5
	c-0.1,0.7-0.1,1.4,0.2,1.9c0.2,0.5,0.7,0.9,1.4,1c0.6,0.1,1.1,0,1.5-0.3c0.4-0.3,0.7-1,0.9-1.9c0.1-0.7,0.1-1.4-0.1-1.9
	c-0.2-0.5-0.7-0.8-1.4-1c-0.7-0.1-1.2,0-1.7,0.4C84.4,250.2,84.1,250.8,83.9,251.5z"/>
<path class="st1" d="M92.2,248.8l2.2,0.4l-0.9,5c-0.1,0.5-0.1,0.9,0,1.2c0.2,0.4,0.5,0.6,1,0.7c0.4,0.1,0.7,0,1-0.1
	c0.3-0.1,0.5-0.3,0.7-0.6c0.2-0.3,0.3-0.7,0.4-1.2l0.8-4.5l2.2,0.4l-1.5,8.3L96,258l0.2-1.2c-0.3,0.4-0.7,0.7-1.1,0.8
	c-0.5,0.2-1.1,0.2-1.7,0.1c-0.4-0.1-0.8-0.2-1.1-0.4c-0.3-0.2-0.6-0.4-0.7-0.7c-0.2-0.2-0.3-0.5-0.4-0.8c-0.1-0.3-0.1-0.6-0.1-1
	c0-0.3,0.1-0.7,0.2-1.2L92.2,248.8z"/>
<path class="st1" d="M106.3,251.2l-0.4,2.2c-0.2-0.1-0.4-0.1-0.5-0.1c-0.6-0.1-1-0.1-1.4,0.1c-0.4,0.1-0.6,0.3-0.8,0.6
	c-0.2,0.3-0.3,0.7-0.4,1.3l-0.7,4l-2.2-0.4l1.5-8.3l2.1,0.4l-0.3,1.4c0.2-0.3,0.4-0.5,0.7-0.7c0.3-0.2,0.6-0.4,0.9-0.5
	c0.3-0.1,0.7-0.1,1,0C106,251.1,106.1,251.1,106.3,251.2z"/>
<path class="st1" d="M115.9,256.2c0-0.5-0.1-0.8-0.3-1.1c-0.2-0.3-0.5-0.4-0.9-0.5c-0.5-0.1-1,0-1.3,0.3c-0.4,0.4-0.7,1-0.9,2
	c-0.2,0.9-0.1,1.6,0.1,2c0.2,0.4,0.6,0.7,1.1,0.8c0.4,0.1,0.8,0,1.1-0.2c0.3-0.2,0.5-0.5,0.6-1l2.2,0.4c-0.2,0.7-0.5,1.2-1,1.7
	c-0.4,0.4-0.9,0.7-1.5,0.9c-0.6,0.1-1.2,0.2-1.9,0c-0.8-0.2-1.5-0.5-2-0.9c-0.5-0.5-0.9-1.1-1-1.8c-0.2-0.7-0.2-1.5,0-2.2
	c0.2-0.9,0.5-1.7,0.9-2.4c0.4-0.6,1-1.1,1.7-1.3c0.7-0.2,1.4-0.3,2.1-0.1c0.5,0.1,0.9,0.2,1.3,0.4c0.4,0.2,0.7,0.4,0.9,0.7
	c0.2,0.2,0.4,0.5,0.6,0.8c0.1,0.3,0.2,0.6,0.3,0.9c0,0.3,0,0.6,0,1.1L115.9,256.2z"/>
<path class="st1" d="M118.7,257.9c0.2-0.8,0.5-1.6,1-2.2c0.5-0.6,1.1-1.1,1.8-1.3c0.7-0.2,1.5-0.3,2.3-0.1c0.8,0.2,1.5,0.5,2.1,1
	c0.6,0.5,1,1.1,1.2,1.9c0.2,0.8,0.2,1.5,0.1,2.3c-0.2,0.8-0.5,1.6-1,2.2c-0.5,0.6-1.1,1.1-1.8,1.3c-0.7,0.2-1.5,0.3-2.3,0.1
	c-0.8-0.1-1.5-0.5-2.1-0.9c-0.6-0.5-1-1.1-1.2-1.8C118.6,259.6,118.6,258.8,118.7,257.9L118.7,257.9z M121,258.4
	c-0.1,0.7-0.1,1.4,0.2,1.9c0.2,0.5,0.7,0.9,1.4,1c0.6,0.1,1.1,0,1.5-0.3c0.4-0.3,0.7-1,0.9-1.9c0.1-0.7,0.1-1.4-0.1-1.9
	c-0.2-0.5-0.7-0.8-1.4-1c-0.7-0.1-1.2,0-1.7,0.4C121.4,257,121.1,257.6,121,258.4z"/>
<path class="st1" d="M135.2,265.3l-2.2-0.4l0.9-5c0.1-0.6,0.1-1-0.1-1.3c-0.2-0.3-0.5-0.5-1-0.6c-0.6-0.1-1,0-1.4,0.3
	c-0.4,0.3-0.6,0.8-0.7,1.5l-0.8,4.5l-2.2-0.4l1.5-8.3l2.1,0.4l-0.2,1.2c0.4-0.4,0.8-0.7,1.2-0.9c0.4-0.2,1-0.2,1.6-0.1
	c0.9,0.2,1.5,0.5,1.9,1.1c0.4,0.6,0.5,1.4,0.4,2.3L135.2,265.3z"/>
<path class="st1" d="M138.5,258.9l-1.2-0.2l0.3-1.5l1.2,0.2l0.4-2.2l2.2,0.4l-0.4,2.2l1.3,0.2l-0.3,1.5l-1.3-0.2l-0.8,4.4
	c0,0.3-0.1,0.4,0,0.5c0,0.1,0.1,0.2,0.2,0.2c0.1,0.1,0.3,0.1,0.6,0.2c0.1,0,0.3,0,0.4,0.1l-0.3,1.6c-0.5-0.1-0.8-0.1-1-0.1
	c-0.7-0.1-1.2-0.3-1.5-0.5c-0.3-0.2-0.5-0.4-0.6-0.7c-0.1-0.3-0.1-0.6,0-1L138.5,258.9z"/>
<path class="st1" d="M144.7,261.2l-2.1-0.4c0.2-0.8,0.7-1.5,1.4-1.9c0.7-0.4,1.7-0.5,3-0.3c0.5,0.1,1,0.3,1.5,0.4
	c0.4,0.2,0.7,0.4,0.9,0.6c0.2,0.2,0.3,0.5,0.4,0.8c0.1,0.4,0.1,0.9,0,1.4l-0.8,4.2c-0.1,0.5-0.1,0.8-0.1,1c0.1,0.2,0.2,0.3,0.3,0.4
	l-0.1,0.3l-2.4-0.4c-0.1-0.3-0.1-0.7,0-1c-0.5,0.4-1,0.6-1.4,0.7c-0.4,0.1-0.9,0.1-1.4,0c-0.5-0.1-1-0.3-1.4-0.6
	c-0.4-0.3-0.6-0.6-0.7-1.1c-0.1-0.4-0.1-0.9-0.1-1.3c0.1-0.7,0.4-1.2,0.9-1.6c0.4-0.4,1.2-0.6,2.2-0.5l1.9,0.1c0.3,0,0.5,0,0.6-0.1
	c0.1-0.1,0.2-0.2,0.2-0.4c0.1-0.3,0-0.5-0.2-0.8c-0.2-0.2-0.5-0.3-1-0.4c-0.5-0.1-0.8-0.1-1.1,0.1
	C145.1,260.5,144.9,260.8,144.7,261.2L144.7,261.2z M147.2,263.3c-0.2,0.1-0.4,0.1-0.6,0.1c-0.2,0-0.4,0-0.7,0c-0.6,0-0.9,0-1.1,0
	c-0.3,0.1-0.5,0.2-0.6,0.3c-0.1,0.1-0.2,0.3-0.3,0.6c-0.1,0.3,0,0.6,0.2,0.9c0.2,0.2,0.4,0.4,0.7,0.4c0.5,0.1,0.9,0,1.4-0.2
	c0.5-0.2,0.7-0.7,0.9-1.4L147.2,263.3z"/>
<path class="st1" d="M156.1,263.6c0-0.5-0.1-0.8-0.3-1.1c-0.2-0.3-0.5-0.4-0.9-0.5c-0.5-0.1-1,0-1.3,0.3c-0.4,0.4-0.7,1-0.9,2
	c-0.2,0.9-0.1,1.6,0.1,2c0.2,0.4,0.6,0.7,1.1,0.8c0.4,0.1,0.8,0,1.1-0.2c0.3-0.2,0.5-0.5,0.6-1l2.2,0.4c-0.2,0.7-0.5,1.2-1,1.7
	c-0.4,0.4-0.9,0.7-1.5,0.9c-0.6,0.1-1.2,0.2-1.9,0c-0.8-0.2-1.5-0.5-2-0.9c-0.5-0.5-0.9-1.1-1-1.8c-0.2-0.7-0.2-1.5,0-2.2
	c0.2-0.9,0.5-1.7,0.9-2.4c0.4-0.6,1-1.1,1.7-1.3c0.7-0.2,1.4-0.3,2.1-0.1c0.5,0.1,0.9,0.2,1.3,0.4c0.4,0.2,0.7,0.4,0.9,0.7
	c0.2,0.2,0.4,0.5,0.6,0.8c0.1,0.3,0.2,0.6,0.3,0.9c0,0.3,0,0.6,0,1.1L156.1,263.6z"/>
<path class="st1" d="M160.2,263l-1.2-0.2l0.3-1.5l1.2,0.2l0.4-2.2l2.2,0.4l-0.4,2.2l1.3,0.2l-0.3,1.5l-1.3-0.2l-0.8,4.4
	c0,0.3-0.1,0.4,0,0.5c0,0.1,0.1,0.2,0.2,0.2c0.1,0.1,0.3,0.1,0.6,0.2c0.1,0,0.3,0,0.4,0.1l-0.3,1.6c-0.5-0.1-0.8-0.1-1-0.1
	c-0.7-0.1-1.2-0.3-1.5-0.5c-0.3-0.2-0.5-0.4-0.6-0.7c-0.1-0.3-0.1-0.6,0-1L160.2,263z"/>
<path class="st1" d="M169.7,262.1l0.4-2l2.2,0.4l-0.4,2L169.7,262.1L169.7,262.1z M168,271.4l1.5-8.3l2.2,0.4l-1.5,8.3L168,271.4z"
	/>
<path class="st1" d="M179.5,273.5l-2.2-0.4l0.9-5c0.1-0.6,0.1-1-0.1-1.3c-0.2-0.3-0.5-0.5-1-0.6c-0.6-0.1-1,0-1.4,0.3
	c-0.4,0.3-0.6,0.8-0.7,1.5l-0.8,4.5l-2.2-0.4l1.5-8.3l2.1,0.4l-0.2,1.2c0.4-0.4,0.8-0.7,1.2-0.9c0.4-0.2,1-0.2,1.6-0.1
	c0.9,0.2,1.5,0.5,1.9,1.1c0.4,0.6,0.5,1.4,0.4,2.3L179.5,273.5z"/>
<path class="st1" d="M187.2,263.3l-0.3,1.8c-0.2,0-0.3-0.1-0.5-0.1c-0.3-0.1-0.5-0.1-0.6,0c-0.1,0-0.2,0.1-0.3,0.2
	c-0.1,0.1-0.1,0.3-0.2,0.7c0,0.1,0,0.2,0,0.3l1.4,0.3l-0.3,1.5l-1.4-0.3l-1.2,6.7l-2.2-0.4l1.2-6.7l-1.2-0.2l0.3-1.5l1.2,0.2
	c0.1-0.7,0.3-1.2,0.4-1.5c0.1-0.3,0.3-0.5,0.5-0.7c0.2-0.2,0.5-0.3,0.9-0.4c0.4-0.1,0.8,0,1.5,0.1
	C186.6,263.1,186.9,263.2,187.2,263.3z"/>
<path class="st1" d="M186.2,270.5c0.2-0.8,0.5-1.6,1-2.2c0.5-0.6,1.1-1.1,1.8-1.3c0.7-0.2,1.5-0.3,2.3-0.1c0.8,0.2,1.5,0.5,2.1,1
	c0.6,0.5,1,1.1,1.2,1.9c0.2,0.7,0.2,1.5,0.1,2.3c-0.2,0.8-0.5,1.6-1,2.2c-0.5,0.6-1.1,1.1-1.8,1.3c-0.7,0.2-1.5,0.3-2.3,0.1
	c-0.8-0.1-1.5-0.5-2.1-0.9c-0.6-0.5-1-1.1-1.2-1.8S186.1,271.3,186.2,270.5L186.2,270.5z M188.5,270.9c-0.1,0.7-0.1,1.4,0.2,1.9
	c0.2,0.5,0.7,0.9,1.4,1c0.6,0.1,1.1,0,1.5-0.3c0.4-0.3,0.7-1,0.9-1.9c0.1-0.7,0.1-1.4-0.1-1.9c-0.2-0.5-0.7-0.8-1.4-1
	c-0.7-0.1-1.2,0-1.7,0.4C188.9,269.6,188.6,270.1,188.5,270.9z"/>
<path class="st1" d="M68.9,280.1l5.5,1c0.9,0.2,1.5,0.4,2,0.7c0.4,0.3,0.8,0.8,1,1.3c0.2,0.6,0.3,1.1,0.1,1.7
	c-0.1,0.7-0.4,1.2-0.8,1.6c-0.4,0.4-0.9,0.7-1.4,0.8c0.5,0.3,0.8,0.7,1,1.2c0.1,0.3,0.1,0.9-0.1,1.7l-0.1,0.8
	c-0.1,0.6-0.2,1.1-0.1,1.3c0,0.2,0.1,0.3,0.3,0.4l-0.1,0.3l-2.6-0.5c-0.1-0.5-0.1-1.1,0-1.6l0.2-1c0.1-0.5,0.1-0.9,0-1.2
	c-0.1-0.3-0.2-0.5-0.4-0.6c-0.2-0.1-0.6-0.3-1.1-0.4l-2.4-0.4l-0.8,4.4l-2.3-0.4L68.9,280.1L68.9,280.1z M70.8,282.4l-0.6,3l2.6,0.5
	c0.6,0.1,1.1,0.1,1.3,0c0.5-0.2,0.7-0.6,0.8-1.1c0.1-0.6,0-1-0.3-1.3c-0.2-0.2-0.6-0.4-1.2-0.5L70.8,282.4z"/>
<path class="st1" d="M79.7,290c-0.1,0.6,0,1.1,0.3,1.6c0.3,0.4,0.7,0.7,1.2,0.8c0.4,0.1,0.7,0,1-0.1c0.3-0.1,0.5-0.3,0.7-0.6
	l2.2,0.4c-0.2,0.5-0.5,0.9-0.9,1.3c-0.4,0.3-0.9,0.6-1.5,0.7c-0.6,0.1-1.3,0.1-1.9,0c-0.8-0.1-1.4-0.4-1.9-0.9
	c-0.5-0.4-0.9-1-1.1-1.8c-0.2-0.8-0.2-1.6-0.1-2.5c0.2-1.2,0.7-2.1,1.4-2.8c0.8-0.8,1.9-1.1,3.3-0.8c0.6,0.1,1.1,0.3,1.5,0.5
	c0.4,0.2,0.8,0.5,1.1,0.9c0.3,0.4,0.5,0.8,0.6,1.3c0.1,0.5,0.1,1,0.1,1.5c0,0.4-0.1,0.9-0.2,1.5L79.7,290L79.7,290z M83.4,289.2
	c0.1-0.6,0-1-0.1-1.4c-0.2-0.4-0.6-0.7-1.2-0.8c-0.4-0.1-0.7,0-1,0.1c-0.3,0.1-0.5,0.3-0.7,0.6c-0.1,0.2-0.3,0.5-0.4,0.8L83.4,289.2
	z"/>
<path class="st1" d="M85.2,298l2.1-11.5l2.1,0.4l-0.2,1.2l0,0c0.2-0.3,0.5-0.5,0.7-0.7c0.2-0.2,0.5-0.3,0.8-0.3
	c0.3-0.1,0.7-0.1,1.1,0c0.6,0.1,1.2,0.3,1.6,0.7c0.4,0.3,0.7,0.7,0.9,1.1c0.2,0.4,0.3,0.8,0.4,1.4c0.1,0.6,0,1.2-0.1,1.8
	c-0.2,0.8-0.4,1.6-0.8,2.2c-0.4,0.7-0.9,1.1-1.5,1.4c-0.6,0.3-1.3,0.3-2.1,0.2c-0.6-0.1-1-0.3-1.3-0.6c-0.3-0.3-0.6-0.7-0.7-1.1l0,0
	l-0.8,4.2L85.2,298L85.2,298z M91,288.8c-0.6-0.1-1.1,0-1.5,0.5c-0.4,0.4-0.7,1-0.8,1.7c-0.2,0.9-0.1,1.5,0.2,2
	c0.3,0.5,0.7,0.8,1.2,0.9c0.5,0.1,1,0,1.4-0.4c0.4-0.3,0.7-1,0.9-1.8c0.1-0.7,0.1-1.4-0.1-1.9C92,289.2,91.6,288.9,91,288.8z"/>
<rect x="91.6" y="290" transform="matrix(0.1822 -0.9833 0.9833 0.1822 -206.6376 333.744)" class="st1" width="11.4" height="2.2"/>
<path class="st1" d="M108.1,290.3l-4.4,7.6l-0.8,1.3c-0.3,0.5-0.5,0.8-0.7,1c-0.2,0.2-0.4,0.4-0.6,0.5c-0.2,0.1-0.4,0.2-0.7,0.2
	c-0.3,0-0.6,0-1-0.1c-0.4-0.1-0.7-0.2-1-0.3l0.3-1.7l0.1,0c0.2,0.1,0.4,0.1,0.6,0.1c0.3,0.1,0.6,0,0.9-0.2c0.3-0.2,0.4-0.4,0.5-0.7
	l-1.4-9.3l2.4,0.4l0.6,6.4l0,0l2.8-5.8L108.1,290.3z"/>
<path class="st1" d="M114.2,288.4l2.1,0.4l-1.2,4.6l-1.4-0.3L114.2,288.4L114.2,288.4z M117.1,289l2.1,0.4l-1.2,4.6l-1.4-0.3
	L117.1,289z"/>
<polygon class="st1" points="120.3,289.6 123.1,290.1 124.5,295.4 127.6,291 130.2,291.4 125.2,297.7 124.4,301.9 122.1,301.5 
	122.9,297.3 "/>
<path class="st1" d="M128.9,299.2c-0.1,0.6,0,1.1,0.3,1.6c0.3,0.4,0.7,0.7,1.2,0.8c0.4,0.1,0.7,0,1-0.1c0.3-0.1,0.5-0.3,0.7-0.6
	l2.2,0.4c-0.2,0.5-0.5,0.9-0.9,1.3c-0.4,0.3-0.9,0.6-1.5,0.7c-0.6,0.1-1.3,0.1-1.9,0c-0.8-0.1-1.4-0.4-1.9-0.9
	c-0.5-0.4-0.9-1-1.1-1.8c-0.2-0.8-0.2-1.6-0.1-2.5c0.2-1.2,0.7-2.1,1.4-2.8c0.8-0.8,1.9-1.1,3.3-0.8c0.6,0.1,1.1,0.3,1.5,0.5
	c0.4,0.2,0.8,0.5,1.1,0.9c0.3,0.4,0.5,0.8,0.6,1.3c0.1,0.5,0.1,1,0.1,1.5c0,0.4-0.1,0.9-0.2,1.5L128.9,299.2L128.9,299.2z
	 M132.6,298.4c0.1-0.6,0-1-0.1-1.4c-0.2-0.4-0.6-0.7-1.2-0.8c-0.4-0.1-0.7,0-1,0.1c-0.3,0.1-0.5,0.3-0.7,0.6
	c-0.1,0.2-0.3,0.5-0.4,0.8L132.6,298.4z"/>
<path class="st1" d="M140.9,299c0-0.3,0-0.5-0.1-0.6c-0.1-0.2-0.2-0.3-0.4-0.5c-0.2-0.1-0.5-0.2-0.8-0.3c-0.5-0.1-0.9-0.1-1.1,0
	c-0.2,0.1-0.4,0.3-0.4,0.5c0,0.1,0,0.2,0,0.3c0,0.1,0.1,0.2,0.2,0.3c0.1,0.1,0.3,0.2,0.7,0.4l1.4,0.7c0.5,0.2,0.8,0.4,0.9,0.4
	c0.3,0.2,0.5,0.3,0.7,0.5c0.2,0.2,0.3,0.4,0.4,0.6c0.1,0.2,0.2,0.4,0.2,0.6c0,0.2,0,0.5,0,0.7c-0.1,0.5-0.2,0.8-0.5,1.2
	c-0.2,0.3-0.5,0.6-0.9,0.8s-0.8,0.3-1.3,0.3c-0.5,0-1,0-1.7-0.1c-0.6-0.1-1.2-0.3-1.6-0.5c-0.5-0.2-0.8-0.5-1-0.8
	c-0.2-0.3-0.4-0.6-0.5-1c-0.1-0.3-0.1-0.8-0.1-1.3l2.2,0.4c0,0.3,0,0.5,0,0.7c0.1,0.2,0.2,0.4,0.5,0.6c0.2,0.2,0.5,0.3,0.9,0.3
	c0.6,0.1,1,0.1,1.3-0.1c0.2-0.1,0.3-0.3,0.4-0.5c0-0.2,0-0.3-0.1-0.5c-0.1-0.2-0.4-0.3-1-0.6c-1.2-0.5-1.9-0.9-2.3-1.1
	c-0.5-0.3-0.8-0.6-1-1c-0.2-0.4-0.2-0.8-0.1-1.3c0.1-0.5,0.3-0.9,0.7-1.3c0.3-0.4,0.8-0.6,1.4-0.8c0.6-0.1,1.2-0.1,2,0
	c0.4,0.1,0.9,0.2,1.2,0.4c0.4,0.2,0.7,0.4,0.9,0.6c0.2,0.2,0.4,0.5,0.6,0.7c0.1,0.3,0.2,0.5,0.3,0.8c0,0.2,0,0.6,0,1L140.9,299z"/>
<path class="st1" d="M145.8,294.3l2.1,0.4l-1.2,4.6l-1.4-0.3L145.8,294.3L145.8,294.3z M148.7,294.8l2.1,0.4l-1.2,4.6l-1.4-0.3
	L148.7,294.8z"/>
<path class="st1" d="M155.3,303.3c0.2-0.8,0.5-1.6,1-2.2s1.1-1.1,1.8-1.3c0.7-0.2,1.5-0.3,2.3-0.1c0.8,0.2,1.5,0.5,2.1,1
	c0.6,0.5,1,1.1,1.2,1.9c0.2,0.8,0.2,1.5,0.1,2.3c-0.2,0.8-0.5,1.6-1,2.2c-0.5,0.6-1.1,1.1-1.8,1.3c-0.7,0.2-1.5,0.3-2.3,0.1
	c-0.8-0.1-1.5-0.5-2.1-0.9c-0.6-0.5-1-1.1-1.2-1.8C155.1,305,155.1,304.2,155.3,303.3L155.3,303.3z M157.5,303.8
	c-0.1,0.7-0.1,1.4,0.2,1.9c0.2,0.5,0.7,0.9,1.4,1c0.6,0.1,1.1,0,1.5-0.3c0.4-0.3,0.7-1,0.9-1.9c0.1-0.7,0.1-1.4-0.1-1.9
	c-0.2-0.5-0.7-0.8-1.4-1c-0.7-0.1-1.2,0-1.7,0.4C157.9,302.4,157.6,303,157.5,303.8z"/>
<path class="st1" d="M170.6,301.7l-0.4,2.2c-0.2-0.1-0.4-0.1-0.5-0.1c-0.6-0.1-1-0.1-1.4,0.1c-0.4,0.1-0.6,0.3-0.8,0.6
	c-0.2,0.3-0.3,0.7-0.4,1.3l-0.7,4l-2.2-0.4l1.5-8.3l2.1,0.4l-0.3,1.4c0.2-0.3,0.4-0.5,0.7-0.7c0.3-0.2,0.6-0.4,0.9-0.5
	c0.3-0.1,0.7-0.1,1,0C170.3,301.6,170.4,301.6,170.6,301.7z"/>
<path class="st1" d="M176.6,300l2.1,0.4l-1.2,4.6l-1.4-0.3L176.6,300L176.6,300z M179.5,300.5l2.1,0.4l-1.2,4.6l-1.4-0.3
	L179.5,300.5z"/>
<polygon class="st1" points="181.5,312.5 183.6,301.3 186.1,301.8 189.1,310.4 190.5,302.6 192.7,303 190.6,314.2 188.3,313.7 
	185.2,304.9 183.7,312.9 "/>
<path class="st1" d="M192.7,310.3c0.2-0.8,0.5-1.6,1-2.2c0.5-0.6,1.1-1.1,1.8-1.3c0.7-0.2,1.5-0.3,2.3-0.1c0.8,0.2,1.5,0.5,2.1,1
	c0.6,0.5,1,1.1,1.2,1.9c0.2,0.8,0.2,1.5,0.1,2.3c-0.2,0.8-0.5,1.6-1,2.2c-0.5,0.6-1.1,1.1-1.8,1.3c-0.7,0.2-1.5,0.3-2.3,0.1
	c-0.8-0.1-1.5-0.5-2.1-0.9c-0.6-0.5-1-1.1-1.2-1.8C192.6,311.9,192.6,311.1,192.7,310.3L192.7,310.3z M195,310.7
	c-0.1,0.7-0.1,1.4,0.2,1.9c0.2,0.5,0.7,0.9,1.4,1c0.6,0.1,1.1,0,1.5-0.3c0.4-0.3,0.7-1,0.9-1.9c0.1-0.7,0.1-1.4-0.1-1.9
	c-0.2-0.5-0.7-0.8-1.4-1c-0.7-0.1-1.2,0-1.7,0.4C195.4,309.4,195.1,310,195,310.7z"/>
<path class="st1" d="M204,305.1l2.1,0.4l-1.2,4.6l-1.4-0.3L204,305.1L204,305.1z M206.9,305.6l2.1,0.4l-1.2,4.6l-1.4-0.3
	L206.9,305.6z"/>
</svg>
