<?xml version="1.0" standalone="no"?>
<!DOCTYPE svg PUBLIC "-//W3C//DTD SVG 20010904//EN"
 "http://www.w3.org/TR/2001/REC-SVG-20010904/DTD/svg10.dtd">
<svg version="1.0" xmlns="http://www.w3.org/2000/svg"
 width="242.000000pt" height="242.000000pt" viewBox="0 0 242.000000 242.000000"
 preserveAspectRatio="xMidYMid meet">
<metadata>
Created by potrace 1.11, written by Peter Selinger 2001-2013
</metadata>
<g transform="translate(0.000000,242.000000) scale(0.100000,-0.100000)"
fill="#000000" stroke="none">
<path d="M1790 2167 c-3 -3 -41 -8 -84 -12 -44 -3 -82 -8 -85 -9 -3 -2 -43 -7
-88 -10 -45 -4 -90 -8 -100 -10 -10 -2 -49 -7 -88 -11 -38 -4 -83 -9 -100 -10
-16 -2 -57 -6 -90 -10 -33 -3 -76 -8 -95 -10 -73 -9 -119 -15 -265 -30 -82 -9
-161 -18 -175 -20 -39 -5 -139 -16 -198 -20 -121 -9 -274 -119 -306 -220 -6
-19 -2 -21 46 -20 50 1 56 3 106 53 68 69 114 88 232 96 52 3 104 8 115 10 11
2 52 7 90 10 39 4 80 8 90 10 19 3 113 14 195 21 51 5 140 15 180 20 19 3 58
7 85 10 28 3 66 7 85 10 19 2 62 7 95 10 54 5 82 8 180 20 219 27 285 27 322
-1 72 -54 79 -106 77 -564 0 -303 -2 -328 -21 -370 -25 -58 -88 -121 -148
-150 -46 -22 -53 -23 -414 -23 l-366 0 -293 -149 c-259 -133 -315 -157 -283
-122 10 10 141 258 141 266 0 3 -49 6 -109 6 -87 0 -117 4 -152 20 -44 20
-108 73 -125 104 -12 22 -103 31 -111 11 -3 -7 7 -32 22 -56 59 -88 170 -165
244 -170 23 -1 41 -5 41 -10 0 -4 -28 -62 -61 -130 -62 -123 -73 -167 -46
-194 32 -32 71 -17 407 154 l335 171 160 1 c88 1 185 4 215 6 30 2 132 6 225
8 169 4 170 4 235 37 36 19 75 45 88 59 30 35 69 117 82 177 12 50 15 700 5
779 -22 165 -96 247 -232 261 -32 3 -60 4 -63 1z"/>
<path d="M2166 1442 c0 -303 -4 -332 -58 -434 -58 -110 -162 -194 -288 -234
-14 -4 -187 -8 -385 -9 l-360 -1 -85 -43 c-47 -24 -132 -69 -190 -99 -58 -31
-125 -66 -150 -79 l-45 -23 100 5 c55 3 125 7 155 10 58 5 164 12 290 20 41 3
104 7 140 10 201 16 209 16 259 -9 26 -13 100 -63 164 -110 207 -151 306 -203
354 -185 55 20 47 67 -39 232 l-55 105 43 6 c119 16 247 130 290 259 15 44 18
94 19 317 2 286 -5 340 -50 415 -24 40 -67 91 -95 112 -13 10 -15 -21 -14
-265z"/>
<path d="M764 1690 c-77 -17 -130 -79 -125 -149 4 -69 33 -99 165 -165 45 -23
58 -53 30 -73 -29 -21 -67 -15 -109 16 l-39 29 -28 -36 c-16 -19 -27 -40 -25
-46 2 -6 23 -24 48 -41 39 -27 52 -30 121 -30 77 0 78 0 118 40 44 44 56 93
37 150 -15 45 -32 60 -119 105 -83 44 -98 60 -78 85 25 30 90 15 90 -21 0 -22
4 -24 50 -23 53 2 56 6 50 64 -6 67 -98 114 -186 95z"/>
<path d="M168 1682 l-38 -3 0 -195 c0 -185 -1 -194 -19 -194 -21 0 -29 -25
-22 -72 3 -27 6 -28 60 -28 85 0 85 1 91 143 l5 125 93 -134 93 -134 50 0 50
0 -1 108 c-3 267 -2 282 20 282 17 0 20 7 20 53 l0 53 -62 -4 c-44 -2 -67 -8
-75 -19 -9 -11 -13 -56 -13 -137 l0 -120 -92 136 c-51 75 -100 138 -108 140
-8 2 -32 2 -52 0z"/>
<path d="M1108 1640 l4 -50 62 0 63 0 0 -132 c1 -102 -3 -137 -14 -150 -27
-30 -73 -4 -73 43 0 24 -4 29 -25 30 -14 1 -37 1 -52 2 -35 1 -44 -25 -28 -88
14 -55 38 -79 95 -96 70 -21 160 15 189 76 21 42 23 368 3 396 -12 17 -26 19
-120 19 l-107 0 3 -50z"/>
<path d="M1453 1682 c-20 -3 -23 -9 -23 -53 0 -46 2 -49 25 -49 l25 0 0 -179
c0 -150 3 -181 16 -192 10 -8 46 -12 114 -11 109 1 163 20 193 65 33 51 27
129 -13 172 -19 21 -19 21 0 60 34 70 -1 151 -76 175 -31 10 -214 19 -261 12z
m228 -124 c18 -33 -10 -62 -59 -63 l-40 0 2 39 c2 34 6 41 27 46 33 9 58 1 70
-22z m14 -178 c21 -65 1 -90 -72 -90 l-42 0 2 53 1 52 40 5 c51 7 64 3 71 -20z"/>
</g>
</svg>
