<?xml version="1.0" standalone="no"?>
<!DOCTYPE svg PUBLIC "-//W3C//DTD SVG 20010904//EN"
 "http://www.w3.org/TR/2001/REC-SVG-20010904/DTD/svg10.dtd">
<svg version="1.0" xmlns="http://www.w3.org/2000/svg"
 width="242.000000pt" height="242.000000pt" viewBox="0 0 242.000000 242.000000"
 preserveAspectRatio="xMidYMid meet">
<metadata>
Created by potrace 1.11, written by Peter Selinger 2001-2013
</metadata>
<g transform="translate(0.000000,242.000000) scale(0.100000,-0.100000)"
fill="#000000" stroke="none">
<path d="M1690 2157 c0 -5 -12 -8 -27 -7 -16 1 -30 1 -33 0 -3 -1 -19 -3 -35
-4 -17 -1 -36 -5 -42 -9 -7 -4 -15 -3 -18 3 -5 8 -12 7 -23 -2 -13 -11 -14
-11 -7 2 7 12 6 13 -6 3 -8 -7 -44 -14 -79 -18 -36 -3 -87 -7 -115 -10 -27 -2
-60 -6 -72 -9 -14 -3 -23 0 -23 7 0 8 -3 7 -9 -2 -5 -8 -16 -11 -24 -8 -8 3
-20 0 -27 -6 -10 -9 -12 -9 -8 3 4 11 0 16 -13 16 -13 0 -15 -4 -8 -12 7 -9 0
-12 -27 -12 -30 0 -35 3 -31 19 3 10 1 17 -4 13 -5 -3 -9 -13 -9 -22 0 -11 -8
-18 -20 -19 -13 -1 -18 2 -13 10 4 7 0 6 -10 -2 -9 -7 -17 -10 -17 -5 0 5 -5
2 -10 -6 -8 -13 -10 -12 -10 3 0 9 -5 17 -11 17 -5 0 -8 -4 -4 -9 3 -5 1 -12
-5 -16 -5 -3 -10 -2 -10 3 0 6 -7 13 -16 16 -14 5 -15 4 -4 -9 11 -13 8 -15
-16 -16 -16 0 -37 -2 -47 -4 -9 -2 -15 1 -11 6 3 5 1 9 -5 9 -5 0 -12 -6 -14
-12 -8 -20 -27 11 -19 31 5 14 4 14 -10 1 -11 -11 -12 -17 -4 -22 8 -5 7 -11
-3 -20 -11 -11 -13 -11 -6 1 6 11 4 13 -8 8 -9 -3 -19 -2 -23 4 -3 6 -12 8
-19 5 -7 -2 -18 1 -24 7 -9 9 -11 8 -5 -6 4 -12 13 -16 25 -12 11 4 19 2 19
-3 0 -4 -12 -9 -27 -9 -16 0 -45 -3 -66 -7 -23 -3 -36 -2 -32 3 3 5 0 13 -6
17 -7 4 -9 3 -5 -4 8 -14 -11 -26 -49 -28 -22 -2 -26 0 -15 8 13 8 12 9 -1 5
-9 -3 -22 -1 -28 4 -8 6 -8 5 -1 -3 14 -17 12 -24 -7 -25 -10 0 -47 -4 -83 -7
-36 -4 -73 -8 -82 -9 -10 -1 -18 -4 -18 -8 0 -4 -15 -12 -32 -20 -36 -14 -91
-50 -96 -62 -2 -4 -9 -4 -14 -1 -6 4 -8 2 -4 -4 3 -6 -4 -18 -16 -26 -12 -9
-19 -16 -16 -16 4 0 -4 -16 -17 -36 -24 -35 -34 -70 -17 -61 4 3 16 1 27 -4
l20 -8 -20 0 c-17 -1 -17 -3 -5 -11 8 -5 10 -10 4 -10 -6 0 -11 -6 -12 -12 -1
-26 -12 -60 -21 -72 -6 -6 -13 -27 -16 -46 -7 -40 -8 -216 -1 -277 2 -24 0
-43 -5 -43 -4 0 -6 -7 -3 -15 4 -9 0 -15 -7 -15 -12 0 -12 -2 0 -9 8 -5 11
-16 8 -25 -3 -8 -1 -21 6 -28 7 -7 14 -24 16 -38 1 -14 8 -28 14 -32 5 -3 10
-21 9 -38 0 -19 10 -50 25 -74 35 -55 120 -134 160 -148 18 -7 33 -15 33 -19
0 -4 8 -6 17 -5 10 2 24 -3 31 -10 16 -16 25 -57 11 -49 -5 4 -7 10 -5 14 3 4
-4 12 -14 19 -14 9 -21 9 -26 0 -4 -7 -3 -8 4 -4 7 4 18 -6 27 -25 10 -19 12
-28 5 -24 -8 5 -11 3 -8 -6 3 -8 -12 -49 -33 -91 -40 -79 -49 -134 -27 -156
31 -31 78 -13 406 155 l327 168 210 2 c116 1 233 4 262 7 29 4 110 8 180 10
121 3 131 5 193 36 36 18 75 45 88 59 35 41 89 161 84 189 -2 6 1 12 6 12 5 0
6 14 4 31 -4 25 -2 30 9 24 11 -7 12 -6 2 6 -10 12 -10 18 0 29 6 7 8 10 2 7
-6 -3 -11 10 -11 29 -1 18 3 31 7 28 5 -3 9 0 9 5 0 6 -4 11 -8 11 -10 0 -9
36 1 46 3 4 2 15 -4 25 -6 12 -6 19 0 19 5 0 7 14 4 31 -3 21 -1 29 6 25 7 -4
8 -1 5 9 -5 11 -2 14 12 9 15 -5 16 -4 4 4 -9 7 -19 7 -25 2 -8 -7 -11 0 -10
23 1 17 6 32 12 32 6 0 15 4 20 9 4 5 3 6 -3 3 -7 -4 -17 0 -25 9 -10 12 -10
18 3 30 13 13 15 13 15 0 0 -8 -4 -13 -9 -10 -4 3 -8 0 -8 -5 0 -6 7 -11 15
-11 10 0 14 8 11 22 -1 13 4 28 12 34 13 9 13 12 1 19 -8 5 -11 5 -7 0 9 -10
-30 -40 -39 -31 -4 3 2 13 13 21 16 12 16 14 3 15 -12 0 -16 9 -15 33 1 34 15
58 29 50 5 -3 4 4 -2 16 -7 11 -17 21 -24 21 -7 0 -6 4 3 10 13 9 13 10 0 10
-13 0 -13 1 0 10 12 8 12 10 1 10 -11 0 -11 3 0 17 10 12 11 15 1 9 -9 -6 -12
1 -11 26 1 35 -6 71 -16 88 -3 6 0 10 7 10 9 0 10 3 2 8 -6 4 -16 23 -23 43
-16 49 -77 118 -120 137 -39 17 -251 25 -251 9z m412 -419 c-7 -7 -12 -8 -12
-2 0 6 3 14 7 17 3 4 9 5 12 2 2 -3 -1 -11 -7 -17z m-129 -663 c-3 -9 -8 -14
-10 -11 -3 3 -2 9 2 15 9 16 15 13 8 -4z m-1023 -189 c0 -3 -4 -8 -10 -11 -5
-3 -10 -1 -10 4 0 6 5 11 10 11 6 0 10 -2 10 -4z m-60 -32 c0 -8 -19 -13 -24
-6 -3 5 1 9 9 9 8 0 15 -2 15 -3z m-35 -13 c3 -5 0 -13 -6 -17 -7 -4 -9 -3 -5
4 3 5 0 13 -6 15 -9 4 -10 6 -1 6 6 1 14 -3 18 -8z m-30 -10 c3 -5 2 -12 -3
-15 -5 -3 -9 1 -9 9 0 17 3 19 12 6z m-34 -28 c-6 -10 -11 -14 -11 -10 0 4 -8
3 -19 -2 -22 -12 -32 -5 -24 16 5 12 7 12 15 1 8 -10 11 -10 15 0 2 6 9 10 14
6 5 -3 9 0 9 7 0 7 3 10 6 6 3 -3 1 -14 -5 -24z m-61 -35 c0 -5 -7 -8 -15 -4
-8 3 -15 1 -15 -5 0 -6 -5 -7 -11 -4 -6 5 -4 12 8 20 19 14 33 11 33 -7z m-50
-22 c0 -3 -4 -8 -10 -11 -5 -3 -10 -1 -10 4 0 6 5 11 10 11 6 0 10 -2 10 -4z
m-30 -10 c0 -2 -8 -10 -17 -17 -16 -13 -17 -12 -4 4 13 16 21 21 21 13z m-40
-20 c0 -2 -8 -10 -17 -17 -16 -13 -17 -12 -4 4 13 16 21 21 21 13z m-67 -36
c4 0 6 4 3 8 -3 5 1 9 9 9 22 0 7 -15 -35 -37 -31 -16 -38 -17 -34 -5 4 8 11
12 17 8 6 -4 8 0 4 9 -7 20 3 32 17 18 5 -5 14 -10 19 -10z"/>
<path d="M946 2122 c-3 -5 1 -9 9 -9 8 0 12 4 9 9 -3 4 -7 8 -9 8 -2 0 -6 -4
-9 -8z"/>
<path d="M726 2102 c-3 -5 1 -9 9 -9 8 0 12 4 9 9 -3 4 -7 8 -9 8 -2 0 -6 -4
-9 -8z"/>
<path d="M850 2100 c0 -5 5 -10 11 -10 5 0 7 5 4 10 -3 6 -8 10 -11 10 -2 0
-4 -4 -4 -10z"/>
<path d="M612 2086 c2 0 12 -9 23 -18 20 -16 21 -16 21 0 0 11 -9 18 -24 19
-13 0 -22 0 -20 -1z"/>
<path d="M476 2062 c-3 -5 1 -9 9 -9 8 0 12 4 9 9 -3 4 -7 8 -9 8 -2 0 -6 -4
-9 -8z"/>
<path d="M586 2057 c3 -10 9 -15 12 -12 3 3 0 11 -7 18 -10 9 -11 8 -5 -6z"/>
<path d="M2115 1880 c-3 -5 -1 -10 4 -10 6 0 11 5 11 10 0 6 -2 10 -4 10 -3 0
-8 -4 -11 -10z"/>
<path d="M2130 1761 c0 -6 4 -13 10 -16 6 -3 7 1 4 9 -7 18 -14 21 -14 7z"/>
<path d="M2115 1711 c-3 -5 -2 -12 3 -15 5 -3 9 1 9 9 0 17 -3 19 -12 6z"/>
<path d="M2168 1698 c4 -16 2 -19 -9 -13 -11 7 -12 6 -3 -6 18 -22 15 -81 -4
-96 -15 -12 -15 -12 -1 -7 14 4 17 -2 15 -33 0 -21 -5 -44 -10 -52 -6 -9 -5
-12 1 -8 12 7 11 -93 -1 -112 -6 -9 -5 -12 1 -8 12 7 11 -190 -1 -238 -32
-129 -129 -254 -241 -312 -90 -46 -103 -47 -480 -48 l-360 -1 -190 -99 c-104
-54 -210 -109 -235 -122 l-45 -23 105 6 c58 3 121 7 140 9 19 2 85 6 145 10
61 3 126 8 145 10 71 8 257 19 320 19 63 1 68 -1 150 -56 47 -31 126 -86 175
-122 205 -150 315 -178 315 -80 0 21 -23 79 -63 157 l-63 125 38 5 c137 18
280 163 306 310 9 48 7 549 -2 587 -12 49 -56 126 -99 173 -50 53 -58 57 -49
25z"/>
<path d="M2100 1681 c0 -5 7 -12 16 -15 14 -5 15 -4 4 9 -14 17 -20 19 -20 6z"/>
<path d="M2104 1521 c0 -15 4 -17 17 -11 9 5 19 6 23 3 3 -3 6 -1 6 6 0 7 -6
11 -14 8 -7 -3 -18 -1 -23 4 -5 5 -9 1 -9 -10z"/>
<path d="M2130 1456 c0 -8 4 -17 9 -20 5 -4 7 3 4 14 -6 23 -13 26 -13 6z"/>
<path d="M2126 1414 c13 -11 14 -14 3 -11 -9 3 -16 -1 -16 -8 0 -11 5 -11 19
-4 15 8 17 13 7 25 -6 8 -16 14 -22 14 -6 0 -2 -7 9 -16z"/>
<path d="M2106 1362 c-3 -5 1 -17 8 -27 12 -17 13 -17 11 3 -2 26 -11 37 -19
24z"/>
<path d="M356 742 c-3 -5 1 -9 9 -9 8 0 12 4 9 9 -3 4 -7 8 -9 8 -2 0 -6 -4
-9 -8z"/>
</g>
</svg>
